%FSLAX24Y24*%
%MOIN*%
G70*
G01*
G75*
%ADD10R,0.4200X0.1500*%
%ADD11R,0.1000X0.5500*%
%ADD12R,0.4200X0.4000*%
%ADD13R,0.0394X0.1181*%
%ADD14R,0.4000X0.1500*%
%ADD15R,0.2000X0.2000*%
%ADD16R,0.1000X0.2000*%
%ADD17R,0.0500X0.0250*%
%ADD18R,0.1600X0.5000*%
%ADD19R,0.0630X0.0709*%
%ADD20R,0.0709X0.0630*%
%ADD21R,0.0122X0.0709*%
%ADD22R,0.0709X0.0122*%
%ADD23O,0.0122X0.0709*%
%ADD24R,0.0728X0.0118*%
%ADD25R,0.0433X0.0394*%
%ADD26R,0.0394X0.0433*%
%ADD27R,0.0118X0.0728*%
%ADD28R,0.0709X0.0157*%
%ADD29R,0.0157X0.0709*%
%ADD30R,0.0827X0.1614*%
%ADD31O,0.0700X0.0300*%
%ADD32R,0.0700X0.0300*%
%ADD33R,0.0787X0.0551*%
%ADD34R,0.1024X0.0945*%
%ADD35R,0.1417X0.0315*%
%ADD36R,0.0315X0.1417*%
%ADD37C,0.0200*%
%ADD38C,0.0160*%
%ADD39C,0.0300*%
%ADD40C,0.0080*%
%ADD41C,0.0070*%
%ADD42C,0.0100*%
%ADD43C,0.0120*%
%ADD44C,0.0200*%
%ADD45R,0.0200X0.0200*%
%ADD46C,0.1200*%
%ADD47C,0.0400*%
%ADD48C,0.1732*%
%ADD49C,0.1732*%
%ADD50C,0.0500*%
%ADD51C,0.1400*%
%ADD52C,0.0750*%
%ADD53C,0.0250*%
%ADD54C,0.0350*%
%ADD55C,0.0098*%
%ADD56C,0.0060*%
%ADD57C,0.0079*%
%ADD58C,0.0140*%
%ADD59C,0.0020*%
%ADD60R,0.0079X0.0197*%
%ADD61R,0.0197X0.0079*%
%ADD62R,0.0079X0.0197*%
%ADD63R,0.0079X0.0197*%
%ADD64R,0.0197X0.0079*%
%ADD65R,0.0200X0.0700*%
%ADD66R,0.0500X0.0200*%
%ADD67R,0.0200X0.1000*%
%ADD68R,0.0200X0.0500*%
%ADD69R,0.4280X0.4080*%
%ADD70R,0.0474X0.1261*%
%ADD71R,0.1080X0.2080*%
%ADD72R,0.0580X0.0330*%
%ADD73R,0.0710X0.0789*%
%ADD74R,0.0789X0.0710*%
%ADD75R,0.0202X0.0789*%
%ADD76R,0.0789X0.0202*%
%ADD77O,0.0202X0.0789*%
%ADD78R,0.0808X0.0198*%
%ADD79R,0.0513X0.0474*%
%ADD80R,0.0474X0.0513*%
%ADD81R,0.0198X0.0808*%
%ADD82R,0.0789X0.0237*%
%ADD83R,0.0237X0.0789*%
%ADD84R,0.0907X0.1694*%
%ADD85O,0.0780X0.0380*%
%ADD86R,0.0780X0.0380*%
%ADD87R,0.0867X0.0631*%
%ADD88R,0.1104X0.1025*%
%ADD89R,0.1497X0.0395*%
%ADD90R,0.0395X0.1497*%
%ADD91C,0.1280*%
%ADD92C,0.0480*%
%ADD93C,0.1812*%
%ADD94C,0.1812*%
%ADD95C,0.0580*%
%ADD96C,0.1480*%
%ADD97C,0.0830*%
%ADD98C,0.0330*%
%ADD99C,0.0430*%
D69*
X46139Y55800D02*
D03*
D70*
X44800Y52400D02*
D03*
X45469D02*
D03*
X46139D02*
D03*
X46808D02*
D03*
X47477D02*
D03*
D71*
X69600Y35600D02*
D03*
D72*
X67400Y34600D02*
D03*
Y35100D02*
D03*
Y35600D02*
D03*
Y36100D02*
D03*
Y36600D02*
D03*
D73*
X31049Y32000D02*
D03*
X32151D02*
D03*
X33849Y31400D02*
D03*
X34951D02*
D03*
X64249Y48000D02*
D03*
X65351D02*
D03*
D74*
X74400Y49851D02*
D03*
Y48749D02*
D03*
X51600Y49951D02*
D03*
Y48849D02*
D03*
X65600Y34351D02*
D03*
Y33249D02*
D03*
X65400Y36449D02*
D03*
Y37551D02*
D03*
X44000Y50551D02*
D03*
Y49449D02*
D03*
D75*
X56600Y40146D02*
D03*
X56403D02*
D03*
X56206D02*
D03*
X56009D02*
D03*
X55813D02*
D03*
X55616D02*
D03*
X55419D02*
D03*
X55222D02*
D03*
X55025D02*
D03*
X54828D02*
D03*
X54632D02*
D03*
X54435D02*
D03*
X54238D02*
D03*
X54041D02*
D03*
X53844D02*
D03*
X53647D02*
D03*
X53450D02*
D03*
X53254D02*
D03*
X53057D02*
D03*
X52860D02*
D03*
X52663D02*
D03*
X52466D02*
D03*
X52269D02*
D03*
X52072D02*
D03*
X51876D02*
D03*
X51679D02*
D03*
X51482D02*
D03*
X51285D02*
D03*
X51088D02*
D03*
X50891D02*
D03*
X50694D02*
D03*
X50498D02*
D03*
X50301D02*
D03*
X50104D02*
D03*
X49907D02*
D03*
X49710D02*
D03*
X49513D02*
D03*
X49317D02*
D03*
Y46800D02*
D03*
X49513D02*
D03*
X49710D02*
D03*
X49907D02*
D03*
X50104D02*
D03*
X50301D02*
D03*
X50498D02*
D03*
X50694D02*
D03*
X50891D02*
D03*
X51088D02*
D03*
X51285D02*
D03*
X51482D02*
D03*
X51679D02*
D03*
X51876D02*
D03*
X52072D02*
D03*
X52269D02*
D03*
X52466D02*
D03*
X52663D02*
D03*
X52860D02*
D03*
X53057D02*
D03*
X53254D02*
D03*
X53450D02*
D03*
X53647D02*
D03*
X53844D02*
D03*
X54041D02*
D03*
X54238D02*
D03*
X54435D02*
D03*
X54632D02*
D03*
X54828D02*
D03*
X55025D02*
D03*
X55222D02*
D03*
X55419D02*
D03*
X55616D02*
D03*
X55813D02*
D03*
X56009D02*
D03*
X56206D02*
D03*
X56403D02*
D03*
D76*
X48450Y41013D02*
D03*
Y41209D02*
D03*
Y41406D02*
D03*
Y41603D02*
D03*
Y41800D02*
D03*
Y41997D02*
D03*
Y42194D02*
D03*
Y42391D02*
D03*
Y42587D02*
D03*
Y42784D02*
D03*
Y42981D02*
D03*
Y43178D02*
D03*
Y43375D02*
D03*
Y43572D02*
D03*
Y43769D02*
D03*
Y43965D02*
D03*
Y44162D02*
D03*
Y44359D02*
D03*
Y44556D02*
D03*
Y44753D02*
D03*
Y44950D02*
D03*
Y45146D02*
D03*
Y45343D02*
D03*
Y45540D02*
D03*
Y45737D02*
D03*
Y45934D02*
D03*
X57466D02*
D03*
Y45737D02*
D03*
Y45540D02*
D03*
Y45343D02*
D03*
Y45146D02*
D03*
Y44950D02*
D03*
Y44753D02*
D03*
Y44556D02*
D03*
Y44359D02*
D03*
Y44162D02*
D03*
Y43965D02*
D03*
Y43769D02*
D03*
Y43572D02*
D03*
Y43375D02*
D03*
Y43178D02*
D03*
Y42981D02*
D03*
Y42784D02*
D03*
Y42587D02*
D03*
Y42391D02*
D03*
Y42194D02*
D03*
Y41997D02*
D03*
Y41800D02*
D03*
Y41603D02*
D03*
Y41406D02*
D03*
Y41209D02*
D03*
Y41013D02*
D03*
D77*
X56600Y46800D02*
D03*
D78*
X32265Y41895D02*
D03*
Y46620D02*
D03*
Y46423D02*
D03*
Y46226D02*
D03*
Y46029D02*
D03*
Y45832D02*
D03*
Y45635D02*
D03*
Y45439D02*
D03*
Y45242D02*
D03*
Y45045D02*
D03*
Y44848D02*
D03*
Y44651D02*
D03*
Y44454D02*
D03*
Y44257D02*
D03*
Y44061D02*
D03*
Y43864D02*
D03*
Y43667D02*
D03*
Y43470D02*
D03*
Y43273D02*
D03*
Y43076D02*
D03*
Y42880D02*
D03*
Y42683D02*
D03*
Y42486D02*
D03*
Y42289D02*
D03*
Y42092D02*
D03*
Y41698D02*
D03*
Y41502D02*
D03*
Y41305D02*
D03*
Y41108D02*
D03*
Y40911D02*
D03*
Y40714D02*
D03*
Y40517D02*
D03*
Y40320D02*
D03*
Y40124D02*
D03*
Y39927D02*
D03*
Y39730D02*
D03*
Y39533D02*
D03*
Y39336D02*
D03*
Y39139D02*
D03*
Y38943D02*
D03*
Y38746D02*
D03*
Y38549D02*
D03*
Y38352D02*
D03*
Y38155D02*
D03*
Y37958D02*
D03*
Y37761D02*
D03*
Y37565D02*
D03*
Y37368D02*
D03*
Y37171D02*
D03*
Y36974D02*
D03*
Y36777D02*
D03*
Y36580D02*
D03*
X44135Y46620D02*
D03*
Y46423D02*
D03*
Y46226D02*
D03*
Y46029D02*
D03*
Y45832D02*
D03*
Y45635D02*
D03*
Y45439D02*
D03*
Y45242D02*
D03*
Y45045D02*
D03*
Y44848D02*
D03*
Y44651D02*
D03*
Y44454D02*
D03*
Y44257D02*
D03*
Y44061D02*
D03*
Y43864D02*
D03*
Y43667D02*
D03*
Y43470D02*
D03*
Y43273D02*
D03*
Y43076D02*
D03*
Y42880D02*
D03*
Y42683D02*
D03*
Y42486D02*
D03*
Y42289D02*
D03*
Y42092D02*
D03*
Y41895D02*
D03*
Y41698D02*
D03*
Y41502D02*
D03*
Y41305D02*
D03*
Y41108D02*
D03*
Y40911D02*
D03*
Y40714D02*
D03*
Y40517D02*
D03*
Y40320D02*
D03*
Y40124D02*
D03*
Y39927D02*
D03*
Y39730D02*
D03*
Y39533D02*
D03*
Y39336D02*
D03*
Y39139D02*
D03*
Y38943D02*
D03*
Y38746D02*
D03*
Y38549D02*
D03*
Y38352D02*
D03*
Y38155D02*
D03*
Y37958D02*
D03*
Y37761D02*
D03*
Y37565D02*
D03*
Y37368D02*
D03*
Y37171D02*
D03*
Y36974D02*
D03*
Y36777D02*
D03*
Y36580D02*
D03*
D79*
X28135Y48800D02*
D03*
X43935Y33400D02*
D03*
X43265D02*
D03*
X27465Y48800D02*
D03*
X51135Y51200D02*
D03*
X50465D02*
D03*
X51135Y52200D02*
D03*
X50465D02*
D03*
X51135Y53200D02*
D03*
X50465D02*
D03*
X51135Y54200D02*
D03*
X50465D02*
D03*
X51135Y55200D02*
D03*
X50465D02*
D03*
X51135Y56200D02*
D03*
X50465D02*
D03*
X43935Y31400D02*
D03*
X43265D02*
D03*
X50065Y33400D02*
D03*
X50735D02*
D03*
X28335Y46800D02*
D03*
X27665D02*
D03*
X59365Y47000D02*
D03*
X60035D02*
D03*
X69235Y46200D02*
D03*
X68565D02*
D03*
X69235Y44600D02*
D03*
X68565D02*
D03*
X69235Y43000D02*
D03*
X68565D02*
D03*
X69235Y41400D02*
D03*
X68565D02*
D03*
X60035Y40000D02*
D03*
X59365D02*
D03*
X60035Y42000D02*
D03*
X59365D02*
D03*
X60035Y43000D02*
D03*
X59365D02*
D03*
X60035Y44000D02*
D03*
X59365D02*
D03*
X60035Y45000D02*
D03*
X59365D02*
D03*
X60035Y46000D02*
D03*
X59365D02*
D03*
X60035Y41000D02*
D03*
X59365D02*
D03*
D80*
X50200Y31465D02*
D03*
Y32135D02*
D03*
X56600Y48865D02*
D03*
Y49535D02*
D03*
X55200Y48865D02*
D03*
Y49535D02*
D03*
X54000Y48865D02*
D03*
Y49535D02*
D03*
X52800Y49535D02*
D03*
Y48865D02*
D03*
X50600Y35465D02*
D03*
Y36135D02*
D03*
X70400Y47935D02*
D03*
Y47265D02*
D03*
X55000Y36135D02*
D03*
Y35465D02*
D03*
X59200Y38065D02*
D03*
Y38735D02*
D03*
X56400Y34465D02*
D03*
Y35135D02*
D03*
X58000Y38065D02*
D03*
Y38735D02*
D03*
X54800Y37865D02*
D03*
Y38535D02*
D03*
X56600Y38735D02*
D03*
Y38065D02*
D03*
X67600Y31265D02*
D03*
Y31935D02*
D03*
D81*
X43220Y47535D02*
D03*
X43023D02*
D03*
X42826D02*
D03*
X42629D02*
D03*
X42432D02*
D03*
X42235D02*
D03*
X42039D02*
D03*
X41842D02*
D03*
X41645D02*
D03*
X41448D02*
D03*
X41251D02*
D03*
X41054D02*
D03*
X40857D02*
D03*
X40661D02*
D03*
X40464D02*
D03*
X40267D02*
D03*
X40070D02*
D03*
X39873D02*
D03*
X39676D02*
D03*
X39480D02*
D03*
X39283D02*
D03*
X39086D02*
D03*
X38889D02*
D03*
X38692D02*
D03*
X38495D02*
D03*
X38298D02*
D03*
X38102D02*
D03*
X37905D02*
D03*
X37708D02*
D03*
X37511D02*
D03*
X37314D02*
D03*
X37117D02*
D03*
X36920D02*
D03*
X36724D02*
D03*
X36527D02*
D03*
X36330D02*
D03*
X36133D02*
D03*
X35936D02*
D03*
X35739D02*
D03*
X35543D02*
D03*
X35346D02*
D03*
X35149D02*
D03*
X34952D02*
D03*
X34755D02*
D03*
X34558D02*
D03*
X34361D02*
D03*
X34165D02*
D03*
X33968D02*
D03*
X33771D02*
D03*
X33574D02*
D03*
X33377D02*
D03*
X33180D02*
D03*
X43220Y35665D02*
D03*
X43023D02*
D03*
X42826D02*
D03*
X42629D02*
D03*
X42432D02*
D03*
X42235D02*
D03*
X42039D02*
D03*
X41842D02*
D03*
X41645D02*
D03*
X41448D02*
D03*
X41251D02*
D03*
X41054D02*
D03*
X40857D02*
D03*
X40661D02*
D03*
X40464D02*
D03*
X40267D02*
D03*
X40070D02*
D03*
X39873D02*
D03*
X39676D02*
D03*
X39480D02*
D03*
X39283D02*
D03*
X39086D02*
D03*
X38889D02*
D03*
X38692D02*
D03*
X38495D02*
D03*
X38298D02*
D03*
X38102D02*
D03*
X37905D02*
D03*
X37708D02*
D03*
X37511D02*
D03*
X37314D02*
D03*
X37117D02*
D03*
X36920D02*
D03*
X36724D02*
D03*
X36527D02*
D03*
X36330D02*
D03*
X36133D02*
D03*
X35936D02*
D03*
X35739D02*
D03*
X35543D02*
D03*
X35346D02*
D03*
X35149D02*
D03*
X34952D02*
D03*
X34755D02*
D03*
X34558D02*
D03*
X34361D02*
D03*
X34165D02*
D03*
X33968D02*
D03*
X33771D02*
D03*
X33574D02*
D03*
X33377D02*
D03*
X33180D02*
D03*
D82*
X40372Y57231D02*
D03*
Y56975D02*
D03*
Y56719D02*
D03*
Y56463D02*
D03*
Y56207D02*
D03*
Y55952D02*
D03*
Y55696D02*
D03*
Y55440D02*
D03*
Y55184D02*
D03*
Y54928D02*
D03*
Y54672D02*
D03*
Y54416D02*
D03*
Y54160D02*
D03*
Y53904D02*
D03*
Y53648D02*
D03*
Y53393D02*
D03*
Y53137D02*
D03*
Y52881D02*
D03*
Y52625D02*
D03*
Y52369D02*
D03*
X31628D02*
D03*
Y52625D02*
D03*
Y52881D02*
D03*
Y53137D02*
D03*
Y53393D02*
D03*
Y53648D02*
D03*
Y53904D02*
D03*
Y54160D02*
D03*
Y54416D02*
D03*
Y54672D02*
D03*
Y54928D02*
D03*
Y55184D02*
D03*
Y55440D02*
D03*
Y55696D02*
D03*
Y55952D02*
D03*
Y56207D02*
D03*
Y56463D02*
D03*
Y56719D02*
D03*
Y56975D02*
D03*
Y57231D02*
D03*
D83*
X39711Y51609D02*
D03*
X39455D02*
D03*
X39199D02*
D03*
X38943D02*
D03*
X38687D02*
D03*
X38431D02*
D03*
X38175D02*
D03*
X37919D02*
D03*
X37663D02*
D03*
X37407D02*
D03*
X37152D02*
D03*
X36896D02*
D03*
X36640D02*
D03*
X36384D02*
D03*
X36128D02*
D03*
X35872D02*
D03*
X35616D02*
D03*
X35360D02*
D03*
X35104D02*
D03*
X34848D02*
D03*
X34593D02*
D03*
X34337D02*
D03*
X34081D02*
D03*
X33825D02*
D03*
X33569D02*
D03*
X33313D02*
D03*
X33057D02*
D03*
X32801D02*
D03*
X32545D02*
D03*
X32289D02*
D03*
Y57991D02*
D03*
X32545D02*
D03*
X32801D02*
D03*
X33057D02*
D03*
X33313D02*
D03*
X33569D02*
D03*
X33825D02*
D03*
X34081D02*
D03*
X34337D02*
D03*
X34593D02*
D03*
X34848D02*
D03*
X35104D02*
D03*
X35360D02*
D03*
X35616D02*
D03*
X35872D02*
D03*
X36128D02*
D03*
X36384D02*
D03*
X36640D02*
D03*
X36896D02*
D03*
X37152D02*
D03*
X37407D02*
D03*
X37663D02*
D03*
X37919D02*
D03*
X38175D02*
D03*
X38431D02*
D03*
X38687D02*
D03*
X38943D02*
D03*
X39199D02*
D03*
X39455D02*
D03*
X39711D02*
D03*
D84*
X52091Y32615D02*
D03*
X53509D02*
D03*
X52091Y36985D02*
D03*
X53509D02*
D03*
D85*
X67450Y40500D02*
D03*
Y41000D02*
D03*
Y41500D02*
D03*
Y42000D02*
D03*
Y42500D02*
D03*
Y43000D02*
D03*
Y43500D02*
D03*
Y44000D02*
D03*
Y44500D02*
D03*
Y45000D02*
D03*
Y45500D02*
D03*
Y46000D02*
D03*
X61700Y40500D02*
D03*
Y41000D02*
D03*
Y41500D02*
D03*
Y42000D02*
D03*
Y42500D02*
D03*
Y43000D02*
D03*
Y43500D02*
D03*
Y44000D02*
D03*
Y44500D02*
D03*
Y45000D02*
D03*
Y45500D02*
D03*
D86*
Y46000D02*
D03*
D87*
X28954Y44700D02*
D03*
Y42700D02*
D03*
X27300D02*
D03*
Y44700D02*
D03*
D88*
X45540Y50000D02*
D03*
X48060D02*
D03*
X58860Y36400D02*
D03*
X56340D02*
D03*
X61860Y48700D02*
D03*
X59340D02*
D03*
D89*
X76981Y35800D02*
D03*
X74619D02*
D03*
X28781Y32200D02*
D03*
X26419D02*
D03*
X40981D02*
D03*
X38619D02*
D03*
X58219Y33000D02*
D03*
X60581D02*
D03*
D90*
X28000Y53781D02*
D03*
Y51419D02*
D03*
D91*
X21550Y54560D02*
D03*
Y35140D02*
D03*
D92*
Y53100D02*
D03*
X22300Y52600D02*
D03*
X21550Y52100D02*
D03*
X22300Y51600D02*
D03*
X21550Y51100D02*
D03*
X22300Y50600D02*
D03*
X21550Y50100D02*
D03*
X22300Y49600D02*
D03*
X21550Y49100D02*
D03*
X22300Y48600D02*
D03*
X21550Y48100D02*
D03*
X22300Y47600D02*
D03*
X21550Y47100D02*
D03*
X22300Y46600D02*
D03*
X21550Y46100D02*
D03*
X22300Y45600D02*
D03*
X21550Y45100D02*
D03*
X22300Y44600D02*
D03*
X21550Y44100D02*
D03*
X22300Y43600D02*
D03*
X21550Y43100D02*
D03*
X22300Y42600D02*
D03*
X21550Y42100D02*
D03*
X22300Y41600D02*
D03*
X21550Y41100D02*
D03*
X22300Y40600D02*
D03*
X21550Y40100D02*
D03*
X22300Y39600D02*
D03*
X21550Y39100D02*
D03*
X22300Y38600D02*
D03*
X21550Y38100D02*
D03*
X22300Y37600D02*
D03*
X21550Y37100D02*
D03*
X22300Y36600D02*
D03*
X23050Y53100D02*
D03*
X23800Y52600D02*
D03*
X23050Y52100D02*
D03*
X23800Y51600D02*
D03*
X23050Y51100D02*
D03*
X23800Y50600D02*
D03*
X23050Y50100D02*
D03*
X23800Y49600D02*
D03*
X23050Y49100D02*
D03*
X23800Y48600D02*
D03*
X23050Y48100D02*
D03*
X23800Y47600D02*
D03*
X23050Y47100D02*
D03*
X23800Y46600D02*
D03*
X23050Y46100D02*
D03*
X23800Y45600D02*
D03*
X23050Y45100D02*
D03*
X23800Y44600D02*
D03*
X23050Y44100D02*
D03*
X23800Y43600D02*
D03*
X23050Y43100D02*
D03*
X23800Y42600D02*
D03*
X23050Y42100D02*
D03*
X23800Y41600D02*
D03*
X23050Y41100D02*
D03*
X23800Y40600D02*
D03*
X23050Y40100D02*
D03*
X23800Y39600D02*
D03*
X23050Y39100D02*
D03*
X23800Y38600D02*
D03*
X23050Y38100D02*
D03*
X23800Y37600D02*
D03*
X23050Y37100D02*
D03*
X23800Y36600D02*
D03*
D93*
X22500Y57500D02*
D03*
Y32500D02*
D03*
X77600D02*
D03*
D94*
X77500Y57500D02*
D03*
D95*
X45600Y34100D02*
D03*
Y35100D02*
D03*
X74900Y52800D02*
D03*
Y53800D02*
D03*
X70900Y52800D02*
D03*
Y53800D02*
D03*
X66900Y52800D02*
D03*
Y53800D02*
D03*
X62900Y52800D02*
D03*
Y53800D02*
D03*
X58900Y52800D02*
D03*
Y53800D02*
D03*
X54900Y52800D02*
D03*
Y53800D02*
D03*
X25400Y57100D02*
D03*
Y58100D02*
D03*
X48600Y34100D02*
D03*
Y35100D02*
D03*
X45600Y31300D02*
D03*
Y32300D02*
D03*
X48600D02*
D03*
Y31300D02*
D03*
X73200Y41250D02*
D03*
X72200Y41750D02*
D03*
X73200Y42250D02*
D03*
X72200Y42750D02*
D03*
X73200Y43250D02*
D03*
X72200Y43750D02*
D03*
X73200Y44250D02*
D03*
X72200Y44750D02*
D03*
D96*
X75700Y45250D02*
D03*
Y40750D02*
D03*
D97*
X76900Y39910D02*
D03*
Y46090D02*
D03*
D98*
X74619Y36281D02*
D03*
X33200Y31400D02*
D03*
X30480Y32000D02*
D03*
X37640Y32200D02*
D03*
X41920D02*
D03*
X39700Y34800D02*
D03*
X39500Y34500D02*
D03*
X39200Y34200D02*
D03*
Y33800D02*
D03*
X38800Y33400D02*
D03*
X38300Y33100D02*
D03*
X70965Y47935D02*
D03*
X69935D02*
D03*
X70700Y42900D02*
D03*
Y42200D02*
D03*
X56400Y34100D02*
D03*
X56835Y34465D02*
D03*
X54800Y37400D02*
D03*
X59565Y38065D02*
D03*
X58000Y37500D02*
D03*
X35900Y46200D02*
D03*
X69800Y41400D02*
D03*
X70100Y43000D02*
D03*
X70200Y46200D02*
D03*
Y44600D02*
D03*
X58635Y44865D02*
D03*
X58935Y42865D02*
D03*
X59700Y41500D02*
D03*
X59300Y39500D02*
D03*
X58800Y41600D02*
D03*
Y43500D02*
D03*
X58900Y45500D02*
D03*
X59000Y46000D02*
D03*
X58900Y47000D02*
D03*
X58700Y40000D02*
D03*
X38200Y48200D02*
D03*
X38495Y48405D02*
D03*
X38400Y49000D02*
D03*
X32335Y47535D02*
D03*
X31600Y47600D02*
D03*
X32877Y46423D02*
D03*
X47500Y46400D02*
D03*
X43500Y45300D02*
D03*
X47500Y36200D02*
D03*
X52100Y42500D02*
D03*
X46800Y35200D02*
D03*
X50600Y41400D02*
D03*
X55400Y46000D02*
D03*
X49500Y40800D02*
D03*
X47200Y35900D02*
D03*
X49000Y40700D02*
D03*
X51400Y45700D02*
D03*
Y47600D02*
D03*
X43300Y31000D02*
D03*
X43265Y32935D02*
D03*
X50735Y33935D02*
D03*
X57100Y49600D02*
D03*
X55535Y49535D02*
D03*
X54335D02*
D03*
X52335Y49535D02*
D03*
X52300Y41400D02*
D03*
X49900Y36600D02*
D03*
X56000Y48000D02*
D03*
X50000Y48400D02*
D03*
X42800Y45400D02*
D03*
X42600Y45800D02*
D03*
X40600Y36500D02*
D03*
X40200D02*
D03*
X40857Y37143D02*
D03*
X39900Y35100D02*
D03*
X44435Y35265D02*
D03*
X39283Y35117D02*
D03*
X38500Y36300D02*
D03*
X38035Y37135D02*
D03*
X38102Y36398D02*
D03*
X38000Y35100D02*
D03*
X43220Y35020D02*
D03*
X43423Y36777D02*
D03*
X44720Y36580D02*
D03*
X43400Y38700D02*
D03*
X43464Y39336D02*
D03*
X44800Y39200D02*
D03*
X45700Y39000D02*
D03*
X43500Y42100D02*
D03*
X45100Y41800D02*
D03*
X43480Y40320D02*
D03*
X43492Y41108D02*
D03*
X43100Y41800D02*
D03*
X43300Y42700D02*
D03*
X43000Y45000D02*
D03*
X43464Y43864D02*
D03*
X44800Y44000D02*
D03*
Y44400D02*
D03*
X44777Y46423D02*
D03*
X43220Y46880D02*
D03*
X41000Y46600D02*
D03*
X40700Y48200D02*
D03*
X40300Y46600D02*
D03*
X38200Y46900D02*
D03*
X37100Y46200D02*
D03*
X39480Y46920D02*
D03*
X39400Y46200D02*
D03*
X38700Y47000D02*
D03*
X36920Y46880D02*
D03*
X35665Y48135D02*
D03*
X35200Y48600D02*
D03*
X35500Y46900D02*
D03*
X36000Y46800D02*
D03*
X35600Y42300D02*
D03*
X34900Y42200D02*
D03*
X35000Y41500D02*
D03*
X34433Y41400D02*
D03*
X31100Y45200D02*
D03*
X31636Y43864D02*
D03*
X32900Y44100D02*
D03*
X32967Y43667D02*
D03*
X34300Y39700D02*
D03*
X31600Y39000D02*
D03*
X32939Y39139D02*
D03*
X33035Y38465D02*
D03*
X33900Y39400D02*
D03*
X32265Y36065D02*
D03*
X32635Y35665D02*
D03*
X36724Y35124D02*
D03*
X35346Y35046D02*
D03*
X37800Y37700D02*
D03*
X35535Y37135D02*
D03*
X35600Y36600D02*
D03*
X35400Y36300D02*
D03*
X32900Y40000D02*
D03*
Y41000D02*
D03*
X32802Y41502D02*
D03*
X31600Y41400D02*
D03*
Y42400D02*
D03*
X33000Y40600D02*
D03*
X33600Y40300D02*
D03*
X36800Y42200D02*
D03*
X37314Y42186D02*
D03*
X34700Y44500D02*
D03*
X35100D02*
D03*
X35600D02*
D03*
X36100D02*
D03*
X36500D02*
D03*
X39800Y45000D02*
D03*
X40500Y45300D02*
D03*
X41200Y45600D02*
D03*
X25200Y32900D02*
D03*
X28800Y42100D02*
D03*
X24300Y53800D02*
D03*
X24900Y52600D02*
D03*
X31500Y47200D02*
D03*
X33100Y36300D02*
D03*
X33300Y36700D02*
D03*
X33700Y37000D02*
D03*
Y37500D02*
D03*
X34200D02*
D03*
Y37900D02*
D03*
X30300Y55400D02*
D03*
X30600Y56100D02*
D03*
X27200Y46800D02*
D03*
X28397Y46303D02*
D03*
X27300Y43235D02*
D03*
Y45300D02*
D03*
X39700Y54100D02*
D03*
X39455Y54855D02*
D03*
X39200Y55500D02*
D03*
X41000Y53100D02*
D03*
X39700Y55200D02*
D03*
X41272Y54672D02*
D03*
X41000Y56000D02*
D03*
Y55400D02*
D03*
X39719Y56719D02*
D03*
X40963Y56463D02*
D03*
X32200Y54600D02*
D03*
Y55000D02*
D03*
X31000Y57400D02*
D03*
X33200Y57200D02*
D03*
X33400Y58700D02*
D03*
X34400D02*
D03*
X34700Y57200D02*
D03*
X35800D02*
D03*
X36000Y58700D02*
D03*
X37152Y57348D02*
D03*
X37407Y58593D02*
D03*
X38700Y57200D02*
D03*
X38400Y58700D02*
D03*
X33200Y50800D02*
D03*
X33300Y52400D02*
D03*
X34700Y50800D02*
D03*
Y52400D02*
D03*
X37300Y52300D02*
D03*
X37407Y51007D02*
D03*
X36128Y50728D02*
D03*
X35800Y52400D02*
D03*
X33569Y53331D02*
D03*
X35360Y53140D02*
D03*
X35104Y53596D02*
D03*
X38900Y51000D02*
D03*
X38400Y52300D02*
D03*
X38175Y53825D02*
D03*
X37919Y53281D02*
D03*
X39700Y52800D02*
D03*
X41600Y49500D02*
D03*
X41400Y52600D02*
D03*
X41900Y56200D02*
D03*
X41300Y57200D02*
D03*
X42000Y45900D02*
D03*
X32200Y57100D02*
D03*
X30900Y56900D02*
D03*
Y56500D02*
D03*
X32500Y53300D02*
D03*
X32900Y49302D02*
D03*
X33300Y50300D02*
D03*
X32801Y53699D02*
D03*
X34900Y49100D02*
D03*
X35300Y49200D02*
D03*
X33825Y52775D02*
D03*
X34081Y53119D02*
D03*
X34337Y53563D02*
D03*
X37200Y48400D02*
D03*
X37400Y48700D02*
D03*
X36640Y52240D02*
D03*
X36896Y52604D02*
D03*
X39800Y49500D02*
D03*
X37663Y52763D02*
D03*
X40400Y49000D02*
D03*
X40700Y48700D02*
D03*
X41200Y48600D02*
D03*
X41800Y50200D02*
D03*
Y50600D02*
D03*
X47900Y42100D02*
D03*
X49100Y41800D02*
D03*
X47100Y41300D02*
D03*
X49000Y45600D02*
D03*
X49154Y45146D02*
D03*
X49200Y44300D02*
D03*
X49065Y43935D02*
D03*
X50165Y43465D02*
D03*
X49200Y43300D02*
D03*
X49100Y42800D02*
D03*
X49109Y41209D02*
D03*
X48450Y40650D02*
D03*
X50200Y41000D02*
D03*
Y39400D02*
D03*
X50891Y40791D02*
D03*
X51000Y39600D02*
D03*
X51800Y39400D02*
D03*
X51876Y40724D02*
D03*
X52900Y39400D02*
D03*
X53100Y40900D02*
D03*
X54000Y39500D02*
D03*
Y40800D02*
D03*
X54632Y40869D02*
D03*
X54600Y39500D02*
D03*
X55057D02*
D03*
X55419Y39519D02*
D03*
X55616Y40684D02*
D03*
X56100Y39500D02*
D03*
X56600D02*
D03*
X55900Y40900D02*
D03*
X57987Y41013D02*
D03*
X56800Y41500D02*
D03*
Y41000D02*
D03*
X58000Y41700D02*
D03*
X58100Y42500D02*
D03*
X56809Y42391D02*
D03*
X56900Y43000D02*
D03*
X58272Y43572D02*
D03*
X56800Y43600D02*
D03*
X58100Y44000D02*
D03*
X56800Y45100D02*
D03*
X56900Y44600D02*
D03*
X58100Y45200D02*
D03*
X56966Y45934D02*
D03*
X56009Y46109D02*
D03*
X56600Y47400D02*
D03*
X55700D02*
D03*
X54500D02*
D03*
X53900Y46200D02*
D03*
X53200Y47400D02*
D03*
X53700D02*
D03*
X53100Y46100D02*
D03*
X52200D02*
D03*
X52600Y47400D02*
D03*
X51876Y46124D02*
D03*
X51679Y47379D02*
D03*
X50891Y46209D02*
D03*
X51088Y47312D02*
D03*
X50400Y45900D02*
D03*
X49513Y47387D02*
D03*
X49500Y46100D02*
D03*
X50000Y47400D02*
D03*
X55000Y35000D02*
D03*
X50600D02*
D03*
X58860Y35540D02*
D03*
Y37260D02*
D03*
X56965Y38065D02*
D03*
X62265Y40665D02*
D03*
X62300Y41500D02*
D03*
X62265Y42265D02*
D03*
X62300Y43000D02*
D03*
X62335Y43865D02*
D03*
X62300Y44500D02*
D03*
X62335Y45465D02*
D03*
X62300Y46000D02*
D03*
X49100Y42400D02*
D03*
X44700Y41300D02*
D03*
X52900Y51100D02*
D03*
X51900Y50500D02*
D03*
X34700Y50200D02*
D03*
D99*
X28519Y51419D02*
D03*
X28000Y54900D02*
D03*
X78100Y35800D02*
D03*
X57100Y33000D02*
D03*
X61800D02*
D03*
X25400Y32200D02*
D03*
X28781Y31519D02*
D03*
X26000Y54700D02*
D03*
X61900Y47900D02*
D03*
X59340Y47760D02*
D03*
X66700Y34000D02*
D03*
Y35100D02*
D03*
X64749Y37551D02*
D03*
X65600Y32700D02*
D03*
X67165Y31265D02*
D03*
X66700Y36300D02*
D03*
Y35600D02*
D03*
X73200Y50300D02*
D03*
X75400D02*
D03*
X73700Y48300D02*
D03*
X74800Y48100D02*
D03*
X63900Y48800D02*
D03*
X63700Y47400D02*
D03*
X66000Y48000D02*
D03*
X44800Y51400D02*
D03*
X45469Y51351D02*
D03*
X46139Y51361D02*
D03*
X46808Y51368D02*
D03*
X44551Y48849D02*
D03*
X44700Y50400D02*
D03*
X45540Y49100D02*
D03*
X64549Y36449D02*
D03*
X65800Y35700D02*
D03*
M02*
