%FSLAX24Y24*%
%MOIN*%
G70*
G01*
G75*
G04 Layer_Physical_Order=2*
%ADD10R,0.1417X0.0315*%
%ADD11R,0.0709X0.0630*%
%ADD12R,0.0315X0.1417*%
%ADD13R,0.0394X0.0433*%
%ADD14R,0.1024X0.0945*%
%ADD15R,0.0787X0.0551*%
%ADD16R,0.0433X0.0394*%
%ADD17R,0.0700X0.0300*%
%ADD18O,0.0700X0.0300*%
%ADD19R,0.0827X0.1614*%
%ADD20R,0.0157X0.0709*%
%ADD21R,0.0709X0.0157*%
%ADD22R,0.0118X0.0728*%
%ADD23R,0.0728X0.0118*%
%ADD24R,0.0709X0.0122*%
%ADD25O,0.0122X0.0709*%
%ADD26R,0.0122X0.0709*%
%ADD27R,0.0630X0.0709*%
%ADD28R,0.0394X0.1181*%
%ADD29R,0.5906X0.5906*%
%ADD30R,0.0500X0.0250*%
%ADD31R,0.5000X0.5000*%
%ADD32C,0.0160*%
%ADD33C,0.0200*%
%ADD34C,0.0070*%
%ADD35C,0.0080*%
%ADD36C,0.0100*%
%ADD37C,0.0120*%
%ADD38C,0.0300*%
%ADD39C,0.0394*%
%ADD40C,0.0500*%
%ADD41C,0.0750*%
%ADD42C,0.1400*%
%ADD43C,0.1732*%
%ADD44C,0.1732*%
%ADD45C,0.0320*%
%ADD46C,0.0350*%
%ADD47C,0.0250*%
%ADD48C,0.0060*%
%ADD49C,0.0098*%
%ADD50C,0.0079*%
%ADD51C,0.0140*%
%ADD52R,0.0079X0.0197*%
%ADD53R,0.0079X0.0197*%
%ADD54R,0.0079X0.0197*%
%ADD55R,0.0197X0.0079*%
%ADD56R,0.0200X0.1000*%
%ADD57R,0.0200X0.0500*%
%ADD58R,0.0500X0.0200*%
%ADD59R,0.0200X0.0700*%
%ADD60R,0.0200X0.0200*%
%ADD61C,0.0020*%
%ADD62R,0.0197X0.0079*%
%ADD63R,0.1497X0.0395*%
%ADD64R,0.0789X0.0710*%
%ADD65R,0.0395X0.1497*%
%ADD66R,0.0474X0.0513*%
%ADD67R,0.1104X0.1025*%
%ADD68R,0.0867X0.0631*%
%ADD69R,0.0513X0.0474*%
%ADD70R,0.0780X0.0380*%
%ADD71O,0.0780X0.0380*%
%ADD72R,0.0907X0.1694*%
%ADD73R,0.0237X0.0789*%
%ADD74R,0.0789X0.0237*%
%ADD75R,0.0198X0.0808*%
%ADD76R,0.0808X0.0198*%
%ADD77R,0.0789X0.0202*%
%ADD78O,0.0202X0.0789*%
%ADD79R,0.0202X0.0789*%
%ADD80R,0.0710X0.0789*%
%ADD81R,0.0474X0.1261*%
%ADD82R,0.5986X0.5986*%
%ADD83R,0.0580X0.0330*%
%ADD84R,0.5080X0.5080*%
%ADD85C,0.0474*%
%ADD86C,0.0580*%
%ADD87C,0.0830*%
%ADD88C,0.1480*%
%ADD89C,0.1812*%
%ADD90C,0.1812*%
%ADD91C,0.0400*%
%ADD92C,0.0430*%
%ADD93C,0.0330*%
%ADD94C,0.0400*%
%AMTHD95*
7,0,0,0.0735,0.0535,0.0100,45*
%
%ADD95THD95*%
%ADD96C,0.0700*%
%AMTHD97*
7,0,0,0.0900,0.0700,0.0100,45*
%
%ADD97THD97*%
%AMTHD98*
7,0,0,0.1220,0.1020,0.0100,45*
%
%ADD98THD98*%
%ADD99C,0.1680*%
%AMTHD100*
7,0,0,0.0880,0.0680,0.0100,45*
%
%ADD100THD100*%
%ADD101C,0.0680*%
%ADD102C,0.1896*%
%ADD103C,0.1896*%
%ADD104C,0.0600*%
%AMTHD105*
7,0,0,0.0800,0.0600,0.0100,45*
%
%ADD105THD105*%
%ADD106C,0.0535*%
D37*
X83100Y42700D02*
X83300D01*
X83200D01*
Y43300D01*
X83100D01*
X83700Y43100D02*
X83900D01*
X84000Y43000D01*
Y42700D01*
X83700D01*
X83600Y42800D01*
X83700Y42900D01*
X84000D01*
X84200Y43100D02*
Y42800D01*
X84300Y42700D01*
X84600D01*
Y42600D01*
X84500Y42500D01*
X84400D01*
X84600Y42700D02*
Y43100D01*
X85099Y42700D02*
X84899D01*
X84799Y42800D01*
Y43000D01*
X84899Y43100D01*
X85099D01*
X85199Y43000D01*
Y42900D01*
X84799D01*
X85399Y43100D02*
Y42700D01*
Y42900D01*
X85499Y43000D01*
X85599Y43100D01*
X85699D01*
X86999Y42700D02*
X86599D01*
X86999Y43100D01*
Y43200D01*
X86899Y43300D01*
X86699D01*
X86599Y43200D01*
D38*
X64800Y39300D02*
Y49300D01*
Y39300D02*
X80000D01*
Y49300D01*
X64800D02*
X80000D01*
D39*
X44000Y55800D02*
D03*
D41*
X72200Y44750D02*
D03*
X73200Y44250D02*
D03*
X72200Y43750D02*
D03*
X73200Y43250D02*
D03*
X72200Y42750D02*
D03*
X73200Y42250D02*
D03*
X72200Y41750D02*
D03*
X73200Y41250D02*
D03*
D94*
X20000Y60000D02*
X80000D01*
Y30000D02*
Y60000D01*
X20000Y30000D02*
X80000D01*
X20000D02*
Y60000D01*
Y30000D02*
X80000D01*
Y60000D01*
X20000D02*
X80000D01*
X20000Y30000D02*
Y60000D01*
D95*
X47000Y58000D02*
D03*
X44000Y55800D02*
D03*
X47040Y56800D02*
D03*
X45400D02*
D03*
Y58000D02*
D03*
X48400Y54200D02*
D03*
Y55800D02*
D03*
Y57200D02*
D03*
Y58400D02*
D03*
X44000Y54200D02*
D03*
Y57200D02*
D03*
Y58400D02*
D03*
X68400Y37800D02*
D03*
Y33500D02*
D03*
X72600D02*
D03*
Y34200D02*
D03*
Y37800D02*
D03*
Y37000D02*
D03*
Y35600D02*
D03*
X68400Y34200D02*
D03*
Y37100D02*
D03*
X70500Y36400D02*
D03*
Y35000D02*
D03*
X51900Y50500D02*
D03*
X62335Y45465D02*
D03*
Y43865D02*
D03*
X62265Y42265D02*
D03*
Y40665D02*
D03*
X58860Y37260D02*
D03*
Y35540D02*
D03*
X50600Y35000D02*
D03*
X55000D02*
D03*
X49500Y46100D02*
D03*
X50891Y46209D02*
D03*
X51679Y47379D02*
D03*
X52200Y46100D02*
D03*
X53100D02*
D03*
X53900Y46200D02*
D03*
X55700Y47400D02*
D03*
X56600D02*
D03*
X56966Y45934D02*
D03*
X58100Y45200D02*
D03*
X56900Y44600D02*
D03*
X58100Y44000D02*
D03*
X58272Y43572D02*
D03*
X56900Y43000D02*
D03*
X56809Y42391D02*
D03*
X58000Y41700D02*
D03*
X56800Y41000D02*
D03*
X56100Y39500D02*
D03*
X55616Y40684D02*
D03*
X55057Y39500D02*
D03*
X54600D02*
D03*
X54000D02*
D03*
X52900Y39400D02*
D03*
X51876Y40724D02*
D03*
X51000Y39600D02*
D03*
X50200Y39400D02*
D03*
X48450Y40650D02*
D03*
X49100Y42800D02*
D03*
X50165Y43465D02*
D03*
X49065Y43935D02*
D03*
X49154Y45146D02*
D03*
X49100Y41800D02*
D03*
X38400Y52300D02*
D03*
X35800Y52400D02*
D03*
X37407Y51007D02*
D03*
X34700Y52400D02*
D03*
X33300D02*
D03*
X38400Y58700D02*
D03*
X37407Y58593D02*
D03*
X35800Y57200D02*
D03*
X34400Y58700D02*
D03*
X33400D02*
D03*
X31000Y57400D02*
D03*
X32200Y55000D02*
D03*
X39719Y56719D02*
D03*
X41000Y55400D02*
D03*
Y56000D02*
D03*
X41272Y54672D02*
D03*
X41000Y53100D02*
D03*
X39700Y54100D02*
D03*
X27300Y45300D02*
D03*
Y43235D02*
D03*
X27200Y46800D02*
D03*
X31600Y42400D02*
D03*
X32802Y41502D02*
D03*
X32900Y40000D02*
D03*
X35535Y37135D02*
D03*
X35346Y35046D02*
D03*
X36724Y35124D02*
D03*
X32635Y35665D02*
D03*
X33035Y38465D02*
D03*
X32900Y44100D02*
D03*
X31100Y45200D02*
D03*
X35665Y48135D02*
D03*
X36920Y46880D02*
D03*
X39400Y46200D02*
D03*
X39480Y46920D02*
D03*
X37100Y46200D02*
D03*
X40700Y48200D02*
D03*
X44777Y46423D02*
D03*
X44800Y44400D02*
D03*
X43000Y45000D02*
D03*
X43300Y42700D02*
D03*
X43480Y40320D02*
D03*
X43500Y42100D02*
D03*
X45700Y39000D02*
D03*
X43400Y38700D02*
D03*
X43423Y36777D02*
D03*
X38000Y35100D02*
D03*
X38035Y37135D02*
D03*
X39283Y35117D02*
D03*
X44435Y35265D02*
D03*
X39900Y35100D02*
D03*
X52335Y49535D02*
D03*
X55400Y46000D02*
D03*
X32877Y46423D02*
D03*
X38200Y48200D02*
D03*
X59300Y39500D02*
D03*
X59700Y41500D02*
D03*
X58935Y42865D02*
D03*
X58635Y44865D02*
D03*
X35900Y46200D02*
D03*
X58000Y37500D02*
D03*
X59565Y38065D02*
D03*
X54800Y37400D02*
D03*
X56835Y34465D02*
D03*
X56400Y34100D02*
D03*
X69935Y47935D02*
D03*
X70965D02*
D03*
X37640Y32200D02*
D03*
D96*
X23250Y42100D02*
D03*
X24000Y41600D02*
D03*
Y37600D02*
D03*
X23250Y38100D02*
D03*
X24000Y38600D02*
D03*
X23250Y39100D02*
D03*
X24000Y39600D02*
D03*
X23250Y40100D02*
D03*
X24000Y40600D02*
D03*
X23250Y41100D02*
D03*
X24000Y42600D02*
D03*
X23250Y43100D02*
D03*
X24000Y43600D02*
D03*
X23250Y44100D02*
D03*
Y45100D02*
D03*
X24000Y45600D02*
D03*
X23250Y46100D02*
D03*
Y47100D02*
D03*
X24000Y47600D02*
D03*
X23250Y48100D02*
D03*
Y49100D02*
D03*
X24000Y49600D02*
D03*
X23250Y50100D02*
D03*
Y51100D02*
D03*
X24000Y51600D02*
D03*
X23250Y52100D02*
D03*
Y53100D02*
D03*
X22500Y36600D02*
D03*
X21750Y37100D02*
D03*
X22500Y37600D02*
D03*
X21750Y38100D02*
D03*
X22500Y38600D02*
D03*
X21750Y39100D02*
D03*
X22500Y39600D02*
D03*
Y40600D02*
D03*
X21750Y41100D02*
D03*
X22500Y41600D02*
D03*
Y42600D02*
D03*
X21750Y43100D02*
D03*
X22500Y43600D02*
D03*
Y44600D02*
D03*
X21750Y45100D02*
D03*
X22500Y45600D02*
D03*
Y46600D02*
D03*
X21750Y47100D02*
D03*
X22500Y47600D02*
D03*
X21750Y48100D02*
D03*
Y49100D02*
D03*
Y50100D02*
D03*
X22500Y50600D02*
D03*
X21750Y51100D02*
D03*
X22500Y51600D02*
D03*
X21750Y52100D02*
D03*
X22500Y52600D02*
D03*
X21750Y53100D02*
D03*
D97*
X23250Y37100D02*
D03*
X24000Y36600D02*
D03*
Y44600D02*
D03*
Y46600D02*
D03*
Y48600D02*
D03*
Y50600D02*
D03*
Y52600D02*
D03*
X21750Y40100D02*
D03*
Y42100D02*
D03*
Y44100D02*
D03*
Y46100D02*
D03*
X22500Y48600D02*
D03*
Y49600D02*
D03*
D98*
X76900Y46090D02*
D03*
Y39910D02*
D03*
D99*
X75700Y40750D02*
D03*
Y45250D02*
D03*
D100*
X48600Y31300D02*
D03*
X25400Y58100D02*
D03*
X54900Y53800D02*
D03*
X58900D02*
D03*
X62900D02*
D03*
X66900D02*
D03*
X70900D02*
D03*
X74900D02*
D03*
D101*
X48600Y32300D02*
D03*
X45600D02*
D03*
Y31300D02*
D03*
X48600Y35100D02*
D03*
Y34100D02*
D03*
X25400Y57100D02*
D03*
X54900Y52800D02*
D03*
X58900D02*
D03*
X62900D02*
D03*
X66900D02*
D03*
X70900D02*
D03*
X74900D02*
D03*
X45600Y35100D02*
D03*
Y34100D02*
D03*
D102*
X77500Y57500D02*
D03*
D103*
X77600Y32500D02*
D03*
X22500D02*
D03*
Y57500D02*
D03*
D104*
X65800Y35700D02*
D03*
X64549Y36449D02*
D03*
X44700Y50400D02*
D03*
X46808Y51368D02*
D03*
X45469Y51351D02*
D03*
X66700Y36300D02*
D03*
X67700Y35100D02*
D03*
X66700Y34000D02*
D03*
X59340Y47760D02*
D03*
X26000Y54700D02*
D03*
X28781Y31519D02*
D03*
X57100Y33000D02*
D03*
X78100Y35800D02*
D03*
X28000Y54900D02*
D03*
D105*
X45540Y49100D02*
D03*
X44551Y48849D02*
D03*
X46139Y51361D02*
D03*
X44800Y51400D02*
D03*
X66000Y48000D02*
D03*
X63700Y47400D02*
D03*
X63900Y48800D02*
D03*
X74800Y48100D02*
D03*
X73700Y48300D02*
D03*
X75400Y50300D02*
D03*
X73200D02*
D03*
X66700Y35600D02*
D03*
X67165Y31265D02*
D03*
X65600Y32700D02*
D03*
X64749Y37551D02*
D03*
X61900Y47900D02*
D03*
X25400Y32200D02*
D03*
X61800Y33000D02*
D03*
X73500Y35800D02*
D03*
X28519Y51419D02*
D03*
D106*
X34700Y50200D02*
D03*
X52900Y51100D02*
D03*
X44700Y41300D02*
D03*
X49100Y42400D02*
D03*
X62300Y46000D02*
D03*
Y44500D02*
D03*
Y43000D02*
D03*
Y41500D02*
D03*
X56965Y38065D02*
D03*
X50000Y47400D02*
D03*
X49513Y47387D02*
D03*
X50400Y45900D02*
D03*
X51088Y47312D02*
D03*
X51876Y46124D02*
D03*
X52600Y47400D02*
D03*
X53700D02*
D03*
X53200D02*
D03*
X54500D02*
D03*
X56009Y46109D02*
D03*
X56800Y45100D02*
D03*
Y43600D02*
D03*
X58100Y42500D02*
D03*
X56800Y41500D02*
D03*
X57987Y41013D02*
D03*
X55900Y40900D02*
D03*
X56600Y39500D02*
D03*
X55419Y39519D02*
D03*
X54632Y40869D02*
D03*
X54000Y40800D02*
D03*
X53100Y40900D02*
D03*
X51800Y39400D02*
D03*
X50891Y40791D02*
D03*
X50200Y41000D02*
D03*
X49109Y41209D02*
D03*
X49200Y43300D02*
D03*
Y44300D02*
D03*
X49000Y45600D02*
D03*
X47100Y41300D02*
D03*
X47900Y42100D02*
D03*
X41800Y50600D02*
D03*
Y50200D02*
D03*
X41200Y48600D02*
D03*
X40700Y48700D02*
D03*
X40400Y49000D02*
D03*
X37663Y52763D02*
D03*
X39800Y49500D02*
D03*
X36896Y52604D02*
D03*
X36640Y52240D02*
D03*
X37400Y48700D02*
D03*
X37200Y48400D02*
D03*
X34337Y53563D02*
D03*
X34081Y53119D02*
D03*
X33825Y52775D02*
D03*
X35300Y49200D02*
D03*
X34900Y49100D02*
D03*
X32801Y53699D02*
D03*
X33300Y50300D02*
D03*
X32900Y49302D02*
D03*
X32500Y53300D02*
D03*
X30900Y56500D02*
D03*
Y56900D02*
D03*
X32200Y57100D02*
D03*
X42000Y45900D02*
D03*
X41300Y57200D02*
D03*
X41900Y56200D02*
D03*
X41400Y52600D02*
D03*
X41600Y49500D02*
D03*
X39700Y52800D02*
D03*
X37919Y53281D02*
D03*
X38175Y53825D02*
D03*
X38900Y51000D02*
D03*
X35104Y53596D02*
D03*
X35360Y53140D02*
D03*
X33569Y53331D02*
D03*
X36128Y50728D02*
D03*
X37300Y52300D02*
D03*
X34700Y50800D02*
D03*
X33200D02*
D03*
X38700Y57200D02*
D03*
X37152Y57348D02*
D03*
X36000Y58700D02*
D03*
X34700Y57200D02*
D03*
X33200D02*
D03*
X32200Y54600D02*
D03*
X40963Y56463D02*
D03*
X39700Y55200D02*
D03*
X39200Y55500D02*
D03*
X39455Y54855D02*
D03*
X28397Y46303D02*
D03*
X30600Y56100D02*
D03*
X30300Y55400D02*
D03*
X34200Y37900D02*
D03*
Y37500D02*
D03*
X33700D02*
D03*
Y37000D02*
D03*
X33300Y36700D02*
D03*
X33100Y36300D02*
D03*
X31500Y47200D02*
D03*
X24900Y52600D02*
D03*
X24300Y53800D02*
D03*
X28800Y42100D02*
D03*
X25200Y32900D02*
D03*
X41200Y45600D02*
D03*
X40500Y45300D02*
D03*
X39800Y45000D02*
D03*
X36500Y44500D02*
D03*
X36100D02*
D03*
X35600D02*
D03*
X35100D02*
D03*
X34700D02*
D03*
X37314Y42186D02*
D03*
X36800Y42200D02*
D03*
X33600Y40300D02*
D03*
X33000Y40600D02*
D03*
X31600Y41400D02*
D03*
X32900Y41000D02*
D03*
X35400Y36300D02*
D03*
X35600Y36600D02*
D03*
X37800Y37700D02*
D03*
X32265Y36065D02*
D03*
X33900Y39400D02*
D03*
X32939Y39139D02*
D03*
X31600Y39000D02*
D03*
X34300Y39700D02*
D03*
X32967Y43667D02*
D03*
X31636Y43864D02*
D03*
X34433Y41400D02*
D03*
X35000Y41500D02*
D03*
X34900Y42200D02*
D03*
X35600Y42300D02*
D03*
X36000Y46800D02*
D03*
X35500Y46900D02*
D03*
X35200Y48600D02*
D03*
X38700Y47000D02*
D03*
X38200Y46900D02*
D03*
X40300Y46600D02*
D03*
X41000D02*
D03*
X43220Y46880D02*
D03*
X44800Y44000D02*
D03*
X43464Y43864D02*
D03*
X43100Y41800D02*
D03*
X43492Y41108D02*
D03*
X45100Y41800D02*
D03*
X44800Y39200D02*
D03*
X43464Y39336D02*
D03*
X44720Y36580D02*
D03*
X43220Y35020D02*
D03*
X38102Y36398D02*
D03*
X38500Y36300D02*
D03*
X40857Y37143D02*
D03*
X40200Y36500D02*
D03*
X40600D02*
D03*
X42600Y45800D02*
D03*
X42800Y45400D02*
D03*
X50000Y48400D02*
D03*
X56000Y48000D02*
D03*
X49900Y36600D02*
D03*
X52300Y41400D02*
D03*
X54335Y49535D02*
D03*
X55535D02*
D03*
X57100Y49600D02*
D03*
X50735Y33935D02*
D03*
X43265Y32935D02*
D03*
X43300Y31000D02*
D03*
X51400Y47600D02*
D03*
Y45700D02*
D03*
X49000Y40700D02*
D03*
X47200Y35900D02*
D03*
X49500Y40800D02*
D03*
X50600Y41400D02*
D03*
X46800Y35200D02*
D03*
X52100Y42500D02*
D03*
X47500Y36200D02*
D03*
X43500Y45300D02*
D03*
X47500Y46400D02*
D03*
X31600Y47600D02*
D03*
X32335Y47535D02*
D03*
X38400Y49000D02*
D03*
X38495Y48405D02*
D03*
X58700Y40000D02*
D03*
X58900Y47000D02*
D03*
X59000Y46000D02*
D03*
X58900Y45500D02*
D03*
X58800Y43500D02*
D03*
Y41600D02*
D03*
X70200Y44600D02*
D03*
Y46200D02*
D03*
X70100Y43000D02*
D03*
X69800Y41400D02*
D03*
X70700Y42200D02*
D03*
Y42900D02*
D03*
X38300Y33100D02*
D03*
X38800Y33400D02*
D03*
X39200Y33800D02*
D03*
Y34200D02*
D03*
X39500Y34500D02*
D03*
X39700Y34800D02*
D03*
X41920Y32200D02*
D03*
X30480Y32000D02*
D03*
X33200Y31400D02*
D03*
M02*
