%FSLAX24Y24*%
%MOIN*%
G70*
G01*
G75*
G04 Layer_Physical_Order=3*
%ADD10R,0.4200X0.1500*%
%ADD11R,0.1000X0.5500*%
%ADD12R,0.4200X0.4000*%
%ADD13R,0.0394X0.1181*%
%ADD14R,0.4000X0.1500*%
%ADD15R,0.2000X0.2000*%
%ADD16R,0.1000X0.2000*%
%ADD17R,0.0500X0.0250*%
%ADD18R,0.1600X0.5000*%
%ADD19R,0.0630X0.0709*%
%ADD20R,0.0709X0.0630*%
%ADD21R,0.0122X0.0709*%
%ADD22R,0.0709X0.0122*%
%ADD23O,0.0122X0.0709*%
%ADD24R,0.0728X0.0118*%
%ADD25R,0.0433X0.0394*%
%ADD26R,0.0394X0.0433*%
%ADD27R,0.0118X0.0728*%
%ADD28R,0.0709X0.0157*%
%ADD29R,0.0157X0.0709*%
%ADD30R,0.0827X0.1614*%
%ADD31O,0.0700X0.0300*%
%ADD32R,0.0700X0.0300*%
%ADD33R,0.0787X0.0551*%
%ADD34R,0.1024X0.0945*%
%ADD35R,0.1417X0.0315*%
%ADD36R,0.0315X0.1417*%
%ADD37C,0.0200*%
%ADD38C,0.0160*%
%ADD39C,0.0300*%
%ADD40C,0.0080*%
%ADD41C,0.0070*%
%ADD42C,0.0100*%
%ADD43C,0.0120*%
%ADD44C,0.0200*%
%ADD45R,0.0200X0.0200*%
%ADD46C,0.1200*%
%ADD47C,0.0400*%
%ADD48C,0.1732*%
%ADD49C,0.1732*%
%ADD50C,0.0500*%
%ADD51C,0.1400*%
%ADD52C,0.0750*%
%ADD53C,0.0250*%
%ADD54C,0.0350*%
%ADD55C,0.0098*%
%ADD56C,0.0060*%
%ADD57C,0.0079*%
%ADD58C,0.0140*%
%ADD59C,0.0020*%
%ADD60R,0.0079X0.0197*%
%ADD61R,0.0197X0.0079*%
%ADD62R,0.0079X0.0197*%
%ADD63R,0.0079X0.0197*%
%ADD64R,0.0197X0.0079*%
%ADD65R,0.0200X0.0700*%
%ADD66R,0.0500X0.0200*%
%ADD67R,0.0200X0.1000*%
%ADD68R,0.0200X0.0500*%
%ADD69R,0.4280X0.4080*%
%ADD70R,0.0474X0.1261*%
%ADD71R,0.1080X0.2080*%
%ADD72R,0.0580X0.0330*%
%ADD73R,0.0710X0.0789*%
%ADD74R,0.0789X0.0710*%
%ADD75R,0.0202X0.0789*%
%ADD76R,0.0789X0.0202*%
%ADD77O,0.0202X0.0789*%
%ADD78R,0.0808X0.0198*%
%ADD79R,0.0513X0.0474*%
%ADD80R,0.0474X0.0513*%
%ADD81R,0.0198X0.0808*%
%ADD82R,0.0789X0.0237*%
%ADD83R,0.0237X0.0789*%
%ADD84R,0.0907X0.1694*%
%ADD85O,0.0780X0.0380*%
%ADD86R,0.0780X0.0380*%
%ADD87R,0.0867X0.0631*%
%ADD88R,0.1104X0.1025*%
%ADD89R,0.1497X0.0395*%
%ADD90R,0.0395X0.1497*%
%ADD91C,0.1280*%
%ADD92C,0.0480*%
%ADD93C,0.1812*%
%ADD94C,0.1812*%
%ADD95C,0.0580*%
%ADD96C,0.1480*%
%ADD97C,0.0830*%
%ADD98C,0.0330*%
%ADD99C,0.0430*%
%ADD100C,0.0400*%
%ADD101C,0.1500*%
%AMTHD102*
7,0,0,0.0950,0.0750,0.0100,45*
%
%ADD102THD102*%
%ADD103C,0.1896*%
%ADD104C,0.1896*%
%ADD105C,0.0680*%
%AMTHD106*
7,0,0,0.0880,0.0680,0.0100,45*
%
%ADD106THD106*%
%ADD107C,0.1680*%
%AMTHD108*
7,0,0,0.1220,0.1020,0.0100,45*
%
%ADD108THD108*%
%AMTHD109*
7,0,0,0.0735,0.0535,0.0100,45*
%
%ADD109THD109*%
%ADD110C,0.0535*%
%AMTHD111*
7,0,0,0.0800,0.0600,0.0100,45*
%
%ADD111THD111*%
%ADD112C,0.0600*%
%ADD113C,0.1020*%
D39*
X80000Y33300D02*
Y49900D01*
D42*
X58100D02*
X80000D01*
X57700D02*
X58100D01*
X57700Y48300D02*
Y49900D01*
Y45800D02*
Y48300D01*
X54900Y45800D02*
X57700D01*
X54900Y37100D02*
Y45800D01*
X67100Y31800D02*
X80000D01*
X66300D02*
X67100D01*
X66300D02*
Y37000D01*
X54900Y37100D02*
X66300Y37000D01*
D43*
X83100Y41700D02*
X83300D01*
X83200D01*
Y42300D01*
X83100D01*
X83700Y42100D02*
X83900D01*
X84000Y42000D01*
Y41700D01*
X83700D01*
X83600Y41800D01*
X83700Y41900D01*
X84000D01*
X84200Y42100D02*
Y41800D01*
X84300Y41700D01*
X84600D01*
Y41600D01*
X84500Y41500D01*
X84400D01*
X84600Y41700D02*
Y42100D01*
X85099Y41700D02*
X84899D01*
X84799Y41800D01*
Y42000D01*
X84899Y42100D01*
X85099D01*
X85199Y42000D01*
Y41900D01*
X84799D01*
X85399Y42100D02*
Y41700D01*
Y41900D01*
X85499Y42000D01*
X85599Y42100D01*
X85699D01*
X86599Y42200D02*
X86699Y42300D01*
X86899D01*
X86999Y42200D01*
Y42100D01*
X86899Y42000D01*
X86799D01*
X86899D01*
X86999Y41900D01*
Y41800D01*
X86899Y41700D01*
X86699D01*
X86599Y41800D01*
D52*
X21550Y52100D02*
D03*
X22300Y51600D02*
D03*
X21550Y51100D02*
D03*
X22300Y50600D02*
D03*
X21550Y50100D02*
D03*
X22300Y49600D02*
D03*
X21550Y49100D02*
D03*
X22300Y48600D02*
D03*
X21550Y48100D02*
D03*
X22300Y47600D02*
D03*
X21550Y47100D02*
D03*
X22300Y46600D02*
D03*
X21550Y46100D02*
D03*
X22300Y45600D02*
D03*
X21550Y45100D02*
D03*
X22300Y44600D02*
D03*
X21550Y44100D02*
D03*
X22300Y43600D02*
D03*
X21550Y43100D02*
D03*
X22300Y42600D02*
D03*
X21550Y42100D02*
D03*
X22300Y41600D02*
D03*
X21550Y41100D02*
D03*
X22300Y40600D02*
D03*
X21550Y40100D02*
D03*
X22300Y39600D02*
D03*
X21550Y39100D02*
D03*
X22300Y38600D02*
D03*
X21550Y38100D02*
D03*
X22300Y37600D02*
D03*
X21550Y37100D02*
D03*
X22300Y36600D02*
D03*
X23050Y53100D02*
D03*
X23800Y52600D02*
D03*
X23050Y52100D02*
D03*
X23800Y51600D02*
D03*
X23050Y51100D02*
D03*
X23800Y50600D02*
D03*
X23050Y50100D02*
D03*
X23800Y49600D02*
D03*
X23050Y49100D02*
D03*
X23800Y48600D02*
D03*
X23050Y48100D02*
D03*
X23800Y47600D02*
D03*
X23050Y47100D02*
D03*
X23800Y46600D02*
D03*
X23050Y46100D02*
D03*
X23800Y45600D02*
D03*
X23050Y45100D02*
D03*
X23800Y44600D02*
D03*
X23050Y44100D02*
D03*
X23800Y43600D02*
D03*
X23050Y43100D02*
D03*
X23800Y42600D02*
D03*
X23050Y41100D02*
D03*
X23800Y40600D02*
D03*
X23050Y40100D02*
D03*
X23800Y39600D02*
D03*
X23050Y39100D02*
D03*
X23800Y38600D02*
D03*
X23050Y38100D02*
D03*
X23800Y37600D02*
D03*
X23050Y37100D02*
D03*
X23800Y36600D02*
D03*
X73200Y41250D02*
D03*
X72200Y41750D02*
D03*
X73200Y42250D02*
D03*
X72200Y42750D02*
D03*
X73200Y43250D02*
D03*
X72200Y43750D02*
D03*
X73200Y44250D02*
D03*
X72200Y44750D02*
D03*
D100*
X20000Y30000D02*
Y60000D01*
X80000D01*
Y30000D02*
Y60000D01*
X20000Y30000D02*
X80000D01*
X20000D02*
Y60000D01*
Y30000D02*
X80000D01*
Y60000D01*
X20000D02*
X80000D01*
D101*
X21550Y54560D02*
D03*
Y35140D02*
D03*
D102*
Y53100D02*
D03*
X22300Y52600D02*
D03*
X23050Y42100D02*
D03*
X23800Y41600D02*
D03*
D103*
X22500Y57500D02*
D03*
Y32500D02*
D03*
X77600D02*
D03*
D104*
X77500Y57500D02*
D03*
D105*
X45600Y34100D02*
D03*
Y35100D02*
D03*
X74900Y52800D02*
D03*
Y53800D02*
D03*
X70900Y52800D02*
D03*
Y53800D02*
D03*
X66900Y52800D02*
D03*
Y53800D02*
D03*
X62900Y52800D02*
D03*
Y53800D02*
D03*
X58900Y52800D02*
D03*
Y53800D02*
D03*
X54900Y52800D02*
D03*
Y53800D02*
D03*
X25400Y57100D02*
D03*
Y58100D02*
D03*
X48600Y34100D02*
D03*
Y35100D02*
D03*
X45600Y31300D02*
D03*
Y32300D02*
D03*
X48600D02*
D03*
Y31300D02*
D03*
D107*
X75700Y45250D02*
D03*
Y40750D02*
D03*
D109*
X33200Y31400D02*
D03*
X30480Y32000D02*
D03*
X58800Y41600D02*
D03*
Y43500D02*
D03*
X58900Y45500D02*
D03*
X59000Y46000D02*
D03*
X58900Y47000D02*
D03*
X58700Y40000D02*
D03*
X32335Y47535D02*
D03*
X43300Y31000D02*
D03*
X43265Y32935D02*
D03*
X50735Y33935D02*
D03*
X57100Y49600D02*
D03*
X55535Y49535D02*
D03*
X54335D02*
D03*
X40600Y36500D02*
D03*
X38102Y36398D02*
D03*
X43220Y35020D02*
D03*
X44720Y36580D02*
D03*
X44800Y39200D02*
D03*
X43100Y41800D02*
D03*
X44800Y44000D02*
D03*
X43220Y46880D02*
D03*
X41000Y46600D02*
D03*
X38200Y46900D02*
D03*
X35500D02*
D03*
X31636Y43864D02*
D03*
X31600Y39000D02*
D03*
X32265Y36065D02*
D03*
X35400Y36300D02*
D03*
X31600Y41400D02*
D03*
X28397Y46303D02*
D03*
X39700Y55200D02*
D03*
X40963Y56463D02*
D03*
X32200Y54600D02*
D03*
X33200Y57200D02*
D03*
X34700D02*
D03*
X36000Y58700D02*
D03*
X37152Y57348D02*
D03*
X38700Y57200D02*
D03*
X33200Y50800D02*
D03*
X34700D02*
D03*
X37300Y52300D02*
D03*
X36128Y50728D02*
D03*
X38900Y51000D02*
D03*
X47900Y42100D02*
D03*
X49000Y45600D02*
D03*
X49200Y43300D02*
D03*
X50200Y41000D02*
D03*
X51800Y39400D02*
D03*
X53100Y40900D02*
D03*
X54000Y40800D02*
D03*
X55419Y39519D02*
D03*
X56600Y39500D02*
D03*
X56009Y46109D02*
D03*
X53700Y47400D02*
D03*
X52600D02*
D03*
X51088Y47312D02*
D03*
X50400Y45900D02*
D03*
X49513Y47387D02*
D03*
X62300Y41500D02*
D03*
Y43000D02*
D03*
Y44500D02*
D03*
Y46000D02*
D03*
D110*
X49000Y59000D02*
D03*
X47900D02*
D03*
X49000Y57700D02*
D03*
X47900D02*
D03*
X49000Y56600D02*
D03*
X47900D02*
D03*
X49000Y55400D02*
D03*
X47900D02*
D03*
X49000Y54200D02*
D03*
X47900D02*
D03*
X44400Y59000D02*
D03*
X43300D02*
D03*
X44400Y57700D02*
D03*
X43300D02*
D03*
X44400Y56600D02*
D03*
X43300D02*
D03*
X44400Y55400D02*
D03*
X43300D02*
D03*
X44400Y54200D02*
D03*
X43300D02*
D03*
X68400Y37800D02*
D03*
Y37000D02*
D03*
X70200Y37800D02*
D03*
Y37000D02*
D03*
X71600D02*
D03*
Y37800D02*
D03*
X68400Y34300D02*
D03*
Y33500D02*
D03*
X70200Y34300D02*
D03*
Y33500D02*
D03*
X71600D02*
D03*
Y34300D02*
D03*
X72500Y33900D02*
D03*
X73300D02*
D03*
X72500Y35600D02*
D03*
X73300D02*
D03*
X73250Y37400D02*
D03*
X72450D02*
D03*
X74619Y36281D02*
D03*
X37640Y32200D02*
D03*
X41920D02*
D03*
X39700Y34800D02*
D03*
X39500Y34500D02*
D03*
X39200Y34200D02*
D03*
Y33800D02*
D03*
X38800Y33400D02*
D03*
X38300Y33100D02*
D03*
X70965Y47935D02*
D03*
X69935D02*
D03*
X70700Y42900D02*
D03*
Y42200D02*
D03*
X56400Y34100D02*
D03*
X56835Y34465D02*
D03*
X54800Y37400D02*
D03*
X59565Y38065D02*
D03*
X58000Y37500D02*
D03*
X35900Y46200D02*
D03*
X69800Y41400D02*
D03*
X70100Y43000D02*
D03*
X70200Y46200D02*
D03*
Y44600D02*
D03*
X58635Y44865D02*
D03*
X58935Y42865D02*
D03*
X59700Y41500D02*
D03*
X59300Y39500D02*
D03*
X38200Y48200D02*
D03*
X38495Y48405D02*
D03*
X38400Y49000D02*
D03*
X31600Y47600D02*
D03*
X32877Y46423D02*
D03*
X47500Y46400D02*
D03*
X43500Y45300D02*
D03*
X47500Y36200D02*
D03*
X52100Y42500D02*
D03*
X46800Y35200D02*
D03*
X50600Y41400D02*
D03*
X55400Y46000D02*
D03*
X49500Y40800D02*
D03*
X47200Y35900D02*
D03*
X49000Y40700D02*
D03*
X51400Y45700D02*
D03*
Y47600D02*
D03*
X52335Y49535D02*
D03*
X52300Y41400D02*
D03*
X49900Y36600D02*
D03*
X56000Y48000D02*
D03*
X50000Y48400D02*
D03*
X42800Y45400D02*
D03*
X42600Y45800D02*
D03*
X40200Y36500D02*
D03*
X40857Y37143D02*
D03*
X39900Y35100D02*
D03*
X44435Y35265D02*
D03*
X39283Y35117D02*
D03*
X38500Y36300D02*
D03*
X38035Y37135D02*
D03*
X38000Y35100D02*
D03*
X43423Y36777D02*
D03*
X43400Y38700D02*
D03*
X43464Y39336D02*
D03*
X45700Y39000D02*
D03*
X43500Y42100D02*
D03*
X45100Y41800D02*
D03*
X43480Y40320D02*
D03*
X43492Y41108D02*
D03*
X43300Y42700D02*
D03*
X43000Y45000D02*
D03*
X43464Y43864D02*
D03*
X44800Y44400D02*
D03*
X44777Y46423D02*
D03*
X40700Y48200D02*
D03*
X40300Y46600D02*
D03*
X37100Y46200D02*
D03*
X39480Y46920D02*
D03*
X39400Y46200D02*
D03*
X38700Y47000D02*
D03*
X36920Y46880D02*
D03*
X35665Y48135D02*
D03*
X35200Y48600D02*
D03*
X36000Y46800D02*
D03*
X35600Y42300D02*
D03*
X34900Y42200D02*
D03*
X35000Y41500D02*
D03*
X34433Y41400D02*
D03*
X31100Y45200D02*
D03*
X32900Y44100D02*
D03*
X32967Y43667D02*
D03*
X34300Y39700D02*
D03*
X32939Y39139D02*
D03*
X33035Y38465D02*
D03*
X33900Y39400D02*
D03*
X32635Y35665D02*
D03*
X36724Y35124D02*
D03*
X35346Y35046D02*
D03*
X37800Y37700D02*
D03*
X35535Y37135D02*
D03*
X35600Y36600D02*
D03*
X32900Y40000D02*
D03*
Y41000D02*
D03*
X32802Y41502D02*
D03*
X31600Y42400D02*
D03*
X33000Y40600D02*
D03*
X33600Y40300D02*
D03*
X36800Y42200D02*
D03*
X37314Y42186D02*
D03*
X34700Y44500D02*
D03*
X35100D02*
D03*
X35600D02*
D03*
X36100D02*
D03*
X36500D02*
D03*
X39800Y45000D02*
D03*
X40500Y45300D02*
D03*
X41200Y45600D02*
D03*
X25200Y32900D02*
D03*
X28800Y42100D02*
D03*
X24300Y53800D02*
D03*
X24900Y52600D02*
D03*
X31500Y47200D02*
D03*
X33100Y36300D02*
D03*
X33300Y36700D02*
D03*
X33700Y37000D02*
D03*
Y37500D02*
D03*
X34200D02*
D03*
Y37900D02*
D03*
X30300Y55400D02*
D03*
X30600Y56100D02*
D03*
X27200Y46800D02*
D03*
X27300Y43235D02*
D03*
Y45300D02*
D03*
X39700Y54100D02*
D03*
X39455Y54855D02*
D03*
X39200Y55500D02*
D03*
X41000Y53100D02*
D03*
X41272Y54672D02*
D03*
X41000Y56000D02*
D03*
Y55400D02*
D03*
X39719Y56719D02*
D03*
X32200Y55000D02*
D03*
X31000Y57400D02*
D03*
X33400Y58700D02*
D03*
X34400D02*
D03*
X35800Y57200D02*
D03*
X37407Y58593D02*
D03*
X38400Y58700D02*
D03*
X33300Y52400D02*
D03*
X34700D02*
D03*
X37407Y51007D02*
D03*
X35800Y52400D02*
D03*
X33569Y53331D02*
D03*
X35360Y53140D02*
D03*
X35104Y53596D02*
D03*
X38400Y52300D02*
D03*
X38175Y53825D02*
D03*
X37919Y53281D02*
D03*
X39700Y52800D02*
D03*
X41600Y49500D02*
D03*
X41400Y52600D02*
D03*
X41900Y56200D02*
D03*
X41300Y57200D02*
D03*
X42000Y45900D02*
D03*
X32200Y57100D02*
D03*
X30900Y56900D02*
D03*
Y56500D02*
D03*
X32500Y53300D02*
D03*
X32900Y49302D02*
D03*
X33300Y50300D02*
D03*
X32801Y53699D02*
D03*
X34900Y49100D02*
D03*
X35300Y49200D02*
D03*
X33825Y52775D02*
D03*
X34081Y53119D02*
D03*
X34337Y53563D02*
D03*
X37200Y48400D02*
D03*
X37400Y48700D02*
D03*
X36640Y52240D02*
D03*
X36896Y52604D02*
D03*
X39800Y49500D02*
D03*
X37663Y52763D02*
D03*
X40400Y49000D02*
D03*
X40700Y48700D02*
D03*
X41200Y48600D02*
D03*
X41800Y50200D02*
D03*
Y50600D02*
D03*
X49100Y41800D02*
D03*
X47100Y41300D02*
D03*
X49154Y45146D02*
D03*
X49200Y44300D02*
D03*
X49065Y43935D02*
D03*
X50165Y43465D02*
D03*
X49100Y42800D02*
D03*
X49109Y41209D02*
D03*
X48450Y40650D02*
D03*
X50200Y39400D02*
D03*
X50891Y40791D02*
D03*
X51000Y39600D02*
D03*
X51876Y40724D02*
D03*
X52900Y39400D02*
D03*
X54000Y39500D02*
D03*
X54632Y40869D02*
D03*
X54600Y39500D02*
D03*
X55057D02*
D03*
X55616Y40684D02*
D03*
X56100Y39500D02*
D03*
X55900Y40900D02*
D03*
X57987Y41013D02*
D03*
X56800Y41500D02*
D03*
Y41000D02*
D03*
X58000Y41700D02*
D03*
X58100Y42500D02*
D03*
X56809Y42391D02*
D03*
X56900Y43000D02*
D03*
X58272Y43572D02*
D03*
X56800Y43600D02*
D03*
X58100Y44000D02*
D03*
X56800Y45100D02*
D03*
X56900Y44600D02*
D03*
X58100Y45200D02*
D03*
X56966Y45934D02*
D03*
X56600Y47400D02*
D03*
X55700D02*
D03*
X54500D02*
D03*
X53900Y46200D02*
D03*
X53200Y47400D02*
D03*
X53100Y46100D02*
D03*
X52200D02*
D03*
X51876Y46124D02*
D03*
X51679Y47379D02*
D03*
X50891Y46209D02*
D03*
X49500Y46100D02*
D03*
X50000Y47400D02*
D03*
X55000Y35000D02*
D03*
X50600D02*
D03*
X58860Y35540D02*
D03*
Y37260D02*
D03*
X56965Y38065D02*
D03*
X62265Y40665D02*
D03*
Y42265D02*
D03*
X62335Y43865D02*
D03*
Y45465D02*
D03*
X49100Y42400D02*
D03*
X44700Y41300D02*
D03*
X52900Y51100D02*
D03*
X51900Y50500D02*
D03*
X34700Y50200D02*
D03*
D111*
X28000Y54900D02*
D03*
X78100Y35800D02*
D03*
X28781Y31519D02*
D03*
X59340Y47760D02*
D03*
X66700Y34000D02*
D03*
Y35100D02*
D03*
X45469Y51351D02*
D03*
X44700Y50400D02*
D03*
X64549Y36449D02*
D03*
X65800Y35700D02*
D03*
D112*
X28519Y51419D02*
D03*
X57100Y33000D02*
D03*
X61800D02*
D03*
X25400Y32200D02*
D03*
X26000Y54700D02*
D03*
X61900Y47900D02*
D03*
X64749Y37551D02*
D03*
X65600Y32700D02*
D03*
X67165Y31265D02*
D03*
X66700Y36300D02*
D03*
Y35600D02*
D03*
X73200Y50300D02*
D03*
X75400D02*
D03*
X73700Y48300D02*
D03*
X74800Y48100D02*
D03*
X63900Y48800D02*
D03*
X63700Y47400D02*
D03*
X66000Y48000D02*
D03*
X44800Y51400D02*
D03*
X46139Y51361D02*
D03*
X46808Y51368D02*
D03*
X44551Y48849D02*
D03*
X45540Y49100D02*
D03*
D113*
X76900Y39910D02*
D03*
Y46090D02*
D03*
M02*
