%FSLAX24Y24*%
%MOIN*%
G70*
G01*
G75*
%ADD10C,0.0080*%
%ADD11R,0.0433X0.0394*%
%ADD12R,0.0728X0.0118*%
%ADD13R,0.0728X0.0118*%
%ADD14R,0.0118X0.0728*%
%ADD15R,0.1024X0.0945*%
%ADD16R,0.0709X0.0157*%
%ADD17R,0.0157X0.0709*%
%ADD18R,0.0709X0.0122*%
%ADD19O,0.0122X0.0709*%
%ADD20R,0.0122X0.0709*%
%ADD21R,0.0700X0.0300*%
%ADD22O,0.0700X0.0300*%
%ADD23R,0.0300X0.0600*%
%ADD24R,0.1000X0.1400*%
%ADD25R,0.0945X0.1024*%
%ADD26R,0.0394X0.0433*%
%ADD27R,0.0551X0.0787*%
%ADD28R,0.0709X0.0630*%
%ADD29R,0.0827X0.1614*%
%ADD30R,0.0630X0.0709*%
%ADD31R,0.0709X0.0157*%
%ADD32C,0.0400*%
%ADD33C,0.0100*%
%ADD34C,0.0160*%
%ADD35C,0.0200*%
%ADD36C,0.1732*%
%ADD37C,0.0500*%
%ADD38C,0.0750*%
%ADD39C,0.1400*%
%ADD40C,0.1300*%
%ADD41C,0.0520*%
%ADD42C,0.0250*%
%ADD43C,0.0480*%
%ADD44C,0.0350*%
%ADD45C,0.0060*%
%ADD46C,0.0098*%
%ADD47C,0.0079*%
%ADD48C,0.0070*%
%ADD49C,0.0140*%
%ADD50C,0.0120*%
%ADD51R,0.0197X0.0079*%
%ADD52R,0.0200X0.1000*%
%ADD53R,0.0200X0.0500*%
%ADD54R,0.0500X0.0200*%
%ADD55R,0.0200X0.0700*%
%ADD56R,0.0200X0.0200*%
%ADD57R,0.0079X0.0197*%
%ADD58R,0.0079X0.0197*%
%ADD59C,0.0020*%
%ADD60R,0.0197X0.0079*%
D10*
X47200Y63800D02*
X51000D01*
X40900D02*
X50400D01*
X40900Y61000D02*
Y63800D01*
Y61000D02*
X51000D01*
Y63800D01*
X41000D02*
X47200D01*
X71630Y44190D02*
Y50410D01*
X79920D01*
X71630Y44200D02*
X79920D01*
X79900Y44190D02*
Y50410D01*
X51669Y40511D02*
X54280D01*
X51669D02*
X51689Y40491D01*
Y33976D02*
Y40491D01*
Y33976D02*
X51701Y33987D01*
X54311D01*
X54280Y34019D02*
X54311Y33987D01*
X54280Y34019D02*
Y40511D01*
X19999Y51910D02*
X24400D01*
X19999Y30990D02*
X24400D01*
X19999D02*
Y51910D01*
X24400Y30990D02*
Y51910D01*
X67800Y60800D02*
X67850D01*
X67900Y60850D01*
Y61100D01*
X68150Y60900D02*
X68250D01*
X68300Y60950D01*
Y61050D01*
X68250Y61100D01*
X68150D01*
X68100Y61050D01*
Y60950D01*
X68150Y60900D01*
X68400D02*
Y61100D01*
X68550D01*
X68600Y61050D01*
Y60900D01*
X68750Y61100D02*
X68850D01*
X68900Y61050D01*
Y60900D01*
X68750D01*
X68700Y60950D01*
X68750Y61000D01*
X68900D01*
X69000Y60900D02*
X69150D01*
X69200Y60950D01*
X69150Y61000D01*
X69050D01*
X69000Y61050D01*
X69050Y61100D01*
X69200D01*
X69449Y61000D02*
Y61050D01*
X69399D01*
Y61000D01*
X69449D01*
X69499Y61050D01*
Y61150D01*
X69449Y61200D01*
X69349D01*
X69300Y61150D01*
Y60950D01*
X69349Y60900D01*
X69499D01*
X69799Y61100D02*
X69649D01*
X69599Y61050D01*
Y60950D01*
X69649Y60900D01*
X69799D01*
X69949D02*
X70049D01*
X70099Y60950D01*
Y61050D01*
X70049Y61100D01*
X69949D01*
X69899Y61050D01*
Y60950D01*
X69949Y60900D01*
X70199Y61100D02*
Y60900D01*
Y61000D01*
X70249Y61050D01*
X70299Y61100D01*
X70349D01*
X70549Y61150D02*
Y61100D01*
X70499D01*
X70599D01*
X70549D01*
Y60950D01*
X70599Y60900D01*
X70749D02*
X70849D01*
X70799D01*
Y61100D01*
X70749D01*
X71199D02*
X71049D01*
X70999Y61050D01*
Y60950D01*
X71049Y60900D01*
X71199D01*
X71349Y61100D02*
X71449D01*
X71499Y61050D01*
Y60900D01*
X71349D01*
X71299Y60950D01*
X71349Y61000D01*
X71499D01*
X71599Y60900D02*
X71699D01*
X71649D01*
Y61200D01*
X71599D01*
X71849Y60900D02*
Y60950D01*
X71899D01*
Y60900D01*
X71849D01*
X72099D02*
Y61100D01*
X72149D01*
X72199Y61050D01*
Y60900D01*
Y61050D01*
X72249Y61100D01*
X72299Y61050D01*
Y60900D01*
X72399D02*
X72498D01*
X72449D01*
Y61100D01*
X72399D01*
X72698Y61150D02*
Y61100D01*
X72648D01*
X72748D01*
X72698D01*
Y60950D01*
X72748Y60900D01*
X72898D02*
Y60950D01*
X72948D01*
Y60900D01*
X72898D01*
X73298D02*
X73198D01*
X73148Y60950D01*
Y61050D01*
X73198Y61100D01*
X73298D01*
X73348Y61050D01*
Y61000D01*
X73148D01*
X73648Y61200D02*
Y60900D01*
X73498D01*
X73448Y60950D01*
Y61050D01*
X73498Y61100D01*
X73648D01*
X73748D02*
Y60950D01*
X73798Y60900D01*
X73948D01*
Y61100D01*
D33*
X56943Y50380D02*
G03*
X56943Y50380I-153J0D01*
G01*
X64250Y50550D02*
G03*
X64500Y50550I125J0D01*
G01*
X76800Y55500D02*
Y64400D01*
X51300D02*
X76800D01*
X51300Y55500D02*
Y64400D01*
Y55500D02*
X76800D01*
X62200Y50550D02*
X64250D01*
X64500D02*
X66550D01*
Y44550D02*
Y50550D01*
X62200Y44550D02*
X66550D01*
X62200D02*
Y50550D01*
X55000Y32800D02*
X57800D01*
Y34200D01*
X55000D02*
X57800D01*
X55000Y32800D02*
Y34200D01*
X25394Y56991D02*
X25787Y56597D01*
X22047Y54038D02*
X25787D01*
X22047D02*
Y56991D01*
X25787D01*
Y54038D02*
Y56991D01*
X42600Y33000D02*
X45400D01*
Y34400D01*
X42600D02*
X45400D01*
X42600Y33000D02*
Y34400D01*
X62200Y33800D02*
X65000D01*
Y35200D01*
X62200D02*
X65000D01*
X62200Y33800D02*
Y35200D01*
X43000Y53600D02*
X45800D01*
Y55000D01*
X43000D02*
X45800D01*
X43000Y53600D02*
Y55000D01*
X41000Y60100D02*
Y60700D01*
X41300D01*
X41400Y60600D01*
Y60400D01*
X41300Y60300D01*
X41000D01*
X41600Y60700D02*
Y60100D01*
Y60400D01*
X42000D01*
Y60700D01*
Y60100D01*
X42200Y60700D02*
Y60600D01*
X42400Y60400D01*
X42599Y60600D01*
Y60700D01*
X42400Y60400D02*
Y60100D01*
X43799Y60600D02*
X43699Y60700D01*
X43499D01*
X43399Y60600D01*
Y60500D01*
X43499Y60400D01*
X43699D01*
X43799Y60300D01*
Y60200D01*
X43699Y60100D01*
X43499D01*
X43399Y60200D01*
X44099Y60600D02*
Y60500D01*
X43999D01*
X44199D01*
X44099D01*
Y60200D01*
X44199Y60100D01*
X44599Y60500D02*
X44799D01*
X44899Y60400D01*
Y60100D01*
X44599D01*
X44499Y60200D01*
X44599Y60300D01*
X44899D01*
X45199Y60600D02*
Y60500D01*
X45099D01*
X45299D01*
X45199D01*
Y60200D01*
X45299Y60100D01*
X45599Y60500D02*
Y60200D01*
X45698Y60100D01*
X45998D01*
Y60500D01*
X46198Y60100D02*
X46498D01*
X46598Y60200D01*
X46498Y60300D01*
X46298D01*
X46198Y60400D01*
X46298Y60500D01*
X46598D01*
X52400Y61875D02*
X52325Y61950D01*
X52175D01*
X52100Y61875D01*
Y61575D01*
X52175Y61500D01*
X52325D01*
X52400Y61575D01*
X52625Y61500D02*
X52775D01*
X52850Y61575D01*
Y61725D01*
X52775Y61800D01*
X52625D01*
X52550Y61725D01*
Y61575D01*
X52625Y61500D01*
X53000Y61350D02*
Y61800D01*
X53225D01*
X53300Y61725D01*
Y61575D01*
X53225Y61500D01*
X53000D01*
X53450Y61800D02*
Y61575D01*
X53525Y61500D01*
X53749D01*
Y61425D01*
X53674Y61350D01*
X53600D01*
X53749Y61500D02*
Y61800D01*
X53899D02*
Y61500D01*
Y61650D01*
X53974Y61725D01*
X54049Y61800D01*
X54124D01*
X54349Y61500D02*
X54499D01*
X54424D01*
Y61800D01*
X54349D01*
X54874Y61350D02*
X54949D01*
X55024Y61425D01*
Y61800D01*
X54799D01*
X54724Y61725D01*
Y61575D01*
X54799Y61500D01*
X55024D01*
X55174Y61950D02*
Y61500D01*
Y61725D01*
X55249Y61800D01*
X55399D01*
X55474Y61725D01*
Y61500D01*
X55699Y61875D02*
Y61800D01*
X55624D01*
X55774D01*
X55699D01*
Y61575D01*
X55774Y61500D01*
X56748Y61950D02*
X56449D01*
Y61500D01*
X56748D01*
X56449Y61725D02*
X56599D01*
X56898Y61800D02*
Y61500D01*
Y61650D01*
X56973Y61725D01*
X57048Y61800D01*
X57123D01*
X57348Y61500D02*
X57498D01*
X57423D01*
Y61800D01*
X57348D01*
X58023D02*
X57798D01*
X57723Y61725D01*
Y61575D01*
X57798Y61500D01*
X58023D01*
X58923Y61950D02*
X58773D01*
X58848D01*
Y61575D01*
X58773Y61500D01*
X58698D01*
X58623Y61575D01*
X59148Y61500D02*
X59298D01*
X59373Y61575D01*
Y61725D01*
X59298Y61800D01*
X59148D01*
X59073Y61725D01*
Y61575D01*
X59148Y61500D01*
X59523D02*
Y61800D01*
X59748D01*
X59823Y61725D01*
Y61500D01*
X60047Y61800D02*
X60197D01*
X60272Y61725D01*
Y61500D01*
X60047D01*
X59972Y61575D01*
X60047Y61650D01*
X60272D01*
X60422Y61500D02*
X60647D01*
X60722Y61575D01*
X60647Y61650D01*
X60497D01*
X60422Y61725D01*
X60497Y61800D01*
X60722D01*
D34*
X22200Y58100D02*
Y58800D01*
X22550D01*
X22667Y58683D01*
Y58450D01*
X22550Y58333D01*
X22200D01*
X23250Y58800D02*
X23016D01*
X22900Y58683D01*
Y58217D01*
X23016Y58100D01*
X23250D01*
X23366Y58217D01*
Y58683D01*
X23250Y58800D01*
X23600D02*
Y58100D01*
X23833Y58333D01*
X24066Y58100D01*
Y58800D01*
X24766D02*
X24299D01*
Y58100D01*
X24766D01*
X24299Y58450D02*
X24533D01*
X24999Y58100D02*
Y58800D01*
X25349D01*
X25466Y58683D01*
Y58450D01*
X25349Y58333D01*
X24999D01*
X25232D02*
X25466Y58100D01*
D35*
X53000Y63500D02*
X52800Y63700D01*
X52400D01*
X52200Y63500D01*
Y63300D01*
X52400Y63100D01*
X52800D01*
X53000Y62900D01*
Y62700D01*
X52800Y62500D01*
X52400D01*
X52200Y62700D01*
X53999Y63700D02*
X53600D01*
X53400Y63500D01*
Y62700D01*
X53600Y62500D01*
X53999D01*
X54199Y62700D01*
Y63500D01*
X53999Y63700D01*
X54599Y62500D02*
Y63700D01*
X54999Y63300D01*
X55399Y63700D01*
Y62500D01*
X55799D02*
Y63300D01*
X56199Y63700D01*
X56599Y63300D01*
Y62500D01*
Y63100D01*
X55799D01*
X58998Y63500D02*
X58798Y63700D01*
X58398D01*
X58198Y63500D01*
Y62700D01*
X58398Y62500D01*
X58798D01*
X58998Y62700D01*
Y63100D01*
X58598D01*
X59398Y62500D02*
X59798D01*
X59598D01*
Y63300D01*
X59398D01*
X60797Y62100D02*
X60997D01*
X61197Y62300D01*
Y63300D01*
X60597D01*
X60397Y63100D01*
Y62700D01*
X60597Y62500D01*
X61197D01*
X61797Y63300D02*
X62197D01*
X62397Y63100D01*
Y62500D01*
X61797D01*
X61597Y62700D01*
X61797Y62900D01*
X62397D01*
X62797Y63700D02*
Y62500D01*
X63396D01*
X63596Y62700D01*
Y62900D01*
Y63100D01*
X63396Y63300D01*
X62797D01*
X63996Y62500D02*
X64396D01*
X64196D01*
Y63300D01*
X63996D01*
X65196Y63500D02*
Y63300D01*
X64996D01*
X65396D01*
X65196D01*
Y62700D01*
X65396Y62500D01*
X67995Y63700D02*
X67195D01*
Y62500D01*
X67995D01*
X67195Y63100D02*
X67595D01*
X68595Y63500D02*
Y63300D01*
X68395D01*
X68795D01*
X68595D01*
Y62700D01*
X68795Y62500D01*
X69394Y63700D02*
Y62500D01*
Y63100D01*
X69594Y63300D01*
X69994D01*
X70194Y63100D01*
Y62500D01*
X71194D02*
X70794D01*
X70594Y62700D01*
Y63100D01*
X70794Y63300D01*
X71194D01*
X71394Y63100D01*
Y62900D01*
X70594D01*
X71794Y63300D02*
Y62500D01*
Y62900D01*
X71994Y63100D01*
X72194Y63300D01*
X72393D01*
X72993Y62500D02*
Y63300D01*
X73593D01*
X73793Y63100D01*
Y62500D01*
X74793D02*
X74393D01*
X74193Y62700D01*
Y63100D01*
X74393Y63300D01*
X74793D01*
X74993Y63100D01*
Y62900D01*
X74193D01*
X75592Y63500D02*
Y63300D01*
X75392D01*
X75792D01*
X75592D01*
Y62700D01*
X75792Y62500D01*
D45*
X49280Y63452D02*
G03*
X49951Y63440I320J-852D01*
G01*
X44480Y63452D02*
G03*
X45151Y63440I320J-852D01*
G01*
X46880Y63452D02*
G03*
X47551Y63440I320J-852D01*
G01*
X42080Y63452D02*
G03*
X42751Y63440I320J-852D01*
G01*
X23480Y60852D02*
G03*
X24151Y60840I320J-852D01*
G01*
X74580Y59452D02*
G03*
X75251Y59440I320J-852D01*
G01*
X70180Y59452D02*
G03*
X70851Y59440I320J-852D01*
G01*
X66380Y59452D02*
G03*
X67051Y59440I320J-852D01*
G01*
X62380Y59452D02*
G03*
X63051Y59440I320J-852D01*
G01*
X58580Y59452D02*
G03*
X59251Y59440I320J-852D01*
G01*
X54780Y59452D02*
G03*
X55451Y59440I320J-852D01*
G01*
X49279Y63450D02*
X49940D01*
X44479D02*
X45140D01*
X46879D02*
X47540D01*
X42079D02*
X42740D01*
X23479Y60850D02*
X24140D01*
X74579Y59450D02*
X75240D01*
X70179D02*
X70840D01*
X66379D02*
X67040D01*
X62379D02*
X63040D01*
X58579D02*
X59240D01*
X54779D02*
X55440D01*
D46*
X31454Y39765D02*
G03*
X31454Y39765I-49J0D01*
G01*
X39155Y61991D02*
G03*
X39155Y61991I-49J0D01*
G01*
D47*
X42638Y59146D02*
X43209D01*
X42638Y59854D02*
X43209D01*
Y59146D02*
Y59854D01*
X41791Y59146D02*
Y59854D01*
Y59146D02*
X42362D01*
X41791Y59854D02*
X42362D01*
X42638Y58146D02*
X43209D01*
X42638Y58854D02*
X43209D01*
Y58146D02*
Y58854D01*
X41791Y58146D02*
Y58854D01*
Y58146D02*
X42362D01*
X41791Y58854D02*
X42362D01*
X44838Y59146D02*
X45409D01*
X44838Y59854D02*
X45409D01*
Y59146D02*
Y59854D01*
X43991Y59146D02*
Y59854D01*
Y59146D02*
X44562D01*
X43991Y59854D02*
X44562D01*
X44838Y58146D02*
X45409D01*
X44838Y58854D02*
X45409D01*
Y58146D02*
Y58854D01*
X43991Y58146D02*
Y58854D01*
Y58146D02*
X44562D01*
X43991Y58854D02*
X44562D01*
X46838Y59146D02*
X47409D01*
X46838Y59854D02*
X47409D01*
Y59146D02*
Y59854D01*
X45991Y59146D02*
Y59854D01*
Y59146D02*
X46562D01*
X45991Y59854D02*
X46562D01*
X46838Y58146D02*
X47409D01*
X46838Y58854D02*
X47409D01*
Y58146D02*
Y58854D01*
X45991Y58146D02*
Y58854D01*
Y58146D02*
X46562D01*
X45991Y58854D02*
X46562D01*
X31287Y51113D02*
X42113D01*
X31287Y40287D02*
X42113D01*
X31287D02*
Y51113D01*
X42113Y40287D02*
Y51113D01*
X44291Y42554D02*
X44862D01*
X44291Y41846D02*
X44862D01*
X44291D02*
Y42554D01*
X45709Y41846D02*
Y42554D01*
X45138D02*
X45709D01*
X45138Y41846D02*
X45709D01*
X67471Y33830D02*
X71132D01*
X67471Y32570D02*
X71132D01*
X67471D02*
Y33830D01*
X44491Y51554D02*
X45062D01*
X44491Y50846D02*
X45062D01*
X44491D02*
Y51554D01*
X45909Y50846D02*
Y51554D01*
X45338D02*
X45909D01*
X45338Y50846D02*
X45909D01*
X38958Y56123D02*
Y61477D01*
X31242Y56123D02*
Y61477D01*
X38958D01*
X31242Y56123D02*
X38958D01*
X56401Y45076D02*
Y50035D01*
X48515D02*
X56401D01*
X48515Y44511D02*
Y50035D01*
Y44511D02*
X55836D01*
X56401Y45076D01*
X58691Y44254D02*
X59262D01*
X58691Y43546D02*
X59262D01*
X58691D02*
Y44254D01*
X60109Y43546D02*
Y44254D01*
X59538D02*
X60109D01*
X59538Y43546D02*
X60109D01*
X58691Y45254D02*
X59262D01*
X58691Y44546D02*
X59262D01*
X58691D02*
Y45254D01*
X60109Y44546D02*
Y45254D01*
X59538D02*
X60109D01*
X59538Y44546D02*
X60109D01*
X58691Y50254D02*
X59262D01*
X58691Y49546D02*
X59262D01*
X58691D02*
Y50254D01*
X60109Y49546D02*
Y50254D01*
X59538D02*
X60109D01*
X59538Y49546D02*
X60109D01*
X58370Y30871D02*
Y34532D01*
X59630Y30871D02*
Y34532D01*
X58370Y30871D02*
X59630D01*
X53646Y31491D02*
Y32062D01*
X54354Y31491D02*
Y32062D01*
X53646Y31491D02*
X54354D01*
X53646Y32909D02*
X54354D01*
X53646Y32338D02*
Y32909D01*
X54354Y32338D02*
Y32909D01*
X40570Y31671D02*
Y35332D01*
X41830Y31671D02*
Y35332D01*
X40570Y31671D02*
X41830D01*
X66554Y32938D02*
Y33509D01*
X65846Y32938D02*
Y33509D01*
X66554D01*
X65846Y32091D02*
X66554D01*
Y32662D01*
X65846Y32091D02*
Y32662D01*
X46370Y52071D02*
Y55732D01*
X47630Y52071D02*
Y55732D01*
X46370Y52071D02*
X47630D01*
X42046Y52691D02*
Y53262D01*
X42754Y52691D02*
Y53262D01*
X42046Y52691D02*
X42754D01*
X42046Y54109D02*
X42754D01*
X42046Y53538D02*
Y54109D01*
X42754Y53538D02*
Y54109D01*
X55846Y40891D02*
Y41462D01*
X56554Y40891D02*
Y41462D01*
X55846Y40891D02*
X56554D01*
X55846Y42309D02*
X56554D01*
X55846Y41738D02*
Y42309D01*
X56554Y41738D02*
Y42309D01*
X57554Y41738D02*
Y42309D01*
X56846Y41738D02*
Y42309D01*
X57554D01*
X56846Y40891D02*
X57554D01*
Y41462D01*
X56846Y40891D02*
Y41462D01*
X55354Y41738D02*
Y42309D01*
X54646Y41738D02*
Y42309D01*
X55354D01*
X54646Y40891D02*
X55354D01*
Y41462D01*
X54646Y40891D02*
Y41462D01*
X57770Y36071D02*
Y39732D01*
X59030Y36071D02*
Y39732D01*
X57770Y36071D02*
X59030D01*
X57154Y39138D02*
Y39709D01*
X56446Y39138D02*
Y39709D01*
X57154D01*
X56446Y38291D02*
X57154D01*
Y38862D01*
X56446Y38291D02*
Y38862D01*
X58954Y41738D02*
Y42309D01*
X58246Y41738D02*
Y42309D01*
X58954D01*
X58246Y40891D02*
X58954D01*
Y41462D01*
X58246Y40891D02*
Y41462D01*
X58691Y51254D02*
X59262D01*
X58691Y50546D02*
X59262D01*
X58691D02*
Y51254D01*
X60109Y50546D02*
Y51254D01*
X59538D02*
X60109D01*
X59538Y50546D02*
X60109D01*
X58691Y49254D02*
X59262D01*
X58691Y48546D02*
X59262D01*
X58691D02*
Y49254D01*
X60109Y48546D02*
Y49254D01*
X59538D02*
X60109D01*
X59538Y48546D02*
X60109D01*
X58691Y48254D02*
X59262D01*
X58691Y47546D02*
X59262D01*
X58691D02*
Y48254D01*
X60109Y47546D02*
Y48254D01*
X59538D02*
X60109D01*
X59538Y47546D02*
X60109D01*
X58691Y47254D02*
X59262D01*
X58691Y46546D02*
X59262D01*
X58691D02*
Y47254D01*
X60109Y46546D02*
Y47254D01*
X59538D02*
X60109D01*
X59538Y46546D02*
X60109D01*
X58691Y46254D02*
X59262D01*
X58691Y45546D02*
X59262D01*
X58691D02*
Y46254D01*
X60109Y45546D02*
Y46254D01*
X59538D02*
X60109D01*
X59538Y45546D02*
X60109D01*
X48488Y53876D02*
Y54624D01*
X49512Y53876D02*
Y54624D01*
X48488Y52576D02*
Y53324D01*
X49512Y52576D02*
Y53324D01*
X48488Y52576D02*
X49512D01*
X48488Y54624D02*
X49512D01*
X68891Y46154D02*
X69462D01*
X68891Y45446D02*
X69462D01*
X68891D02*
Y46154D01*
X70309Y45446D02*
Y46154D01*
X69738D02*
X70309D01*
X69738Y45446D02*
X70309D01*
X68891Y47554D02*
X69462D01*
X68891Y46846D02*
X69462D01*
X68891D02*
Y47554D01*
X70309Y46846D02*
Y47554D01*
X69738D02*
X70309D01*
X69738Y46846D02*
X70309D01*
X50246Y38291D02*
Y38862D01*
X50954Y38291D02*
Y38862D01*
X50246Y38291D02*
X50954D01*
X50246Y39709D02*
X50954D01*
X50246Y39138D02*
Y39709D01*
X50954Y39138D02*
Y39709D01*
X68891Y49154D02*
X69462D01*
X68891Y48446D02*
X69462D01*
X68891D02*
Y49154D01*
X70309Y48446D02*
Y49154D01*
X69738D02*
X70309D01*
X69738Y48446D02*
X70309D01*
X68891Y50954D02*
X69462D01*
X68891Y50246D02*
X69462D01*
X68891D02*
Y50954D01*
X70309Y50246D02*
Y50954D01*
X69738D02*
X70309D01*
X69738Y50246D02*
X70309D01*
X54846Y38291D02*
Y38862D01*
X55554Y38291D02*
Y38862D01*
X54846Y38291D02*
X55554D01*
X54846Y39709D02*
X55554D01*
X54846Y39138D02*
Y39709D01*
X55554Y39138D02*
Y39709D01*
X69338Y42246D02*
X69909D01*
X69338Y42954D02*
X69909D01*
Y42246D02*
Y42954D01*
X68491Y42246D02*
Y42954D01*
Y42246D02*
X69062D01*
X68491Y42954D02*
X69062D01*
X49976Y30888D02*
X50724D01*
X49976Y31912D02*
X50724D01*
X51276Y30888D02*
X52024D01*
X51276Y31912D02*
X52024D01*
Y30888D02*
Y31912D01*
X49976Y30888D02*
Y31912D01*
X71912Y50976D02*
Y51724D01*
X70888Y50976D02*
Y51724D01*
X71912Y52276D02*
Y53024D01*
X70888Y52276D02*
Y53024D01*
X71912D01*
X70888Y50976D02*
X71912D01*
X70888Y42076D02*
Y42824D01*
X71912Y42076D02*
Y42824D01*
X70888Y40776D02*
Y41524D01*
X71912Y40776D02*
Y41524D01*
X70888Y40776D02*
X71912D01*
X70888Y42824D02*
X71912D01*
X49976Y32488D02*
X50724D01*
X49976Y33512D02*
X50724D01*
X51276Y32488D02*
X52024D01*
X51276Y33512D02*
X52024D01*
Y32488D02*
Y33512D01*
X49976Y32488D02*
Y33512D01*
X48291Y58854D02*
X48862D01*
X48291Y58146D02*
X48862D01*
X48291D02*
Y58854D01*
X49709Y58146D02*
Y58854D01*
X49138D02*
X49709D01*
X49138Y58146D02*
X49709D01*
X48291Y59854D02*
X48862D01*
X48291Y59146D02*
X48862D01*
X48291D02*
Y59854D01*
X49709Y59146D02*
Y59854D01*
X49138D02*
X49709D01*
X49138Y59146D02*
X49709D01*
X26954Y61338D02*
Y61909D01*
X26246Y61338D02*
Y61909D01*
X26954D01*
X26246Y60491D02*
X26954D01*
Y61062D01*
X26246Y60491D02*
Y61062D01*
X73554Y58738D02*
Y59309D01*
X72846Y58738D02*
Y59309D01*
X73554D01*
X72846Y57891D02*
X73554D01*
Y58462D01*
X72846Y57891D02*
Y58462D01*
X69154Y58738D02*
Y59309D01*
X68446Y58738D02*
Y59309D01*
X69154D01*
X68446Y57891D02*
X69154D01*
Y58462D01*
X68446Y57891D02*
Y58462D01*
X65354Y58738D02*
Y59309D01*
X64646Y58738D02*
Y59309D01*
X65354D01*
X64646Y57891D02*
X65354D01*
Y58462D01*
X64646Y57891D02*
Y58462D01*
X61354Y58738D02*
Y59309D01*
X60646Y58738D02*
Y59309D01*
X61354D01*
X60646Y57891D02*
X61354D01*
Y58462D01*
X60646Y57891D02*
Y58462D01*
X57554Y58738D02*
Y59309D01*
X56846Y58738D02*
Y59309D01*
X57554D01*
X56846Y57891D02*
X57554D01*
Y58462D01*
X56846Y57891D02*
Y58462D01*
X53754Y58738D02*
Y59309D01*
X53046Y58738D02*
Y59309D01*
X53754D01*
X53046Y57891D02*
X53754D01*
Y58462D01*
X53046Y57891D02*
Y58462D01*
X45338Y49446D02*
X45909D01*
X45338Y50154D02*
X45909D01*
Y49446D02*
Y50154D01*
X44491Y49446D02*
Y50154D01*
Y49446D02*
X45062D01*
X44491Y50154D02*
X45062D01*
X45138Y40646D02*
X45709D01*
X45138Y41354D02*
X45709D01*
Y40646D02*
Y41354D01*
X44291Y40646D02*
Y41354D01*
Y40646D02*
X44862D01*
X44291Y41354D02*
X44862D01*
X26538Y51646D02*
X27109D01*
X26538Y52354D02*
X27109D01*
Y51646D02*
Y52354D01*
X25691Y51646D02*
Y52354D01*
Y51646D02*
X26262D01*
X25691Y52354D02*
X26262D01*
X26538Y49646D02*
X27109D01*
X26538Y50354D02*
X27109D01*
Y49646D02*
Y50354D01*
X25691Y49646D02*
Y50354D01*
Y49646D02*
X26262D01*
X25691Y50354D02*
X26262D01*
X26538Y50646D02*
X27109D01*
X26538Y51354D02*
X27109D01*
Y50646D02*
Y51354D01*
X25691Y50646D02*
Y51354D01*
Y50646D02*
X26262D01*
X25691Y51354D02*
X26262D01*
X26538Y52646D02*
X27109D01*
X26538Y53354D02*
X27109D01*
Y52646D02*
Y53354D01*
X25691Y52646D02*
Y53354D01*
Y52646D02*
X26262D01*
X25691Y53354D02*
X26262D01*
D48*
X46000Y51600D02*
X46300D01*
Y51450D01*
X46250Y51400D01*
X46150D01*
X46100Y51450D01*
Y51600D01*
Y51500D02*
X46000Y51400D01*
Y51100D02*
Y51300D01*
X46200Y51100D01*
X46250D01*
X46300Y51150D01*
Y51250D01*
X46250Y51300D01*
X46300Y50800D02*
Y51000D01*
X46150D01*
X46200Y50900D01*
Y50850D01*
X46150Y50800D01*
X46050D01*
X46000Y50850D01*
Y50950D01*
X46050Y51000D01*
X51700Y41120D02*
Y41070D01*
X51800Y40970D01*
X51900Y41070D01*
Y41120D01*
X51800Y40970D02*
Y40820D01*
X52000D02*
X52100D01*
X52050D01*
Y41120D01*
X52000Y41070D01*
X30600Y51900D02*
Y51650D01*
X30650Y51600D01*
X30750D01*
X30800Y51650D01*
Y51900D01*
X30900D02*
X31100D01*
Y51850D01*
X30900Y51650D01*
Y51600D01*
X43000Y55500D02*
Y55250D01*
X43050Y55200D01*
X43150D01*
X43200Y55250D01*
Y55500D01*
X43500D02*
X43400Y55450D01*
X43300Y55350D01*
Y55250D01*
X43350Y55200D01*
X43450D01*
X43500Y55250D01*
Y55300D01*
X43450Y55350D01*
X43300D01*
X30300Y62200D02*
Y61950D01*
X30350Y61900D01*
X30450D01*
X30500Y61950D01*
Y62200D01*
X30800D02*
X30600D01*
Y62050D01*
X30700Y62100D01*
X30750D01*
X30800Y62050D01*
Y61950D01*
X30750Y61900D01*
X30650D01*
X30600Y61950D01*
X62200Y35900D02*
Y35650D01*
X62250Y35600D01*
X62350D01*
X62400Y35650D01*
Y35900D01*
X62650Y35600D02*
Y35900D01*
X62500Y35750D01*
X62700D01*
X42620Y35680D02*
Y35430D01*
X42670Y35380D01*
X42770D01*
X42820Y35430D01*
Y35680D01*
X42920Y35630D02*
X42970Y35680D01*
X43070D01*
X43120Y35630D01*
Y35580D01*
X43070Y35530D01*
X43020D01*
X43070D01*
X43120Y35480D01*
Y35430D01*
X43070Y35380D01*
X42970D01*
X42920Y35430D01*
X47800Y50700D02*
Y50450D01*
X47850Y50400D01*
X47950D01*
X48000Y50450D01*
Y50700D01*
X48300Y50400D02*
X48100D01*
X48300Y50600D01*
Y50650D01*
X48250Y50700D01*
X48150D01*
X48100Y50650D01*
X55040Y34800D02*
Y34550D01*
X55090Y34500D01*
X55190D01*
X55240Y34550D01*
Y34800D01*
X55340Y34500D02*
X55440D01*
X55390D01*
Y34800D01*
X55340Y34750D01*
X45900Y41400D02*
X46200D01*
Y41250D01*
X46150Y41200D01*
X46050D01*
X46000Y41250D01*
Y41400D01*
Y41300D02*
X45900Y41200D01*
X46150Y41100D02*
X46200Y41050D01*
Y40950D01*
X46150Y40900D01*
X46100D01*
X46050Y40950D01*
Y41000D01*
Y40950D01*
X46000Y40900D01*
X45950D01*
X45900Y40950D01*
Y41050D01*
X45950Y41100D01*
X46200Y40600D02*
X46150Y40700D01*
X46050Y40800D01*
X45950D01*
X45900Y40750D01*
Y40650D01*
X45950Y40600D01*
X46000D01*
X46050Y40650D01*
Y40800D01*
X45900Y42500D02*
X46200D01*
Y42350D01*
X46150Y42300D01*
X46050D01*
X46000Y42350D01*
Y42500D01*
Y42400D02*
X45900Y42300D01*
X46150Y42200D02*
X46200Y42150D01*
Y42050D01*
X46150Y42000D01*
X46100D01*
X46050Y42050D01*
Y42100D01*
Y42050D01*
X46000Y42000D01*
X45950D01*
X45900Y42050D01*
Y42150D01*
X45950Y42200D01*
X46200Y41700D02*
Y41900D01*
X46050D01*
X46100Y41800D01*
Y41750D01*
X46050Y41700D01*
X45950D01*
X45900Y41750D01*
Y41850D01*
X45950Y41900D01*
X43900Y59100D02*
X43600D01*
Y59250D01*
X43650Y59300D01*
X43750D01*
X43800Y59250D01*
Y59100D01*
Y59200D02*
X43900Y59300D01*
X43650Y59400D02*
X43600Y59450D01*
Y59550D01*
X43650Y59600D01*
X43700D01*
X43750Y59550D01*
Y59500D01*
Y59550D01*
X43800Y59600D01*
X43850D01*
X43900Y59550D01*
Y59450D01*
X43850Y59400D01*
X43900Y59850D02*
X43600D01*
X43750Y59700D01*
Y59900D01*
X45900Y59100D02*
X45600D01*
Y59250D01*
X45650Y59300D01*
X45750D01*
X45800Y59250D01*
Y59100D01*
Y59200D02*
X45900Y59300D01*
X45650Y59400D02*
X45600Y59450D01*
Y59550D01*
X45650Y59600D01*
X45700D01*
X45750Y59550D01*
Y59500D01*
Y59550D01*
X45800Y59600D01*
X45850D01*
X45900Y59550D01*
Y59450D01*
X45850Y59400D01*
X45650Y59700D02*
X45600Y59750D01*
Y59850D01*
X45650Y59900D01*
X45700D01*
X45750Y59850D01*
Y59800D01*
Y59850D01*
X45800Y59900D01*
X45850D01*
X45900Y59850D01*
Y59750D01*
X45850Y59700D01*
X48200Y59100D02*
X47900D01*
Y59250D01*
X47950Y59300D01*
X48050D01*
X48100Y59250D01*
Y59100D01*
Y59200D02*
X48200Y59300D01*
X47950Y59400D02*
X47900Y59450D01*
Y59550D01*
X47950Y59600D01*
X48000D01*
X48050Y59550D01*
Y59500D01*
Y59550D01*
X48100Y59600D01*
X48150D01*
X48200Y59550D01*
Y59450D01*
X48150Y59400D01*
X48200Y59900D02*
Y59700D01*
X48000Y59900D01*
X47950D01*
X47900Y59850D01*
Y59750D01*
X47950Y59700D01*
X41700Y58100D02*
X41400D01*
Y58250D01*
X41450Y58300D01*
X41550D01*
X41600Y58250D01*
Y58100D01*
Y58200D02*
X41700Y58300D01*
X41450Y58400D02*
X41400Y58450D01*
Y58550D01*
X41450Y58600D01*
X41500D01*
X41550Y58550D01*
Y58500D01*
Y58550D01*
X41600Y58600D01*
X41650D01*
X41700Y58550D01*
Y58450D01*
X41650Y58400D01*
X41700Y58700D02*
Y58800D01*
Y58750D01*
X41400D01*
X41450Y58700D01*
X43900Y58100D02*
X43600D01*
Y58250D01*
X43650Y58300D01*
X43750D01*
X43800Y58250D01*
Y58100D01*
Y58200D02*
X43900Y58300D01*
X43650Y58400D02*
X43600Y58450D01*
Y58550D01*
X43650Y58600D01*
X43700D01*
X43750Y58550D01*
Y58500D01*
Y58550D01*
X43800Y58600D01*
X43850D01*
X43900Y58550D01*
Y58450D01*
X43850Y58400D01*
X43650Y58700D02*
X43600Y58750D01*
Y58850D01*
X43650Y58900D01*
X43850D01*
X43900Y58850D01*
Y58750D01*
X43850Y58700D01*
X43650D01*
X45900Y58100D02*
X45600D01*
Y58250D01*
X45650Y58300D01*
X45750D01*
X45800Y58250D01*
Y58100D01*
Y58200D02*
X45900Y58300D01*
Y58600D02*
Y58400D01*
X45700Y58600D01*
X45650D01*
X45600Y58550D01*
Y58450D01*
X45650Y58400D01*
X45850Y58700D02*
X45900Y58750D01*
Y58850D01*
X45850Y58900D01*
X45650D01*
X45600Y58850D01*
Y58750D01*
X45650Y58700D01*
X45700D01*
X45750Y58750D01*
Y58900D01*
X48200Y58100D02*
X47900D01*
Y58250D01*
X47950Y58300D01*
X48050D01*
X48100Y58250D01*
Y58100D01*
Y58200D02*
X48200Y58300D01*
Y58600D02*
Y58400D01*
X48000Y58600D01*
X47950D01*
X47900Y58550D01*
Y58450D01*
X47950Y58400D01*
Y58700D02*
X47900Y58750D01*
Y58850D01*
X47950Y58900D01*
X48000D01*
X48050Y58850D01*
X48100Y58900D01*
X48150D01*
X48200Y58850D01*
Y58750D01*
X48150Y58700D01*
X48100D01*
X48050Y58750D01*
X48000Y58700D01*
X47950D01*
X48050Y58750D02*
Y58850D01*
X41700Y59100D02*
X41400D01*
Y59250D01*
X41450Y59300D01*
X41550D01*
X41600Y59250D01*
Y59100D01*
Y59200D02*
X41700Y59300D01*
Y59600D02*
Y59400D01*
X41500Y59600D01*
X41450D01*
X41400Y59550D01*
Y59450D01*
X41450Y59400D01*
X41400Y59700D02*
Y59900D01*
X41450D01*
X41650Y59700D01*
X41700D01*
X46000Y50200D02*
X46300D01*
Y50050D01*
X46250Y50000D01*
X46150D01*
X46100Y50050D01*
Y50200D01*
Y50100D02*
X46000Y50000D01*
Y49700D02*
Y49900D01*
X46200Y49700D01*
X46250D01*
X46300Y49750D01*
Y49850D01*
X46250Y49900D01*
X46300Y49400D02*
X46250Y49500D01*
X46150Y49600D01*
X46050D01*
X46000Y49550D01*
Y49450D01*
X46050Y49400D01*
X46100D01*
X46150Y49450D01*
Y49600D01*
X49800Y32600D02*
X49500D01*
Y32750D01*
X49550Y32800D01*
X49650D01*
X49700Y32750D01*
Y32600D01*
Y32700D02*
X49800Y32800D01*
Y33100D02*
Y32900D01*
X49600Y33100D01*
X49550D01*
X49500Y33050D01*
Y32950D01*
X49550Y32900D01*
X49800Y33350D02*
X49500D01*
X49650Y33200D01*
Y33400D01*
X49800Y30800D02*
X49500D01*
Y30950D01*
X49550Y31000D01*
X49650D01*
X49700Y30950D01*
Y30800D01*
Y30900D02*
X49800Y31000D01*
Y31300D02*
Y31100D01*
X49600Y31300D01*
X49550D01*
X49500Y31250D01*
Y31150D01*
X49550Y31100D01*
Y31400D02*
X49500Y31450D01*
Y31550D01*
X49550Y31600D01*
X49600D01*
X49650Y31550D01*
Y31500D01*
Y31550D01*
X49700Y31600D01*
X49750D01*
X49800Y31550D01*
Y31450D01*
X49750Y31400D01*
X68700Y50200D02*
X68400D01*
Y50350D01*
X68450Y50400D01*
X68550D01*
X68600Y50350D01*
Y50200D01*
Y50300D02*
X68700Y50400D01*
Y50700D02*
Y50500D01*
X68500Y50700D01*
X68450D01*
X68400Y50650D01*
Y50550D01*
X68450Y50500D01*
X68700Y51000D02*
Y50800D01*
X68500Y51000D01*
X68450D01*
X68400Y50950D01*
Y50850D01*
X68450Y50800D01*
X68700Y48400D02*
X68400D01*
Y48550D01*
X68450Y48600D01*
X68550D01*
X68600Y48550D01*
Y48400D01*
Y48500D02*
X68700Y48600D01*
Y48900D02*
Y48700D01*
X68500Y48900D01*
X68450D01*
X68400Y48850D01*
Y48750D01*
X68450Y48700D01*
X68700Y49000D02*
Y49100D01*
Y49050D01*
X68400D01*
X68450Y49000D01*
X68700Y46800D02*
X68400D01*
Y46950D01*
X68450Y47000D01*
X68550D01*
X68600Y46950D01*
Y46800D01*
Y46900D02*
X68700Y47000D01*
Y47300D02*
Y47100D01*
X68500Y47300D01*
X68450D01*
X68400Y47250D01*
Y47150D01*
X68450Y47100D01*
Y47400D02*
X68400Y47450D01*
Y47550D01*
X68450Y47600D01*
X68650D01*
X68700Y47550D01*
Y47450D01*
X68650Y47400D01*
X68450D01*
X68800Y45400D02*
X68500D01*
Y45550D01*
X68550Y45600D01*
X68650D01*
X68700Y45550D01*
Y45400D01*
Y45500D02*
X68800Y45600D01*
Y45700D02*
Y45800D01*
Y45750D01*
X68500D01*
X68550Y45700D01*
X68750Y45950D02*
X68800Y46000D01*
Y46100D01*
X68750Y46150D01*
X68550D01*
X68500Y46100D01*
Y46000D01*
X68550Y45950D01*
X68600D01*
X68650Y46000D01*
Y46150D01*
X48440Y54930D02*
Y55230D01*
X48590D01*
X48640Y55180D01*
Y55080D01*
X48590Y55030D01*
X48440D01*
X48540D02*
X48640Y54930D01*
X48740D02*
X48840D01*
X48790D01*
Y55230D01*
X48740Y55180D01*
X48990D02*
X49040Y55230D01*
X49140D01*
X49190Y55180D01*
Y55130D01*
X49140Y55080D01*
X49190Y55030D01*
Y54980D01*
X49140Y54930D01*
X49040D01*
X48990Y54980D01*
Y55030D01*
X49040Y55080D01*
X48990Y55130D01*
Y55180D01*
X49040Y55080D02*
X49140D01*
X60200Y51200D02*
X60500D01*
Y51050D01*
X60450Y51000D01*
X60350D01*
X60300Y51050D01*
Y51200D01*
Y51100D02*
X60200Y51000D01*
Y50900D02*
Y50800D01*
Y50850D01*
X60500D01*
X60450Y50900D01*
X60500Y50650D02*
Y50450D01*
X60450D01*
X60250Y50650D01*
X60200D01*
Y50200D02*
X60500D01*
Y50050D01*
X60450Y50000D01*
X60350D01*
X60300Y50050D01*
Y50200D01*
Y50100D02*
X60200Y50000D01*
Y49900D02*
Y49800D01*
Y49850D01*
X60500D01*
X60450Y49900D01*
X60500Y49450D02*
X60450Y49550D01*
X60350Y49650D01*
X60250D01*
X60200Y49600D01*
Y49500D01*
X60250Y49450D01*
X60300D01*
X60350Y49500D01*
Y49650D01*
X60200Y49200D02*
X60500D01*
Y49050D01*
X60450Y49000D01*
X60350D01*
X60300Y49050D01*
Y49200D01*
Y49100D02*
X60200Y49000D01*
Y48900D02*
Y48800D01*
Y48850D01*
X60500D01*
X60450Y48900D01*
X60500Y48450D02*
Y48650D01*
X60350D01*
X60400Y48550D01*
Y48500D01*
X60350Y48450D01*
X60250D01*
X60200Y48500D01*
Y48600D01*
X60250Y48650D01*
X60200Y48200D02*
X60500D01*
Y48050D01*
X60450Y48000D01*
X60350D01*
X60300Y48050D01*
Y48200D01*
Y48100D02*
X60200Y48000D01*
Y47900D02*
Y47800D01*
Y47850D01*
X60500D01*
X60450Y47900D01*
X60200Y47500D02*
X60500D01*
X60350Y47650D01*
Y47450D01*
X60200Y47300D02*
X60500D01*
Y47150D01*
X60450Y47100D01*
X60350D01*
X60300Y47150D01*
Y47300D01*
Y47200D02*
X60200Y47100D01*
Y47000D02*
Y46900D01*
Y46950D01*
X60500D01*
X60450Y47000D01*
Y46750D02*
X60500Y46700D01*
Y46600D01*
X60450Y46550D01*
X60400D01*
X60350Y46600D01*
Y46650D01*
Y46600D01*
X60300Y46550D01*
X60250D01*
X60200Y46600D01*
Y46700D01*
X60250Y46750D01*
X60200Y46300D02*
X60500D01*
Y46150D01*
X60450Y46100D01*
X60350D01*
X60300Y46150D01*
Y46300D01*
Y46200D02*
X60200Y46100D01*
Y46000D02*
Y45900D01*
Y45950D01*
X60500D01*
X60450Y46000D01*
X60200Y45550D02*
Y45750D01*
X60400Y45550D01*
X60450D01*
X60500Y45600D01*
Y45700D01*
X60450Y45750D01*
X60200Y44200D02*
X60500D01*
Y44050D01*
X60450Y44000D01*
X60350D01*
X60300Y44050D01*
Y44200D01*
Y44100D02*
X60200Y44000D01*
Y43900D02*
Y43800D01*
Y43850D01*
X60500D01*
X60450Y43900D01*
X60200Y43650D02*
Y43550D01*
Y43600D01*
X60500D01*
X60450Y43650D01*
X58200Y42620D02*
Y42920D01*
X58350D01*
X58400Y42870D01*
Y42770D01*
X58350Y42720D01*
X58200D01*
X58300D02*
X58400Y42620D01*
X58500D02*
X58600D01*
X58550D01*
Y42920D01*
X58500Y42870D01*
X58750D02*
X58800Y42920D01*
X58900D01*
X58950Y42870D01*
Y42670D01*
X58900Y42620D01*
X58800D01*
X58750Y42670D01*
Y42870D01*
X60200Y45200D02*
X60500D01*
Y45050D01*
X60450Y45000D01*
X60350D01*
X60300Y45050D01*
Y45200D01*
Y45100D02*
X60200Y45000D01*
X60250Y44900D02*
X60200Y44850D01*
Y44750D01*
X60250Y44700D01*
X60450D01*
X60500Y44750D01*
Y44850D01*
X60450Y44900D01*
X60400D01*
X60350Y44850D01*
Y44700D01*
X55800Y42620D02*
Y42920D01*
X55950D01*
X56000Y42870D01*
Y42770D01*
X55950Y42720D01*
X55800D01*
X55900D02*
X56000Y42620D01*
X56100Y42870D02*
X56150Y42920D01*
X56250D01*
X56300Y42870D01*
Y42820D01*
X56250Y42770D01*
X56300Y42720D01*
Y42670D01*
X56250Y42620D01*
X56150D01*
X56100Y42670D01*
Y42720D01*
X56150Y42770D01*
X56100Y42820D01*
Y42870D01*
X56150Y42770D02*
X56250D01*
X72800Y59500D02*
Y59800D01*
X72950D01*
X73000Y59750D01*
Y59650D01*
X72950Y59600D01*
X72800D01*
X72900D02*
X73000Y59500D01*
X73100Y59800D02*
X73300D01*
Y59750D01*
X73100Y59550D01*
Y59500D01*
X68400D02*
Y59800D01*
X68550D01*
X68600Y59750D01*
Y59650D01*
X68550Y59600D01*
X68400D01*
X68500D02*
X68600Y59500D01*
X68900Y59800D02*
X68800Y59750D01*
X68700Y59650D01*
Y59550D01*
X68750Y59500D01*
X68850D01*
X68900Y59550D01*
Y59600D01*
X68850Y59650D01*
X68700D01*
X64600Y59500D02*
Y59800D01*
X64750D01*
X64800Y59750D01*
Y59650D01*
X64750Y59600D01*
X64600D01*
X64700D02*
X64800Y59500D01*
X65100Y59800D02*
X64900D01*
Y59650D01*
X65000Y59700D01*
X65050D01*
X65100Y59650D01*
Y59550D01*
X65050Y59500D01*
X64950D01*
X64900Y59550D01*
X60600Y59500D02*
Y59800D01*
X60750D01*
X60800Y59750D01*
Y59650D01*
X60750Y59600D01*
X60600D01*
X60700D02*
X60800Y59500D01*
X61050D02*
Y59800D01*
X60900Y59650D01*
X61100D01*
X56900Y59500D02*
Y59800D01*
X57050D01*
X57100Y59750D01*
Y59650D01*
X57050Y59600D01*
X56900D01*
X57000D02*
X57100Y59500D01*
X57200Y59750D02*
X57250Y59800D01*
X57350D01*
X57400Y59750D01*
Y59700D01*
X57350Y59650D01*
X57300D01*
X57350D01*
X57400Y59600D01*
Y59550D01*
X57350Y59500D01*
X57250D01*
X57200Y59550D01*
X53100Y59500D02*
Y59800D01*
X53250D01*
X53300Y59750D01*
Y59650D01*
X53250Y59600D01*
X53100D01*
X53200D02*
X53300Y59500D01*
X53600D02*
X53400D01*
X53600Y59700D01*
Y59750D01*
X53550Y59800D01*
X53450D01*
X53400Y59750D01*
X26200Y62220D02*
Y62520D01*
X26350D01*
X26400Y62470D01*
Y62370D01*
X26350Y62320D01*
X26200D01*
X26300D02*
X26400Y62220D01*
X26500D02*
X26600D01*
X26550D01*
Y62520D01*
X26500Y62470D01*
X22220Y57610D02*
X22120D01*
X22070Y57560D01*
Y57360D01*
X22120Y57310D01*
X22220D01*
X22270Y57360D01*
Y57560D01*
X22220Y57610D01*
X22370Y57310D02*
X22470D01*
X22420D01*
Y57610D01*
X22370Y57560D01*
X62400Y51100D02*
Y50800D01*
X62600D01*
X62700D02*
X62800D01*
X62750D01*
Y51100D01*
X62700Y51050D01*
X71860Y51470D02*
X71760D01*
X71810D01*
Y51220D01*
X71760Y51170D01*
X71710D01*
X71660Y51220D01*
X71960Y51170D02*
X72060D01*
X72010D01*
Y51470D01*
X71960Y51420D01*
X41000Y62100D02*
X41300D01*
Y62250D01*
X41250Y62300D01*
X41050D01*
X41000Y62250D01*
Y62100D01*
X41050Y62600D02*
X41000Y62550D01*
Y62450D01*
X41050Y62400D01*
X41100D01*
X41150Y62450D01*
Y62550D01*
X41200Y62600D01*
X41250D01*
X41300Y62550D01*
Y62450D01*
X41250Y62400D01*
X41300Y62700D02*
Y62800D01*
Y62750D01*
X41000D01*
X41050Y62700D01*
X41300Y62950D02*
Y63050D01*
Y63000D01*
X41000D01*
X41050Y62950D01*
X43500Y62100D02*
X43800D01*
Y62250D01*
X43750Y62300D01*
X43550D01*
X43500Y62250D01*
Y62100D01*
X43550Y62600D02*
X43500Y62550D01*
Y62450D01*
X43550Y62400D01*
X43600D01*
X43650Y62450D01*
Y62550D01*
X43700Y62600D01*
X43750D01*
X43800Y62550D01*
Y62450D01*
X43750Y62400D01*
X43800Y62700D02*
Y62800D01*
Y62750D01*
X43500D01*
X43550Y62700D01*
Y62950D02*
X43500Y63000D01*
Y63100D01*
X43550Y63150D01*
X43750D01*
X43800Y63100D01*
Y63000D01*
X43750Y62950D01*
X43550D01*
X45900Y62200D02*
X46200D01*
Y62350D01*
X46150Y62400D01*
X45950D01*
X45900Y62350D01*
Y62200D01*
X45950Y62700D02*
X45900Y62650D01*
Y62550D01*
X45950Y62500D01*
X46000D01*
X46050Y62550D01*
Y62650D01*
X46100Y62700D01*
X46150D01*
X46200Y62650D01*
Y62550D01*
X46150Y62500D01*
Y62800D02*
X46200Y62850D01*
Y62950D01*
X46150Y63000D01*
X45950D01*
X45900Y62950D01*
Y62850D01*
X45950Y62800D01*
X46000D01*
X46050Y62850D01*
Y63000D01*
X48300Y62300D02*
X48600D01*
Y62450D01*
X48550Y62500D01*
X48350D01*
X48300Y62450D01*
Y62300D01*
X48350Y62800D02*
X48300Y62750D01*
Y62650D01*
X48350Y62600D01*
X48400D01*
X48450Y62650D01*
Y62750D01*
X48500Y62800D01*
X48550D01*
X48600Y62750D01*
Y62650D01*
X48550Y62600D01*
X48350Y62900D02*
X48300Y62950D01*
Y63050D01*
X48350Y63100D01*
X48400D01*
X48450Y63050D01*
X48500Y63100D01*
X48550D01*
X48600Y63050D01*
Y62950D01*
X48550Y62900D01*
X48500D01*
X48450Y62950D01*
X48400Y62900D01*
X48350D01*
X48450Y62950D02*
Y63050D01*
X74500Y59900D02*
Y59600D01*
X74650D01*
X74700Y59650D01*
Y59850D01*
X74650Y59900D01*
X74500D01*
X75000Y59850D02*
X74950Y59900D01*
X74850D01*
X74800Y59850D01*
Y59800D01*
X74850Y59750D01*
X74950D01*
X75000Y59700D01*
Y59650D01*
X74950Y59600D01*
X74850D01*
X74800Y59650D01*
X75100Y59900D02*
X75300D01*
Y59850D01*
X75100Y59650D01*
Y59600D01*
X70100Y59900D02*
Y59600D01*
X70250D01*
X70300Y59650D01*
Y59850D01*
X70250Y59900D01*
X70100D01*
X70600Y59850D02*
X70550Y59900D01*
X70450D01*
X70400Y59850D01*
Y59800D01*
X70450Y59750D01*
X70550D01*
X70600Y59700D01*
Y59650D01*
X70550Y59600D01*
X70450D01*
X70400Y59650D01*
X70900Y59900D02*
X70800Y59850D01*
X70700Y59750D01*
Y59650D01*
X70750Y59600D01*
X70850D01*
X70900Y59650D01*
Y59700D01*
X70850Y59750D01*
X70700D01*
X66300Y59900D02*
Y59600D01*
X66450D01*
X66500Y59650D01*
Y59850D01*
X66450Y59900D01*
X66300D01*
X66800Y59850D02*
X66750Y59900D01*
X66650D01*
X66600Y59850D01*
Y59800D01*
X66650Y59750D01*
X66750D01*
X66800Y59700D01*
Y59650D01*
X66750Y59600D01*
X66650D01*
X66600Y59650D01*
X67100Y59900D02*
X66900D01*
Y59750D01*
X67000Y59800D01*
X67050D01*
X67100Y59750D01*
Y59650D01*
X67050Y59600D01*
X66950D01*
X66900Y59650D01*
X62300Y59900D02*
Y59600D01*
X62450D01*
X62500Y59650D01*
Y59850D01*
X62450Y59900D01*
X62300D01*
X62800Y59850D02*
X62750Y59900D01*
X62650D01*
X62600Y59850D01*
Y59800D01*
X62650Y59750D01*
X62750D01*
X62800Y59700D01*
Y59650D01*
X62750Y59600D01*
X62650D01*
X62600Y59650D01*
X63050Y59600D02*
Y59900D01*
X62900Y59750D01*
X63100D01*
X58500Y59900D02*
Y59600D01*
X58650D01*
X58700Y59650D01*
Y59850D01*
X58650Y59900D01*
X58500D01*
X59000Y59850D02*
X58950Y59900D01*
X58850D01*
X58800Y59850D01*
Y59800D01*
X58850Y59750D01*
X58950D01*
X59000Y59700D01*
Y59650D01*
X58950Y59600D01*
X58850D01*
X58800Y59650D01*
X59100Y59850D02*
X59150Y59900D01*
X59250D01*
X59300Y59850D01*
Y59800D01*
X59250Y59750D01*
X59200D01*
X59250D01*
X59300Y59700D01*
Y59650D01*
X59250Y59600D01*
X59150D01*
X59100Y59650D01*
X54700Y59900D02*
Y59600D01*
X54850D01*
X54900Y59650D01*
Y59850D01*
X54850Y59900D01*
X54700D01*
X55200Y59850D02*
X55150Y59900D01*
X55050D01*
X55000Y59850D01*
Y59800D01*
X55050Y59750D01*
X55150D01*
X55200Y59700D01*
Y59650D01*
X55150Y59600D01*
X55050D01*
X55000Y59650D01*
X55500Y59600D02*
X55300D01*
X55500Y59800D01*
Y59850D01*
X55450Y59900D01*
X55350D01*
X55300Y59850D01*
X22930Y61450D02*
Y61150D01*
X23080D01*
X23130Y61200D01*
Y61400D01*
X23080Y61450D01*
X22930D01*
X23430Y61400D02*
X23380Y61450D01*
X23280D01*
X23230Y61400D01*
Y61350D01*
X23280Y61300D01*
X23380D01*
X23430Y61250D01*
Y61200D01*
X23380Y61150D01*
X23280D01*
X23230Y61200D01*
X23530Y61150D02*
X23630D01*
X23580D01*
Y61450D01*
X23530Y61400D01*
X46600Y56330D02*
X46550Y56380D01*
X46450D01*
X46400Y56330D01*
Y56130D01*
X46450Y56080D01*
X46550D01*
X46600Y56130D01*
X46700Y56330D02*
X46750Y56380D01*
X46850D01*
X46900Y56330D01*
Y56280D01*
X46850Y56230D01*
X46900Y56180D01*
Y56130D01*
X46850Y56080D01*
X46750D01*
X46700Y56130D01*
Y56180D01*
X46750Y56230D01*
X46700Y56280D01*
Y56330D01*
X46750Y56230D02*
X46850D01*
X47000Y56130D02*
X47050Y56080D01*
X47150D01*
X47200Y56130D01*
Y56330D01*
X47150Y56380D01*
X47050D01*
X47000Y56330D01*
Y56280D01*
X47050Y56230D01*
X47200D01*
X67700Y34250D02*
X67650Y34300D01*
X67550D01*
X67500Y34250D01*
Y34050D01*
X67550Y34000D01*
X67650D01*
X67700Y34050D01*
X67800Y34250D02*
X67850Y34300D01*
X67950D01*
X68000Y34250D01*
Y34200D01*
X67950Y34150D01*
X68000Y34100D01*
Y34050D01*
X67950Y34000D01*
X67850D01*
X67800Y34050D01*
Y34100D01*
X67850Y34150D01*
X67800Y34200D01*
Y34250D01*
X67850Y34150D02*
X67950D01*
X68100Y34300D02*
X68300D01*
Y34250D01*
X68100Y34050D01*
Y34000D01*
X40800Y35930D02*
X40750Y35980D01*
X40650D01*
X40600Y35930D01*
Y35730D01*
X40650Y35680D01*
X40750D01*
X40800Y35730D01*
X40900Y35930D02*
X40950Y35980D01*
X41050D01*
X41100Y35930D01*
Y35880D01*
X41050Y35830D01*
X41100Y35780D01*
Y35730D01*
X41050Y35680D01*
X40950D01*
X40900Y35730D01*
Y35780D01*
X40950Y35830D01*
X40900Y35880D01*
Y35930D01*
X40950Y35830D02*
X41050D01*
X41200Y35930D02*
X41250Y35980D01*
X41350D01*
X41400Y35930D01*
Y35730D01*
X41350Y35680D01*
X41250D01*
X41200Y35730D01*
Y35930D01*
X58600Y35130D02*
X58550Y35180D01*
X58450D01*
X58400Y35130D01*
Y34930D01*
X58450Y34880D01*
X58550D01*
X58600Y34930D01*
X58700Y35180D02*
X58900D01*
Y35130D01*
X58700Y34930D01*
Y34880D01*
X59000Y35180D02*
X59200D01*
Y35130D01*
X59000Y34930D01*
Y34880D01*
X42200Y54670D02*
X42150Y54720D01*
X42050D01*
X42000Y54670D01*
Y54470D01*
X42050Y54420D01*
X42150D01*
X42200Y54470D01*
X42300Y54720D02*
X42500D01*
Y54670D01*
X42300Y54470D01*
Y54420D01*
X42800Y54720D02*
X42600D01*
Y54570D01*
X42700Y54620D01*
X42750D01*
X42800Y54570D01*
Y54470D01*
X42750Y54420D01*
X42650D01*
X42600Y54470D01*
X65430Y32900D02*
X65380Y32850D01*
Y32750D01*
X65430Y32700D01*
X65630D01*
X65680Y32750D01*
Y32850D01*
X65630Y32900D01*
X65380Y33000D02*
Y33200D01*
X65430D01*
X65630Y33000D01*
X65680D01*
X65430Y33300D02*
X65380Y33350D01*
Y33450D01*
X65430Y33500D01*
X65480D01*
X65530Y33450D01*
Y33400D01*
Y33450D01*
X65580Y33500D01*
X65630D01*
X65680Y33450D01*
Y33350D01*
X65630Y33300D01*
X71040Y53580D02*
X70990Y53630D01*
X70890D01*
X70840Y53580D01*
Y53380D01*
X70890Y53330D01*
X70990D01*
X71040Y53380D01*
X71140Y53630D02*
X71340D01*
Y53580D01*
X71140Y53380D01*
Y53330D01*
X71440Y53580D02*
X71490Y53630D01*
X71590D01*
X71640Y53580D01*
Y53380D01*
X71590Y53330D01*
X71490D01*
X71440Y53380D01*
Y53580D01*
X55000Y40270D02*
X54950Y40320D01*
X54850D01*
X54800Y40270D01*
Y40070D01*
X54850Y40020D01*
X54950D01*
X55000Y40070D01*
X55100Y40270D02*
X55150Y40320D01*
X55250D01*
X55300Y40270D01*
Y40220D01*
X55250Y40170D01*
X55200D01*
X55250D01*
X55300Y40120D01*
Y40070D01*
X55250Y40020D01*
X55150D01*
X55100Y40070D01*
X55550Y40020D02*
Y40320D01*
X55400Y40170D01*
X55600D01*
X50400Y40270D02*
X50350Y40320D01*
X50250D01*
X50200Y40270D01*
Y40070D01*
X50250Y40020D01*
X50350D01*
X50400Y40070D01*
X50500Y40270D02*
X50550Y40320D01*
X50650D01*
X50700Y40270D01*
Y40220D01*
X50650Y40170D01*
X50600D01*
X50650D01*
X50700Y40120D01*
Y40070D01*
X50650Y40020D01*
X50550D01*
X50500Y40070D01*
X50800Y40270D02*
X50850Y40320D01*
X50950D01*
X51000Y40270D01*
Y40220D01*
X50950Y40170D01*
X50900D01*
X50950D01*
X51000Y40120D01*
Y40070D01*
X50950Y40020D01*
X50850D01*
X50800Y40070D01*
X53800Y33470D02*
X53750Y33520D01*
X53650D01*
X53600Y33470D01*
Y33270D01*
X53650Y33220D01*
X53750D01*
X53800Y33270D01*
X53900Y33470D02*
X53950Y33520D01*
X54050D01*
X54100Y33470D01*
Y33420D01*
X54050Y33370D01*
X54000D01*
X54050D01*
X54100Y33320D01*
Y33270D01*
X54050Y33220D01*
X53950D01*
X53900Y33270D01*
X54200Y33220D02*
X54300D01*
X54250D01*
Y33520D01*
X54200Y33470D01*
X71040Y43380D02*
X70990Y43430D01*
X70890D01*
X70840Y43380D01*
Y43180D01*
X70890Y43130D01*
X70990D01*
X71040Y43180D01*
X71340Y43130D02*
X71140D01*
X71340Y43330D01*
Y43380D01*
X71290Y43430D01*
X71190D01*
X71140Y43380D01*
X71440Y43180D02*
X71490Y43130D01*
X71590D01*
X71640Y43180D01*
Y43380D01*
X71590Y43430D01*
X71490D01*
X71440Y43380D01*
Y43330D01*
X71490Y43280D01*
X71640D01*
X68720Y43590D02*
X68670Y43640D01*
X68570D01*
X68520Y43590D01*
Y43390D01*
X68570Y43340D01*
X68670D01*
X68720Y43390D01*
X69020Y43340D02*
X68820D01*
X69020Y43540D01*
Y43590D01*
X68970Y43640D01*
X68870D01*
X68820Y43590D01*
X69120Y43640D02*
X69320D01*
Y43590D01*
X69120Y43390D01*
Y43340D01*
X58000Y40330D02*
X57950Y40380D01*
X57850D01*
X57800Y40330D01*
Y40130D01*
X57850Y40080D01*
X57950D01*
X58000Y40130D01*
X58100Y40080D02*
X58200D01*
X58150D01*
Y40380D01*
X58100Y40330D01*
X58350D02*
X58400Y40380D01*
X58500D01*
X58550Y40330D01*
Y40280D01*
X58500Y40230D01*
X58550Y40180D01*
Y40130D01*
X58500Y40080D01*
X58400D01*
X58350Y40130D01*
Y40180D01*
X58400Y40230D01*
X58350Y40280D01*
Y40330D01*
X58400Y40230D02*
X58500D01*
X56600Y40270D02*
X56550Y40320D01*
X56450D01*
X56400Y40270D01*
Y40070D01*
X56450Y40020D01*
X56550D01*
X56600Y40070D01*
X56700Y40020D02*
X56800D01*
X56750D01*
Y40320D01*
X56700Y40270D01*
X56950Y40320D02*
X57150D01*
Y40270D01*
X56950Y40070D01*
Y40020D01*
X57000Y42870D02*
X56950Y42920D01*
X56850D01*
X56800Y42870D01*
Y42670D01*
X56850Y42620D01*
X56950D01*
X57000Y42670D01*
X57100Y42620D02*
X57200D01*
X57150D01*
Y42920D01*
X57100Y42870D01*
X57550Y42920D02*
X57450Y42870D01*
X57350Y42770D01*
Y42670D01*
X57400Y42620D01*
X57500D01*
X57550Y42670D01*
Y42720D01*
X57500Y42770D01*
X57350D01*
X54800Y42870D02*
X54750Y42920D01*
X54650D01*
X54600Y42870D01*
Y42670D01*
X54650Y42620D01*
X54750D01*
X54800Y42670D01*
X54900Y42620D02*
X55000D01*
X54950D01*
Y42920D01*
X54900Y42870D01*
X55350Y42920D02*
X55150D01*
Y42770D01*
X55250Y42820D01*
X55300D01*
X55350Y42770D01*
Y42670D01*
X55300Y42620D01*
X55200D01*
X55150Y42670D01*
X25400Y52700D02*
X25100D01*
Y52850D01*
X25150Y52900D01*
X25250D01*
X25300Y52850D01*
Y52700D01*
Y52800D02*
X25400Y52900D01*
X25150Y53000D02*
X25100Y53050D01*
Y53150D01*
X25150Y53200D01*
X25200D01*
X25250Y53150D01*
Y53100D01*
Y53150D01*
X25300Y53200D01*
X25350D01*
X25400Y53150D01*
Y53050D01*
X25350Y53000D01*
X25100Y53300D02*
Y53500D01*
X25150D01*
X25350Y53300D01*
X25400D01*
X25500Y50600D02*
X25200D01*
Y50750D01*
X25250Y50800D01*
X25350D01*
X25400Y50750D01*
Y50600D01*
Y50700D02*
X25500Y50800D01*
X25250Y50900D02*
X25200Y50950D01*
Y51050D01*
X25250Y51100D01*
X25300D01*
X25350Y51050D01*
Y51000D01*
Y51050D01*
X25400Y51100D01*
X25450D01*
X25500Y51050D01*
Y50950D01*
X25450Y50900D01*
X25250Y51200D02*
X25200Y51250D01*
Y51350D01*
X25250Y51400D01*
X25300D01*
X25350Y51350D01*
X25400Y51400D01*
X25450D01*
X25500Y51350D01*
Y51250D01*
X25450Y51200D01*
X25400D01*
X25350Y51250D01*
X25300Y51200D01*
X25250D01*
X25350Y51250D02*
Y51350D01*
X25500Y49600D02*
X25200D01*
Y49750D01*
X25250Y49800D01*
X25350D01*
X25400Y49750D01*
Y49600D01*
Y49700D02*
X25500Y49800D01*
X25250Y49900D02*
X25200Y49950D01*
Y50050D01*
X25250Y50100D01*
X25300D01*
X25350Y50050D01*
Y50000D01*
Y50050D01*
X25400Y50100D01*
X25450D01*
X25500Y50050D01*
Y49950D01*
X25450Y49900D01*
Y50200D02*
X25500Y50250D01*
Y50350D01*
X25450Y50400D01*
X25250D01*
X25200Y50350D01*
Y50250D01*
X25250Y50200D01*
X25300D01*
X25350Y50250D01*
Y50400D01*
X25400Y51600D02*
X25100D01*
Y51750D01*
X25150Y51800D01*
X25250D01*
X25300Y51750D01*
Y51600D01*
Y51700D02*
X25400Y51800D01*
Y52050D02*
X25100D01*
X25250Y51900D01*
Y52100D01*
X25150Y52200D02*
X25100Y52250D01*
Y52350D01*
X25150Y52400D01*
X25350D01*
X25400Y52350D01*
Y52250D01*
X25350Y52200D01*
X25150D01*
X20230Y52470D02*
X20180Y52520D01*
X20080D01*
X20030Y52470D01*
Y52270D01*
X20080Y52220D01*
X20180D01*
X20230Y52270D01*
X20480Y52520D02*
X20380D01*
X20330Y52470D01*
Y52270D01*
X20380Y52220D01*
X20480D01*
X20530Y52270D01*
Y52470D01*
X20480Y52520D01*
X20630Y52220D02*
Y52520D01*
X20830Y52220D01*
Y52520D01*
X20930Y52220D02*
Y52520D01*
X21130Y52220D01*
Y52520D01*
X21230Y52220D02*
X21330D01*
X21280D01*
Y52520D01*
X21230Y52470D01*
X49200Y61200D02*
Y61400D01*
X49300Y61500D01*
X49400Y61400D01*
Y61200D01*
Y61350D01*
X49200D01*
X49700Y61450D02*
X49650Y61500D01*
X49550D01*
X49500Y61450D01*
Y61250D01*
X49550Y61200D01*
X49650D01*
X49700Y61250D01*
X49800Y61500D02*
X50000D01*
X49900D01*
Y61200D01*
X44200D02*
X44300D01*
X44250D01*
Y61500D01*
X44200Y61450D01*
X44450D02*
X44500Y61500D01*
X44600D01*
X44650Y61450D01*
Y61250D01*
X44600Y61200D01*
X44500D01*
X44450Y61250D01*
Y61450D01*
X44750D02*
X44800Y61500D01*
X44900D01*
X44950Y61450D01*
Y61250D01*
X44900Y61200D01*
X44800D01*
X44750Y61250D01*
Y61450D01*
X45050D02*
X45100Y61500D01*
X45200D01*
X45250Y61450D01*
Y61250D01*
X45200Y61200D01*
X45100D01*
X45050Y61250D01*
Y61450D01*
X46800Y61200D02*
X46900D01*
X46850D01*
Y61500D01*
X46800Y61450D01*
X47050D02*
X47100Y61500D01*
X47200D01*
X47250Y61450D01*
Y61250D01*
X47200Y61200D01*
X47100D01*
X47050Y61250D01*
Y61450D01*
X47350D02*
X47400Y61500D01*
X47500D01*
X47550Y61450D01*
Y61250D01*
X47500Y61200D01*
X47400D01*
X47350Y61250D01*
Y61450D01*
X41900Y61500D02*
Y61200D01*
X42050D01*
X42100Y61250D01*
Y61450D01*
X42050Y61500D01*
X41900D01*
X42200Y61200D02*
Y61500D01*
X42350D01*
X42400Y61450D01*
Y61350D01*
X42350Y61300D01*
X42200D01*
X42500Y61500D02*
X42700Y61200D01*
Y61500D02*
X42500Y61200D01*
X52100Y61200D02*
Y61000D01*
X52200Y60900D01*
X52300Y61000D01*
Y61200D01*
X52550Y60900D02*
X52450D01*
X52400Y60950D01*
Y61050D01*
X52450Y61100D01*
X52550D01*
X52600Y61050D01*
Y61000D01*
X52400D01*
X52700Y61100D02*
Y60900D01*
Y61000D01*
X52750Y61050D01*
X52800Y61100D01*
X52850D01*
X53000Y60900D02*
X53150D01*
X53200Y60950D01*
X53150Y61000D01*
X53050D01*
X53000Y61050D01*
X53050Y61100D01*
X53200D01*
X53300Y60900D02*
X53400D01*
X53350D01*
Y61100D01*
X53300D01*
X53600Y60900D02*
X53699D01*
X53749Y60950D01*
Y61050D01*
X53699Y61100D01*
X53600D01*
X53550Y61050D01*
Y60950D01*
X53600Y60900D01*
X53849D02*
Y61100D01*
X53999D01*
X54049Y61050D01*
Y60900D01*
X54449D02*
X54549D01*
X54499D01*
Y61200D01*
X54449Y61150D01*
X54699Y60900D02*
Y60950D01*
X54749D01*
Y60900D01*
X54699D01*
X54949D02*
X55049D01*
X54999D01*
Y61200D01*
X54949Y61150D01*
X24900Y31100D02*
X24600D01*
X24700Y31200D01*
X24600Y31300D01*
X24900D01*
X24600Y31550D02*
Y31450D01*
X24650Y31400D01*
X24850D01*
X24900Y31450D01*
Y31550D01*
X24850Y31600D01*
X24650D01*
X24600Y31550D01*
Y31700D02*
X24900D01*
Y31900D01*
X24600Y32200D02*
Y32000D01*
X24900D01*
Y32200D01*
X24750Y32000D02*
Y32100D01*
X24600Y32300D02*
X24900Y32500D01*
X24600D02*
X24900Y32300D01*
X24600Y32899D02*
Y33099D01*
X24650D01*
X24850Y32899D01*
X24900D01*
Y33199D02*
Y33299D01*
Y33249D01*
X24600D01*
X24650Y33199D01*
X24600Y33649D02*
X24650Y33549D01*
X24750Y33449D01*
X24850D01*
X24900Y33499D01*
Y33599D01*
X24850Y33649D01*
X24800D01*
X24750Y33599D01*
Y33449D01*
X24600Y33949D02*
X24650Y33849D01*
X24750Y33749D01*
X24850D01*
X24900Y33799D01*
Y33899D01*
X24850Y33949D01*
X24800D01*
X24750Y33899D01*
Y33749D01*
X24900Y34049D02*
Y34149D01*
Y34099D01*
X24600D01*
X24650Y34049D01*
X24750Y34299D02*
Y34499D01*
X24900Y34799D02*
Y34599D01*
X24700Y34799D01*
X24650D01*
X24600Y34749D01*
Y34649D01*
X24650Y34599D01*
Y34899D02*
X24600Y34949D01*
Y35049D01*
X24650Y35099D01*
X24850D01*
X24900Y35049D01*
Y34949D01*
X24850Y34899D01*
X24650D01*
X24600Y35399D02*
X24650Y35299D01*
X24750Y35199D01*
X24850D01*
X24900Y35249D01*
Y35349D01*
X24850Y35399D01*
X24800D01*
X24750Y35349D01*
Y35199D01*
X24650Y35499D02*
X24600Y35549D01*
Y35649D01*
X24650Y35699D01*
X24700D01*
X24750Y35649D01*
X24800Y35699D01*
X24850D01*
X24900Y35649D01*
Y35549D01*
X24850Y35499D01*
X24800D01*
X24750Y35549D01*
X24700Y35499D01*
X24650D01*
X24750Y35549D02*
Y35649D01*
X24900Y36098D02*
X24600D01*
Y36248D01*
X24650Y36298D01*
X24750D01*
X24800Y36248D01*
Y36098D01*
X24600Y36398D02*
X24900D01*
Y36598D01*
X24600Y36698D02*
X24850D01*
X24900Y36748D01*
Y36848D01*
X24850Y36898D01*
X24600D01*
X24650Y37198D02*
X24600Y37148D01*
Y37048D01*
X24650Y36998D01*
X24850D01*
X24900Y37048D01*
Y37148D01*
X24850Y37198D01*
X24750D01*
Y37098D01*
D49*
X53800Y57000D02*
Y56300D01*
X54267D01*
X54500Y57000D02*
X54733D01*
X54616D01*
Y56300D01*
X54500D01*
X54733D01*
X55083D02*
Y57000D01*
X55549Y56300D01*
Y57000D01*
X55783D02*
Y56300D01*
Y56533D01*
X56249Y57000D01*
X55899Y56650D01*
X56249Y56300D01*
X73800Y57000D02*
Y56300D01*
X74150D01*
X74267Y56417D01*
Y56883D01*
X74150Y57000D01*
X73800D01*
X74500Y56300D02*
Y57000D01*
X74850D01*
X74966Y56883D01*
Y56650D01*
X74850Y56533D01*
X74500D01*
X75200Y57000D02*
X75666Y56300D01*
Y57000D02*
X75200Y56300D01*
X69400D02*
X69633D01*
X69517D01*
Y57000D01*
X69400Y56883D01*
X69983D02*
X70100Y57000D01*
X70333D01*
X70450Y56883D01*
Y56417D01*
X70333Y56300D01*
X70100D01*
X69983Y56417D01*
Y56883D01*
X70683D02*
X70800Y57000D01*
X71033D01*
X71149Y56883D01*
Y56417D01*
X71033Y56300D01*
X70800D01*
X70683Y56417D01*
Y56883D01*
X71383D02*
X71499Y57000D01*
X71733D01*
X71849Y56883D01*
Y56417D01*
X71733Y56300D01*
X71499D01*
X71383Y56417D01*
Y56883D01*
X65800Y56300D02*
X66033D01*
X65917D01*
Y57000D01*
X65800Y56883D01*
X66383D02*
X66500Y57000D01*
X66733D01*
X66850Y56883D01*
Y56417D01*
X66733Y56300D01*
X66500D01*
X66383Y56417D01*
Y56883D01*
X67083D02*
X67200Y57000D01*
X67433D01*
X67549Y56883D01*
Y56417D01*
X67433Y56300D01*
X67200D01*
X67083Y56417D01*
Y56883D01*
X62200Y56300D02*
Y57000D01*
X62550D01*
X62667Y56883D01*
Y56650D01*
X62550Y56533D01*
X62200D01*
X62433D02*
X62667Y56300D01*
X62900Y57000D02*
X63366Y56300D01*
Y57000D02*
X62900Y56300D01*
X58400Y57000D02*
X58867D01*
X58633D01*
Y56300D01*
X59100Y57000D02*
X59566Y56300D01*
Y57000D02*
X59100Y56300D01*
D50*
X72433Y61500D02*
X72100D01*
X72433Y61833D01*
Y61917D01*
X72350Y62000D01*
X72183D01*
X72100Y61917D01*
X72600D02*
X72683Y62000D01*
X72850D01*
X72933Y61917D01*
Y61583D01*
X72850Y61500D01*
X72683D01*
X72600Y61583D01*
Y61917D01*
X73100D02*
X73183Y62000D01*
X73350D01*
X73433Y61917D01*
Y61583D01*
X73350Y61500D01*
X73183D01*
X73100Y61583D01*
Y61917D01*
X73849Y61500D02*
Y62000D01*
X73600Y61750D01*
X73933D01*
D51*
X42835Y59933D02*
D03*
Y59067D02*
D03*
Y58933D02*
D03*
Y58067D02*
D03*
X45035Y59933D02*
D03*
Y59067D02*
D03*
Y58933D02*
D03*
Y58067D02*
D03*
X47035Y59933D02*
D03*
Y59067D02*
D03*
Y58933D02*
D03*
Y58067D02*
D03*
X45335Y41767D02*
D03*
Y42633D02*
D03*
X45535Y50767D02*
D03*
Y51633D02*
D03*
X59735Y43467D02*
D03*
Y44333D02*
D03*
Y44467D02*
D03*
Y45333D02*
D03*
Y49467D02*
D03*
Y50333D02*
D03*
Y50467D02*
D03*
Y51333D02*
D03*
Y48467D02*
D03*
Y49333D02*
D03*
Y47467D02*
D03*
Y48333D02*
D03*
Y46467D02*
D03*
Y47333D02*
D03*
Y45467D02*
D03*
Y46333D02*
D03*
X69935Y45367D02*
D03*
Y46233D02*
D03*
Y46767D02*
D03*
Y47633D02*
D03*
Y48367D02*
D03*
Y49233D02*
D03*
Y50167D02*
D03*
Y51033D02*
D03*
X49335Y58067D02*
D03*
Y58933D02*
D03*
Y59067D02*
D03*
Y59933D02*
D03*
X26735Y52433D02*
D03*
Y51567D02*
D03*
X26735Y50433D02*
D03*
Y49567D02*
D03*
X26735Y51433D02*
D03*
Y50567D02*
D03*
X26735Y53433D02*
D03*
Y52567D02*
D03*
D52*
X74400Y61600D02*
D03*
X75000D02*
D03*
D53*
X74700Y61850D02*
D03*
D54*
X75750Y62000D02*
D03*
D55*
X75300Y61450D02*
D03*
X75600D02*
D03*
D56*
X75300Y62000D02*
D03*
D57*
X54433Y32535D02*
D03*
X53567D02*
D03*
X65767Y32465D02*
D03*
X66633D02*
D03*
X42833Y53735D02*
D03*
X41967D02*
D03*
X56633Y41935D02*
D03*
X55767D02*
D03*
X56767Y41265D02*
D03*
X57633D02*
D03*
X54567D02*
D03*
X55433D02*
D03*
X56367Y38665D02*
D03*
X57233D02*
D03*
X58167Y41265D02*
D03*
X59033D02*
D03*
X51033Y39335D02*
D03*
X50167D02*
D03*
X55633D02*
D03*
X54767D02*
D03*
X26167Y60865D02*
D03*
X27033Y60865D02*
D03*
X72767Y58265D02*
D03*
X73633D02*
D03*
X68367D02*
D03*
X69233D02*
D03*
X64567D02*
D03*
X65433D02*
D03*
X60567D02*
D03*
X61433D02*
D03*
X56767D02*
D03*
X57633D02*
D03*
X52967D02*
D03*
X53833D02*
D03*
D58*
X49591Y53049D02*
D03*
X48409D02*
D03*
X70809Y52550D02*
D03*
X71991D02*
D03*
X71991Y41250D02*
D03*
X70809D02*
D03*
D59*
X68777Y43004D02*
Y43063D01*
X68954Y43063D01*
Y43004D01*
X68777Y43004D01*
X68793Y43020D02*
Y43046D01*
X68938D01*
Y43020D01*
X68793D01*
X68810Y43028D02*
X68921Y43038D01*
X68777Y42137D02*
Y42196D01*
X68954Y42196D01*
Y42137D01*
X68777Y42137D01*
X68793Y42154D02*
Y42180D01*
X68938D01*
Y42154D01*
X68793D01*
X68810Y42162D02*
X68921Y42172D01*
X44777Y50204D02*
Y50263D01*
X44954Y50263D01*
Y50204D01*
X44777Y50204D01*
X44793Y50220D02*
X44793Y50246D01*
X44938D01*
X44938Y50220D01*
X44793D01*
X44810Y50228D02*
X44921Y50238D01*
X44777Y49337D02*
Y49396D01*
X44954Y49396D01*
Y49337D01*
X44777Y49337D01*
X44793Y49354D02*
X44793Y49380D01*
X44938D01*
X44938Y49354D01*
X44793D01*
X44810Y49362D02*
X44921Y49372D01*
X44577Y41404D02*
Y41463D01*
X44754Y41463D01*
Y41404D01*
X44577Y41404D01*
X44593Y41420D02*
X44593Y41446D01*
X44738D01*
X44738Y41420D01*
X44593D01*
X44610Y41428D02*
X44721Y41438D01*
X44577Y40537D02*
Y40596D01*
X44754Y40596D01*
Y40537D01*
X44577Y40537D01*
X44593Y40554D02*
X44593Y40580D01*
X44738D01*
X44738Y40554D01*
X44593D01*
X44610Y40562D02*
X44721Y40572D01*
D60*
X51550Y31991D02*
D03*
X51550Y30810D02*
D03*
X51550Y33591D02*
D03*
X51550Y32409D02*
D03*
M02*
