INCH,LZ
M48
T1F00S00C0.0135
T2F00S00C0.0200
T3F00S00C0.0280
T4F00S00C0.0300
T5F00S00C0.0350
T6F00S00C0.0620
T7F00S00C0.1280
T8F00S00C0.1496
%
T01
X0433Y031
X03048Y032
X0252Y0329
X0273Y043235
Y0453
X0272Y0468
X028397Y046303
X0311Y0452
X0288Y0421
X0316Y0424
Y0414
X032802Y041502
X0329Y041
X033Y0406
X0329Y04
X032939Y039139
X033035Y038465
X0337Y0375
X0342
Y0379
X0337Y037
X0333Y0367
X0331Y0363
X032265Y036065
X032635Y035665
X035346Y035046
X0354Y0363
X0356Y0366
X035535Y037135
X038035Y037135
X0378Y0377
X038102Y036398
X0385Y0363
X038Y0351
X036724Y035124
X039283Y035117
X0399Y0351
X0397Y0348
X0395Y0345
X0392Y0342
Y0338
X0388Y0334
X0383Y0331
X03764Y0322
X04192
X043265Y032935
X04322Y03502
X044435Y035265
X04472Y03658
X043423Y036777
X0434Y0387
X043464Y039336
X04348Y04032
X043492Y041108
X0435Y0421
X0431Y0418
X0433Y0427
X043464Y043864
X0448Y044
Y0444
X044777Y046423
X0435Y0453
X043Y045
X0428Y0454
X0426Y0458
X042Y0459
X0412Y0456
X0405Y0453
X0398Y045
X0394Y0462
X0403Y0466
X041
X0371Y0462
X0359
X036Y0468
X0361Y0445
X0365
X0356
X0351
X0347
X0329Y0441
X032967Y043667
X031636Y043864
X032877Y046423
X0349Y0422
X035Y0415
X034433Y0414
X0343Y0397
X0339Y0394
X0336Y0403
X0316Y039
X0356Y0423
X0368Y0422
X037314Y042186
X0451Y0418
X0447Y0413
X0448Y0392
X0457Y039
X0468Y0352
X0406Y0365
X0402
X040857Y037143
X0332Y0314
X0472Y0359
X0475Y0362
X0499Y0366
X0506Y035
X050735Y033935
X055Y035
X0564Y0341
X056835Y034465
X05886Y03554
Y03726
X058Y0375
X056965Y038065
X0566Y0395
X0561
X055419Y039519
X055057Y0395
X0546
X054
X0529Y0394
X0518
X051Y0396
X0502Y0394
Y041
X0506Y0414
X050891Y040791
X051876Y040724
X0523Y0414
X0531Y0409
X054Y0408
X054632Y040869
X055616Y040684
X0559Y0409
X0568Y041
Y0415
X056809Y042391
X0569Y043
X0568Y0436
X0569Y0446
X0568Y0451
X056966Y045934
X056009Y046109
X0554Y046
X0539Y0462
X0531Y0461
X0522
X051876Y046124
X0514Y0457
X050891Y046209
X0504Y0459
X0495Y0461
X049Y0456
X049154Y045146
X0492Y0443
X049065Y043935
X0492Y0433
X0491Y0428
Y0424
Y0418
X049109Y041209
X049Y0407
X04845Y04065
X0495Y0408
X0471Y0413
X0479Y0421
X050165Y043465
X0521Y0425
X0581
X058Y0417
X057987Y041013
X0588Y0416
X0597Y0415
X058935Y042865
X0588Y0435
X058272Y043572
X0581Y044
Y0452
X058635Y044865
X0589Y0455
X059Y046
X0623
X062335Y045465
X0623Y0445
X062335Y043865
X0623Y043
X062265Y042265
X0623Y0415
X062265Y040665
X0593Y0395
X0587Y04
X059565Y038065
X0548Y0374
X0475Y0464
X0702Y0462
Y0446
X0701Y043
X0707Y0429
Y0422
X0698Y0414
X0684Y0378
Y0371
X0705Y0364
Y035
X0726Y0356
Y0342
Y0335
Y037
Y0378
X0684Y0342
Y0335
X069935Y047935
X070965
X0589Y047
X0566Y0474
X0557
X056Y048
X055535Y049535
X054335
X052335Y049535
X0519Y0505
X0529Y0511
X0526Y0474
X0532
X0537
X0545
X051679Y047379
X0514Y0476
X051088Y047312
X05Y0474
X049513Y047387
X05Y0484
X0484Y0542
Y0558
Y0572
Y0584
X047Y058
X04704Y0568
X0571Y0496
X0416Y0495
X0418Y0502
Y0506
X0414Y0526
X041Y0531
X0397Y0528
Y0541
X039455Y054855
X0397Y0552
X0392Y0555
X039719Y056719
X0387Y0572
X037152Y057348
X037407Y058593
X0384Y0587
X036
X0344
X0334
X0332Y0572
X0322Y0571
Y055
Y0546
X032801Y053699
X0325Y0533
X033569Y053331
X034081Y053119
X033825Y052775
X0333Y0524
X0347
X0358
X03664Y05224
X036896Y052604
X0373Y0523
X037663Y052763
X037919Y053281
X038175Y053825
X0384Y0523
X0389Y051
X037407Y051007
X036128Y050728
X0347Y0508
Y0502
X0349Y0491
X0353Y0492
X0352Y0486
X035665Y048135
X0355Y0469
X03692Y04688
X0382Y0469
X0387Y047
X03948Y04692
X038495Y048405
X0382Y0482
X0384Y049
X0374Y0487
X0372Y0484
X0398Y0495
X0404Y049
X0407Y0487
Y0482
X0412Y0486
X04322Y04688
X044Y0542
Y0558
Y0572
Y0584
X0454Y058
Y0568
X0419Y0562
X041Y056
X040963Y056463
X0413Y0572
X041Y0554
X041272Y054672
X035104Y053596
X03536Y05314
X034337Y053563
X0332Y0508
X0333Y0503
X0329Y049302
X032335Y047535
X0316Y0476
X0315Y0472
X0347Y0572
X0358
X031Y0574
X0309Y0569
Y0565
X0306Y0561
X0303Y0554
X0243Y0538
X0249Y0526
T02
X0254Y0322
X028781Y031519
X0571Y033
X0618
X0656Y0327
X0667Y034
Y0356
Y0363
X0658Y0357
X064549Y036449
X064749Y037551
X0677Y0351
X067165Y031265
X0735Y0358
X0781
X0748Y0481
X0737Y0483
X0732Y0503
X0754
X066Y048
X0637Y0474
X0639Y0488
X0619Y0479
X05934Y04776
X04554Y0491
X044551Y048849
X0447Y0504
X0448Y0514
X045469Y051351
X046139Y051361
X046808Y051368
X028519Y051419
X028Y0549
X026Y0547
T03
X0456Y0313
Y0323
Y0341
Y0351
X0486
Y0341
Y0323
Y0313
X0629Y0528
Y0538
X0669
Y0528
X0709
Y0538
X0749
Y0528
X0589
Y0538
X0549
Y0528
X0254Y0571
Y0581
T04
X02175Y0371
Y0381
Y0391
Y0401
Y0411
Y0421
Y0431
Y0441
Y0451
Y0461
X0225Y0456
Y0446
Y0436
Y0426
Y0416
Y0406
Y0396
Y0386
Y0376
Y0366
X02325Y0371
Y0381
Y0391
Y0401
Y0411
Y0421
Y0431
Y0441
Y0451
Y0461
X024Y0456
Y0446
Y0436
Y0426
Y0416
Y0406
Y0396
Y0386
Y0376
Y0366
Y0466
X0225
Y0476
Y0486
Y0496
Y0506
Y0516
Y0526
X02325Y0521
Y0511
Y0501
Y0491
Y0481
Y0471
X024Y0476
Y0486
Y0496
Y0506
Y0516
Y0526
X02325Y0531
X02175
Y0521
Y0511
Y0501
Y0491
Y0481
Y0471
T05
X0722Y04175
Y04275
Y04375
Y04475
X0732Y04425
Y04325
Y04225
Y04125
T06
X0769Y03991
Y04609
T07
X0757Y04075
Y04525
T08
X0225Y0325
X0776
X0775Y0575
X0225
M30
