INCH,LZ
M48
T1F00S00C0.0135
T2F00S00C0.0200
T3F00S00C0.0250
T4F00S00C0.0280
T5F00S00C0.0350
T6F00S00C0.0620
T7F00S00C0.1100
T8F00S00C0.1280
T9F00S00C0.1496
%
T01
X0249Y0411
X0302Y0408
X03Y0404
X0302Y042
Y0437
X029Y0466
X0298Y0384
X0304Y0381
X0313Y0369
X0325Y0387
X0326Y0391
X0332
X034239Y039239
X0349Y0391
X036011Y039211
X036405Y039205
X037389Y040311
X037783Y040283
X038964Y040364
X0397Y0404
X0406Y0405
X041129Y040371
X0419Y041
X042042Y042058
X042Y0431
X0418Y0434
X041927Y044027
X0419Y0448
X042Y0452
Y0462
X041983Y046783
X0434Y0466
X0405Y0464
Y045
Y044
Y043
Y042
X0392Y0417
X0378
X0391Y0389
X0374Y0377
Y0372
Y0367
Y0362
X0375Y0357
X0374Y0352
Y0347
Y0342
X04056Y03486
X0412Y0356
X04194Y03486
X0432Y0347
X0441Y0354
X0447Y0348
X044Y033
X0435
X043
Y0318
X0435
X045
X04204Y03234
X04056
X0412Y0315
X0426Y0396
X042635Y040435
X0436Y0393
X0439Y0413
Y042
X0432
X0457Y0421
X0458Y041
X0466Y0411
X0467Y0394
X0453Y0375
X033Y0405
X0329Y0409
X0325Y0413
X0331Y0416
X0329Y042
Y0425
Y0429
X0332Y0432
X0329Y0438
X0331Y0442
X0329Y0448
X0328Y0453
X0331Y0456
X0334Y046
X0333Y0464
X0329
X0315Y0466
X031311Y045011
X031417Y044617
X03137Y04383
X031361Y043239
X031342Y042058
X03168Y04028
X0469Y0409
X0493Y0403
X0511Y0409
X0517Y0421
X0513Y0434
X0505Y0433
X0497Y0434
X049604Y044496
X0504Y0446
X0512Y0445
X0523Y0446
Y0434
X0535Y0433
X0544Y0434
X0543Y0446
X053738Y044538
X0538Y0462
X0548Y046
X0563Y0458
Y0466
X0575Y0467
X0576Y0452
X0587Y0449
Y0439
X0601Y0444
Y0464
X0587Y0459
X056387Y044813
X055706Y044594
X0556Y0432
X0553Y0427
X0554Y042
X0546Y0413
X0562Y0408
X057665Y041265
X0586Y0408
X056595Y042805
X0568Y0382
X0552
X05754Y03674
X0564Y03502
X055631Y034169
X0572Y0341
X05824Y03406
X0578Y0322
X05816Y03154
X0559Y0317
X0554Y0316
X055Y0322
X054365Y032535
X0544Y0318
X0559Y0327
X0564
X051551Y032151
X0506Y0382
X0512Y0459
X05Y046
X0494Y0464
X0486Y0468
Y0458
X047403Y045797
X0473Y0449
X0484Y0446
X0527Y0454
X0685Y0426
X0701Y0427
X070749Y042351
Y041249
X0714Y0407
X071949Y041249
X072051Y042351
X0714Y043
X0709Y0463
Y0468
X0681Y0325
X070749Y051449
Y052551
X072249
X072251Y051449
X0714Y0508
X072165Y058935
X068135
X063965
X060265
X056265
X052165
X049Y0579
X048665Y059965
X049Y0549
X049013Y051187
X049604Y051196
X0505Y0512
X0513
X0521
X053
X0532Y0499
X0536Y05
X054131Y050031
X0545Y0499
X0553Y05
X0561
X056335Y049535
X05645Y04875
X0576Y0487
Y0476
X0564Y0474
X055565Y047935
X055Y0485
X054
X052
Y0499
X052557Y049943
X051376Y049976
X0505Y05
X0496Y0498
X049Y0499
X048543Y049143
X0474Y0491
Y0479
Y0469
X0486Y0478
X049465Y048465
X0502Y0484
X0552Y0512
X0587Y0509
Y0499
Y0489
Y0479
Y0469
X0601Y0484
Y0504
X0466Y0505
X0464Y0512
X0461Y0498
X0441Y05
Y0506
X0436Y0507
X0432Y0509
Y0496
X042061Y049539
X0416Y049
X0419Y048
Y0474
X0405
Y0484
Y0496
X04Y0497
X0406Y0509
X04172Y05108
X039161Y051061
X0385Y051
X0372
X0368
X036011Y051011
X035617Y051017
X036Y0506
X0352Y0495
X0342
X0338Y0489
X0335Y0486
X0329Y0484
Y0474
X0338Y0472
X031373Y047373
X0315Y0479
X0314Y0483
Y0495
X03132Y05072
X0313Y0513
X032465Y050935
X0328Y051
X033846Y051054
X034436Y051036
X0335Y0505
X0332Y0501
X0333Y0494
X032365Y050265
X0322Y0539
X0328
X0323Y0548
Y0563
X0326Y0567
X033Y0569
X0333Y0566
X0339Y0563
X0343Y0566
X0349Y0567
X0354
Y0562
X0363Y0563
Y0568
X037Y0565
X0374Y0569
X0379Y0564
X0385Y0565
X0382Y0573
X0387Y0577
X0384Y0584
X038Y0586
X038928Y058672
X0388Y0593
Y0597
Y0602
Y0609
X038831Y061231
X038Y0613
X0364
X0352
X0339
X0323
Y0597
X0314Y0591
X031365Y058665
X0317Y0567
X0341Y0572
X033948Y054848
X0354Y055
X0353Y0545
X0363Y0548
Y0536
X0375Y0535
X0377Y0529
X0392Y053
X0397
X0392Y0524
X0384Y0543
X0379Y0549
X0394Y0555
X0405Y0557
X040175Y056625
X0401Y0588
Y0606
X0433Y0585
X044365Y059035
X046365Y059065
X0444Y0558
X043731Y054969
X045068
X0454Y0536
X0444Y0535
X0434Y0536
X0441Y0483
X0382Y0495
X0372
X0355Y0524
X0354Y053
X0347Y0528
X0348Y0536
X0352Y0596
X0339
X030131Y061231
X0305Y0524
X0302Y0513
Y0494
X0266Y0493
X026065Y049535
Y050565
Y051535
X0268Y0516
X0246Y0512
X0242Y0505
X0247Y0492
X0243Y047
X0234Y0519
X0256Y053
X025454Y054746
X0268Y055
X027Y0543
X023Y057
X0214Y0629
X0323Y0626
X0338
X034716Y062584
X0364Y0626
X0379
T02
X062165Y044865
X0624Y0455
X062135Y046465
X0705Y0458
Y0472
Y0488
Y0506
X0624Y0503
X062165Y049665
X0624Y0488
X062135Y048065
X0624Y0473
T03
X0622Y0324
X0645
X0662Y0319
Y0339
X0636Y0338
X062731Y035168
X064569
X0715Y0332
T04
X0608Y0352
Y037
X0664
Y0351
X0667Y0581
Y0591
X0705
Y0581
X0749
Y0591
X0627
Y0581
X0589
Y0591
X0551
Y0581
X0496Y0621
X0472
X0448
X0424
X0238Y0605
Y0595
X0424Y0631
X0448
X0472
X0496
T05
X02155Y0337
Y0347
Y0357
Y0367
Y0377
Y0387
Y0397
Y0407
Y0417
Y0427
Y0437
Y0447
Y0457
Y0467
X0223Y0462
Y0452
Y0442
Y0432
Y0422
Y0412
Y0402
Y0392
Y0382
Y0372
Y0362
Y0352
Y0342
Y0332
X02305Y0337
Y0347
Y0357
Y0367
Y0377
Y0387
Y0397
Y0407
Y0417
Y0427
Y0437
Y0447
Y0457
Y0467
X0238Y0462
Y0452
Y0442
Y0432
Y0422
Y0412
Y0402
Y0392
Y0382
Y0372
Y0362
Y0352
Y0342
Y0332
X0722Y04605
X0732Y04655
Y04555
Y04755
Y04855
X0722Y04905
Y04805
Y04705
X0238Y0472
Y0482
Y0492
X02305Y0497
Y0487
Y0477
X0223Y0482
Y0492
X02155Y0497
Y0487
Y0477
X0223Y0472
T06
X0769Y04421
Y05039
T07
X02155Y03174
Y05116
T08
X0757Y04505
Y04955
T09
X03Y0325
X078Y032
X0238Y0625
X078Y063
M30
