%FSLAX24Y24*%
%MOIN*%
G70*
G01*
G75*
%ADD10C,0.0080*%
%ADD11R,0.0433X0.0394*%
%ADD12R,0.0728X0.0118*%
%ADD13R,0.0728X0.0118*%
%ADD14R,0.0118X0.0728*%
%ADD15R,0.1024X0.0945*%
%ADD16R,0.0709X0.0157*%
%ADD17R,0.0157X0.0709*%
%ADD18R,0.0709X0.0122*%
%ADD19O,0.0122X0.0709*%
%ADD20R,0.0122X0.0709*%
%ADD21R,0.0700X0.0300*%
%ADD22O,0.0700X0.0300*%
%ADD23R,0.0300X0.0600*%
%ADD24R,0.1000X0.1400*%
%ADD25R,0.0945X0.1024*%
%ADD26R,0.0394X0.0433*%
%ADD27R,0.0551X0.0787*%
%ADD28R,0.0709X0.0630*%
%ADD29R,0.0827X0.1614*%
%ADD30R,0.0630X0.0709*%
%ADD31R,0.0709X0.0157*%
%ADD32C,0.0400*%
%ADD33C,0.0100*%
%ADD34C,0.0160*%
%ADD35C,0.0200*%
%ADD36C,0.1732*%
%ADD37C,0.0500*%
%ADD38C,0.0750*%
%ADD39C,0.1400*%
%ADD40C,0.1300*%
%ADD41C,0.0520*%
%ADD42C,0.0250*%
%ADD43C,0.0480*%
%ADD44C,0.0350*%
%ADD45C,0.0060*%
%ADD46C,0.0098*%
%ADD47C,0.0079*%
%ADD48C,0.0070*%
%ADD49C,0.0140*%
%ADD50C,0.0120*%
%ADD51R,0.0197X0.0079*%
%ADD52R,0.0200X0.1000*%
%ADD53R,0.0200X0.0500*%
%ADD54R,0.0500X0.0200*%
%ADD55R,0.0200X0.0700*%
%ADD56R,0.0200X0.0200*%
%ADD57R,0.0079X0.0197*%
%ADD58R,0.0079X0.0197*%
%ADD59C,0.0020*%
%ADD60R,0.0197X0.0079*%
%ADD61R,0.0513X0.0474*%
%ADD62R,0.0808X0.0198*%
%ADD63R,0.0808X0.0198*%
%ADD64R,0.0198X0.0808*%
%ADD65R,0.1104X0.1025*%
%ADD66R,0.0789X0.0237*%
%ADD67R,0.0237X0.0789*%
%ADD68R,0.0789X0.0202*%
%ADD69O,0.0202X0.0789*%
%ADD70R,0.0202X0.0789*%
%ADD71R,0.0780X0.0380*%
%ADD72O,0.0780X0.0380*%
%ADD73R,0.0380X0.0680*%
%ADD74R,0.1080X0.1480*%
%ADD75R,0.1025X0.1104*%
%ADD76R,0.0474X0.0513*%
%ADD77R,0.0631X0.0867*%
%ADD78R,0.0789X0.0710*%
%ADD79R,0.0907X0.1694*%
%ADD80R,0.0710X0.0789*%
%ADD81R,0.0789X0.0237*%
%ADD82C,0.1812*%
%ADD83C,0.0580*%
%ADD84C,0.0830*%
%ADD85C,0.1480*%
%ADD86C,0.1380*%
%ADD87C,0.0600*%
%ADD88C,0.0330*%
%ADD89C,0.0560*%
%ADD90C,0.0430*%
D61*
X42835Y59500D02*
D03*
X42165D02*
D03*
X42835Y58500D02*
D03*
X42165D02*
D03*
X45035Y59500D02*
D03*
X44365D02*
D03*
X45035Y58500D02*
D03*
X44365D02*
D03*
X47035Y59500D02*
D03*
X46365D02*
D03*
X47035Y58500D02*
D03*
X46365D02*
D03*
X44665Y42200D02*
D03*
X45335D02*
D03*
X44865Y51200D02*
D03*
X45535D02*
D03*
X59065Y43900D02*
D03*
X59735D02*
D03*
X59065Y44900D02*
D03*
X59735D02*
D03*
X59065Y49900D02*
D03*
X59735D02*
D03*
X59065Y50900D02*
D03*
X59735D02*
D03*
X59065Y48900D02*
D03*
X59735D02*
D03*
X59065Y47900D02*
D03*
X59735D02*
D03*
X59065Y46900D02*
D03*
X59735D02*
D03*
X59065Y45900D02*
D03*
X59735D02*
D03*
X69265Y45800D02*
D03*
X69935D02*
D03*
X69265Y47200D02*
D03*
X69935D02*
D03*
X69265Y48800D02*
D03*
X69935D02*
D03*
X69265Y50600D02*
D03*
X69935D02*
D03*
X69535Y42600D02*
D03*
X68865D02*
D03*
X48665Y58500D02*
D03*
X49335D02*
D03*
X48665Y59500D02*
D03*
X49335D02*
D03*
X45535Y49800D02*
D03*
X44865D02*
D03*
X45335Y41000D02*
D03*
X44665D02*
D03*
X26735Y52000D02*
D03*
X26065D02*
D03*
X26735Y50000D02*
D03*
X26065D02*
D03*
X26735Y51000D02*
D03*
X26065D02*
D03*
X26735Y53000D02*
D03*
X26065D02*
D03*
D62*
X30765Y50720D02*
D03*
Y50523D02*
D03*
Y50326D02*
D03*
Y50129D02*
D03*
Y49932D02*
D03*
Y49735D02*
D03*
Y49539D02*
D03*
Y49342D02*
D03*
Y49145D02*
D03*
Y48948D02*
D03*
Y48751D02*
D03*
Y48554D02*
D03*
Y48357D02*
D03*
Y48161D02*
D03*
Y47964D02*
D03*
Y47767D02*
D03*
Y47570D02*
D03*
Y47373D02*
D03*
Y47176D02*
D03*
Y46980D02*
D03*
Y46783D02*
D03*
Y46586D02*
D03*
Y46389D02*
D03*
Y45995D02*
D03*
Y45405D02*
D03*
Y45208D02*
D03*
Y45011D02*
D03*
Y44814D02*
D03*
Y44617D02*
D03*
Y44420D02*
D03*
Y44224D02*
D03*
Y44027D02*
D03*
Y43830D02*
D03*
Y43633D02*
D03*
Y43436D02*
D03*
Y43239D02*
D03*
Y43043D02*
D03*
Y42846D02*
D03*
Y42649D02*
D03*
Y42452D02*
D03*
Y42255D02*
D03*
Y42058D02*
D03*
Y41861D02*
D03*
Y41665D02*
D03*
Y41468D02*
D03*
Y41271D02*
D03*
Y41074D02*
D03*
Y40877D02*
D03*
Y40680D02*
D03*
X42635Y50326D02*
D03*
Y50129D02*
D03*
Y49932D02*
D03*
Y49735D02*
D03*
Y49539D02*
D03*
Y49342D02*
D03*
Y49145D02*
D03*
Y48948D02*
D03*
Y48751D02*
D03*
Y48554D02*
D03*
Y48161D02*
D03*
Y47964D02*
D03*
Y47767D02*
D03*
Y47570D02*
D03*
Y47373D02*
D03*
Y47176D02*
D03*
Y46980D02*
D03*
Y46783D02*
D03*
Y46586D02*
D03*
Y46389D02*
D03*
Y46192D02*
D03*
Y45995D02*
D03*
Y45798D02*
D03*
Y45602D02*
D03*
Y45405D02*
D03*
Y45208D02*
D03*
Y45011D02*
D03*
Y44814D02*
D03*
Y44617D02*
D03*
Y44420D02*
D03*
Y44224D02*
D03*
Y44027D02*
D03*
Y43830D02*
D03*
Y43633D02*
D03*
Y43436D02*
D03*
Y43239D02*
D03*
Y43043D02*
D03*
Y42846D02*
D03*
Y42649D02*
D03*
Y42452D02*
D03*
Y42255D02*
D03*
Y42058D02*
D03*
Y41861D02*
D03*
Y41665D02*
D03*
Y41468D02*
D03*
Y41271D02*
D03*
Y41074D02*
D03*
Y40877D02*
D03*
Y40680D02*
D03*
X30765Y46192D02*
D03*
X42635Y50720D02*
D03*
Y50523D02*
D03*
Y48357D02*
D03*
D63*
X30765Y45798D02*
D03*
Y45602D02*
D03*
D64*
X41720Y51635D02*
D03*
X41523D02*
D03*
X41326D02*
D03*
X41129D02*
D03*
X40932D02*
D03*
X40735D02*
D03*
X40539D02*
D03*
X40342D02*
D03*
X40145D02*
D03*
X39948D02*
D03*
X39751D02*
D03*
X39554D02*
D03*
X39357D02*
D03*
X39161D02*
D03*
X38964D02*
D03*
X38767D02*
D03*
X38570D02*
D03*
X38373D02*
D03*
X38176D02*
D03*
X37980D02*
D03*
X37783D02*
D03*
X37586D02*
D03*
X37389D02*
D03*
X37192D02*
D03*
X36995D02*
D03*
X36798D02*
D03*
X36602D02*
D03*
X36405D02*
D03*
X36208D02*
D03*
X36011D02*
D03*
X35814D02*
D03*
X35617D02*
D03*
X35420D02*
D03*
X35224D02*
D03*
X35027D02*
D03*
X34830D02*
D03*
X34633D02*
D03*
X34436D02*
D03*
X34239D02*
D03*
X34043D02*
D03*
X33846D02*
D03*
X33649D02*
D03*
X33452D02*
D03*
X33255D02*
D03*
X33058D02*
D03*
X32861D02*
D03*
X32665D02*
D03*
X32468D02*
D03*
X32271D02*
D03*
X32074D02*
D03*
X31877D02*
D03*
X31680D02*
D03*
X41720Y39765D02*
D03*
X41523D02*
D03*
X41326D02*
D03*
X41129D02*
D03*
X40932D02*
D03*
X40735D02*
D03*
X40539D02*
D03*
X40342D02*
D03*
X40145D02*
D03*
X39948D02*
D03*
X39751D02*
D03*
X39554D02*
D03*
X39357D02*
D03*
X39161D02*
D03*
X38964D02*
D03*
X38767D02*
D03*
X38570D02*
D03*
X38373D02*
D03*
X38176D02*
D03*
X37980D02*
D03*
X37783D02*
D03*
X37586D02*
D03*
X37389D02*
D03*
X37192D02*
D03*
X36995D02*
D03*
X36798D02*
D03*
X36602D02*
D03*
X36405D02*
D03*
X36208D02*
D03*
X36011D02*
D03*
X35814D02*
D03*
X35617D02*
D03*
X35420D02*
D03*
X35224D02*
D03*
X35027D02*
D03*
X34830D02*
D03*
X34633D02*
D03*
X34436D02*
D03*
X34239D02*
D03*
X34043D02*
D03*
X33846D02*
D03*
X33649D02*
D03*
X33452D02*
D03*
X33255D02*
D03*
X33058D02*
D03*
X32861D02*
D03*
X32665D02*
D03*
X32468D02*
D03*
X32271D02*
D03*
X32074D02*
D03*
X31877D02*
D03*
X31680D02*
D03*
D65*
X68140Y33200D02*
D03*
X70660D02*
D03*
D66*
X39472Y61231D02*
D03*
Y60975D02*
D03*
Y60719D02*
D03*
Y60463D02*
D03*
Y60207D02*
D03*
Y59952D02*
D03*
Y59696D02*
D03*
Y59440D02*
D03*
Y59184D02*
D03*
Y58928D02*
D03*
Y58672D02*
D03*
Y58416D02*
D03*
Y58160D02*
D03*
Y57904D02*
D03*
Y57648D02*
D03*
Y57393D02*
D03*
Y57137D02*
D03*
Y56881D02*
D03*
Y56625D02*
D03*
Y56369D02*
D03*
X30728D02*
D03*
Y56625D02*
D03*
Y56881D02*
D03*
Y57137D02*
D03*
Y57393D02*
D03*
Y57648D02*
D03*
Y57904D02*
D03*
Y58160D02*
D03*
Y58416D02*
D03*
Y58672D02*
D03*
Y58928D02*
D03*
Y59184D02*
D03*
Y59440D02*
D03*
Y59696D02*
D03*
Y59952D02*
D03*
Y60207D02*
D03*
Y60463D02*
D03*
Y60719D02*
D03*
Y61231D02*
D03*
D67*
X38811Y55609D02*
D03*
X38555D02*
D03*
X38299D02*
D03*
X38043D02*
D03*
X37787D02*
D03*
X37531D02*
D03*
X37275D02*
D03*
X37019D02*
D03*
X36763D02*
D03*
X36507D02*
D03*
X36252D02*
D03*
X35996D02*
D03*
X35740D02*
D03*
X35484D02*
D03*
X35228D02*
D03*
X34972D02*
D03*
X34716D02*
D03*
X34460D02*
D03*
X34204D02*
D03*
X33948D02*
D03*
X33693D02*
D03*
X33437D02*
D03*
X33181D02*
D03*
X32925D02*
D03*
X32669D02*
D03*
X32413D02*
D03*
X32157D02*
D03*
X31901D02*
D03*
X31645D02*
D03*
X31389D02*
D03*
Y61991D02*
D03*
X31645D02*
D03*
X31901D02*
D03*
X32157D02*
D03*
X32413D02*
D03*
X32669D02*
D03*
X32925D02*
D03*
X33181D02*
D03*
X33437D02*
D03*
X33693D02*
D03*
X33948D02*
D03*
X34204D02*
D03*
X34460D02*
D03*
X34716D02*
D03*
X34972D02*
D03*
X35228D02*
D03*
X35484D02*
D03*
X35740D02*
D03*
X35996D02*
D03*
X36252D02*
D03*
X36507D02*
D03*
X36763D02*
D03*
X37019D02*
D03*
X37275D02*
D03*
X37531D02*
D03*
X37787D02*
D03*
X38043D02*
D03*
X38299D02*
D03*
X38555D02*
D03*
X38811D02*
D03*
D68*
X56966Y44813D02*
D03*
Y45009D02*
D03*
Y45206D02*
D03*
Y45403D02*
D03*
Y45600D02*
D03*
Y45797D02*
D03*
Y45994D02*
D03*
Y46191D02*
D03*
Y46387D02*
D03*
Y46584D02*
D03*
Y46781D02*
D03*
Y46978D02*
D03*
Y47175D02*
D03*
Y47372D02*
D03*
Y47569D02*
D03*
Y47765D02*
D03*
Y47962D02*
D03*
Y48159D02*
D03*
Y48356D02*
D03*
Y48553D02*
D03*
Y48750D02*
D03*
Y48946D02*
D03*
Y49143D02*
D03*
Y49340D02*
D03*
Y49537D02*
D03*
Y49734D02*
D03*
X47950D02*
D03*
Y49537D02*
D03*
Y49340D02*
D03*
Y49143D02*
D03*
Y48946D02*
D03*
Y48750D02*
D03*
Y48553D02*
D03*
Y48356D02*
D03*
Y48159D02*
D03*
Y47962D02*
D03*
Y47765D02*
D03*
Y47569D02*
D03*
Y47372D02*
D03*
Y47175D02*
D03*
Y46978D02*
D03*
Y46781D02*
D03*
Y46584D02*
D03*
Y46387D02*
D03*
Y46191D02*
D03*
Y45994D02*
D03*
Y45797D02*
D03*
Y45600D02*
D03*
Y45403D02*
D03*
Y45206D02*
D03*
Y45009D02*
D03*
Y44813D02*
D03*
D69*
X56100Y50600D02*
D03*
D70*
X55903D02*
D03*
X55706D02*
D03*
X55509D02*
D03*
X55313D02*
D03*
X55116D02*
D03*
X54919D02*
D03*
X54722D02*
D03*
X54525D02*
D03*
X54328D02*
D03*
X54131D02*
D03*
X53935D02*
D03*
X53738D02*
D03*
X53541D02*
D03*
X53344D02*
D03*
X53147D02*
D03*
X52950D02*
D03*
X52754D02*
D03*
X52557D02*
D03*
X52360D02*
D03*
X52163D02*
D03*
X51966D02*
D03*
X51769D02*
D03*
X51572D02*
D03*
X51376D02*
D03*
X51179D02*
D03*
X50982D02*
D03*
X50785D02*
D03*
X50588D02*
D03*
X50391D02*
D03*
X50195D02*
D03*
X49998D02*
D03*
X49801D02*
D03*
X49604D02*
D03*
X49407D02*
D03*
X49210D02*
D03*
X49013D02*
D03*
X48817D02*
D03*
Y43946D02*
D03*
X49013D02*
D03*
X49210D02*
D03*
X49407D02*
D03*
X49604D02*
D03*
X49801D02*
D03*
X49998D02*
D03*
X50195D02*
D03*
X50391D02*
D03*
X50588D02*
D03*
X50785D02*
D03*
X50982D02*
D03*
X51179D02*
D03*
X51376D02*
D03*
X51572D02*
D03*
X51769D02*
D03*
X51966D02*
D03*
X52163D02*
D03*
X52360D02*
D03*
X52557D02*
D03*
X52754D02*
D03*
X52950D02*
D03*
X53147D02*
D03*
X53344D02*
D03*
X53541D02*
D03*
X53738D02*
D03*
X53935D02*
D03*
X54131D02*
D03*
X54328D02*
D03*
X54525D02*
D03*
X54722D02*
D03*
X54919D02*
D03*
X55116D02*
D03*
X55313D02*
D03*
X55509D02*
D03*
X55706D02*
D03*
X55903D02*
D03*
X56100D02*
D03*
D71*
X61500Y50300D02*
D03*
D72*
Y49800D02*
D03*
Y49300D02*
D03*
Y48800D02*
D03*
Y48300D02*
D03*
Y47800D02*
D03*
Y47300D02*
D03*
Y46800D02*
D03*
Y46300D02*
D03*
Y45800D02*
D03*
Y45300D02*
D03*
Y44800D02*
D03*
X67250Y50300D02*
D03*
Y49800D02*
D03*
Y49300D02*
D03*
Y48800D02*
D03*
Y48300D02*
D03*
Y47800D02*
D03*
Y47300D02*
D03*
Y46800D02*
D03*
Y46300D02*
D03*
Y45800D02*
D03*
Y45300D02*
D03*
Y44800D02*
D03*
D73*
X56400Y32200D02*
D03*
X56900D02*
D03*
X55400D02*
D03*
X57400D02*
D03*
X55900D02*
D03*
X44000Y32400D02*
D03*
X44500D02*
D03*
X43000D02*
D03*
X45000D02*
D03*
X43500D02*
D03*
X63600Y33200D02*
D03*
X64100D02*
D03*
X62600D02*
D03*
X64600D02*
D03*
X63100D02*
D03*
X44400Y53000D02*
D03*
X44900D02*
D03*
X43400D02*
D03*
X45400D02*
D03*
X43900D02*
D03*
D74*
X56400Y34169D02*
D03*
X44000Y34369D02*
D03*
X63600Y35168D02*
D03*
X44400Y54969D02*
D03*
D75*
X59000Y31540D02*
D03*
Y34060D02*
D03*
X41200Y32340D02*
D03*
Y34860D02*
D03*
X47000Y52740D02*
D03*
Y55260D02*
D03*
X58400Y36740D02*
D03*
Y39260D02*
D03*
D76*
X54000Y31865D02*
D03*
Y32535D02*
D03*
X66200Y33135D02*
D03*
Y32465D02*
D03*
X42400Y53065D02*
D03*
Y53735D02*
D03*
X56200Y41265D02*
D03*
Y41935D02*
D03*
X57200Y41935D02*
D03*
Y41265D02*
D03*
X55000Y41935D02*
D03*
Y41265D02*
D03*
X56800Y39335D02*
D03*
Y38665D02*
D03*
X58600Y41935D02*
D03*
Y41265D02*
D03*
X50600Y38665D02*
D03*
Y39335D02*
D03*
X55200Y38665D02*
D03*
Y39335D02*
D03*
X26600Y61535D02*
D03*
Y60865D02*
D03*
X73200Y58935D02*
D03*
Y58265D02*
D03*
X68800Y58935D02*
D03*
Y58265D02*
D03*
X65000Y58935D02*
D03*
Y58265D02*
D03*
X61000Y58935D02*
D03*
Y58265D02*
D03*
X57200Y58935D02*
D03*
Y58265D02*
D03*
X53400Y58935D02*
D03*
Y58265D02*
D03*
D77*
X25000Y54746D02*
D03*
X23000D02*
D03*
Y56400D02*
D03*
X25000D02*
D03*
D78*
X49000Y53049D02*
D03*
Y54151D02*
D03*
X71400Y52551D02*
D03*
Y51449D02*
D03*
Y41249D02*
D03*
Y42351D02*
D03*
D79*
X53709Y39385D02*
D03*
X52291D02*
D03*
X53709Y35015D02*
D03*
X52291D02*
D03*
D80*
X51551Y31400D02*
D03*
X50449D02*
D03*
X51551Y33000D02*
D03*
X50449D02*
D03*
D81*
X30728Y60975D02*
D03*
D82*
X78000Y63000D02*
D03*
Y32000D02*
D03*
X23800Y62500D02*
D03*
X30000Y32500D02*
D03*
D83*
X49600Y63100D02*
D03*
Y62100D02*
D03*
X72200Y49050D02*
D03*
X73200Y48550D02*
D03*
X72200Y48050D02*
D03*
X73200Y47550D02*
D03*
X72200Y47050D02*
D03*
X73200Y46550D02*
D03*
X72200Y46050D02*
D03*
X73200Y45550D02*
D03*
X44800Y63100D02*
D03*
Y62100D02*
D03*
X47200Y63100D02*
D03*
Y62100D02*
D03*
X42400Y63100D02*
D03*
Y62100D02*
D03*
X23800Y60500D02*
D03*
Y59500D02*
D03*
X74900Y59100D02*
D03*
Y58100D02*
D03*
X70500Y59100D02*
D03*
Y58100D02*
D03*
X66700Y59100D02*
D03*
Y58100D02*
D03*
X62700Y59100D02*
D03*
Y58100D02*
D03*
X58900Y59100D02*
D03*
Y58100D02*
D03*
X55100Y59100D02*
D03*
Y58100D02*
D03*
X66400Y35100D02*
D03*
Y37000D02*
D03*
X60800Y35200D02*
D03*
Y37000D02*
D03*
D84*
X76900Y50390D02*
D03*
Y44210D02*
D03*
D85*
X75700Y45050D02*
D03*
Y49550D02*
D03*
D86*
X21550Y51160D02*
D03*
Y31740D02*
D03*
D87*
Y49700D02*
D03*
X22300Y49200D02*
D03*
X21550Y48700D02*
D03*
X22300Y48200D02*
D03*
X21550Y47700D02*
D03*
X22300Y47200D02*
D03*
X21550Y46700D02*
D03*
X22300Y46200D02*
D03*
Y45200D02*
D03*
Y44200D02*
D03*
X21550Y43700D02*
D03*
X22300Y43200D02*
D03*
X21550Y42700D02*
D03*
X22300Y42200D02*
D03*
X21550Y41700D02*
D03*
X22300Y41200D02*
D03*
X21550Y40700D02*
D03*
X22300Y40200D02*
D03*
X21550Y39700D02*
D03*
X22300Y39200D02*
D03*
X21550Y38700D02*
D03*
X22300Y38200D02*
D03*
X21550Y37700D02*
D03*
X22300Y37200D02*
D03*
X21550Y36700D02*
D03*
X22300Y36200D02*
D03*
X21550Y35700D02*
D03*
X22300Y35200D02*
D03*
X21550Y34700D02*
D03*
X22300Y34200D02*
D03*
X21550Y33700D02*
D03*
X22300Y33200D02*
D03*
X23050Y49700D02*
D03*
X23800Y49200D02*
D03*
X23050Y48700D02*
D03*
X23800Y48200D02*
D03*
X23050Y47700D02*
D03*
X23800Y47200D02*
D03*
X23050Y46700D02*
D03*
X23800Y46200D02*
D03*
X23050Y45700D02*
D03*
X23800Y45200D02*
D03*
X23050Y44700D02*
D03*
X23800Y44200D02*
D03*
X23050Y43700D02*
D03*
X23800Y43200D02*
D03*
X23050Y42700D02*
D03*
X23800Y42200D02*
D03*
X23050Y41700D02*
D03*
X23800Y41200D02*
D03*
X23050Y40700D02*
D03*
X23800Y40200D02*
D03*
X23050Y39700D02*
D03*
X23800Y39200D02*
D03*
X23050Y38700D02*
D03*
X23800Y38200D02*
D03*
X23050Y37700D02*
D03*
X23800Y37200D02*
D03*
X23050Y36700D02*
D03*
X23800Y36200D02*
D03*
X23050Y35700D02*
D03*
X23800Y35200D02*
D03*
X23050Y34700D02*
D03*
X23800Y34200D02*
D03*
X23050Y33700D02*
D03*
X23800Y33200D02*
D03*
X21550Y45700D02*
D03*
Y44700D02*
D03*
D88*
X43500Y33000D02*
D03*
X43200Y34700D02*
D03*
X44100Y35400D02*
D03*
X44700Y34800D02*
D03*
X40560Y34860D02*
D03*
X41200Y35600D02*
D03*
X41940Y34860D02*
D03*
X40560Y32340D02*
D03*
X41200Y31500D02*
D03*
X42040Y32340D02*
D03*
X43000Y31800D02*
D03*
X43500D02*
D03*
X44000Y33000D02*
D03*
X45000Y31800D02*
D03*
X43000Y33000D02*
D03*
X45300Y37500D02*
D03*
X46900Y40900D02*
D03*
X72165Y58935D02*
D03*
X46700Y39400D02*
D03*
X68135Y58935D02*
D03*
X68500Y42600D02*
D03*
X70100Y42700D02*
D03*
X70900Y46800D02*
D03*
X49000Y57900D02*
D03*
X71400Y40700D02*
D03*
X70749Y41249D02*
D03*
X71949D02*
D03*
X71400Y43000D02*
D03*
X70749Y42351D02*
D03*
X72051D02*
D03*
X70749Y52551D02*
D03*
X72249D02*
D03*
X72251Y51449D02*
D03*
X71400Y50800D02*
D03*
X70749Y51449D02*
D03*
X48665Y59965D02*
D03*
X53600Y50000D02*
D03*
X43300Y58500D02*
D03*
X44365Y59035D02*
D03*
X46365Y59065D02*
D03*
X68100Y32500D02*
D03*
X57540Y36740D02*
D03*
X43731Y54969D02*
D03*
X44400Y55800D02*
D03*
X45068Y54969D02*
D03*
X44400Y53500D02*
D03*
X45400Y53600D02*
D03*
X43400D02*
D03*
X33500Y48600D02*
D03*
X33800Y48900D02*
D03*
X33400Y46000D02*
D03*
X33200Y43200D02*
D03*
X32900Y42900D02*
D03*
Y42500D02*
D03*
X33100Y41600D02*
D03*
X32500Y41300D02*
D03*
X32900Y40900D02*
D03*
X58600Y40800D02*
D03*
X56800Y38200D02*
D03*
X56200Y40800D02*
D03*
X57665Y41265D02*
D03*
X54600Y41300D02*
D03*
X56595Y42805D02*
D03*
X55600Y43200D02*
D03*
X55300Y42700D02*
D03*
X55400Y42000D02*
D03*
X50600Y38200D02*
D03*
X55200D02*
D03*
X46400Y51200D02*
D03*
X44100Y50600D02*
D03*
Y50000D02*
D03*
X46100Y49800D02*
D03*
X45800Y41000D02*
D03*
X43900Y41300D02*
D03*
Y42000D02*
D03*
X45700Y42100D02*
D03*
X37400Y34200D02*
D03*
Y34700D02*
D03*
Y35200D02*
D03*
X37500Y35700D02*
D03*
X39700Y40400D02*
D03*
X37400Y36200D02*
D03*
Y36700D02*
D03*
Y37200D02*
D03*
Y37700D02*
D03*
X37389Y40311D02*
D03*
X33300Y46400D02*
D03*
X33800Y47200D02*
D03*
X33100Y45600D02*
D03*
X32800Y45300D02*
D03*
X33100Y44200D02*
D03*
X33000Y40500D02*
D03*
X32500Y38700D02*
D03*
X33200Y39100D02*
D03*
X36011Y39211D02*
D03*
X34900Y39100D02*
D03*
X50500Y43300D02*
D03*
X37400Y56900D02*
D03*
X36300Y56800D02*
D03*
X35400Y56700D02*
D03*
X34100Y57200D02*
D03*
X34300Y56600D02*
D03*
X33000Y56900D02*
D03*
X32600Y56700D02*
D03*
X38400Y58400D02*
D03*
X39400Y55500D02*
D03*
X38000Y58600D02*
D03*
X39700Y53000D02*
D03*
X39200D02*
D03*
X38200Y57300D02*
D03*
X38500Y56500D02*
D03*
X39200Y52400D02*
D03*
X38400Y54300D02*
D03*
X37000Y56500D02*
D03*
X37700Y52900D02*
D03*
X37500Y53500D02*
D03*
X36300Y53600D02*
D03*
X34900Y56700D02*
D03*
X35300Y54500D02*
D03*
X35500Y52400D02*
D03*
X35400Y53000D02*
D03*
X33300Y56600D02*
D03*
X34800Y53600D02*
D03*
X34700Y52800D02*
D03*
X32800Y53900D02*
D03*
X31700Y56700D02*
D03*
X32200Y53900D02*
D03*
X35200Y59600D02*
D03*
X33900D02*
D03*
X30131Y61231D02*
D03*
X31400Y59100D02*
D03*
X31365Y58665D02*
D03*
X32300Y54800D02*
D03*
Y56300D02*
D03*
X33900D02*
D03*
X33948Y54848D02*
D03*
X35400Y55000D02*
D03*
Y56200D02*
D03*
X36300Y56300D02*
D03*
Y54800D02*
D03*
X37900Y56400D02*
D03*
Y54900D02*
D03*
X38700Y57700D02*
D03*
X38928Y58672D02*
D03*
X40100Y58800D02*
D03*
X38800Y59300D02*
D03*
Y59700D02*
D03*
X40100Y60600D02*
D03*
X37900Y62600D02*
D03*
X38000Y61300D02*
D03*
X36400D02*
D03*
Y62600D02*
D03*
X34716Y62584D02*
D03*
X35200Y61300D02*
D03*
X33800Y62600D02*
D03*
X33900Y61300D02*
D03*
X32300Y59700D02*
D03*
Y62600D02*
D03*
Y61300D02*
D03*
X43200Y49600D02*
D03*
X42000Y46200D02*
D03*
Y45200D02*
D03*
Y43100D02*
D03*
X43200Y42000D02*
D03*
X36405Y39205D02*
D03*
X34239Y39239D02*
D03*
X31680Y40280D02*
D03*
X31361Y43239D02*
D03*
X30200Y42000D02*
D03*
Y43700D02*
D03*
X31311Y45011D02*
D03*
X31400Y48300D02*
D03*
X31500Y47900D02*
D03*
X30200Y49400D02*
D03*
X32800Y51000D02*
D03*
X33846Y51054D02*
D03*
X36011Y51011D02*
D03*
X36800Y51000D02*
D03*
X39161Y51061D02*
D03*
X41720Y51080D02*
D03*
X32900Y48400D02*
D03*
Y47400D02*
D03*
Y46400D02*
D03*
Y44800D02*
D03*
Y43800D02*
D03*
Y42000D02*
D03*
X37800Y41700D02*
D03*
X39200D02*
D03*
X40500Y42000D02*
D03*
Y43000D02*
D03*
Y44000D02*
D03*
Y45000D02*
D03*
Y46400D02*
D03*
Y47400D02*
D03*
Y48400D02*
D03*
Y49600D02*
D03*
X40000Y49700D02*
D03*
X38200Y49500D02*
D03*
X37200D02*
D03*
X35200D02*
D03*
X34200D02*
D03*
X32365Y50265D02*
D03*
X31320Y50720D02*
D03*
X32465Y50935D02*
D03*
X31373Y47373D02*
D03*
X31500Y46600D02*
D03*
X31417Y44617D02*
D03*
X31370Y43830D02*
D03*
X31342Y42058D02*
D03*
X37783Y40283D02*
D03*
X38964Y40364D02*
D03*
X41129Y40371D02*
D03*
X42635Y40435D02*
D03*
X41900Y41000D02*
D03*
X42042Y42058D02*
D03*
X41800Y43400D02*
D03*
X41927Y44027D02*
D03*
X41900Y44800D02*
D03*
X41983Y46783D02*
D03*
X41900Y47400D02*
D03*
Y48000D02*
D03*
X42061Y49539D02*
D03*
X40600Y50900D02*
D03*
X38500Y51000D02*
D03*
X37200D02*
D03*
X35617Y51017D02*
D03*
X34436Y51036D02*
D03*
X50200Y48400D02*
D03*
X52000Y48500D02*
D03*
X50500Y50000D02*
D03*
Y51200D02*
D03*
X51300D02*
D03*
X51376Y49976D02*
D03*
X52557Y49943D02*
D03*
X52100Y51200D02*
D03*
X52000Y49900D02*
D03*
X53000Y51200D02*
D03*
X53200Y49900D02*
D03*
X54131Y50031D02*
D03*
X54500Y49900D02*
D03*
X55200Y51200D02*
D03*
X54000Y48500D02*
D03*
X55000D02*
D03*
X55300Y50000D02*
D03*
X56100D02*
D03*
X56335Y49535D02*
D03*
X57600Y48700D02*
D03*
X56450Y48750D02*
D03*
X55565Y47935D02*
D03*
X56400Y47400D02*
D03*
X57600Y47600D02*
D03*
X57500Y46700D02*
D03*
X56300Y46600D02*
D03*
X57600Y45200D02*
D03*
X56300Y45800D02*
D03*
X56387Y44813D02*
D03*
X55706Y44594D02*
D03*
X54400Y43400D02*
D03*
X54300Y44600D02*
D03*
X53800Y46200D02*
D03*
X53738Y44538D02*
D03*
X53500Y43300D02*
D03*
X52300Y43400D02*
D03*
Y44600D02*
D03*
X51200Y45900D02*
D03*
X51300Y43400D02*
D03*
X51200Y44500D02*
D03*
X50000Y46000D02*
D03*
X50400Y44600D02*
D03*
X49604Y44496D02*
D03*
X49700Y43400D02*
D03*
X48400Y44600D02*
D03*
X47300Y44900D02*
D03*
X47403Y45797D02*
D03*
X48600Y45800D02*
D03*
X49400Y46400D02*
D03*
X47400Y46900D02*
D03*
X48600Y46800D02*
D03*
X47400Y47900D02*
D03*
Y49100D02*
D03*
X48600Y47800D02*
D03*
X49465Y48465D02*
D03*
X48543Y49143D02*
D03*
X49604Y51196D02*
D03*
X49600Y49800D02*
D03*
X49000Y49900D02*
D03*
X49013Y51187D02*
D03*
X58700Y43900D02*
D03*
Y44900D02*
D03*
Y45900D02*
D03*
Y46900D02*
D03*
Y47900D02*
D03*
Y48900D02*
D03*
Y49900D02*
D03*
Y50900D02*
D03*
X60100Y44400D02*
D03*
Y46400D02*
D03*
Y48400D02*
D03*
Y50400D02*
D03*
X70900Y46300D02*
D03*
X40600Y40500D02*
D03*
X51100Y40900D02*
D03*
X51700Y42100D02*
D03*
X49300Y40300D02*
D03*
X52700Y45400D02*
D03*
X51551Y32151D02*
D03*
X49000Y54900D02*
D03*
X52165Y58935D02*
D03*
X29800Y38400D02*
D03*
X56265Y58935D02*
D03*
X30400Y38100D02*
D03*
X60265Y58935D02*
D03*
X31300Y36900D02*
D03*
X32600Y39100D02*
D03*
X63965Y58935D02*
D03*
X30000Y40400D02*
D03*
X24900Y41100D02*
D03*
X25454Y54746D02*
D03*
X23000Y57000D02*
D03*
X21400Y62900D02*
D03*
X43600Y39300D02*
D03*
X39100Y38900D02*
D03*
X42600Y39600D02*
D03*
X46600Y41100D02*
D03*
Y50500D02*
D03*
X57800Y32200D02*
D03*
X55000D02*
D03*
X55400Y31600D02*
D03*
X56400Y32700D02*
D03*
X55900D02*
D03*
Y31700D02*
D03*
X54400Y31800D02*
D03*
X54365Y32535D02*
D03*
X58160Y31540D02*
D03*
X58240Y34060D02*
D03*
X57200Y34100D02*
D03*
X55631Y34169D02*
D03*
X56400Y35020D02*
D03*
X38831Y61231D02*
D03*
X30200Y51300D02*
D03*
X40500Y55700D02*
D03*
X40175Y56625D02*
D03*
X33200Y50100D02*
D03*
X31400Y49500D02*
D03*
X30500Y52400D02*
D03*
X38800Y60200D02*
D03*
Y60900D02*
D03*
X33300Y49400D02*
D03*
X29000Y46600D02*
D03*
X26065Y49535D02*
D03*
X26600Y49300D02*
D03*
X24700Y49200D02*
D03*
X24300Y47000D02*
D03*
X30200Y40800D02*
D03*
X26800Y55000D02*
D03*
X26065Y50565D02*
D03*
X24200Y50500D02*
D03*
X26065Y51535D02*
D03*
X24600Y51200D02*
D03*
X43200Y50900D02*
D03*
X43600Y50700D02*
D03*
X27000Y54300D02*
D03*
X44100Y48300D02*
D03*
X41600Y49000D02*
D03*
X36000Y50600D02*
D03*
X33500Y50500D02*
D03*
X31300Y51300D02*
D03*
X26800Y51600D02*
D03*
X23400Y51900D02*
D03*
X43400Y46600D02*
D03*
X25600Y53000D02*
D03*
X54800Y46000D02*
D03*
D89*
X71500Y33200D02*
D03*
X66200Y31900D02*
D03*
Y33900D02*
D03*
X63600Y33800D02*
D03*
X62731Y35168D02*
D03*
X64569D02*
D03*
X64500Y32400D02*
D03*
X62200D02*
D03*
D90*
X62165Y44865D02*
D03*
X62135Y46465D02*
D03*
Y48065D02*
D03*
X62165Y49665D02*
D03*
X62400Y50300D02*
D03*
Y48800D02*
D03*
Y47300D02*
D03*
Y45500D02*
D03*
X70500Y50600D02*
D03*
Y45800D02*
D03*
Y47200D02*
D03*
Y48800D02*
D03*
M02*
