%FSLAX24Y24*%
%MOIN*%
G70*
G01*
G75*
G04 Layer_Color=8421504*
G04 Layer_Color=8421504*
%ADD10R,0.0394X0.0433*%
%ADD11R,0.0433X0.0394*%
%ADD12R,0.1024X0.0945*%
%ADD13R,0.0945X0.1024*%
%ADD14C,0.0400*%
%ADD15R,0.0728X0.0118*%
%ADD16R,0.0709X0.0157*%
%ADD17R,0.0827X0.1614*%
%ADD18R,0.0787X0.0551*%
%ADD19O,0.0700X0.0300*%
%ADD20R,0.0700X0.0300*%
%ADD21R,0.0122X0.0709*%
%ADD22R,0.0709X0.0122*%
%ADD23O,0.0122X0.0709*%
%ADD24R,0.0157X0.0709*%
%ADD25R,0.0709X0.0157*%
%ADD26R,0.0118X0.0728*%
%ADD27R,0.0728X0.0118*%
%ADD28R,0.0630X0.0512*%
%ADD29R,0.0630X0.0709*%
%ADD30R,0.0709X0.0630*%
%ADD31R,0.1000X0.1400*%
%ADD32R,0.0300X0.0600*%
%ADD33R,0.1400X0.1000*%
%ADD34R,0.0600X0.0300*%
%ADD35R,0.0276X0.0354*%
%ADD36R,0.0354X0.0276*%
%ADD37R,0.0394X0.1083*%
%ADD38C,0.0200*%
%ADD39C,0.0080*%
%ADD40C,0.0100*%
%ADD41C,0.0160*%
%ADD42C,0.0120*%
%ADD43C,0.1400*%
%ADD44C,0.0750*%
%ADD45C,0.0500*%
%ADD46C,0.1600*%
%ADD47C,0.0600*%
%ADD48C,0.0433*%
%ADD49C,0.0350*%
%ADD50C,0.0250*%
%ADD51C,0.0300*%
%ADD52C,0.0098*%
%ADD53C,0.0079*%
%ADD54C,0.0070*%
%ADD55C,0.0140*%
%ADD56R,0.0200X0.0700*%
%ADD57R,0.0200X0.0200*%
%ADD58R,0.0500X0.0200*%
%ADD59R,0.0200X0.1000*%
%ADD60R,0.0200X0.0500*%
%ADD61R,0.1575X0.0098*%
D10*
X50200Y36335D02*
D03*
Y35665D02*
D03*
X28400Y61465D02*
D03*
Y62135D02*
D03*
X53400Y58265D02*
D03*
Y58935D02*
D03*
X57200Y58265D02*
D03*
Y58935D02*
D03*
X61000Y58265D02*
D03*
Y58935D02*
D03*
X65000Y58265D02*
D03*
Y58935D02*
D03*
X68800Y58265D02*
D03*
Y58935D02*
D03*
X73200Y58265D02*
D03*
Y58935D02*
D03*
X27500Y34235D02*
D03*
Y33565D02*
D03*
X56800Y38665D02*
D03*
Y39335D02*
D03*
X50600Y39335D02*
D03*
Y38665D02*
D03*
X55200Y39335D02*
D03*
Y38665D02*
D03*
X56200Y41935D02*
D03*
Y41265D02*
D03*
X58600Y41265D02*
D03*
Y41935D02*
D03*
X29300Y31765D02*
D03*
Y32435D02*
D03*
X27500Y31765D02*
D03*
Y32435D02*
D03*
X28300Y31765D02*
D03*
Y32435D02*
D03*
X49000Y53265D02*
D03*
Y53935D02*
D03*
X28300Y34235D02*
D03*
Y33565D02*
D03*
X29300D02*
D03*
Y34235D02*
D03*
D11*
X48065Y39200D02*
D03*
X48735D02*
D03*
X45335Y50500D02*
D03*
X44665D02*
D03*
X44865Y49700D02*
D03*
X45535D02*
D03*
X45335Y42200D02*
D03*
X44665D02*
D03*
X44665Y41000D02*
D03*
X45335D02*
D03*
X59735Y44900D02*
D03*
X59065D02*
D03*
X59735Y43900D02*
D03*
X59065D02*
D03*
X59735Y45900D02*
D03*
X59065D02*
D03*
X59735Y46900D02*
D03*
X59065D02*
D03*
X59735Y47900D02*
D03*
X59065D02*
D03*
X59735Y48900D02*
D03*
X59065D02*
D03*
X59735Y49900D02*
D03*
X59065D02*
D03*
X59735Y50900D02*
D03*
X59065D02*
D03*
X69935Y45800D02*
D03*
X69265D02*
D03*
X69935Y47200D02*
D03*
X69265D02*
D03*
X69935Y48800D02*
D03*
X69265D02*
D03*
X69935Y50600D02*
D03*
X69265D02*
D03*
X42835Y59500D02*
D03*
X42165D02*
D03*
X49335Y58500D02*
D03*
X48665D02*
D03*
X47035D02*
D03*
X46365D02*
D03*
X45035D02*
D03*
X44365D02*
D03*
X42835D02*
D03*
X42165D02*
D03*
X49335Y59500D02*
D03*
X48665D02*
D03*
X47035D02*
D03*
X46365D02*
D03*
X45035D02*
D03*
X44365D02*
D03*
X27365Y30900D02*
D03*
X28035D02*
D03*
D12*
X45506Y37200D02*
D03*
X43694D02*
D03*
X52294Y32400D02*
D03*
X54106D02*
D03*
X59457Y35709D02*
D03*
X57646D02*
D03*
X40906Y37200D02*
D03*
X39094D02*
D03*
X44494Y52000D02*
D03*
X46306D02*
D03*
X25894Y40100D02*
D03*
X27706D02*
D03*
X58140Y39400D02*
D03*
X60660D02*
D03*
X49994Y52600D02*
D03*
X51806D02*
D03*
D13*
X47700Y35606D02*
D03*
Y33794D02*
D03*
X41800Y32494D02*
D03*
Y34306D02*
D03*
X42200Y56106D02*
D03*
Y54294D02*
D03*
X26300Y51394D02*
D03*
Y53206D02*
D03*
X25700Y32094D02*
D03*
Y33906D02*
D03*
D15*
X42635Y48357D02*
D03*
Y50720D02*
D03*
X30765Y46192D02*
D03*
X42635Y40680D02*
D03*
Y40877D02*
D03*
Y41074D02*
D03*
Y41271D02*
D03*
Y41468D02*
D03*
Y41665D02*
D03*
Y41861D02*
D03*
Y42058D02*
D03*
Y42255D02*
D03*
Y42452D02*
D03*
Y42649D02*
D03*
Y42846D02*
D03*
Y43043D02*
D03*
Y43239D02*
D03*
Y43436D02*
D03*
Y43633D02*
D03*
Y43830D02*
D03*
Y44027D02*
D03*
Y44224D02*
D03*
Y44420D02*
D03*
Y44617D02*
D03*
Y44814D02*
D03*
Y45011D02*
D03*
Y45208D02*
D03*
Y45602D02*
D03*
Y45798D02*
D03*
Y45995D02*
D03*
Y46192D02*
D03*
Y46389D02*
D03*
Y46783D02*
D03*
Y46980D02*
D03*
Y47176D02*
D03*
Y47373D02*
D03*
Y47570D02*
D03*
Y47767D02*
D03*
Y47964D02*
D03*
Y48161D02*
D03*
Y48554D02*
D03*
Y48751D02*
D03*
Y48948D02*
D03*
Y49145D02*
D03*
Y49342D02*
D03*
Y49539D02*
D03*
Y49735D02*
D03*
Y49932D02*
D03*
Y50129D02*
D03*
Y50326D02*
D03*
X30765Y40877D02*
D03*
Y41074D02*
D03*
Y41861D02*
D03*
Y42058D02*
D03*
Y43239D02*
D03*
Y43633D02*
D03*
Y43830D02*
D03*
Y44617D02*
D03*
Y45011D02*
D03*
Y45995D02*
D03*
Y46389D02*
D03*
Y46586D02*
D03*
Y46783D02*
D03*
Y46980D02*
D03*
Y47176D02*
D03*
Y47373D02*
D03*
Y47570D02*
D03*
Y47767D02*
D03*
Y47964D02*
D03*
Y48161D02*
D03*
Y48357D02*
D03*
Y48554D02*
D03*
Y48751D02*
D03*
Y48948D02*
D03*
Y49145D02*
D03*
Y49342D02*
D03*
Y49539D02*
D03*
Y49735D02*
D03*
Y49932D02*
D03*
Y50720D02*
D03*
X42635Y46586D02*
D03*
Y45405D02*
D03*
X30765D02*
D03*
Y45208D02*
D03*
Y44814D02*
D03*
Y44420D02*
D03*
Y44224D02*
D03*
Y44027D02*
D03*
Y43436D02*
D03*
Y43043D02*
D03*
Y42846D02*
D03*
Y42649D02*
D03*
Y42452D02*
D03*
Y42255D02*
D03*
Y41665D02*
D03*
Y41468D02*
D03*
Y41271D02*
D03*
Y50326D02*
D03*
Y40680D02*
D03*
Y50523D02*
D03*
Y50129D02*
D03*
X42635Y50523D02*
D03*
D16*
X30728Y60975D02*
D03*
D17*
X52291Y35015D02*
D03*
X53709D02*
D03*
X52291Y39385D02*
D03*
X53709D02*
D03*
D18*
X24800Y57800D02*
D03*
Y55800D02*
D03*
X26454D02*
D03*
Y57800D02*
D03*
D19*
X67250Y44800D02*
D03*
Y45300D02*
D03*
Y45800D02*
D03*
Y46300D02*
D03*
Y46800D02*
D03*
Y47300D02*
D03*
Y47800D02*
D03*
Y48300D02*
D03*
Y48800D02*
D03*
Y49300D02*
D03*
Y49800D02*
D03*
Y50300D02*
D03*
X61500Y44800D02*
D03*
Y45300D02*
D03*
Y45800D02*
D03*
Y46300D02*
D03*
Y46800D02*
D03*
Y47300D02*
D03*
Y47800D02*
D03*
Y48300D02*
D03*
Y48800D02*
D03*
Y49300D02*
D03*
Y49800D02*
D03*
D20*
Y50300D02*
D03*
D21*
X56100Y43946D02*
D03*
X55903D02*
D03*
X55706D02*
D03*
X55509D02*
D03*
X55313D02*
D03*
X55116D02*
D03*
X54919D02*
D03*
X54722D02*
D03*
X54525D02*
D03*
X54328D02*
D03*
X54131D02*
D03*
X53935D02*
D03*
X53738D02*
D03*
X53541D02*
D03*
X53344D02*
D03*
X53147D02*
D03*
X52950D02*
D03*
X52754D02*
D03*
X52557D02*
D03*
X52360D02*
D03*
X52163D02*
D03*
X51966D02*
D03*
X51769D02*
D03*
X51572D02*
D03*
X51376D02*
D03*
X51179D02*
D03*
X50982D02*
D03*
X50785D02*
D03*
X50588D02*
D03*
X50391D02*
D03*
X50195D02*
D03*
X49998D02*
D03*
X49801D02*
D03*
X49604D02*
D03*
X49407D02*
D03*
X49210D02*
D03*
X49013D02*
D03*
X48817D02*
D03*
Y50600D02*
D03*
X49013D02*
D03*
X49210D02*
D03*
X49407D02*
D03*
X49604D02*
D03*
X49801D02*
D03*
X49998D02*
D03*
X50195D02*
D03*
X50391D02*
D03*
X50588D02*
D03*
X50785D02*
D03*
X50982D02*
D03*
X51179D02*
D03*
X51376D02*
D03*
X51572D02*
D03*
X51769D02*
D03*
X51966D02*
D03*
X52163D02*
D03*
X52360D02*
D03*
X52557D02*
D03*
X52754D02*
D03*
X52950D02*
D03*
X53147D02*
D03*
X53344D02*
D03*
X53541D02*
D03*
X53738D02*
D03*
X53935D02*
D03*
X54131D02*
D03*
X54328D02*
D03*
X54525D02*
D03*
X54722D02*
D03*
X54919D02*
D03*
X55116D02*
D03*
X55313D02*
D03*
X55509D02*
D03*
X55706D02*
D03*
X55903D02*
D03*
D22*
X47950Y44813D02*
D03*
Y45009D02*
D03*
Y45206D02*
D03*
Y45403D02*
D03*
Y45797D02*
D03*
Y45994D02*
D03*
Y46191D02*
D03*
Y46387D02*
D03*
Y46584D02*
D03*
Y46781D02*
D03*
Y46978D02*
D03*
Y47175D02*
D03*
Y47372D02*
D03*
Y47569D02*
D03*
Y47765D02*
D03*
Y47962D02*
D03*
Y48159D02*
D03*
Y48356D02*
D03*
Y48553D02*
D03*
Y48750D02*
D03*
Y48946D02*
D03*
Y49143D02*
D03*
Y49340D02*
D03*
Y49537D02*
D03*
Y49734D02*
D03*
X56966D02*
D03*
Y49537D02*
D03*
Y49340D02*
D03*
Y49143D02*
D03*
Y48946D02*
D03*
Y48750D02*
D03*
Y48553D02*
D03*
Y48356D02*
D03*
Y48159D02*
D03*
Y47962D02*
D03*
Y47765D02*
D03*
Y47569D02*
D03*
Y47372D02*
D03*
Y47175D02*
D03*
Y46978D02*
D03*
Y46781D02*
D03*
Y46584D02*
D03*
Y46387D02*
D03*
Y46191D02*
D03*
Y45994D02*
D03*
Y45797D02*
D03*
Y45600D02*
D03*
Y45403D02*
D03*
Y45206D02*
D03*
Y45009D02*
D03*
Y44813D02*
D03*
X47950Y45600D02*
D03*
D23*
X56100Y50600D02*
D03*
D24*
X38811Y61991D02*
D03*
X38555D02*
D03*
X38299D02*
D03*
X38043D02*
D03*
X37787D02*
D03*
X37531D02*
D03*
X37275D02*
D03*
X37019D02*
D03*
X36763D02*
D03*
X36507D02*
D03*
X36252D02*
D03*
X35996D02*
D03*
X35740D02*
D03*
X35484D02*
D03*
X35228D02*
D03*
X34972D02*
D03*
X34716D02*
D03*
X34460D02*
D03*
X34204D02*
D03*
X33948D02*
D03*
X33693D02*
D03*
X33437D02*
D03*
X33181D02*
D03*
X32925D02*
D03*
X32669D02*
D03*
X32413D02*
D03*
X32157D02*
D03*
X31901D02*
D03*
X31645D02*
D03*
X31389D02*
D03*
Y55609D02*
D03*
X31645D02*
D03*
X31901D02*
D03*
X32157D02*
D03*
X32413D02*
D03*
X32669D02*
D03*
X32925D02*
D03*
X33181D02*
D03*
X33437D02*
D03*
X33693D02*
D03*
X33948D02*
D03*
X34204D02*
D03*
X34460D02*
D03*
X34716D02*
D03*
X34972D02*
D03*
X35228D02*
D03*
X35484D02*
D03*
X35740D02*
D03*
X35996D02*
D03*
X36252D02*
D03*
X36507D02*
D03*
X36763D02*
D03*
X37019D02*
D03*
X37275D02*
D03*
X37531D02*
D03*
X37787D02*
D03*
X38043D02*
D03*
X38299D02*
D03*
X38555D02*
D03*
X38811D02*
D03*
D25*
X30728Y61231D02*
D03*
Y60719D02*
D03*
Y60463D02*
D03*
Y60207D02*
D03*
Y59952D02*
D03*
Y59696D02*
D03*
Y59440D02*
D03*
Y59184D02*
D03*
Y58928D02*
D03*
Y58672D02*
D03*
Y58416D02*
D03*
Y58160D02*
D03*
Y57904D02*
D03*
Y57648D02*
D03*
Y57393D02*
D03*
Y57137D02*
D03*
Y56881D02*
D03*
Y56625D02*
D03*
Y56369D02*
D03*
X39472D02*
D03*
Y56625D02*
D03*
Y56881D02*
D03*
Y57137D02*
D03*
Y57393D02*
D03*
Y57648D02*
D03*
Y57904D02*
D03*
Y58160D02*
D03*
Y58416D02*
D03*
Y58672D02*
D03*
Y58928D02*
D03*
Y59184D02*
D03*
Y59440D02*
D03*
Y59696D02*
D03*
Y59952D02*
D03*
Y60207D02*
D03*
Y60463D02*
D03*
Y60719D02*
D03*
Y60975D02*
D03*
Y61231D02*
D03*
D26*
X31680Y39765D02*
D03*
X31877D02*
D03*
X32074D02*
D03*
X32271D02*
D03*
X32468D02*
D03*
X32665D02*
D03*
X33058D02*
D03*
X34239D02*
D03*
X34830D02*
D03*
X36011D02*
D03*
X36405D02*
D03*
X36995D02*
D03*
X37192D02*
D03*
X37389D02*
D03*
X37586D02*
D03*
X37783D02*
D03*
X37980D02*
D03*
X38176D02*
D03*
X38373D02*
D03*
X38570D02*
D03*
X38767D02*
D03*
X38964D02*
D03*
X39161D02*
D03*
X39554D02*
D03*
X40342D02*
D03*
X40539D02*
D03*
X40735D02*
D03*
X40932D02*
D03*
X41129D02*
D03*
X41326D02*
D03*
X41523D02*
D03*
X41720D02*
D03*
X31680Y51635D02*
D03*
X31877D02*
D03*
X32074D02*
D03*
X32271D02*
D03*
X32468D02*
D03*
X32665D02*
D03*
X32861D02*
D03*
X33058D02*
D03*
X33255D02*
D03*
X33452D02*
D03*
X33649D02*
D03*
X33846D02*
D03*
X34043D02*
D03*
X34239D02*
D03*
X34436D02*
D03*
X34633D02*
D03*
X34830D02*
D03*
X35027D02*
D03*
X35224D02*
D03*
X35420D02*
D03*
X35617D02*
D03*
X35814D02*
D03*
X36011D02*
D03*
X36208D02*
D03*
X36405D02*
D03*
X36602D02*
D03*
X36798D02*
D03*
X36995D02*
D03*
X37192D02*
D03*
X37389D02*
D03*
X37586D02*
D03*
X37783D02*
D03*
X37980D02*
D03*
X38176D02*
D03*
X38373D02*
D03*
X38570D02*
D03*
X38767D02*
D03*
X38964D02*
D03*
X39161D02*
D03*
X39357D02*
D03*
X39554D02*
D03*
X39751D02*
D03*
X39948D02*
D03*
X40145D02*
D03*
X40342D02*
D03*
X40539D02*
D03*
X40735D02*
D03*
X40932D02*
D03*
X41129D02*
D03*
X41326D02*
D03*
X41523D02*
D03*
X41720D02*
D03*
X39357Y39765D02*
D03*
X39751D02*
D03*
X39948D02*
D03*
X40145D02*
D03*
X35420D02*
D03*
X35617D02*
D03*
X35814D02*
D03*
X36208D02*
D03*
X36602D02*
D03*
X36798D02*
D03*
X32861D02*
D03*
X33255D02*
D03*
X33452D02*
D03*
X33649D02*
D03*
X33846D02*
D03*
X34043D02*
D03*
X34436D02*
D03*
X34633D02*
D03*
X35027D02*
D03*
X35224D02*
D03*
D27*
X30765Y45602D02*
D03*
Y45798D02*
D03*
D28*
X55200Y58226D02*
D03*
Y58974D02*
D03*
X58800Y58226D02*
D03*
Y58974D02*
D03*
X62400Y58226D02*
D03*
Y58974D02*
D03*
X66400Y58226D02*
D03*
Y58974D02*
D03*
X70400Y58226D02*
D03*
Y58974D02*
D03*
X74600Y58226D02*
D03*
Y58974D02*
D03*
X26400Y61426D02*
D03*
Y62174D02*
D03*
X49600Y62226D02*
D03*
Y62974D02*
D03*
X47200Y62226D02*
D03*
Y62974D02*
D03*
X44800Y62226D02*
D03*
Y62974D02*
D03*
X42400Y62226D02*
D03*
Y62974D02*
D03*
D29*
X38549Y35300D02*
D03*
X39651D02*
D03*
X43449Y35400D02*
D03*
X44551D02*
D03*
D30*
X56200Y33351D02*
D03*
Y32249D02*
D03*
X47000Y54751D02*
D03*
Y53649D02*
D03*
D31*
X44600Y32032D02*
D03*
X44900Y56168D02*
D03*
X39100Y32132D02*
D03*
D32*
X45100Y34000D02*
D03*
X43600D02*
D03*
X45600D02*
D03*
X44100D02*
D03*
X44600D02*
D03*
X44400Y54200D02*
D03*
X45900D02*
D03*
X43900D02*
D03*
X45400D02*
D03*
X44900D02*
D03*
X39600Y34100D02*
D03*
X38100D02*
D03*
X40100D02*
D03*
X38600D02*
D03*
X39100D02*
D03*
D33*
X59369Y33000D02*
D03*
D34*
X57400Y33500D02*
D03*
Y32000D02*
D03*
Y34000D02*
D03*
Y32500D02*
D03*
Y33000D02*
D03*
D35*
X55000Y41856D02*
D03*
Y41344D02*
D03*
X57200Y41856D02*
D03*
Y41344D02*
D03*
X71400Y51744D02*
D03*
Y52256D02*
D03*
Y41544D02*
D03*
Y42056D02*
D03*
D36*
X69456Y42600D02*
D03*
X68944D02*
D03*
D37*
X31438Y32063D02*
D03*
Y33737D02*
D03*
X32225Y32063D02*
D03*
X33013D02*
D03*
X33800D02*
D03*
X34587D02*
D03*
X35375D02*
D03*
X36162D02*
D03*
X32225Y33737D02*
D03*
X33013D02*
D03*
X33800D02*
D03*
X34587D02*
D03*
X35375D02*
D03*
X36162D02*
D03*
M02*
