M48
;Layer_Color=15461320
;FILE_FORMAT=2:4
INCH,LZ
;TYPE=PLATED
T1F00S00C0.0135
T2F00S00C0.0200
T3F00S00C0.0350
T4F00S00C0.0394
T5F00S00C0.0400
T6F00S00C0.0620
T7F00S00C0.1280
T8F00S00C0.1400
%
T01
X031438Y031238
X032225
X033013
X0338
X034587
X035375
X036162
X03035Y03095
X0263
X0264Y03215
X027Y0328
X0275Y0331
X02885
X028785Y033565
X0288Y0325
X02985Y0316
X0308Y0324
X031Y03335
X0302Y033335
X0298Y03425
X0283Y0347
X0275Y03475
X026456Y033906
X02785Y0314
X029977Y040877
X0302Y042
Y0437
X029Y0466
X0316Y04675
Y0463
X032Y0459
X031311Y045011
X031417Y044617
X03137Y04383
X031361Y043239
X031342Y042058
X0316Y0411
X0314Y0402
X03265Y0392
X0332Y03918
X0333Y0408
X0337Y0409
Y0405
X0343
X03483Y04043
X0354Y040657
X035814Y040586
X036208Y040592
X0365Y0408
X0366Y0414
X036995Y041383
X0375Y0419
Y0405
X03855Y04035
X0386Y0407
X038964Y040364
X0397Y0404
X0406Y0405
X041129Y040371
X04172Y04033
X0419Y041
X042042Y042058
X042Y0431
X0418Y0434
X041927Y044027
X0419Y0448
X042Y0452
Y0462
X041983Y046783
X0434Y0466
X0404Y0464
Y045
X04045Y044
Y043
Y042
X0392Y0418
X0391Y0389
X0379Y03915
X03735Y03905
X036405Y039205
X036011Y039211
X034Y0415
X0332Y0412
X0328
X033Y042
X03295Y0438
Y0448
X0332Y0467
X03145Y0347
X0325Y0329
X033
X0338Y03295
X0346
X0426Y0396
X042635Y040435
X0432Y042
X0439
Y0413
X0458Y041
X0466Y0411
X0467Y0394
X0457Y0421
X0469Y0409
X0493Y0403
X0511Y0409
X0517Y0421
X0513Y0434
X0505Y0433
X0497Y0434
X049604Y044496
X0504Y0446
X0512Y0445
X0523Y0446
X0527Y0454
X053738Y044538
X0543Y0446
X0544Y0434
X0535Y0433
X0523Y0434
X0556Y0432
X0553Y0427
X0554Y042
X0546Y0413
X0562Y0408
X057665Y041265
X0586Y0408
X0587Y0439
Y0449
Y0459
X0576Y0452
X056387Y044813
X055706Y044594
X0563Y0458
Y0466
X0575Y0467
X0601Y0464
Y0444
X056595Y042805
X0568Y0382
X0552
X05754Y03674
X0506Y0382
X0512Y0459
X05Y046
X0494Y0464
X0486Y0468
Y0458
X047403Y045797
X0473Y0449
X0484Y0446
X0538Y0462
X0548Y046
X0709Y0463
Y0468
X070749Y042351
X0714
X072051
X071949Y041249
X0714Y0412
X070749Y041249
X0701Y0427
X0685Y0426
X070749Y051449
X0714Y05135
X072251Y051449
X072149Y052501
X070649
X0712Y059
X072165Y058935
X0755Y059
X068135Y058935
X0673Y059
X064435Y058935
X0634Y059
X060435Y058935
X0597Y059
X0567Y0589
X054474Y058974
X052435Y058935
X049Y0579
X048665Y059965
X049Y0549
X05Y05335
X0518
X05255Y05265
X053Y0512
X0521
X0513
X0505
X049604Y051196
X049013Y051187
X049Y0499
X0496Y0498
X0505Y05
X051376Y049976
X052Y0499
X052557Y049943
X0532Y0499
X0536Y05
X054131Y050031
X0545Y0499
X0553Y05
X0561
X056335Y049535
X05645Y04875
X0576Y0487
Y0476
X0587Y0479
Y0489
Y0499
Y0509
X0601Y0504
Y0484
X0587Y0469
X0564Y0474
X055565Y047935
X055Y0485
X054
X052
X0502Y0484
X049465Y048465
X0486Y0478
X0474Y0479
Y0469
Y0491
X048543Y049143
X0552Y0512
X0464
X0466Y0505
X0461Y0498
X0441Y05
Y0506
X0432Y0496
X042061Y049539
X04045Y0496
X04005
X0395Y0488
X0387Y0492
X0382Y04945
X0377Y0492
X0372Y0494
X0377Y0503
X0372Y051
X0368
X036011Y051011
X035617Y051017
X034436Y051036
X033846Y051054
X0335Y0505
X0332Y0501
X0333Y0494
X0342Y04945
X0352
X0355Y0524
X0354Y053
X0347Y0528
X0348Y0536
X0353Y0545
X0354Y055
X0363Y0548
Y0536
X0375Y0535
X0377Y0529
X0392Y053
X0397
X0392Y0524
X039161Y051061
X0385Y051
X0406Y0509
X04172Y05108
X0419Y048
Y0474
X0404
Y0484
X0441Y0483
X044494Y052744
X044365Y059035
X0433Y0585
X0401Y0588
X038928Y058672
X0388Y0593
Y0597
Y0602
Y0609
X038831Y061231
X038Y0613
X0364
X0352
X0339
X0323
Y0597
X0314Y0591
X031365Y058665
X0317Y0567
X0326
X033Y0569
X0333Y0566
X0339Y0563
X0343Y0566
X0349Y0567
X0354
Y0562
X0363Y0563
Y0568
X037Y0565
X0374Y0569
X0379Y0564
X0385Y0565
X0382Y0573
X0387Y0577
X0384Y0584
X038Y0586
X0379Y0549
X0384Y0543
X0394Y0555
X0405Y0557
X040175Y056625
X0401Y0606
X0352Y0596
X0339
X0341Y0572
X033948Y054848
X0323Y0548
X0322Y0539
X0328
Y051
X032465Y050935
X032365Y050265
X031526Y050326
X0316Y0499
X0314Y0495
Y0483
X0315Y0479
X031373Y047373
X033Y0474
X03295Y0484
X0313Y0512
X0323Y0563
X046365Y059065
X030131Y061231
X02895Y06195
X026454Y058404
X026402Y057352
X0265Y0551
X02545Y0558
X0305Y0524
X0302Y0513
X030765Y051165
X0302Y0494
X0264Y0628
X0323Y0626
X0338
X034716Y062584
X0364Y0626
X0379
X0431Y0634
T02
X0559Y03116
X044632Y031068
X039132Y031168
X02815Y0409
X02505Y0403
X0374Y0358
X0387Y036
X039651Y035951
X0408Y0357
X04126Y03644
X0435Y0361
X0436Y0346
X0453Y0347
Y0354
X045773Y036423
X04681Y03586
X04635Y03375
X0446Y0333
X043769Y032069
X045431Y032032
X04255Y03285
X04245Y03395
X0407Y034
X0391Y0333
X038268Y032169
X039931Y032132
X0385Y0347
X037765Y0341
X0476Y03255
X05115Y0324
X0502Y03445
X0476Y0367
X048951Y038299
X0564Y0357
X0575Y03466
X0568Y0337
X05688Y03248
X0574Y0316
X05824Y033
X059331Y032169
X059369Y033832
X060332Y033031
X060741Y035709
X0617Y0394
X062165Y044865
X0624Y0455
X062135Y046465
X055511Y033351
X055489Y032249
X0705Y0458
Y0472
Y0488
Y0506
X0624Y0503
X062165Y049665
X0624Y0488
X062135Y048065
X0624Y0473
X047535Y054665
X0463Y0542
Y0532
X0448Y0551
X044169Y056168
X043Y05645
X04295Y0546
X0434Y0542
X04305Y0525
X045732Y056168
X0449Y0572
X026Y05405
X0255Y0532
X02555Y05135
X0263Y0506
T03
X0742Y04605
X0752Y04555
Y04655
Y04755
Y04855
X0742Y04805
Y04705
Y04905
T04
X031832Y0329
X035768
T05
X0185Y034
X0195
Y035
X0185
Y036
Y037
Y038
Y039
Y04
Y041
Y042
Y043
Y044
Y045
Y046
X0195
Y045
Y044
Y043
Y042
Y041
Y04
Y039
Y038
Y037
Y036
Y047
X0185
Y048
Y049
Y05
Y051
Y052
Y053
Y054
Y055
Y056
Y057
Y058
Y059
Y06
X0195
Y059
Y058
Y057
Y056
Y055
Y054
Y053
Y052
Y051
Y05
Y049
Y048
Y061
X0185
T06
X0789Y04421
Y05039
T07
X0777Y04505
Y04955
T08
X023Y0335
X073
Y0615
X023
M30
