%FSLAX24Y24*%
%MOIN*%
G70*
G01*
G75*
G04 Layer_Physical_Order=3*
G04 Layer_Color=128*
%ADD10R,0.0394X0.0433*%
%ADD11R,0.0433X0.0394*%
%ADD12R,0.1024X0.0945*%
%ADD13R,0.0945X0.1024*%
%ADD14C,0.0400*%
%ADD15R,0.0728X0.0118*%
%ADD16R,0.0709X0.0157*%
%ADD17R,0.0827X0.1614*%
%ADD18R,0.0787X0.0551*%
%ADD19O,0.0700X0.0300*%
%ADD20R,0.0700X0.0300*%
%ADD21R,0.0122X0.0709*%
%ADD22R,0.0709X0.0122*%
%ADD23O,0.0122X0.0709*%
%ADD24R,0.0157X0.0709*%
%ADD25R,0.0709X0.0157*%
%ADD26R,0.0118X0.0728*%
%ADD27R,0.0728X0.0118*%
%ADD28R,0.0630X0.0512*%
%ADD29R,0.0630X0.0709*%
%ADD30R,0.0709X0.0630*%
%ADD31R,0.1000X0.1400*%
%ADD32R,0.0300X0.0600*%
%ADD33R,0.1400X0.1000*%
%ADD34R,0.0600X0.0300*%
%ADD35R,0.0276X0.0354*%
%ADD36R,0.0354X0.0276*%
%ADD37R,0.0394X0.1083*%
%ADD38C,0.0200*%
%ADD39C,0.0080*%
%ADD40C,0.0100*%
%ADD41C,0.0160*%
%ADD42C,0.0120*%
%ADD43C,0.1400*%
%ADD44C,0.0750*%
%ADD45C,0.0500*%
%ADD46C,0.1600*%
%ADD47C,0.0600*%
%ADD48C,0.0433*%
%ADD49C,0.0350*%
%ADD50C,0.0250*%
%ADD51C,0.0300*%
G36*
X30988Y46439D02*
X31028Y46412D01*
X31075Y46403D01*
X31324D01*
X31405Y46322D01*
X31401Y46300D01*
X31416Y46224D01*
X31459Y46159D01*
X31524Y46116D01*
X31571Y46107D01*
X31586Y46059D01*
X31549Y46022D01*
X31151D01*
X28000Y49173D01*
Y49362D01*
X28046Y49381D01*
X30988Y46439D01*
D02*
G37*
G36*
X31013Y45813D02*
X31053Y45787D01*
X31100Y45778D01*
X31600D01*
X31646Y45787D01*
X31670Y45743D01*
X31449Y45522D01*
X31051D01*
X28000Y48573D01*
Y48762D01*
X28046Y48781D01*
X31013Y45813D01*
D02*
G37*
G36*
X48000Y54673D02*
X47049Y53722D01*
X43500D01*
X43453Y53713D01*
X43413Y53687D01*
X41449Y51722D01*
X40300D01*
X40253Y51713D01*
X40213Y51687D01*
X38949Y50422D01*
X37853D01*
X37841Y50441D01*
X37776Y50484D01*
X37700Y50499D01*
X37624Y50484D01*
X37559Y50441D01*
X37516Y50376D01*
X37501Y50300D01*
X37516Y50224D01*
X37559Y50159D01*
X37624Y50116D01*
X37700Y50101D01*
X37776Y50116D01*
X37841Y50159D01*
X37853Y50178D01*
X39000D01*
X39047Y50187D01*
X39087Y50213D01*
X40351Y51478D01*
X41500D01*
X41547Y51487D01*
X41587Y51513D01*
X43551Y53478D01*
X46188D01*
X46203Y53430D01*
X46123Y53377D01*
X46069Y53296D01*
X46050Y53200D01*
X46069Y53104D01*
X46123Y53023D01*
X46204Y52969D01*
X46300Y52950D01*
X46396Y52969D01*
X46477Y53023D01*
X46531Y53104D01*
X46550Y53200D01*
X46531Y53296D01*
X46477Y53377D01*
X46397Y53430D01*
X46412Y53478D01*
X47100D01*
X47147Y53487D01*
X47187Y53513D01*
X47954Y54281D01*
X48000Y54262D01*
Y53722D01*
X47700D01*
X47653Y53713D01*
X47613Y53687D01*
X45949Y52022D01*
X45000D01*
X44953Y52013D01*
X44913Y51987D01*
X43049Y50122D01*
X38200D01*
X38153Y50113D01*
X38113Y50087D01*
X37613Y49587D01*
X37587Y49547D01*
X37578Y49500D01*
Y49353D01*
X37559Y49341D01*
X37516Y49276D01*
X37501Y49200D01*
X37516Y49124D01*
X37559Y49059D01*
X37624Y49016D01*
X37700Y49001D01*
X37776Y49016D01*
X37841Y49059D01*
X37884Y49124D01*
X37899Y49200D01*
X37884Y49276D01*
X37841Y49341D01*
X37822Y49353D01*
Y49449D01*
X38251Y49878D01*
X43100D01*
X43147Y49887D01*
X43187Y49913D01*
X43859Y50586D01*
X43907Y50571D01*
X43916Y50524D01*
X43959Y50459D01*
X44024Y50416D01*
X44100Y50401D01*
X44176Y50416D01*
X44241Y50459D01*
X44284Y50524D01*
X44299Y50600D01*
X44284Y50676D01*
X44241Y50741D01*
X44176Y50784D01*
X44100Y50799D01*
X44090Y50817D01*
X45051Y51778D01*
X46000D01*
X46047Y51787D01*
X46087Y51813D01*
X47751Y53478D01*
X48000D01*
Y53022D01*
X47500D01*
X47453Y53013D01*
X47413Y52987D01*
X44328Y49901D01*
X44284Y49925D01*
X44299Y50000D01*
X44284Y50076D01*
X44241Y50141D01*
X44176Y50184D01*
X44100Y50199D01*
X44024Y50184D01*
X43959Y50141D01*
X43916Y50076D01*
X43901Y50000D01*
X43916Y49924D01*
X43959Y49859D01*
X44024Y49816D01*
X44100Y49801D01*
X44176Y49816D01*
X44199Y49772D01*
X43749Y49322D01*
X42175D01*
X42160Y49370D01*
X42202Y49398D01*
X42245Y49462D01*
X42260Y49539D01*
X42245Y49615D01*
X42202Y49679D01*
X42137Y49722D01*
X42061Y49737D01*
X41985Y49722D01*
X41921Y49679D01*
X41878Y49615D01*
X41863Y49539D01*
X41878Y49462D01*
X41921Y49398D01*
X41962Y49370D01*
X41948Y49322D01*
X38853D01*
X38841Y49341D01*
X38776Y49384D01*
X38700Y49399D01*
X38624Y49384D01*
X38559Y49341D01*
X38516Y49276D01*
X38501Y49200D01*
X38516Y49124D01*
X38559Y49059D01*
X38624Y49016D01*
X38700Y49001D01*
X38776Y49016D01*
X38841Y49059D01*
X38853Y49078D01*
X43800D01*
X43847Y49087D01*
X43887Y49113D01*
X47551Y52778D01*
X48000D01*
Y52473D01*
X46628Y51101D01*
X46584Y51125D01*
X46599Y51200D01*
X46584Y51276D01*
X46541Y51341D01*
X46476Y51384D01*
X46400Y51399D01*
X46324Y51384D01*
X46259Y51341D01*
X46216Y51276D01*
X46201Y51200D01*
X46216Y51124D01*
X46259Y51059D01*
X46324Y51016D01*
X46400Y51001D01*
X46476Y51016D01*
X46499Y50972D01*
X44449Y48922D01*
X39653D01*
X39641Y48941D01*
X39576Y48984D01*
X39500Y48999D01*
X39424Y48984D01*
X39359Y48941D01*
X39316Y48876D01*
X39301Y48800D01*
X39316Y48724D01*
X39359Y48659D01*
X39424Y48616D01*
X39500Y48601D01*
X39576Y48616D01*
X39641Y48659D01*
X39653Y48678D01*
X44500D01*
X44547Y48687D01*
X44587Y48713D01*
X46359Y50486D01*
X46407Y50471D01*
X46416Y50424D01*
X46459Y50359D01*
X46524Y50316D01*
X46600Y50301D01*
X46676Y50316D01*
X46741Y50359D01*
X46784Y50424D01*
X46799Y50500D01*
X46784Y50576D01*
X46741Y50641D01*
X46676Y50684D01*
X46600Y50699D01*
X46590Y50717D01*
X47954Y52081D01*
X48000Y52062D01*
Y32000D01*
X45707D01*
X45681Y32032D01*
X45662Y32127D01*
X45608Y32208D01*
X45527Y32262D01*
X45431Y32281D01*
X45336Y32262D01*
X45255Y32208D01*
X45201Y32127D01*
X45182Y32032D01*
X45156Y32000D01*
X44044D01*
X44012Y32039D01*
X44018Y32069D01*
X43999Y32164D01*
X43945Y32245D01*
X43864Y32299D01*
X43769Y32318D01*
X43673Y32299D01*
X43592Y32245D01*
X43538Y32164D01*
X43519Y32069D01*
X43525Y32039D01*
X43493Y32000D01*
X40195D01*
X40163Y32039D01*
X40181Y32132D01*
X40162Y32227D01*
X40108Y32308D01*
X40027Y32362D01*
X39931Y32381D01*
X39836Y32362D01*
X39755Y32308D01*
X39701Y32227D01*
X39682Y32132D01*
X39700Y32039D01*
X39668Y32000D01*
X38504D01*
X38480Y32044D01*
X38499Y32073D01*
X38518Y32169D01*
X38499Y32264D01*
X38445Y32345D01*
X38364Y32399D01*
X38268Y32418D01*
X38173Y32399D01*
X38092Y32345D01*
X38038Y32264D01*
X38019Y32169D01*
X38038Y32073D01*
X38057Y32044D01*
X38033Y32000D01*
X33788D01*
X33769Y32046D01*
X34503Y32780D01*
X34524Y32766D01*
X34600Y32751D01*
X34676Y32766D01*
X34741Y32809D01*
X34784Y32874D01*
X34799Y32950D01*
X34784Y33026D01*
X34741Y33091D01*
X34698Y33119D01*
X34687Y33137D01*
X34647Y33163D01*
X34600Y33172D01*
X34553Y33163D01*
X34513Y33137D01*
X34484Y33107D01*
X34459Y33091D01*
X34443Y33066D01*
X33377Y32000D01*
X33088D01*
X33069Y32046D01*
X33778Y32755D01*
X33800Y32751D01*
X33876Y32766D01*
X33941Y32809D01*
X33984Y32874D01*
X33999Y32950D01*
X33984Y33026D01*
X33941Y33091D01*
X33876Y33134D01*
X33800Y33149D01*
X33724Y33134D01*
X33659Y33091D01*
X33616Y33026D01*
X33601Y32950D01*
X33605Y32928D01*
X32799Y32122D01*
X28950D01*
X28903Y32113D01*
X28863Y32087D01*
X28777Y32000D01*
X28000D01*
Y32877D01*
X28101Y32978D01*
X28697D01*
X28709Y32959D01*
X28774Y32916D01*
X28850Y32901D01*
X28926Y32916D01*
X28991Y32959D01*
X29034Y33024D01*
X29049Y33100D01*
X29034Y33176D01*
X28991Y33241D01*
X28926Y33284D01*
X28850Y33299D01*
X28774Y33284D01*
X28709Y33241D01*
X28697Y33222D01*
X28050D01*
X28039Y33220D01*
X28000Y33252D01*
Y35077D01*
X29687Y36763D01*
X29713Y36803D01*
X29722Y36850D01*
Y40449D01*
X29956Y40683D01*
X29977Y40678D01*
X30053Y40693D01*
X30118Y40737D01*
X30161Y40801D01*
X30176Y40877D01*
X30161Y40953D01*
X30118Y41018D01*
X30053Y41061D01*
X29977Y41076D01*
X29901Y41061D01*
X29837Y41018D01*
X29793Y40953D01*
X29778Y40877D01*
X29783Y40856D01*
X29513Y40587D01*
X29487Y40547D01*
X29478Y40500D01*
Y36901D01*
X28046Y35469D01*
X28000Y35488D01*
Y40653D01*
X28044Y40676D01*
X28054Y40669D01*
X28150Y40650D01*
X28246Y40669D01*
X28327Y40723D01*
X28381Y40804D01*
X28400Y40900D01*
X28381Y40996D01*
X28327Y41077D01*
X28246Y41131D01*
X28150Y41150D01*
X28054Y41131D01*
X28044Y41124D01*
X28000Y41147D01*
Y43762D01*
X28046Y43781D01*
X29213Y42613D01*
X29253Y42587D01*
X29300Y42578D01*
X36049D01*
X37000Y41627D01*
X36985Y41579D01*
X36919Y41566D01*
X36855Y41523D01*
X36829Y41485D01*
X36823Y41484D01*
X36778D01*
X36741Y41541D01*
X36676Y41584D01*
X36600Y41599D01*
X36524Y41584D01*
X36459Y41541D01*
X36416Y41476D01*
X36401Y41400D01*
X36416Y41324D01*
X36459Y41259D01*
X36524Y41216D01*
X36600Y41201D01*
X36676Y41216D01*
X36741Y41259D01*
X36766Y41297D01*
X36772Y41299D01*
X36817D01*
X36855Y41242D01*
X36919Y41199D01*
X36995Y41184D01*
X37071Y41199D01*
X37136Y41242D01*
X37179Y41307D01*
X37192Y41373D01*
X37240Y41387D01*
X38013Y40613D01*
X38053Y40587D01*
X38100Y40578D01*
X38316D01*
X38431Y40555D01*
X38442Y40534D01*
X38417Y40495D01*
X38409Y40491D01*
X38366Y40426D01*
X38351Y40350D01*
X38366Y40274D01*
X38409Y40209D01*
X38474Y40166D01*
X38550Y40151D01*
X38626Y40166D01*
X38691Y40209D01*
X38734Y40274D01*
X38783Y40284D01*
X38823Y40223D01*
X38888Y40180D01*
X38964Y40165D01*
X39040Y40180D01*
X39104Y40223D01*
X39147Y40288D01*
X39163Y40364D01*
X39147Y40440D01*
X39104Y40504D01*
X39040Y40547D01*
X38964Y40563D01*
X38888Y40547D01*
X38823Y40504D01*
X38780Y40440D01*
X38731Y40430D01*
X38691Y40491D01*
X38673Y40502D01*
X38676Y40516D01*
X38741Y40559D01*
X38784Y40624D01*
X38799Y40700D01*
X38784Y40776D01*
X38741Y40841D01*
X38676Y40884D01*
X38600Y40899D01*
X38524Y40884D01*
X38459Y40841D01*
X38447Y40822D01*
X38151D01*
X36187Y42787D01*
X36147Y42813D01*
X36100Y42822D01*
X29351D01*
X28000Y44173D01*
Y48162D01*
X28046Y48181D01*
X30913Y45313D01*
X30953Y45287D01*
X31000Y45278D01*
X31500D01*
X31547Y45287D01*
X31587Y45313D01*
X31978Y45705D01*
X32000Y45701D01*
X32076Y45716D01*
X32141Y45759D01*
X32184Y45824D01*
X32199Y45900D01*
X32184Y45976D01*
X32141Y46041D01*
X32152Y46078D01*
X32349D01*
X32613Y45813D01*
X32653Y45787D01*
X32700Y45778D01*
X34649D01*
X37378Y43049D01*
Y42053D01*
X37359Y42041D01*
X37316Y41976D01*
X37301Y41900D01*
X37316Y41824D01*
X37359Y41759D01*
X37424Y41716D01*
X37500Y41701D01*
X37576Y41716D01*
X37641Y41759D01*
X37684Y41824D01*
X37699Y41900D01*
X37684Y41976D01*
X37641Y42041D01*
X37622Y42053D01*
Y43100D01*
X37613Y43147D01*
X37587Y43187D01*
X34787Y45987D01*
X34747Y46013D01*
X34700Y46022D01*
X32751D01*
X32487Y46287D01*
X32447Y46313D01*
X32400Y46322D01*
X31900D01*
X31853Y46313D01*
X31840Y46304D01*
X31794Y46324D01*
X31784Y46376D01*
X31741Y46441D01*
X31676Y46484D01*
X31600Y46499D01*
D01*
X31563Y46510D01*
X31587Y46554D01*
X31600Y46551D01*
X31676Y46566D01*
X31741Y46609D01*
X31784Y46674D01*
X31799Y46750D01*
X31784Y46826D01*
X31741Y46891D01*
X31676Y46934D01*
X31600Y46949D01*
X31524Y46934D01*
X31459Y46891D01*
X31416Y46826D01*
X31401Y46750D01*
X31415Y46682D01*
X31387Y46655D01*
X31376Y46647D01*
X31375Y46647D01*
X31126D01*
X28000Y49773D01*
Y55000D01*
X32162D01*
X32177Y54952D01*
X32159Y54941D01*
X32116Y54876D01*
X32101Y54800D01*
X32116Y54724D01*
X32159Y54659D01*
X32224Y54616D01*
X32300Y54601D01*
X32376Y54616D01*
X32441Y54659D01*
X32484Y54724D01*
X32499Y54800D01*
X32484Y54876D01*
X32441Y54941D01*
X32423Y54952D01*
X32438Y55000D01*
X33762D01*
X33786Y54956D01*
X33765Y54925D01*
X33750Y54848D01*
X33765Y54772D01*
X33808Y54708D01*
X33872Y54665D01*
X33948Y54650D01*
X34025Y54665D01*
X34089Y54708D01*
X34132Y54772D01*
X34147Y54848D01*
X34132Y54925D01*
X34089Y54989D01*
X34092Y55000D01*
X35201D01*
X35216Y54924D01*
X35259Y54859D01*
X35324Y54816D01*
X35400Y54801D01*
X35476Y54816D01*
X35541Y54859D01*
X35584Y54924D01*
X35599Y55000D01*
X36162D01*
X36177Y54952D01*
X36159Y54941D01*
X36116Y54876D01*
X36101Y54800D01*
X36116Y54724D01*
X36159Y54659D01*
X36224Y54616D01*
X36300Y54601D01*
X36376Y54616D01*
X36441Y54659D01*
X36484Y54724D01*
X36499Y54800D01*
X36484Y54876D01*
X36441Y54941D01*
X36423Y54952D01*
X36438Y55000D01*
X37682D01*
X37713Y54961D01*
X37701Y54900D01*
X37716Y54824D01*
X37759Y54759D01*
X37824Y54716D01*
X37900Y54701D01*
X37976Y54716D01*
X38041Y54759D01*
X38084Y54824D01*
X38099Y54900D01*
X38084Y54976D01*
X38096Y55000D01*
X44572D01*
X44623Y54923D01*
X44704Y54869D01*
X44800Y54850D01*
X44896Y54869D01*
X44977Y54923D01*
X45028Y55000D01*
X48000D01*
Y54673D01*
D02*
G37*
G36*
X79600Y31000D02*
X56141D01*
X56117Y31044D01*
X56131Y31064D01*
X56150Y31160D01*
X56131Y31256D01*
X56077Y31337D01*
X55996Y31391D01*
X55900Y31410D01*
X55804Y31391D01*
X55723Y31337D01*
X55669Y31256D01*
X55650Y31160D01*
X55669Y31064D01*
X55683Y31044D01*
X55659Y31000D01*
X55000D01*
Y38062D01*
X55048Y38077D01*
X55059Y38059D01*
X55124Y38016D01*
X55200Y38001D01*
X55276Y38016D01*
X55341Y38059D01*
X55384Y38124D01*
X55399Y38200D01*
X55384Y38276D01*
X55341Y38341D01*
X55276Y38384D01*
X55200Y38399D01*
X55124Y38384D01*
X55059Y38341D01*
X55048Y38323D01*
X55000Y38338D01*
Y48301D01*
X55076Y48316D01*
X55141Y48359D01*
X55184Y48424D01*
X55199Y48500D01*
X55184Y48576D01*
X55141Y48641D01*
X55076Y48684D01*
X55000Y48699D01*
Y51062D01*
X55048Y51077D01*
X55059Y51059D01*
X55124Y51016D01*
X55200Y51001D01*
X55276Y51016D01*
X55341Y51059D01*
X55384Y51124D01*
X55399Y51200D01*
X55384Y51276D01*
X55341Y51341D01*
X55276Y51384D01*
X55200Y51399D01*
X55124Y51384D01*
X55059Y51341D01*
X55048Y51323D01*
X55000Y51338D01*
Y52000D01*
X79600D01*
Y31000D01*
D02*
G37*
%LPC*%
G36*
X34000Y41699D02*
X33924Y41684D01*
X33859Y41641D01*
X33816Y41576D01*
X33801Y41500D01*
X33816Y41424D01*
X33859Y41359D01*
X33924Y41316D01*
X34000Y41301D01*
X34076Y41316D01*
X34141Y41359D01*
X34184Y41424D01*
X34199Y41500D01*
X34184Y41576D01*
X34141Y41641D01*
X34076Y41684D01*
X34000Y41699D01*
D02*
G37*
G36*
X39200Y41999D02*
X39124Y41984D01*
X39059Y41941D01*
X39016Y41876D01*
X39001Y41800D01*
X39016Y41724D01*
X39059Y41659D01*
X39124Y41616D01*
X39200Y41601D01*
X39276Y41616D01*
X39341Y41659D01*
X39384Y41724D01*
X39399Y41800D01*
X39384Y41876D01*
X39341Y41941D01*
X39276Y41984D01*
X39200Y41999D01*
D02*
G37*
G36*
X57665Y41464D02*
X57589Y41449D01*
X57525Y41406D01*
X57482Y41341D01*
X57467Y41265D01*
X57482Y41189D01*
X57525Y41125D01*
X57589Y41082D01*
X57665Y41067D01*
X57741Y41082D01*
X57806Y41125D01*
X57849Y41189D01*
X57864Y41265D01*
X57849Y41341D01*
X57806Y41406D01*
X57741Y41449D01*
X57665Y41464D01*
D02*
G37*
G36*
X43900Y41499D02*
X43824Y41484D01*
X43759Y41441D01*
X43716Y41376D01*
X43701Y41300D01*
X43716Y41224D01*
X43759Y41159D01*
X43824Y41116D01*
X43900Y41101D01*
X43976Y41116D01*
X44041Y41159D01*
X44084Y41224D01*
X44099Y41300D01*
X44084Y41376D01*
X44041Y41441D01*
X43976Y41484D01*
X43900Y41499D01*
D02*
G37*
G36*
X33200Y41399D02*
X33124Y41384D01*
X33059Y41341D01*
X33025Y41289D01*
X32975D01*
X32941Y41341D01*
X32876Y41384D01*
X32800Y41399D01*
X32724Y41384D01*
X32659Y41341D01*
X32616Y41276D01*
X32601Y41200D01*
X32616Y41124D01*
X32659Y41059D01*
X32724Y41016D01*
X32776Y41006D01*
X32796Y40960D01*
X32787Y40947D01*
X32778Y40900D01*
Y40451D01*
X30013Y37687D01*
X29987Y37647D01*
X29978Y37600D01*
Y34601D01*
X29822Y34445D01*
X29800Y34449D01*
X29724Y34434D01*
X29659Y34391D01*
X29616Y34326D01*
X29601Y34250D01*
X29616Y34174D01*
X29659Y34109D01*
X29703Y34080D01*
X29688Y34033D01*
X29119D01*
X29069Y34022D01*
X29026Y33994D01*
X28794Y33762D01*
X28785Y33764D01*
X28709Y33749D01*
X28644Y33706D01*
X28601Y33641D01*
X28586Y33565D01*
X28601Y33489D01*
X28644Y33425D01*
X28709Y33382D01*
X28785Y33367D01*
X28861Y33382D01*
X28925Y33425D01*
X28968Y33489D01*
X28983Y33565D01*
X28982Y33575D01*
X29174Y33767D01*
X31945D01*
X32581Y33131D01*
X32557Y33087D01*
X32500Y33099D01*
X32424Y33084D01*
X32359Y33041D01*
X32316Y32976D01*
X32301Y32900D01*
X32305Y32878D01*
X31949Y32522D01*
X30953D01*
X30941Y32541D01*
X30876Y32584D01*
X30800Y32599D01*
X30724Y32584D01*
X30659Y32541D01*
X30616Y32476D01*
X30601Y32400D01*
X30616Y32324D01*
X30659Y32259D01*
X30724Y32216D01*
X30800Y32201D01*
X30876Y32216D01*
X30941Y32259D01*
X30953Y32278D01*
X32000D01*
X32047Y32287D01*
X32087Y32313D01*
X32478Y32705D01*
X32500Y32701D01*
X32576Y32716D01*
X32641Y32759D01*
X32684Y32824D01*
X32699Y32900D01*
X32687Y32957D01*
X32731Y32981D01*
X32803Y32909D01*
X32801Y32900D01*
X32816Y32824D01*
X32859Y32759D01*
X32924Y32716D01*
X33000Y32701D01*
X33076Y32716D01*
X33141Y32759D01*
X33184Y32824D01*
X33199Y32900D01*
X33184Y32976D01*
X33141Y33041D01*
X33076Y33084D01*
X33000Y33099D01*
X32991Y33097D01*
X32094Y33994D01*
X32051Y34022D01*
X32000Y34033D01*
X29912D01*
X29897Y34080D01*
X29941Y34109D01*
X29984Y34174D01*
X29999Y34250D01*
X29995Y34272D01*
X30187Y34463D01*
X30213Y34503D01*
X30222Y34550D01*
Y37549D01*
X32987Y40313D01*
X33013Y40353D01*
X33022Y40400D01*
Y40849D01*
X33072Y40899D01*
X33116Y40876D01*
X33101Y40800D01*
X33116Y40724D01*
X33159Y40659D01*
X33224Y40616D01*
X33300Y40601D01*
X33376Y40616D01*
X33441Y40659D01*
X33484Y40724D01*
X33494Y40775D01*
X33543Y40784D01*
X33559Y40759D01*
X33611Y40725D01*
Y40675D01*
X33559Y40641D01*
X33516Y40576D01*
X33501Y40500D01*
X33516Y40424D01*
X33559Y40359D01*
X33624Y40316D01*
X33700Y40301D01*
X33776Y40316D01*
X33834Y40355D01*
X33878Y40331D01*
Y39351D01*
X31363Y36837D01*
X31337Y36797D01*
X31328Y36750D01*
Y34853D01*
X31309Y34841D01*
X31266Y34776D01*
X31251Y34700D01*
X31266Y34624D01*
X31309Y34559D01*
X31374Y34516D01*
X31450Y34501D01*
X31526Y34516D01*
X31591Y34559D01*
X31634Y34624D01*
X31649Y34700D01*
X31634Y34776D01*
X31591Y34841D01*
X31572Y34853D01*
Y36699D01*
X34087Y39213D01*
X34102Y39237D01*
X34113Y39253D01*
X34122Y39300D01*
Y40331D01*
X34166Y40355D01*
X34224Y40316D01*
X34300Y40301D01*
X34376Y40316D01*
X34441Y40359D01*
X34484Y40424D01*
X34499Y40500D01*
X34484Y40576D01*
X34441Y40641D01*
X34376Y40684D01*
X34300Y40699D01*
X34224Y40684D01*
X34159Y40641D01*
X34132Y40600D01*
X34130Y40600D01*
X34113Y40647D01*
X34114Y40640D01*
X34113Y40647D01*
Y40647D01*
X34087Y40687D01*
X33895Y40878D01*
X33899Y40900D01*
X33884Y40976D01*
X33841Y41041D01*
X33776Y41084D01*
X33700Y41099D01*
X33624Y41084D01*
X33559Y41041D01*
X33516Y40976D01*
X33506Y40925D01*
X33457Y40916D01*
X33441Y40941D01*
X33376Y40984D01*
X33325Y40994D01*
X33316Y41043D01*
X33341Y41059D01*
X33384Y41124D01*
X33399Y41200D01*
X33384Y41276D01*
X33341Y41341D01*
X33276Y41384D01*
X33200Y41399D01*
D02*
G37*
G36*
X43200Y42199D02*
X43124Y42184D01*
X43059Y42141D01*
X43016Y42076D01*
X43001Y42000D01*
X43016Y41924D01*
X43059Y41859D01*
X43124Y41816D01*
X43200Y41801D01*
X43276Y41816D01*
X43341Y41859D01*
X43384Y41924D01*
X43399Y42000D01*
X43384Y42076D01*
X43341Y42141D01*
X43276Y42184D01*
X43200Y42199D01*
D02*
G37*
G36*
X43900D02*
X43824Y42184D01*
X43759Y42141D01*
X43716Y42076D01*
X43701Y42000D01*
X43716Y41924D01*
X43759Y41859D01*
X43824Y41816D01*
X43900Y41801D01*
X43976Y41816D01*
X44041Y41859D01*
X44084Y41924D01*
X44099Y42000D01*
X44084Y42076D01*
X44041Y42141D01*
X43976Y42184D01*
X43900Y42199D01*
D02*
G37*
G36*
X31342Y42257D02*
X31266Y42242D01*
X31201Y42199D01*
X31158Y42134D01*
X31143Y42058D01*
X31158Y41982D01*
X31201Y41918D01*
X31266Y41875D01*
X31342Y41859D01*
X31418Y41875D01*
X31482Y41918D01*
X31525Y41982D01*
X31541Y42058D01*
X31525Y42134D01*
X31482Y42199D01*
X31418Y42242D01*
X31342Y42257D01*
D02*
G37*
G36*
X30200Y42199D02*
X30124Y42184D01*
X30059Y42141D01*
X30016Y42076D01*
X30001Y42000D01*
X30016Y41924D01*
X30059Y41859D01*
X30124Y41816D01*
X30200Y41801D01*
X30276Y41816D01*
X30341Y41859D01*
X30384Y41924D01*
X30399Y42000D01*
X30384Y42076D01*
X30341Y42141D01*
X30276Y42184D01*
X30200Y42199D01*
D02*
G37*
G36*
X33000D02*
X32924Y42184D01*
X32859Y42141D01*
X32816Y42076D01*
X32801Y42000D01*
X32816Y41924D01*
X32859Y41859D01*
X32924Y41816D01*
X33000Y41801D01*
X33076Y41816D01*
X33141Y41859D01*
X33184Y41924D01*
X33199Y42000D01*
X33184Y42076D01*
X33141Y42141D01*
X33076Y42184D01*
X33000Y42199D01*
D02*
G37*
G36*
X40450D02*
X40374Y42184D01*
X40309Y42141D01*
X40266Y42076D01*
X40251Y42000D01*
X40266Y41924D01*
X40309Y41859D01*
X40374Y41816D01*
X40450Y41801D01*
X40526Y41816D01*
X40591Y41859D01*
X40634Y41924D01*
X40649Y42000D01*
X40634Y42076D01*
X40591Y42141D01*
X40526Y42184D01*
X40450Y42199D01*
D02*
G37*
G36*
X71949Y41448D02*
X71873Y41433D01*
X71808Y41389D01*
X71765Y41325D01*
X71750Y41249D01*
X71765Y41173D01*
X71808Y41108D01*
X71873Y41065D01*
X71949Y41050D01*
X72025Y41065D01*
X72089Y41108D01*
X72133Y41173D01*
X72148Y41249D01*
X72133Y41325D01*
X72089Y41389D01*
X72025Y41433D01*
X71949Y41448D01*
D02*
G37*
G36*
X56200Y40999D02*
X56124Y40984D01*
X56059Y40941D01*
X56016Y40876D01*
X56001Y40800D01*
X56016Y40724D01*
X56059Y40659D01*
X56124Y40616D01*
X56200Y40601D01*
X56276Y40616D01*
X56341Y40659D01*
X56384Y40724D01*
X56399Y40800D01*
X56384Y40876D01*
X56341Y40941D01*
X56276Y40984D01*
X56200Y40999D01*
D02*
G37*
G36*
X58600D02*
X58524Y40984D01*
X58459Y40941D01*
X58416Y40876D01*
X58401Y40800D01*
X58416Y40724D01*
X58459Y40659D01*
X58524Y40616D01*
X58600Y40601D01*
X58676Y40616D01*
X58741Y40659D01*
X58784Y40724D01*
X58799Y40800D01*
X58784Y40876D01*
X58741Y40941D01*
X58676Y40984D01*
X58600Y40999D01*
D02*
G37*
G36*
X46600Y41299D02*
X46524Y41284D01*
X46459Y41241D01*
X46416Y41176D01*
X46401Y41100D01*
X46416Y41024D01*
X46459Y40959D01*
X46524Y40916D01*
X46600Y40901D01*
X46676Y40916D01*
X46676Y40917D01*
X46701Y40900D01*
X46716Y40824D01*
X46759Y40759D01*
X46824Y40716D01*
X46900Y40701D01*
X46976Y40716D01*
X47041Y40759D01*
X47084Y40824D01*
X47099Y40900D01*
X47084Y40976D01*
X47041Y41041D01*
X46976Y41084D01*
X46900Y41099D01*
X46824Y41084D01*
X46824Y41083D01*
X46799Y41100D01*
X46784Y41176D01*
X46741Y41241D01*
X46676Y41284D01*
X46600Y41299D01*
D02*
G37*
G36*
X42635Y40634D02*
X42559Y40619D01*
X42494Y40576D01*
X42451Y40511D01*
X42436Y40435D01*
X42451Y40359D01*
X42494Y40294D01*
X42559Y40251D01*
X42635Y40236D01*
X42711Y40251D01*
X42776Y40294D01*
X42819Y40359D01*
X42834Y40435D01*
X42819Y40511D01*
X42776Y40576D01*
X42711Y40619D01*
X42635Y40634D01*
D02*
G37*
G36*
X37500Y40699D02*
X37424Y40684D01*
X37359Y40641D01*
X37316Y40576D01*
X37301Y40500D01*
X37316Y40424D01*
X37359Y40359D01*
X37424Y40316D01*
X37500Y40301D01*
X37576Y40316D01*
X37641Y40359D01*
X37684Y40424D01*
X37699Y40500D01*
X37684Y40576D01*
X37641Y40641D01*
X37576Y40684D01*
X37500Y40699D01*
D02*
G37*
G36*
X40600D02*
X40524Y40684D01*
X40459Y40641D01*
X40416Y40576D01*
X40401Y40500D01*
X40416Y40424D01*
X40459Y40359D01*
X40524Y40316D01*
X40600Y40301D01*
X40676Y40316D01*
X40741Y40359D01*
X40784Y40424D01*
X40799Y40500D01*
X40784Y40576D01*
X40741Y40641D01*
X40676Y40684D01*
X40600Y40699D01*
D02*
G37*
G36*
X31600Y41299D02*
X31524Y41284D01*
X31459Y41241D01*
X31416Y41176D01*
X31401Y41100D01*
X31416Y41024D01*
X31459Y40959D01*
X31524Y40916D01*
X31600Y40901D01*
X31676Y40916D01*
X31741Y40959D01*
X31784Y41024D01*
X31799Y41100D01*
X31784Y41176D01*
X31741Y41241D01*
X31676Y41284D01*
X31600Y41299D01*
D02*
G37*
G36*
X71400Y41399D02*
X71324Y41384D01*
X71259Y41341D01*
X71216Y41276D01*
X71201Y41200D01*
X71216Y41124D01*
X71259Y41059D01*
X71324Y41016D01*
X71400Y41001D01*
X71476Y41016D01*
X71541Y41059D01*
X71584Y41124D01*
X71599Y41200D01*
X71584Y41276D01*
X71541Y41341D01*
X71476Y41384D01*
X71400Y41399D01*
D02*
G37*
G36*
X70749Y41448D02*
X70673Y41433D01*
X70608Y41389D01*
X70565Y41325D01*
X70550Y41249D01*
X70565Y41173D01*
X70608Y41108D01*
X70673Y41065D01*
X70749Y41050D01*
X70825Y41065D01*
X70889Y41108D01*
X70933Y41173D01*
X70948Y41249D01*
X70933Y41325D01*
X70889Y41389D01*
X70825Y41433D01*
X70749Y41448D01*
D02*
G37*
G36*
X36500Y40999D02*
X36424Y40984D01*
X36359Y40941D01*
X36316Y40876D01*
X36301Y40800D01*
X36232Y40786D01*
X36208Y40791D01*
X36132Y40776D01*
X36067Y40733D01*
X36034Y40683D01*
X35984D01*
X35955Y40726D01*
X35890Y40770D01*
X35814Y40785D01*
X35738Y40770D01*
X35674Y40726D01*
X35642Y40679D01*
X35593Y40688D01*
X35584Y40733D01*
X35541Y40798D01*
X35476Y40841D01*
X35400Y40856D01*
X35324Y40841D01*
X35259Y40798D01*
X35216Y40733D01*
X35201Y40657D01*
X35216Y40581D01*
X35259Y40517D01*
X35324Y40474D01*
X35400Y40458D01*
X35476Y40474D01*
X35541Y40517D01*
X35573Y40564D01*
X35622Y40555D01*
X35630Y40510D01*
X35674Y40445D01*
X35738Y40402D01*
X35814Y40387D01*
X35890Y40402D01*
X35955Y40445D01*
X35988Y40495D01*
X36038D01*
X36067Y40452D01*
X36132Y40408D01*
X36208Y40393D01*
X36284Y40408D01*
X36348Y40452D01*
X36392Y40516D01*
X36407Y40592D01*
X36476Y40606D01*
X36500Y40601D01*
X36576Y40616D01*
X36641Y40659D01*
X36684Y40724D01*
X36699Y40800D01*
X36684Y40876D01*
X36641Y40941D01*
X36576Y40984D01*
X36500Y40999D01*
D02*
G37*
G36*
X41900Y41199D02*
X41824Y41184D01*
X41759Y41141D01*
X41716Y41076D01*
X41701Y41000D01*
X41716Y40924D01*
X41759Y40859D01*
X41824Y40816D01*
X41900Y40801D01*
X41976Y40816D01*
X42041Y40859D01*
X42084Y40924D01*
X42099Y41000D01*
X42084Y41076D01*
X42041Y41141D01*
X41976Y41184D01*
X41900Y41199D01*
D02*
G37*
G36*
X45800D02*
X45724Y41184D01*
X45659Y41141D01*
X45616Y41076D01*
X45601Y41000D01*
X45616Y40924D01*
X45659Y40859D01*
X45724Y40816D01*
X45800Y40801D01*
X45876Y40816D01*
X45941Y40859D01*
X45984Y40924D01*
X45999Y41000D01*
X45984Y41076D01*
X45941Y41141D01*
X45876Y41184D01*
X45800Y41199D01*
D02*
G37*
G36*
X60100Y44599D02*
X60024Y44584D01*
X59959Y44541D01*
X59916Y44476D01*
X59901Y44400D01*
X59916Y44324D01*
X59959Y44259D01*
X60024Y44216D01*
X60100Y44201D01*
X60176Y44216D01*
X60241Y44259D01*
X60284Y44324D01*
X60299Y44400D01*
X60284Y44476D01*
X60241Y44541D01*
X60176Y44584D01*
X60100Y44599D01*
D02*
G37*
G36*
X77700Y45824D02*
X77549Y45809D01*
X77404Y45765D01*
X77270Y45693D01*
X77153Y45597D01*
X77057Y45480D01*
X76985Y45346D01*
X76941Y45201D01*
X76926Y45050D01*
X76941Y44899D01*
X76985Y44754D01*
X77057Y44620D01*
X77153Y44503D01*
X77270Y44407D01*
X77404Y44335D01*
X77549Y44291D01*
X77700Y44276D01*
X77851Y44291D01*
X77996Y44335D01*
X78130Y44407D01*
X78247Y44503D01*
X78343Y44620D01*
X78415Y44754D01*
X78459Y44899D01*
X78474Y45050D01*
X78459Y45201D01*
X78415Y45346D01*
X78343Y45480D01*
X78247Y45597D01*
X78130Y45693D01*
X77996Y45765D01*
X77851Y45809D01*
X77700Y45824D01*
D02*
G37*
G36*
X55706Y44793D02*
X55630Y44777D01*
X55566Y44734D01*
X55523Y44670D01*
X55507Y44594D01*
X55523Y44518D01*
X55566Y44453D01*
X55630Y44410D01*
X55706Y44395D01*
X55782Y44410D01*
X55847Y44453D01*
X55890Y44518D01*
X55905Y44594D01*
X55890Y44670D01*
X55847Y44734D01*
X55782Y44777D01*
X55706Y44793D01*
D02*
G37*
G36*
X32950Y43999D02*
X32874Y43984D01*
X32809Y43941D01*
X32766Y43876D01*
X32751Y43800D01*
X32766Y43724D01*
X32809Y43659D01*
X32874Y43616D01*
X32950Y43601D01*
X33026Y43616D01*
X33091Y43659D01*
X33134Y43724D01*
X33149Y43800D01*
X33134Y43876D01*
X33091Y43941D01*
X33026Y43984D01*
X32950Y43999D01*
D02*
G37*
G36*
X78900Y44659D02*
X78784Y44644D01*
X78676Y44599D01*
X78583Y44527D01*
X78511Y44434D01*
X78466Y44326D01*
X78451Y44210D01*
X78466Y44094D01*
X78511Y43986D01*
X78583Y43893D01*
X78676Y43821D01*
X78784Y43776D01*
X78900Y43761D01*
X79016Y43776D01*
X79124Y43821D01*
X79217Y43893D01*
X79289Y43986D01*
X79334Y44094D01*
X79349Y44210D01*
X79334Y44326D01*
X79289Y44434D01*
X79217Y44527D01*
X79124Y44599D01*
X79016Y44644D01*
X78900Y44659D01*
D02*
G37*
G36*
X40450Y44199D02*
X40374Y44184D01*
X40309Y44141D01*
X40266Y44076D01*
X40251Y44000D01*
X40266Y43924D01*
X40309Y43859D01*
X40374Y43816D01*
X40450Y43801D01*
X40526Y43816D01*
X40591Y43859D01*
X40634Y43924D01*
X40649Y44000D01*
X40634Y44076D01*
X40591Y44141D01*
X40526Y44184D01*
X40450Y44199D01*
D02*
G37*
G36*
X56387Y45011D02*
X56311Y44996D01*
X56247Y44953D01*
X56204Y44889D01*
X56189Y44813D01*
X56204Y44737D01*
X56247Y44672D01*
X56311Y44629D01*
X56387Y44614D01*
X56463Y44629D01*
X56528Y44672D01*
X56571Y44737D01*
X56586Y44813D01*
X56571Y44889D01*
X56528Y44953D01*
X56463Y44996D01*
X56387Y45011D01*
D02*
G37*
G36*
X62165Y45115D02*
X62070Y45096D01*
X61989Y45042D01*
X61935Y44961D01*
X61916Y44865D01*
X61935Y44770D01*
X61989Y44689D01*
X62070Y44635D01*
X62165Y44616D01*
X62261Y44635D01*
X62342Y44689D01*
X62396Y44770D01*
X62415Y44865D01*
X62396Y44961D01*
X62342Y45042D01*
X62261Y45096D01*
X62165Y45115D01*
D02*
G37*
G36*
X47300Y45099D02*
X47224Y45084D01*
X47159Y45041D01*
X47116Y44976D01*
X47101Y44900D01*
X47116Y44824D01*
X47159Y44759D01*
X47224Y44716D01*
X47300Y44701D01*
X47376Y44716D01*
X47441Y44759D01*
X47484Y44824D01*
X47499Y44900D01*
X47484Y44976D01*
X47441Y45041D01*
X47376Y45084D01*
X47300Y45099D01*
D02*
G37*
G36*
X31311Y45210D02*
X31235Y45195D01*
X31170Y45152D01*
X31127Y45087D01*
X31112Y45011D01*
X31127Y44935D01*
X31170Y44870D01*
X31235Y44827D01*
X31283Y44818D01*
X31293Y44769D01*
X31277Y44758D01*
X31234Y44693D01*
X31219Y44617D01*
X31234Y44541D01*
X31277Y44477D01*
X31341Y44434D01*
X31417Y44419D01*
X31493Y44434D01*
X31558Y44477D01*
X31601Y44541D01*
X31616Y44617D01*
X31601Y44693D01*
X31558Y44758D01*
X31493Y44801D01*
X31445Y44811D01*
X31435Y44860D01*
X31452Y44870D01*
X31495Y44935D01*
X31510Y45011D01*
X31495Y45087D01*
X31452Y45152D01*
X31387Y45195D01*
X31311Y45210D01*
D02*
G37*
G36*
X32950Y44999D02*
X32874Y44984D01*
X32809Y44941D01*
X32766Y44876D01*
X32751Y44800D01*
X32766Y44724D01*
X32809Y44659D01*
X32874Y44616D01*
X32950Y44601D01*
X33026Y44616D01*
X33091Y44659D01*
X33134Y44724D01*
X33149Y44800D01*
X33134Y44876D01*
X33091Y44941D01*
X33026Y44984D01*
X32950Y44999D01*
D02*
G37*
G36*
X42000Y45399D02*
X41924Y45384D01*
X41859Y45341D01*
X41816Y45276D01*
X41801Y45200D01*
X41816Y45124D01*
X41859Y45059D01*
X41884Y45043D01*
X41875Y44994D01*
X41824Y44984D01*
X41759Y44941D01*
X41716Y44876D01*
X41701Y44800D01*
X41716Y44724D01*
X41759Y44659D01*
X41824Y44616D01*
X41900Y44601D01*
X41976Y44616D01*
X42041Y44659D01*
X42084Y44724D01*
X42099Y44800D01*
X42084Y44876D01*
X42041Y44941D01*
X42016Y44957D01*
X42025Y45006D01*
X42076Y45016D01*
X42141Y45059D01*
X42184Y45124D01*
X42199Y45200D01*
X42184Y45276D01*
X42141Y45341D01*
X42076Y45384D01*
X42000Y45399D01*
D02*
G37*
G36*
X30200Y43899D02*
X30124Y43884D01*
X30059Y43841D01*
X30016Y43776D01*
X30001Y43700D01*
X30016Y43624D01*
X30059Y43559D01*
X30124Y43516D01*
X30200Y43501D01*
X30276Y43516D01*
X30341Y43559D01*
X30384Y43624D01*
X30399Y43700D01*
X30384Y43776D01*
X30341Y43841D01*
X30276Y43884D01*
X30200Y43899D01*
D02*
G37*
G36*
X71400Y42550D02*
X71324Y42535D01*
X71259Y42492D01*
X71216Y42427D01*
X71201Y42351D01*
X71216Y42275D01*
X71259Y42211D01*
X71324Y42167D01*
X71400Y42152D01*
X71476Y42167D01*
X71541Y42211D01*
X71584Y42275D01*
X71599Y42351D01*
X71584Y42427D01*
X71541Y42492D01*
X71476Y42535D01*
X71400Y42550D01*
D02*
G37*
G36*
X72051D02*
X71975Y42535D01*
X71911Y42492D01*
X71867Y42427D01*
X71852Y42351D01*
X71867Y42275D01*
X71911Y42211D01*
X71975Y42167D01*
X72051Y42152D01*
X72127Y42167D01*
X72192Y42211D01*
X72235Y42275D01*
X72250Y42351D01*
X72235Y42427D01*
X72192Y42492D01*
X72127Y42535D01*
X72051Y42550D01*
D02*
G37*
G36*
X68500Y42799D02*
X68424Y42784D01*
X68359Y42741D01*
X68316Y42676D01*
X68301Y42600D01*
X68316Y42524D01*
X68359Y42459D01*
X68424Y42416D01*
X68500Y42401D01*
X68576Y42416D01*
X68641Y42459D01*
X68684Y42524D01*
X68699Y42600D01*
X68684Y42676D01*
X68641Y42741D01*
X68576Y42784D01*
X68500Y42799D01*
D02*
G37*
G36*
X42042Y42257D02*
X41966Y42242D01*
X41901Y42199D01*
X41858Y42134D01*
X41843Y42058D01*
X41858Y41982D01*
X41901Y41918D01*
X41966Y41875D01*
X42042Y41859D01*
X42118Y41875D01*
X42182Y41918D01*
X42225Y41982D01*
X42241Y42058D01*
X42225Y42134D01*
X42182Y42199D01*
X42118Y42242D01*
X42042Y42257D01*
D02*
G37*
G36*
X45700Y42299D02*
X45624Y42284D01*
X45559Y42241D01*
X45516Y42176D01*
X45501Y42100D01*
X45516Y42024D01*
X45559Y41959D01*
X45624Y41916D01*
X45700Y41901D01*
X45776Y41916D01*
X45841Y41959D01*
X45884Y42024D01*
X45899Y42100D01*
X45884Y42176D01*
X45841Y42241D01*
X45776Y42284D01*
X45700Y42299D01*
D02*
G37*
G36*
X70749Y42550D02*
X70673Y42535D01*
X70608Y42492D01*
X70565Y42427D01*
X70550Y42351D01*
X70565Y42275D01*
X70608Y42211D01*
X70673Y42167D01*
X70749Y42152D01*
X70825Y42167D01*
X70889Y42211D01*
X70933Y42275D01*
X70948Y42351D01*
X70933Y42427D01*
X70889Y42492D01*
X70825Y42535D01*
X70749Y42550D01*
D02*
G37*
G36*
X41800Y43599D02*
X41724Y43584D01*
X41659Y43541D01*
X41616Y43476D01*
X41601Y43400D01*
X41616Y43324D01*
X41659Y43259D01*
X41724Y43216D01*
X41786Y43204D01*
X41814Y43162D01*
X41801Y43100D01*
X41816Y43024D01*
X41859Y42959D01*
X41924Y42916D01*
X42000Y42901D01*
X42076Y42916D01*
X42141Y42959D01*
X42184Y43024D01*
X42199Y43100D01*
X42184Y43176D01*
X42141Y43241D01*
X42076Y43284D01*
X42000Y43299D01*
X41983Y43324D01*
X41984Y43324D01*
X41999Y43400D01*
X41984Y43476D01*
X41941Y43541D01*
X41876Y43584D01*
X41800Y43599D01*
D02*
G37*
G36*
X55600Y43399D02*
X55524Y43384D01*
X55459Y43341D01*
X55416Y43276D01*
X55401Y43200D01*
X55416Y43124D01*
X55459Y43059D01*
X55524Y43016D01*
X55600Y43001D01*
X55676Y43016D01*
X55741Y43059D01*
X55784Y43124D01*
X55799Y43200D01*
X55784Y43276D01*
X55741Y43341D01*
X55676Y43384D01*
X55600Y43399D01*
D02*
G37*
G36*
X31361Y43438D02*
X31285Y43423D01*
X31220Y43380D01*
X31177Y43315D01*
X31162Y43239D01*
X31177Y43163D01*
X31220Y43099D01*
X31285Y43056D01*
X31361Y43041D01*
X31437Y43056D01*
X31501Y43099D01*
X31544Y43163D01*
X31559Y43239D01*
X31544Y43315D01*
X31501Y43380D01*
X31437Y43423D01*
X31361Y43438D01*
D02*
G37*
G36*
X55300Y42899D02*
X55224Y42884D01*
X55159Y42841D01*
X55116Y42776D01*
X55101Y42700D01*
X55116Y42624D01*
X55159Y42559D01*
X55224Y42516D01*
X55300Y42501D01*
X55376Y42516D01*
X55441Y42559D01*
X55484Y42624D01*
X55499Y42700D01*
X55484Y42776D01*
X55441Y42841D01*
X55376Y42884D01*
X55300Y42899D01*
D02*
G37*
G36*
X70100D02*
X70024Y42884D01*
X69959Y42841D01*
X69916Y42776D01*
X69901Y42700D01*
X69916Y42624D01*
X69959Y42559D01*
X70024Y42516D01*
X70100Y42501D01*
X70176Y42516D01*
X70241Y42559D01*
X70284Y42624D01*
X70299Y42700D01*
X70284Y42776D01*
X70241Y42841D01*
X70176Y42884D01*
X70100Y42899D01*
D02*
G37*
G36*
X40450Y43199D02*
X40374Y43184D01*
X40309Y43141D01*
X40266Y43076D01*
X40251Y43000D01*
X40266Y42924D01*
X40309Y42859D01*
X40374Y42816D01*
X40450Y42801D01*
X40526Y42816D01*
X40591Y42859D01*
X40634Y42924D01*
X40649Y43000D01*
X40634Y43076D01*
X40591Y43141D01*
X40526Y43184D01*
X40450Y43199D01*
D02*
G37*
G36*
X34830Y40629D02*
X34754Y40614D01*
X34689Y40571D01*
X34646Y40506D01*
X34631Y40430D01*
X34646Y40354D01*
X34689Y40289D01*
X34754Y40246D01*
X34830Y40231D01*
X34906Y40246D01*
X34971Y40289D01*
X35014Y40354D01*
X35029Y40430D01*
X35014Y40506D01*
X34971Y40571D01*
X34906Y40614D01*
X34830Y40629D01*
D02*
G37*
G36*
X46350Y34000D02*
X46254Y33981D01*
X46173Y33927D01*
X46119Y33846D01*
X46100Y33750D01*
X46119Y33654D01*
X46173Y33573D01*
X46254Y33519D01*
X46350Y33500D01*
X46446Y33519D01*
X46527Y33573D01*
X46581Y33654D01*
X46600Y33750D01*
X46581Y33846D01*
X46527Y33927D01*
X46446Y33981D01*
X46350Y34000D01*
D02*
G37*
G36*
X59369Y34081D02*
X59273Y34062D01*
X59192Y34008D01*
X59138Y33927D01*
X59119Y33832D01*
X59138Y33736D01*
X59192Y33655D01*
X59273Y33601D01*
X59369Y33582D01*
X59464Y33601D01*
X59545Y33655D01*
X59599Y33736D01*
X59618Y33832D01*
X59599Y33927D01*
X59545Y34008D01*
X59464Y34062D01*
X59369Y34081D01*
D02*
G37*
G36*
X42450Y34174D02*
X42364Y34157D01*
X42291Y34109D01*
X42243Y34036D01*
X42226Y33950D01*
X42243Y33864D01*
X42291Y33791D01*
X42364Y33743D01*
X42450Y33726D01*
X42536Y33743D01*
X42609Y33791D01*
X42657Y33864D01*
X42674Y33950D01*
X42657Y34036D01*
X42609Y34109D01*
X42536Y34157D01*
X42450Y34174D01*
D02*
G37*
G36*
X30200Y33533D02*
X30124Y33518D01*
X30059Y33475D01*
X30016Y33411D01*
X30001Y33335D01*
X30016Y33259D01*
X30059Y33194D01*
X30124Y33151D01*
X30200Y33136D01*
X30276Y33151D01*
X30341Y33194D01*
X30384Y33259D01*
X30399Y33335D01*
X30384Y33411D01*
X30341Y33475D01*
X30276Y33518D01*
X30200Y33533D01*
D02*
G37*
G36*
X31000Y33549D02*
X30924Y33534D01*
X30859Y33491D01*
X30816Y33426D01*
X30801Y33350D01*
X30816Y33274D01*
X30859Y33209D01*
X30924Y33166D01*
X31000Y33151D01*
X31076Y33166D01*
X31141Y33209D01*
X31184Y33274D01*
X31199Y33350D01*
X31184Y33426D01*
X31141Y33491D01*
X31076Y33534D01*
X31000Y33549D01*
D02*
G37*
G36*
X56800Y33950D02*
X56704Y33931D01*
X56623Y33877D01*
X56569Y33796D01*
X56550Y33700D01*
X56569Y33604D01*
X56623Y33523D01*
X56704Y33469D01*
X56800Y33450D01*
X56896Y33469D01*
X56977Y33523D01*
X57031Y33604D01*
X57050Y33700D01*
X57031Y33796D01*
X56977Y33877D01*
X56896Y33931D01*
X56800Y33950D01*
D02*
G37*
G36*
X38500Y34950D02*
X38404Y34931D01*
X38323Y34877D01*
X38269Y34796D01*
X38250Y34700D01*
X38269Y34604D01*
X38323Y34523D01*
X38404Y34469D01*
X38500Y34450D01*
X38596Y34469D01*
X38677Y34523D01*
X38731Y34604D01*
X38750Y34700D01*
X38731Y34796D01*
X38677Y34877D01*
X38596Y34931D01*
X38500Y34950D01*
D02*
G37*
G36*
X45300D02*
X45204Y34931D01*
X45123Y34877D01*
X45069Y34796D01*
X45050Y34700D01*
X45069Y34604D01*
X45123Y34523D01*
X45204Y34469D01*
X45300Y34450D01*
X45396Y34469D01*
X45477Y34523D01*
X45531Y34604D01*
X45550Y34700D01*
X45531Y34796D01*
X45477Y34877D01*
X45396Y34931D01*
X45300Y34950D01*
D02*
G37*
G36*
X28300Y34899D02*
X28224Y34884D01*
X28159Y34841D01*
X28116Y34776D01*
X28101Y34700D01*
X28116Y34624D01*
X28159Y34559D01*
X28224Y34516D01*
X28300Y34501D01*
X28376Y34516D01*
X28441Y34559D01*
X28484Y34624D01*
X28499Y34700D01*
X28484Y34776D01*
X28441Y34841D01*
X28376Y34884D01*
X28300Y34899D01*
D02*
G37*
G36*
X40700Y34250D02*
X40604Y34231D01*
X40523Y34177D01*
X40469Y34096D01*
X40450Y34000D01*
X40469Y33904D01*
X40523Y33823D01*
X40604Y33769D01*
X40700Y33750D01*
X40796Y33769D01*
X40877Y33823D01*
X40931Y33904D01*
X40950Y34000D01*
X40931Y34096D01*
X40877Y34177D01*
X40796Y34231D01*
X40700Y34250D01*
D02*
G37*
G36*
X37765Y34350D02*
X37670Y34331D01*
X37589Y34277D01*
X37535Y34196D01*
X37516Y34100D01*
X37535Y34004D01*
X37589Y33923D01*
X37670Y33869D01*
X37765Y33850D01*
X37861Y33869D01*
X37942Y33923D01*
X37996Y34004D01*
X38015Y34100D01*
X37996Y34196D01*
X37942Y34277D01*
X37861Y34331D01*
X37765Y34350D01*
D02*
G37*
G36*
X57500Y34910D02*
X57404Y34891D01*
X57323Y34837D01*
X57269Y34756D01*
X57250Y34660D01*
X57269Y34564D01*
X57323Y34483D01*
X57404Y34429D01*
X57500Y34410D01*
X57596Y34429D01*
X57677Y34483D01*
X57731Y34564D01*
X57750Y34660D01*
X57731Y34756D01*
X57677Y34837D01*
X57596Y34891D01*
X57500Y34910D01*
D02*
G37*
G36*
X55511Y33601D02*
X55416Y33582D01*
X55335Y33528D01*
X55280Y33447D01*
X55261Y33351D01*
X55280Y33256D01*
X55335Y33175D01*
X55416Y33120D01*
X55511Y33101D01*
X55607Y33120D01*
X55688Y33175D01*
X55742Y33256D01*
X55761Y33351D01*
X55742Y33447D01*
X55688Y33528D01*
X55607Y33582D01*
X55511Y33601D01*
D02*
G37*
G36*
X28800Y32699D02*
X28724Y32684D01*
X28659Y32641D01*
X28616Y32576D01*
X28601Y32500D01*
X28616Y32424D01*
X28659Y32359D01*
X28724Y32316D01*
X28800Y32301D01*
X28876Y32316D01*
X28941Y32359D01*
X28984Y32424D01*
X28999Y32500D01*
X28984Y32576D01*
X28941Y32641D01*
X28876Y32684D01*
X28800Y32699D01*
D02*
G37*
G36*
X42550Y33100D02*
X42454Y33081D01*
X42373Y33027D01*
X42319Y32946D01*
X42300Y32850D01*
X42319Y32754D01*
X42373Y32673D01*
X42454Y32619D01*
X42550Y32600D01*
X42646Y32619D01*
X42727Y32673D01*
X42781Y32754D01*
X42800Y32850D01*
X42781Y32946D01*
X42727Y33027D01*
X42646Y33081D01*
X42550Y33100D01*
D02*
G37*
G36*
X31832Y33189D02*
X31757Y33179D01*
X31687Y33150D01*
X31627Y33104D01*
X31581Y33045D01*
X31552Y32975D01*
X31542Y32900D01*
X31552Y32825D01*
X31581Y32755D01*
X31627Y32696D01*
X31687Y32650D01*
X31757Y32621D01*
X31832Y32611D01*
X31906Y32621D01*
X31976Y32650D01*
X32036Y32696D01*
X32082Y32755D01*
X32111Y32825D01*
X32120Y32900D01*
X32111Y32975D01*
X32082Y33045D01*
X32036Y33104D01*
X31976Y33150D01*
X31906Y33179D01*
X31832Y33189D01*
D02*
G37*
G36*
X57400Y31850D02*
X57304Y31831D01*
X57223Y31777D01*
X57169Y31696D01*
X57150Y31600D01*
X57169Y31504D01*
X57223Y31423D01*
X57304Y31369D01*
X57400Y31350D01*
X57496Y31369D01*
X57577Y31423D01*
X57631Y31504D01*
X57650Y31600D01*
X57631Y31696D01*
X57577Y31777D01*
X57496Y31831D01*
X57400Y31850D01*
D02*
G37*
G36*
X59331Y32418D02*
X59236Y32399D01*
X59155Y32345D01*
X59101Y32264D01*
X59082Y32169D01*
X59101Y32073D01*
X59155Y31992D01*
X59236Y31938D01*
X59331Y31919D01*
X59427Y31938D01*
X59508Y31992D01*
X59562Y32073D01*
X59581Y32169D01*
X59562Y32264D01*
X59508Y32345D01*
X59427Y32399D01*
X59331Y32418D01*
D02*
G37*
G36*
X47600Y32800D02*
X47504Y32781D01*
X47423Y32727D01*
X47369Y32646D01*
X47350Y32550D01*
X47369Y32454D01*
X47423Y32373D01*
X47504Y32319D01*
X47600Y32300D01*
X47696Y32319D01*
X47777Y32373D01*
X47831Y32454D01*
X47850Y32550D01*
X47831Y32646D01*
X47777Y32727D01*
X47696Y32781D01*
X47600Y32800D01*
D02*
G37*
G36*
X60332Y33281D02*
X60236Y33262D01*
X60155Y33208D01*
X60101Y33127D01*
X60082Y33031D01*
X60101Y32936D01*
X60155Y32855D01*
X60236Y32801D01*
X60332Y32782D01*
X60427Y32801D01*
X60508Y32855D01*
X60562Y32936D01*
X60581Y33031D01*
X60562Y33127D01*
X60508Y33208D01*
X60427Y33262D01*
X60332Y33281D01*
D02*
G37*
G36*
X39100Y33550D02*
X39004Y33531D01*
X38923Y33477D01*
X38869Y33396D01*
X38850Y33300D01*
X38869Y33204D01*
X38923Y33123D01*
X39004Y33069D01*
X39100Y33050D01*
X39196Y33069D01*
X39277Y33123D01*
X39331Y33204D01*
X39350Y33300D01*
X39331Y33396D01*
X39277Y33477D01*
X39196Y33531D01*
X39100Y33550D01*
D02*
G37*
G36*
X44600D02*
X44504Y33531D01*
X44423Y33477D01*
X44369Y33396D01*
X44350Y33300D01*
X44369Y33204D01*
X44423Y33123D01*
X44504Y33069D01*
X44600Y33050D01*
X44696Y33069D01*
X44777Y33123D01*
X44831Y33204D01*
X44850Y33300D01*
X44831Y33396D01*
X44777Y33477D01*
X44696Y33531D01*
X44600Y33550D01*
D02*
G37*
G36*
X35768Y33189D02*
X35694Y33179D01*
X35624Y33150D01*
X35564Y33104D01*
X35518Y33045D01*
X35489Y32975D01*
X35480Y32900D01*
X35489Y32825D01*
X35518Y32755D01*
X35564Y32696D01*
X35624Y32650D01*
X35694Y32621D01*
X35768Y32611D01*
X35843Y32621D01*
X35913Y32650D01*
X35973Y32696D01*
X36019Y32755D01*
X36048Y32825D01*
X36058Y32900D01*
X36048Y32975D01*
X36019Y33045D01*
X35973Y33104D01*
X35913Y33150D01*
X35843Y33179D01*
X35768Y33189D01*
D02*
G37*
G36*
X73000Y34374D02*
X72829Y34357D01*
X72665Y34308D01*
X72514Y34227D01*
X72382Y34118D01*
X72273Y33986D01*
X72192Y33835D01*
X72143Y33671D01*
X72126Y33500D01*
X72143Y33329D01*
X72192Y33165D01*
X72273Y33014D01*
X72382Y32882D01*
X72514Y32773D01*
X72665Y32692D01*
X72829Y32643D01*
X73000Y32626D01*
X73171Y32643D01*
X73335Y32692D01*
X73486Y32773D01*
X73618Y32882D01*
X73727Y33014D01*
X73808Y33165D01*
X73857Y33329D01*
X73874Y33500D01*
X73857Y33671D01*
X73808Y33835D01*
X73727Y33986D01*
X73618Y34118D01*
X73486Y34227D01*
X73335Y34308D01*
X73171Y34357D01*
X73000Y34374D01*
D02*
G37*
G36*
X58240Y33250D02*
X58144Y33231D01*
X58063Y33177D01*
X58009Y33096D01*
X57990Y33000D01*
X58009Y32904D01*
X58063Y32823D01*
X58144Y32769D01*
X58240Y32750D01*
X58336Y32769D01*
X58417Y32823D01*
X58471Y32904D01*
X58490Y33000D01*
X58471Y33096D01*
X58417Y33177D01*
X58336Y33231D01*
X58240Y33250D01*
D02*
G37*
G36*
X45300Y35650D02*
X45204Y35631D01*
X45123Y35577D01*
X45069Y35496D01*
X45050Y35400D01*
X45069Y35304D01*
X45123Y35223D01*
X45204Y35169D01*
X45300Y35150D01*
X45396Y35169D01*
X45477Y35223D01*
X45531Y35304D01*
X45550Y35400D01*
X45531Y35496D01*
X45477Y35577D01*
X45396Y35631D01*
X45300Y35650D01*
D02*
G37*
G36*
X32650Y39399D02*
X32574Y39384D01*
X32509Y39341D01*
X32466Y39276D01*
X32451Y39200D01*
X32466Y39124D01*
X32509Y39059D01*
X32574Y39016D01*
X32650Y39001D01*
X32726Y39016D01*
X32791Y39059D01*
X32834Y39124D01*
X32849Y39200D01*
X32834Y39276D01*
X32791Y39341D01*
X32726Y39384D01*
X32650Y39399D01*
D02*
G37*
G36*
X36011Y39410D02*
X35935Y39395D01*
X35870Y39352D01*
X35827Y39287D01*
X35812Y39211D01*
X35827Y39135D01*
X35870Y39070D01*
X35935Y39027D01*
X36011Y39012D01*
X36087Y39027D01*
X36152Y39070D01*
X36181Y39114D01*
X36231D01*
X36264Y39064D01*
X36329Y39021D01*
X36405Y39006D01*
X36481Y39021D01*
X36545Y39064D01*
X36588Y39129D01*
X36604Y39205D01*
X36588Y39281D01*
X36545Y39345D01*
X36481Y39388D01*
X36405Y39404D01*
X36329Y39388D01*
X36264Y39345D01*
X36235Y39302D01*
X36185D01*
X36152Y39352D01*
X36087Y39395D01*
X36011Y39410D01*
D02*
G37*
G36*
X61700Y39650D02*
X61604Y39631D01*
X61523Y39577D01*
X61469Y39496D01*
X61450Y39400D01*
X61469Y39304D01*
X61523Y39223D01*
X61604Y39169D01*
X61700Y39150D01*
X61796Y39169D01*
X61877Y39223D01*
X61931Y39304D01*
X61950Y39400D01*
X61931Y39496D01*
X61877Y39577D01*
X61796Y39631D01*
X61700Y39650D01*
D02*
G37*
G36*
X37350Y39249D02*
X37274Y39234D01*
X37209Y39191D01*
X37166Y39126D01*
X37151Y39050D01*
X37166Y38974D01*
X37209Y38909D01*
X37274Y38866D01*
X37350Y38851D01*
X37426Y38866D01*
X37491Y38909D01*
X37534Y38974D01*
X37549Y39050D01*
X37534Y39126D01*
X37491Y39191D01*
X37426Y39234D01*
X37350Y39249D01*
D02*
G37*
G36*
X37900Y39349D02*
X37824Y39334D01*
X37759Y39291D01*
X37716Y39226D01*
X37701Y39150D01*
X37716Y39074D01*
X37759Y39009D01*
X37824Y38966D01*
X37900Y38951D01*
X37976Y38966D01*
X38041Y39009D01*
X38084Y39074D01*
X38099Y39150D01*
X38084Y39226D01*
X38041Y39291D01*
X37976Y39334D01*
X37900Y39349D01*
D02*
G37*
G36*
X33200Y39379D02*
X33124Y39364D01*
X33059Y39321D01*
X33016Y39256D01*
X33001Y39180D01*
X33016Y39104D01*
X33059Y39039D01*
X33124Y38996D01*
X33200Y38981D01*
X33276Y38996D01*
X33341Y39039D01*
X33384Y39104D01*
X33399Y39180D01*
X33384Y39256D01*
X33341Y39321D01*
X33276Y39364D01*
X33200Y39379D01*
D02*
G37*
G36*
X41720Y40529D02*
X41644Y40514D01*
X41579Y40471D01*
X41536Y40406D01*
X41521Y40330D01*
X41536Y40254D01*
X41579Y40190D01*
X41644Y40147D01*
X41720Y40131D01*
X41796Y40147D01*
X41860Y40190D01*
X41903Y40254D01*
X41919Y40330D01*
X41903Y40406D01*
X41860Y40471D01*
X41796Y40514D01*
X41720Y40529D01*
D02*
G37*
G36*
X41129Y40570D02*
X41053Y40555D01*
X40989Y40511D01*
X40945Y40447D01*
X40930Y40371D01*
X40945Y40295D01*
X40989Y40230D01*
X41053Y40187D01*
X41129Y40172D01*
X41205Y40187D01*
X41270Y40230D01*
X41313Y40295D01*
X41328Y40371D01*
X41313Y40447D01*
X41270Y40511D01*
X41205Y40555D01*
X41129Y40570D01*
D02*
G37*
G36*
X39700Y40599D02*
X39624Y40584D01*
X39559Y40541D01*
X39516Y40476D01*
X39501Y40400D01*
X39516Y40324D01*
X39559Y40259D01*
X39624Y40216D01*
X39700Y40201D01*
X39776Y40216D01*
X39841Y40259D01*
X39884Y40324D01*
X39899Y40400D01*
X39884Y40476D01*
X39841Y40541D01*
X39776Y40584D01*
X39700Y40599D01*
D02*
G37*
G36*
X46700Y39599D02*
X46624Y39584D01*
X46559Y39541D01*
X46516Y39476D01*
X46501Y39400D01*
X46516Y39324D01*
X46559Y39259D01*
X46624Y39216D01*
X46700Y39201D01*
X46776Y39216D01*
X46841Y39259D01*
X46884Y39324D01*
X46899Y39400D01*
X46884Y39476D01*
X46841Y39541D01*
X46776Y39584D01*
X46700Y39599D01*
D02*
G37*
G36*
X42600Y39799D02*
X42524Y39784D01*
X42459Y39741D01*
X42416Y39676D01*
X42401Y39600D01*
X42416Y39524D01*
X42459Y39459D01*
X42524Y39416D01*
X42600Y39401D01*
X42676Y39416D01*
X42741Y39459D01*
X42784Y39524D01*
X42799Y39600D01*
X42784Y39676D01*
X42741Y39741D01*
X42676Y39784D01*
X42600Y39799D01*
D02*
G37*
G36*
X31400Y40399D02*
X31324Y40384D01*
X31259Y40341D01*
X31216Y40276D01*
X31201Y40200D01*
X31216Y40124D01*
X31259Y40059D01*
X31324Y40016D01*
X31400Y40001D01*
X31476Y40016D01*
X31541Y40059D01*
X31584Y40124D01*
X31599Y40200D01*
X31584Y40276D01*
X31541Y40341D01*
X31476Y40384D01*
X31400Y40399D01*
D02*
G37*
G36*
X39100Y39099D02*
X39024Y39084D01*
X38959Y39041D01*
X38916Y38976D01*
X38901Y38900D01*
X38916Y38824D01*
X38959Y38759D01*
X39024Y38716D01*
X39100Y38701D01*
X39176Y38716D01*
X39241Y38759D01*
X39284Y38824D01*
X39299Y38900D01*
X39284Y38976D01*
X39241Y39041D01*
X39176Y39084D01*
X39100Y39099D01*
D02*
G37*
G36*
X37400Y36050D02*
X37304Y36031D01*
X37223Y35977D01*
X37169Y35896D01*
X37150Y35800D01*
X37169Y35704D01*
X37223Y35623D01*
X37304Y35569D01*
X37400Y35550D01*
X37496Y35569D01*
X37577Y35623D01*
X37631Y35704D01*
X37650Y35800D01*
X37631Y35896D01*
X37577Y35977D01*
X37496Y36031D01*
X37400Y36050D01*
D02*
G37*
G36*
X46810Y36110D02*
X46714Y36091D01*
X46633Y36036D01*
X46579Y35955D01*
X46560Y35860D01*
X46562Y35850D01*
X46540Y35816D01*
X46527Y35750D01*
X46540Y35684D01*
X46577Y35627D01*
X46634Y35590D01*
X46700Y35577D01*
X46766Y35590D01*
X46800Y35612D01*
X46810Y35610D01*
X46905Y35629D01*
X46986Y35683D01*
X47041Y35764D01*
X47060Y35860D01*
X47041Y35955D01*
X46986Y36036D01*
X46905Y36091D01*
X46810Y36110D01*
D02*
G37*
G36*
X39651Y36201D02*
X39556Y36182D01*
X39475Y36128D01*
X39420Y36047D01*
X39401Y35951D01*
X39420Y35856D01*
X39475Y35775D01*
X39556Y35720D01*
X39651Y35701D01*
X39747Y35720D01*
X39828Y35775D01*
X39882Y35856D01*
X39901Y35951D01*
X39882Y36047D01*
X39828Y36128D01*
X39747Y36182D01*
X39651Y36201D01*
D02*
G37*
G36*
X40800Y35950D02*
X40704Y35931D01*
X40623Y35877D01*
X40569Y35796D01*
X40550Y35700D01*
X40569Y35604D01*
X40623Y35523D01*
X40704Y35469D01*
X40800Y35450D01*
X40896Y35469D01*
X40977Y35523D01*
X41031Y35604D01*
X41050Y35700D01*
X41031Y35796D01*
X40977Y35877D01*
X40896Y35931D01*
X40800Y35950D01*
D02*
G37*
G36*
X56400D02*
X56304Y35931D01*
X56223Y35877D01*
X56169Y35796D01*
X56150Y35700D01*
X56169Y35604D01*
X56223Y35523D01*
X56304Y35469D01*
X56400Y35450D01*
X56496Y35469D01*
X56577Y35523D01*
X56631Y35604D01*
X56650Y35700D01*
X56631Y35796D01*
X56577Y35877D01*
X56496Y35931D01*
X56400Y35950D01*
D02*
G37*
G36*
X60741Y35959D02*
X60646Y35940D01*
X60565Y35885D01*
X60510Y35804D01*
X60491Y35709D01*
X60510Y35613D01*
X60565Y35532D01*
X60646Y35478D01*
X60741Y35459D01*
X60837Y35478D01*
X60918Y35532D01*
X60972Y35613D01*
X60991Y35709D01*
X60972Y35804D01*
X60918Y35885D01*
X60837Y35940D01*
X60741Y35959D01*
D02*
G37*
G36*
X47600Y36950D02*
X47504Y36931D01*
X47423Y36877D01*
X47369Y36796D01*
X47350Y36700D01*
X47369Y36604D01*
X47423Y36523D01*
X47504Y36469D01*
X47600Y36450D01*
X47696Y36469D01*
X47777Y36523D01*
X47831Y36604D01*
X47850Y36700D01*
X47831Y36796D01*
X47777Y36877D01*
X47696Y36931D01*
X47600Y36950D01*
D02*
G37*
G36*
X57540Y36939D02*
X57464Y36924D01*
X57400Y36881D01*
X57356Y36816D01*
X57341Y36740D01*
X57356Y36664D01*
X57400Y36600D01*
X57464Y36556D01*
X57540Y36541D01*
X57616Y36556D01*
X57681Y36600D01*
X57724Y36664D01*
X57739Y36740D01*
X57724Y36816D01*
X57681Y36881D01*
X57616Y36924D01*
X57540Y36939D01*
D02*
G37*
G36*
X56800Y38399D02*
X56724Y38384D01*
X56659Y38341D01*
X56616Y38276D01*
X56601Y38200D01*
X56616Y38124D01*
X56659Y38059D01*
X56724Y38016D01*
X56800Y38001D01*
X56876Y38016D01*
X56941Y38059D01*
X56984Y38124D01*
X56999Y38200D01*
X56984Y38276D01*
X56941Y38341D01*
X56876Y38384D01*
X56800Y38399D01*
D02*
G37*
G36*
X38700Y36250D02*
X38604Y36231D01*
X38523Y36177D01*
X38469Y36096D01*
X38450Y36000D01*
X38469Y35904D01*
X38523Y35823D01*
X38604Y35769D01*
X38700Y35750D01*
X38796Y35769D01*
X38877Y35823D01*
X38931Y35904D01*
X38950Y36000D01*
X38931Y36096D01*
X38877Y36177D01*
X38796Y36231D01*
X38700Y36250D01*
D02*
G37*
G36*
X45773Y36673D02*
X45678Y36654D01*
X45597Y36600D01*
X45543Y36519D01*
X45524Y36423D01*
X45543Y36328D01*
X45597Y36247D01*
X45678Y36193D01*
X45773Y36174D01*
X45869Y36193D01*
X45950Y36247D01*
X46004Y36328D01*
X46023Y36423D01*
X46004Y36519D01*
X45950Y36600D01*
X45869Y36654D01*
X45773Y36673D01*
D02*
G37*
G36*
X41260Y36690D02*
X41164Y36671D01*
X41083Y36617D01*
X41029Y36536D01*
X41010Y36440D01*
X41029Y36345D01*
X41083Y36264D01*
X41164Y36209D01*
X41260Y36190D01*
X41355Y36209D01*
X41436Y36264D01*
X41491Y36345D01*
X41510Y36440D01*
X41491Y36536D01*
X41436Y36617D01*
X41355Y36671D01*
X41260Y36690D01*
D02*
G37*
G36*
X40400Y45199D02*
X40324Y45184D01*
X40259Y45141D01*
X40216Y45076D01*
X40201Y45000D01*
X40216Y44924D01*
X40259Y44859D01*
X40324Y44816D01*
X40400Y44801D01*
X40476Y44816D01*
X40541Y44859D01*
X40584Y44924D01*
X40599Y45000D01*
X40584Y45076D01*
X40541Y45141D01*
X40476Y45184D01*
X40400Y45199D01*
D02*
G37*
G36*
X35617Y51216D02*
X35541Y51201D01*
X35477Y51158D01*
X35434Y51093D01*
X35419Y51017D01*
X35434Y50941D01*
X35477Y50877D01*
X35541Y50834D01*
X35617Y50819D01*
X35693Y50834D01*
X35758Y50877D01*
X35787Y50920D01*
X35837D01*
X35870Y50870D01*
X35935Y50827D01*
X36011Y50812D01*
X36087Y50827D01*
X36152Y50870D01*
X36195Y50935D01*
X36210Y51011D01*
X36195Y51087D01*
X36152Y51152D01*
X36087Y51195D01*
X36011Y51210D01*
X35935Y51195D01*
X35870Y51152D01*
X35841Y51108D01*
X35791D01*
X35758Y51158D01*
X35693Y51201D01*
X35617Y51216D01*
D02*
G37*
G36*
X34436Y51235D02*
X34360Y51220D01*
X34296Y51177D01*
X34253Y51112D01*
X34237Y51036D01*
X34253Y50960D01*
X34296Y50896D01*
X34360Y50853D01*
X34436Y50837D01*
X34512Y50853D01*
X34577Y50896D01*
X34620Y50960D01*
X34635Y51036D01*
X34620Y51112D01*
X34577Y51177D01*
X34512Y51220D01*
X34436Y51235D01*
D02*
G37*
G36*
X33846Y51253D02*
X33770Y51238D01*
X33705Y51195D01*
X33662Y51130D01*
X33647Y51054D01*
X33662Y50978D01*
X33705Y50914D01*
X33770Y50871D01*
X33846Y50856D01*
X33922Y50871D01*
X33986Y50914D01*
X34029Y50978D01*
X34044Y51054D01*
X34029Y51130D01*
X33986Y51195D01*
X33922Y51238D01*
X33846Y51253D01*
D02*
G37*
G36*
X70500Y50850D02*
X70404Y50831D01*
X70323Y50777D01*
X70269Y50696D01*
X70250Y50600D01*
X70269Y50504D01*
X70323Y50423D01*
X70404Y50369D01*
X70500Y50350D01*
X70596Y50369D01*
X70677Y50423D01*
X70731Y50504D01*
X70750Y50600D01*
X70731Y50696D01*
X70677Y50777D01*
X70596Y50831D01*
X70500Y50850D01*
D02*
G37*
G36*
X40600Y51099D02*
X40524Y51084D01*
X40459Y51041D01*
X40416Y50976D01*
X40401Y50900D01*
X40416Y50824D01*
X40459Y50759D01*
X40524Y50716D01*
X40600Y50701D01*
X40676Y50716D01*
X40741Y50759D01*
X40784Y50824D01*
X40799Y50900D01*
X40784Y50976D01*
X40741Y51041D01*
X40676Y51084D01*
X40600Y51099D01*
D02*
G37*
G36*
X38500Y51199D02*
X38424Y51184D01*
X38359Y51141D01*
X38316Y51076D01*
X38301Y51000D01*
X38316Y50924D01*
X38359Y50859D01*
X38424Y50816D01*
X38500Y50801D01*
X38576Y50816D01*
X38641Y50859D01*
X38684Y50924D01*
X38699Y51000D01*
X38684Y51076D01*
X38641Y51141D01*
X38576Y51184D01*
X38500Y51199D01*
D02*
G37*
G36*
X31300Y51399D02*
X31224Y51384D01*
X31159Y51341D01*
X31116Y51276D01*
X31101Y51200D01*
X31116Y51124D01*
X31159Y51059D01*
X31224Y51016D01*
X31300Y51001D01*
X31376Y51016D01*
X31441Y51059D01*
X31484Y51124D01*
X31499Y51200D01*
X31484Y51276D01*
X31441Y51341D01*
X31376Y51384D01*
X31300Y51399D01*
D02*
G37*
G36*
X32800Y51199D02*
X32724Y51184D01*
X32659Y51141D01*
X32616Y51076D01*
X32607Y51074D01*
X32606Y51075D01*
X32541Y51118D01*
X32465Y51133D01*
X32389Y51118D01*
X32325Y51075D01*
X32282Y51011D01*
X32267Y50935D01*
X32282Y50859D01*
X32325Y50794D01*
X32389Y50751D01*
X32465Y50736D01*
X32541Y50751D01*
X32606Y50794D01*
X32649Y50859D01*
X32659Y50860D01*
X32659Y50859D01*
X32724Y50816D01*
X32800Y50801D01*
X32876Y50816D01*
X32941Y50859D01*
X32984Y50924D01*
X32999Y51000D01*
X32984Y51076D01*
X32941Y51141D01*
X32876Y51184D01*
X32800Y51199D01*
D02*
G37*
G36*
X37200D02*
X37124Y51184D01*
X37059Y51141D01*
X37025Y51089D01*
X36975D01*
X36941Y51141D01*
X36876Y51184D01*
X36800Y51199D01*
X36724Y51184D01*
X36659Y51141D01*
X36616Y51076D01*
X36601Y51000D01*
X36616Y50924D01*
X36659Y50859D01*
X36724Y50816D01*
X36800Y50801D01*
X36876Y50816D01*
X36941Y50859D01*
X36975Y50911D01*
X37025D01*
X37059Y50859D01*
X37124Y50816D01*
X37200Y50801D01*
X37276Y50816D01*
X37341Y50859D01*
X37384Y50924D01*
X37399Y51000D01*
X37384Y51076D01*
X37341Y51141D01*
X37276Y51184D01*
X37200Y51199D01*
D02*
G37*
G36*
X39161Y51259D02*
X39085Y51244D01*
X39020Y51201D01*
X38977Y51137D01*
X38962Y51061D01*
X38977Y50985D01*
X39020Y50920D01*
X39085Y50877D01*
X39161Y50862D01*
X39237Y50877D01*
X39301Y50920D01*
X39344Y50985D01*
X39359Y51061D01*
X39344Y51137D01*
X39301Y51201D01*
X39237Y51244D01*
X39161Y51259D01*
D02*
G37*
G36*
X41720Y51279D02*
X41644Y51264D01*
X41579Y51221D01*
X41536Y51156D01*
X41521Y51080D01*
X41536Y51004D01*
X41579Y50940D01*
X41644Y50897D01*
X41720Y50882D01*
X41796Y50897D01*
X41860Y50940D01*
X41903Y51004D01*
X41919Y51080D01*
X41903Y51156D01*
X41860Y51221D01*
X41796Y51264D01*
X41720Y51279D01*
D02*
G37*
G36*
X30765Y51364D02*
X30689Y51349D01*
X30624Y51306D01*
X30581Y51241D01*
X30566Y51165D01*
X30581Y51089D01*
X30624Y51024D01*
X30689Y50981D01*
X30765Y50966D01*
X30841Y50981D01*
X30906Y51024D01*
X30949Y51089D01*
X30964Y51165D01*
X30949Y51241D01*
X30906Y51306D01*
X30841Y51349D01*
X30765Y51364D01*
D02*
G37*
G36*
X33500Y50699D02*
X33424Y50684D01*
X33359Y50641D01*
X33316Y50576D01*
X33301Y50500D01*
X33316Y50424D01*
X33359Y50359D01*
X33424Y50316D01*
X33500Y50301D01*
X33576Y50316D01*
X33641Y50359D01*
X33684Y50424D01*
X33699Y50500D01*
X33684Y50576D01*
X33641Y50641D01*
X33576Y50684D01*
X33500Y50699D01*
D02*
G37*
G36*
X46100Y49999D02*
X46024Y49984D01*
X45959Y49941D01*
X45916Y49876D01*
X45901Y49800D01*
X45916Y49724D01*
X45959Y49659D01*
X46024Y49616D01*
X46100Y49601D01*
X46176Y49616D01*
X46241Y49659D01*
X46284Y49724D01*
X46299Y49800D01*
X46284Y49876D01*
X46241Y49941D01*
X46176Y49984D01*
X46100Y49999D01*
D02*
G37*
G36*
X40450Y49799D02*
X40374Y49784D01*
X40309Y49741D01*
X40275Y49689D01*
X40225D01*
X40191Y49741D01*
X40126Y49784D01*
X40050Y49799D01*
X39974Y49784D01*
X39909Y49741D01*
X39866Y49676D01*
X39851Y49600D01*
X39866Y49524D01*
X39909Y49459D01*
X39974Y49416D01*
X40050Y49401D01*
X40126Y49416D01*
X40191Y49459D01*
X40225Y49511D01*
X40275D01*
X40309Y49459D01*
X40374Y49416D01*
X40450Y49401D01*
X40526Y49416D01*
X40591Y49459D01*
X40634Y49524D01*
X40649Y49600D01*
X40634Y49676D01*
X40591Y49741D01*
X40526Y49784D01*
X40450Y49799D01*
D02*
G37*
G36*
X31526Y50525D02*
X31450Y50510D01*
X31385Y50467D01*
X31342Y50402D01*
X31327Y50326D01*
X31342Y50250D01*
X31385Y50185D01*
X31450Y50142D01*
X31510Y50130D01*
X31520Y50081D01*
X31459Y50041D01*
X31416Y49976D01*
X31401Y49900D01*
X31416Y49824D01*
X31459Y49759D01*
X31524Y49716D01*
X31600Y49701D01*
X31676Y49716D01*
X31741Y49759D01*
X31784Y49824D01*
X31799Y49900D01*
X31784Y49976D01*
X31741Y50041D01*
X31676Y50084D01*
X31616Y50096D01*
X31606Y50145D01*
X31667Y50185D01*
X31710Y50250D01*
X31725Y50326D01*
X31710Y50402D01*
X31667Y50467D01*
X31602Y50510D01*
X31526Y50525D01*
D02*
G37*
G36*
X56335Y49733D02*
X56259Y49718D01*
X56194Y49675D01*
X56151Y49611D01*
X56136Y49535D01*
X56151Y49459D01*
X56194Y49394D01*
X56259Y49351D01*
X56335Y49336D01*
X56411Y49351D01*
X56475Y49394D01*
X56518Y49459D01*
X56533Y49535D01*
X56518Y49611D01*
X56475Y49675D01*
X56411Y49718D01*
X56335Y49733D01*
D02*
G37*
G36*
X43200Y49799D02*
X43124Y49784D01*
X43059Y49741D01*
X43016Y49676D01*
X43001Y49600D01*
X43016Y49524D01*
X43059Y49459D01*
X43124Y49416D01*
X43200Y49401D01*
X43276Y49416D01*
X43341Y49459D01*
X43384Y49524D01*
X43399Y49600D01*
X43384Y49676D01*
X43341Y49741D01*
X43276Y49784D01*
X43200Y49799D01*
D02*
G37*
G36*
X62165Y49915D02*
X62070Y49896D01*
X61989Y49842D01*
X61935Y49761D01*
X61916Y49665D01*
X61935Y49570D01*
X61989Y49489D01*
X62070Y49435D01*
X62165Y49416D01*
X62261Y49435D01*
X62342Y49489D01*
X62396Y49570D01*
X62415Y49665D01*
X62396Y49761D01*
X62342Y49842D01*
X62261Y49896D01*
X62165Y49915D01*
D02*
G37*
G36*
X78900Y50839D02*
X78784Y50824D01*
X78676Y50779D01*
X78583Y50707D01*
X78511Y50614D01*
X78466Y50506D01*
X78451Y50390D01*
X78466Y50274D01*
X78511Y50166D01*
X78583Y50073D01*
X78676Y50001D01*
X78784Y49956D01*
X78900Y49941D01*
X79016Y49956D01*
X79124Y50001D01*
X79217Y50073D01*
X79289Y50166D01*
X79334Y50274D01*
X79349Y50390D01*
X79334Y50506D01*
X79289Y50614D01*
X79217Y50707D01*
X79124Y50779D01*
X79016Y50824D01*
X78900Y50839D01*
D02*
G37*
G36*
X32365Y50464D02*
X32289Y50449D01*
X32225Y50406D01*
X32182Y50341D01*
X32167Y50265D01*
X32182Y50189D01*
X32225Y50125D01*
X32289Y50082D01*
X32365Y50067D01*
X32441Y50082D01*
X32506Y50125D01*
X32549Y50189D01*
X32564Y50265D01*
X32549Y50341D01*
X32506Y50406D01*
X32441Y50449D01*
X32365Y50464D01*
D02*
G37*
G36*
X60100Y50599D02*
X60024Y50584D01*
X59959Y50541D01*
X59916Y50476D01*
X59901Y50400D01*
X59916Y50324D01*
X59959Y50259D01*
X60024Y50216D01*
X60100Y50201D01*
X60176Y50216D01*
X60241Y50259D01*
X60284Y50324D01*
X60299Y50400D01*
X60284Y50476D01*
X60241Y50541D01*
X60176Y50584D01*
X60100Y50599D01*
D02*
G37*
G36*
X55300Y50199D02*
X55224Y50184D01*
X55159Y50141D01*
X55116Y50076D01*
X55101Y50000D01*
X55116Y49924D01*
X55159Y49859D01*
X55224Y49816D01*
X55300Y49801D01*
X55376Y49816D01*
X55441Y49859D01*
X55484Y49924D01*
X55499Y50000D01*
X55484Y50076D01*
X55441Y50141D01*
X55376Y50184D01*
X55300Y50199D01*
D02*
G37*
G36*
X56100D02*
X56024Y50184D01*
X55959Y50141D01*
X55916Y50076D01*
X55901Y50000D01*
X55916Y49924D01*
X55959Y49859D01*
X56024Y49816D01*
X56100Y49801D01*
X56176Y49816D01*
X56241Y49859D01*
X56284Y49924D01*
X56299Y50000D01*
X56284Y50076D01*
X56241Y50141D01*
X56176Y50184D01*
X56100Y50199D01*
D02*
G37*
G36*
X33200Y50299D02*
X33124Y50284D01*
X33059Y50241D01*
X33016Y50176D01*
X33001Y50100D01*
X33016Y50024D01*
X33059Y49959D01*
X33124Y49916D01*
X33200Y49901D01*
X33276Y49916D01*
X33341Y49959D01*
X33384Y50024D01*
X33399Y50100D01*
X33384Y50176D01*
X33341Y50241D01*
X33276Y50284D01*
X33200Y50299D01*
D02*
G37*
G36*
X36300Y53799D02*
X36224Y53784D01*
X36159Y53741D01*
X36116Y53676D01*
X36101Y53600D01*
X36116Y53524D01*
X36159Y53459D01*
X36224Y53416D01*
X36300Y53401D01*
X36376Y53416D01*
X36441Y53459D01*
X36484Y53524D01*
X36499Y53600D01*
X36484Y53676D01*
X36441Y53741D01*
X36376Y53784D01*
X36300Y53799D01*
D02*
G37*
G36*
X32200Y54099D02*
X32124Y54084D01*
X32059Y54041D01*
X32016Y53976D01*
X32001Y53900D01*
X32016Y53824D01*
X32059Y53759D01*
X32124Y53716D01*
X32200Y53701D01*
X32276Y53716D01*
X32341Y53759D01*
X32384Y53824D01*
X32399Y53900D01*
X32384Y53976D01*
X32341Y54041D01*
X32276Y54084D01*
X32200Y54099D01*
D02*
G37*
G36*
X32800D02*
X32724Y54084D01*
X32659Y54041D01*
X32616Y53976D01*
X32601Y53900D01*
X32616Y53824D01*
X32659Y53759D01*
X32724Y53716D01*
X32800Y53701D01*
X32876Y53716D01*
X32941Y53759D01*
X32984Y53824D01*
X32999Y53900D01*
X32984Y53976D01*
X32941Y54041D01*
X32876Y54084D01*
X32800Y54099D01*
D02*
G37*
G36*
X39700Y53199D02*
X39624Y53184D01*
X39559Y53141D01*
X39516Y53076D01*
X39501Y53000D01*
X39516Y52924D01*
X39559Y52859D01*
X39624Y52816D01*
X39700Y52801D01*
X39776Y52816D01*
X39841Y52859D01*
X39884Y52924D01*
X39899Y53000D01*
X39884Y53076D01*
X39841Y53141D01*
X39776Y53184D01*
X39700Y53199D01*
D02*
G37*
G36*
X37500Y53699D02*
X37424Y53684D01*
X37359Y53641D01*
X37316Y53576D01*
X37301Y53500D01*
X37316Y53424D01*
X37359Y53359D01*
X37424Y53316D01*
X37500Y53301D01*
X37576Y53316D01*
X37641Y53359D01*
X37684Y53424D01*
X37699Y53500D01*
X37684Y53576D01*
X37641Y53641D01*
X37576Y53684D01*
X37500Y53699D01*
D02*
G37*
G36*
X34800Y53799D02*
X34724Y53784D01*
X34659Y53741D01*
X34616Y53676D01*
X34601Y53600D01*
X34616Y53524D01*
X34659Y53459D01*
X34724Y53416D01*
X34800Y53401D01*
X34876Y53416D01*
X34941Y53459D01*
X34984Y53524D01*
X34999Y53600D01*
X34984Y53676D01*
X34941Y53741D01*
X34876Y53784D01*
X34800Y53799D01*
D02*
G37*
G36*
X35300Y54699D02*
X35224Y54684D01*
X35159Y54641D01*
X35116Y54576D01*
X35101Y54500D01*
X35116Y54424D01*
X35159Y54359D01*
X35224Y54316D01*
X35300Y54301D01*
X35376Y54316D01*
X35441Y54359D01*
X35484Y54424D01*
X35499Y54500D01*
X35484Y54576D01*
X35441Y54641D01*
X35376Y54684D01*
X35300Y54699D01*
D02*
G37*
G36*
X42950Y54850D02*
X42854Y54831D01*
X42773Y54777D01*
X42719Y54696D01*
X42700Y54600D01*
X42719Y54504D01*
X42773Y54423D01*
X42854Y54369D01*
X42950Y54350D01*
X43046Y54369D01*
X43127Y54423D01*
X43181Y54504D01*
X43200Y54600D01*
X43181Y54696D01*
X43127Y54777D01*
X43046Y54831D01*
X42950Y54850D01*
D02*
G37*
G36*
X47535Y54915D02*
X47439Y54896D01*
X47358Y54842D01*
X47304Y54761D01*
X47285Y54665D01*
X47304Y54570D01*
X47358Y54489D01*
X47439Y54435D01*
X47535Y54416D01*
X47630Y54435D01*
X47711Y54489D01*
X47765Y54570D01*
X47784Y54665D01*
X47765Y54761D01*
X47711Y54842D01*
X47630Y54896D01*
X47535Y54915D01*
D02*
G37*
G36*
X43400Y54450D02*
X43304Y54431D01*
X43223Y54377D01*
X43169Y54296D01*
X43150Y54200D01*
X43169Y54104D01*
X43223Y54023D01*
X43304Y53969D01*
X43400Y53950D01*
X43496Y53969D01*
X43577Y54023D01*
X43631Y54104D01*
X43650Y54200D01*
X43631Y54296D01*
X43577Y54377D01*
X43496Y54431D01*
X43400Y54450D01*
D02*
G37*
G36*
X46300D02*
X46204Y54431D01*
X46123Y54377D01*
X46069Y54296D01*
X46050Y54200D01*
X46069Y54104D01*
X46123Y54023D01*
X46204Y53969D01*
X46300Y53950D01*
X46396Y53969D01*
X46477Y54023D01*
X46531Y54104D01*
X46550Y54200D01*
X46531Y54296D01*
X46477Y54377D01*
X46396Y54431D01*
X46300Y54450D01*
D02*
G37*
G36*
X38400Y54499D02*
X38324Y54484D01*
X38259Y54441D01*
X38216Y54376D01*
X38201Y54300D01*
X38216Y54224D01*
X38259Y54159D01*
X38324Y54116D01*
X38400Y54101D01*
X38476Y54116D01*
X38541Y54159D01*
X38584Y54224D01*
X38599Y54300D01*
X38584Y54376D01*
X38541Y54441D01*
X38476Y54484D01*
X38400Y54499D01*
D02*
G37*
G36*
X39200Y53199D02*
X39124Y53184D01*
X39059Y53141D01*
X39016Y53076D01*
X39001Y53000D01*
X39016Y52924D01*
X39059Y52859D01*
X39124Y52816D01*
X39200Y52801D01*
X39276Y52816D01*
X39341Y52859D01*
X39384Y52924D01*
X39399Y53000D01*
X39384Y53076D01*
X39341Y53141D01*
X39276Y53184D01*
X39200Y53199D01*
D02*
G37*
G36*
X72251Y51648D02*
X72175Y51633D01*
X72111Y51589D01*
X72067Y51525D01*
X72052Y51449D01*
X72067Y51373D01*
X72111Y51308D01*
X72175Y51265D01*
X72251Y51250D01*
X72327Y51265D01*
X72392Y51308D01*
X72435Y51373D01*
X72450Y51449D01*
X72435Y51525D01*
X72392Y51589D01*
X72327Y51633D01*
X72251Y51648D01*
D02*
G37*
G36*
X30500Y52599D02*
X30424Y52584D01*
X30359Y52541D01*
X30316Y52476D01*
X30301Y52400D01*
X30316Y52324D01*
X30359Y52259D01*
X30424Y52216D01*
X30500Y52201D01*
X30576Y52216D01*
X30641Y52259D01*
X30684Y52324D01*
X30699Y52400D01*
X30684Y52476D01*
X30641Y52541D01*
X30576Y52584D01*
X30500Y52599D01*
D02*
G37*
G36*
X35500D02*
X35424Y52584D01*
X35359Y52541D01*
X35316Y52476D01*
X35301Y52400D01*
X35316Y52324D01*
X35359Y52259D01*
X35424Y52216D01*
X35500Y52201D01*
X35576Y52216D01*
X35641Y52259D01*
X35684Y52324D01*
X35699Y52400D01*
X35684Y52476D01*
X35641Y52541D01*
X35576Y52584D01*
X35500Y52599D01*
D02*
G37*
G36*
X30200Y51499D02*
X30124Y51484D01*
X30059Y51441D01*
X30016Y51376D01*
X30001Y51300D01*
X30016Y51224D01*
X30059Y51159D01*
X30124Y51116D01*
X30200Y51101D01*
X30276Y51116D01*
X30341Y51159D01*
X30384Y51224D01*
X30399Y51300D01*
X30384Y51376D01*
X30341Y51441D01*
X30276Y51484D01*
X30200Y51499D01*
D02*
G37*
G36*
X71400Y51549D02*
X71324Y51534D01*
X71259Y51491D01*
X71216Y51426D01*
X71201Y51350D01*
X71216Y51274D01*
X71259Y51209D01*
X71324Y51166D01*
X71400Y51151D01*
X71476Y51166D01*
X71541Y51209D01*
X71584Y51274D01*
X71599Y51350D01*
X71584Y51426D01*
X71541Y51491D01*
X71476Y51534D01*
X71400Y51549D01*
D02*
G37*
G36*
X70749Y51648D02*
X70673Y51633D01*
X70608Y51589D01*
X70565Y51525D01*
X70550Y51449D01*
X70565Y51373D01*
X70608Y51308D01*
X70673Y51265D01*
X70749Y51250D01*
X70825Y51265D01*
X70889Y51308D01*
X70933Y51373D01*
X70948Y51449D01*
X70933Y51525D01*
X70889Y51589D01*
X70825Y51633D01*
X70749Y51648D01*
D02*
G37*
G36*
X34700Y52999D02*
X34624Y52984D01*
X34559Y52941D01*
X34516Y52876D01*
X34501Y52800D01*
X34516Y52724D01*
X34559Y52659D01*
X34624Y52616D01*
X34700Y52601D01*
X34776Y52616D01*
X34841Y52659D01*
X34884Y52724D01*
X34899Y52800D01*
X34884Y52876D01*
X34841Y52941D01*
X34776Y52984D01*
X34700Y52999D01*
D02*
G37*
G36*
X37700Y53099D02*
X37624Y53084D01*
X37559Y53041D01*
X37516Y52976D01*
X37501Y52900D01*
X37516Y52824D01*
X37559Y52759D01*
X37624Y52716D01*
X37700Y52701D01*
X37776Y52716D01*
X37841Y52759D01*
X37884Y52824D01*
X37899Y52900D01*
X37884Y52976D01*
X37841Y53041D01*
X37776Y53084D01*
X37700Y53099D01*
D02*
G37*
G36*
X35400Y53199D02*
X35324Y53184D01*
X35259Y53141D01*
X35216Y53076D01*
X35201Y53000D01*
X35216Y52924D01*
X35259Y52859D01*
X35324Y52816D01*
X35400Y52801D01*
X35476Y52816D01*
X35541Y52859D01*
X35584Y52924D01*
X35599Y53000D01*
X35584Y53076D01*
X35541Y53141D01*
X35476Y53184D01*
X35400Y53199D01*
D02*
G37*
G36*
X39200Y52599D02*
X39124Y52584D01*
X39059Y52541D01*
X39016Y52476D01*
X39001Y52400D01*
X39016Y52324D01*
X39059Y52259D01*
X39124Y52216D01*
X39200Y52201D01*
X39276Y52216D01*
X39341Y52259D01*
X39384Y52324D01*
X39399Y52400D01*
X39384Y52476D01*
X39341Y52541D01*
X39276Y52584D01*
X39200Y52599D01*
D02*
G37*
G36*
X43050Y52750D02*
X42954Y52731D01*
X42873Y52677D01*
X42819Y52596D01*
X42800Y52500D01*
X42819Y52404D01*
X42873Y52323D01*
X42954Y52269D01*
X43050Y52250D01*
X43146Y52269D01*
X43227Y52323D01*
X43281Y52404D01*
X43300Y52500D01*
X43281Y52596D01*
X43227Y52677D01*
X43146Y52731D01*
X43050Y52750D01*
D02*
G37*
G36*
X44494Y52943D02*
X44418Y52928D01*
X44354Y52885D01*
X44311Y52821D01*
X44296Y52744D01*
X44311Y52668D01*
X44354Y52604D01*
X44418Y52561D01*
X44494Y52546D01*
X44571Y52561D01*
X44635Y52604D01*
X44678Y52668D01*
X44693Y52744D01*
X44678Y52821D01*
X44635Y52885D01*
X44571Y52928D01*
X44494Y52943D01*
D02*
G37*
G36*
X31400Y49699D02*
X31324Y49684D01*
X31259Y49641D01*
X31216Y49576D01*
X31201Y49500D01*
X31216Y49424D01*
X31259Y49359D01*
X31324Y49316D01*
X31400Y49301D01*
X31476Y49316D01*
X31541Y49359D01*
X31584Y49424D01*
X31599Y49500D01*
X31584Y49576D01*
X31541Y49641D01*
X31476Y49684D01*
X31400Y49699D01*
D02*
G37*
G36*
X57500Y46899D02*
X57424Y46884D01*
X57359Y46841D01*
X57316Y46776D01*
X57301Y46700D01*
X57316Y46624D01*
X57359Y46559D01*
X57424Y46516D01*
X57500Y46501D01*
X57576Y46516D01*
X57641Y46559D01*
X57684Y46624D01*
X57699Y46700D01*
X57684Y46776D01*
X57641Y46841D01*
X57576Y46884D01*
X57500Y46899D01*
D02*
G37*
G36*
X41983Y46982D02*
X41907Y46966D01*
X41842Y46923D01*
X41799Y46859D01*
X41784Y46783D01*
X41799Y46707D01*
X41842Y46642D01*
X41907Y46599D01*
X41983Y46584D01*
X42059Y46599D01*
X42123Y46642D01*
X42166Y46707D01*
X42182Y46783D01*
X42166Y46859D01*
X42123Y46923D01*
X42059Y46966D01*
X41983Y46982D01*
D02*
G37*
G36*
X70900Y46999D02*
X70824Y46984D01*
X70759Y46941D01*
X70716Y46876D01*
X70701Y46800D01*
X70716Y46724D01*
X70759Y46659D01*
X70824Y46616D01*
X70900Y46601D01*
X70976Y46616D01*
X71041Y46659D01*
X71084Y46724D01*
X71099Y46800D01*
X71084Y46876D01*
X71041Y46941D01*
X70976Y46984D01*
X70900Y46999D01*
D02*
G37*
G36*
X43400Y46799D02*
X43324Y46784D01*
X43259Y46741D01*
X43216Y46676D01*
X43201Y46600D01*
X43216Y46524D01*
X43259Y46459D01*
X43324Y46416D01*
X43400Y46401D01*
X43476Y46416D01*
X43541Y46459D01*
X43584Y46524D01*
X43599Y46600D01*
X43584Y46676D01*
X43541Y46741D01*
X43476Y46784D01*
X43400Y46799D01*
D02*
G37*
G36*
X56300D02*
X56224Y46784D01*
X56159Y46741D01*
X56116Y46676D01*
X56101Y46600D01*
X56116Y46524D01*
X56159Y46459D01*
X56224Y46416D01*
X56300Y46401D01*
X56376Y46416D01*
X56441Y46459D01*
X56484Y46524D01*
X56499Y46600D01*
X56484Y46676D01*
X56441Y46741D01*
X56376Y46784D01*
X56300Y46799D01*
D02*
G37*
G36*
X33200Y46899D02*
X33124Y46884D01*
X33059Y46841D01*
X33016Y46776D01*
X33001Y46700D01*
X33016Y46624D01*
X33059Y46559D01*
X33124Y46516D01*
X33200Y46501D01*
X33276Y46516D01*
X33341Y46559D01*
X33384Y46624D01*
X33399Y46700D01*
X33384Y46776D01*
X33341Y46841D01*
X33276Y46884D01*
X33200Y46899D01*
D02*
G37*
G36*
X33000Y47599D02*
X32924Y47584D01*
X32859Y47541D01*
X32816Y47476D01*
X32801Y47400D01*
X32816Y47324D01*
X32859Y47259D01*
X32924Y47216D01*
X33000Y47201D01*
X33076Y47216D01*
X33141Y47259D01*
X33184Y47324D01*
X33199Y47400D01*
X33184Y47476D01*
X33141Y47541D01*
X33076Y47584D01*
X33000Y47599D01*
D02*
G37*
G36*
X40400D02*
X40324Y47584D01*
X40259Y47541D01*
X40216Y47476D01*
X40201Y47400D01*
X40216Y47324D01*
X40259Y47259D01*
X40324Y47216D01*
X40400Y47201D01*
X40476Y47216D01*
X40541Y47259D01*
X40584Y47324D01*
X40599Y47400D01*
X40584Y47476D01*
X40541Y47541D01*
X40476Y47584D01*
X40400Y47599D01*
D02*
G37*
G36*
X56400D02*
X56324Y47584D01*
X56259Y47541D01*
X56216Y47476D01*
X56201Y47400D01*
X56216Y47324D01*
X56259Y47259D01*
X56324Y47216D01*
X56400Y47201D01*
X56476Y47216D01*
X56541Y47259D01*
X56584Y47324D01*
X56599Y47400D01*
X56584Y47476D01*
X56541Y47541D01*
X56476Y47584D01*
X56400Y47599D01*
D02*
G37*
G36*
X47400Y47099D02*
X47324Y47084D01*
X47259Y47041D01*
X47216Y46976D01*
X47201Y46900D01*
X47216Y46824D01*
X47259Y46759D01*
X47324Y46716D01*
X47400Y46701D01*
X47476Y46716D01*
X47541Y46759D01*
X47584Y46824D01*
X47599Y46900D01*
X47584Y46976D01*
X47541Y47041D01*
X47476Y47084D01*
X47400Y47099D01*
D02*
G37*
G36*
X74200Y47373D02*
X74116Y47362D01*
X74039Y47330D01*
X73972Y47278D01*
X73920Y47211D01*
X73888Y47134D01*
X73877Y47050D01*
X73888Y46966D01*
X73920Y46889D01*
X73972Y46822D01*
X74039Y46770D01*
X74116Y46738D01*
X74200Y46727D01*
X74284Y46738D01*
X74361Y46770D01*
X74428Y46822D01*
X74480Y46889D01*
X74512Y46966D01*
X74523Y47050D01*
X74512Y47134D01*
X74480Y47211D01*
X74428Y47278D01*
X74361Y47330D01*
X74284Y47362D01*
X74200Y47373D01*
D02*
G37*
G36*
X70500Y47450D02*
X70404Y47431D01*
X70323Y47377D01*
X70269Y47296D01*
X70250Y47200D01*
X70269Y47104D01*
X70323Y47023D01*
X70404Y46969D01*
X70500Y46950D01*
X70596Y46969D01*
X70677Y47023D01*
X70731Y47104D01*
X70750Y47200D01*
X70731Y47296D01*
X70677Y47377D01*
X70596Y47431D01*
X70500Y47450D01*
D02*
G37*
G36*
X29000Y46799D02*
X28924Y46784D01*
X28859Y46741D01*
X28816Y46676D01*
X28801Y46600D01*
X28816Y46524D01*
X28859Y46459D01*
X28924Y46416D01*
X29000Y46401D01*
X29076Y46416D01*
X29141Y46459D01*
X29184Y46524D01*
X29199Y46600D01*
X29184Y46676D01*
X29141Y46741D01*
X29076Y46784D01*
X29000Y46799D01*
D02*
G37*
G36*
X47403Y45996D02*
X47327Y45981D01*
X47263Y45937D01*
X47219Y45873D01*
X47204Y45797D01*
X47219Y45721D01*
X47263Y45656D01*
X47327Y45613D01*
X47403Y45598D01*
X47479Y45613D01*
X47544Y45656D01*
X47587Y45721D01*
X47602Y45797D01*
X47587Y45873D01*
X47544Y45937D01*
X47479Y45981D01*
X47403Y45996D01*
D02*
G37*
G36*
X56300Y45999D02*
X56224Y45984D01*
X56159Y45941D01*
X56116Y45876D01*
X56101Y45800D01*
X56116Y45724D01*
X56159Y45659D01*
X56224Y45616D01*
X56300Y45601D01*
X56376Y45616D01*
X56441Y45659D01*
X56484Y45724D01*
X56499Y45800D01*
X56484Y45876D01*
X56441Y45941D01*
X56376Y45984D01*
X56300Y45999D01*
D02*
G37*
G36*
X74200Y46373D02*
X74116Y46362D01*
X74039Y46330D01*
X73972Y46278D01*
X73920Y46211D01*
X73888Y46134D01*
X73877Y46050D01*
X73888Y45966D01*
X73920Y45889D01*
X73972Y45822D01*
X74039Y45770D01*
X74116Y45738D01*
X74200Y45727D01*
X74284Y45738D01*
X74361Y45770D01*
X74428Y45822D01*
X74480Y45889D01*
X74512Y45966D01*
X74523Y46050D01*
X74512Y46134D01*
X74480Y46211D01*
X74428Y46278D01*
X74361Y46330D01*
X74284Y46362D01*
X74200Y46373D01*
D02*
G37*
G36*
X57600Y45399D02*
X57524Y45384D01*
X57459Y45341D01*
X57416Y45276D01*
X57401Y45200D01*
X57416Y45124D01*
X57459Y45059D01*
X57524Y45016D01*
X57600Y45001D01*
X57676Y45016D01*
X57741Y45059D01*
X57784Y45124D01*
X57799Y45200D01*
X57784Y45276D01*
X57741Y45341D01*
X57676Y45384D01*
X57600Y45399D01*
D02*
G37*
G36*
X75200Y45873D02*
X75116Y45862D01*
X75039Y45830D01*
X74972Y45778D01*
X74920Y45711D01*
X74888Y45634D01*
X74877Y45550D01*
X74888Y45466D01*
X74920Y45389D01*
X74972Y45322D01*
X75039Y45270D01*
X75116Y45238D01*
X75200Y45227D01*
X75284Y45238D01*
X75361Y45270D01*
X75428Y45322D01*
X75480Y45389D01*
X75512Y45466D01*
X75523Y45550D01*
X75512Y45634D01*
X75480Y45711D01*
X75428Y45778D01*
X75361Y45830D01*
X75284Y45862D01*
X75200Y45873D01*
D02*
G37*
G36*
X70500Y46050D02*
X70404Y46031D01*
X70323Y45977D01*
X70269Y45896D01*
X70250Y45800D01*
X70269Y45704D01*
X70323Y45623D01*
X70404Y45569D01*
X70500Y45550D01*
X70596Y45569D01*
X70677Y45623D01*
X70731Y45704D01*
X70750Y45800D01*
X70731Y45896D01*
X70677Y45977D01*
X70596Y46031D01*
X70500Y46050D01*
D02*
G37*
G36*
X60100Y46599D02*
X60024Y46584D01*
X59959Y46541D01*
X59916Y46476D01*
X59901Y46400D01*
X59916Y46324D01*
X59959Y46259D01*
X60024Y46216D01*
X60100Y46201D01*
X60176Y46216D01*
X60241Y46259D01*
X60284Y46324D01*
X60299Y46400D01*
X60284Y46476D01*
X60241Y46541D01*
X60176Y46584D01*
X60100Y46599D01*
D02*
G37*
G36*
X62135Y46715D02*
X62039Y46696D01*
X61958Y46642D01*
X61904Y46561D01*
X61885Y46465D01*
X61904Y46370D01*
X61958Y46289D01*
X62039Y46235D01*
X62135Y46216D01*
X62230Y46235D01*
X62311Y46289D01*
X62365Y46370D01*
X62384Y46465D01*
X62365Y46561D01*
X62311Y46642D01*
X62230Y46696D01*
X62135Y46715D01*
D02*
G37*
G36*
X75200Y46873D02*
X75116Y46862D01*
X75039Y46830D01*
X74972Y46778D01*
X74920Y46711D01*
X74888Y46634D01*
X74877Y46550D01*
X74888Y46466D01*
X74920Y46389D01*
X74972Y46322D01*
X75039Y46270D01*
X75116Y46238D01*
X75200Y46227D01*
X75284Y46238D01*
X75361Y46270D01*
X75428Y46322D01*
X75480Y46389D01*
X75512Y46466D01*
X75523Y46550D01*
X75512Y46634D01*
X75480Y46711D01*
X75428Y46778D01*
X75361Y46830D01*
X75284Y46862D01*
X75200Y46873D01*
D02*
G37*
G36*
X42000Y46399D02*
X41924Y46384D01*
X41859Y46341D01*
X41816Y46276D01*
X41801Y46200D01*
X41816Y46124D01*
X41859Y46059D01*
X41924Y46016D01*
X42000Y46001D01*
X42076Y46016D01*
X42141Y46059D01*
X42184Y46124D01*
X42199Y46200D01*
X42184Y46276D01*
X42141Y46341D01*
X42076Y46384D01*
X42000Y46399D01*
D02*
G37*
G36*
X70900Y46499D02*
X70824Y46484D01*
X70759Y46441D01*
X70716Y46376D01*
X70701Y46300D01*
X70716Y46224D01*
X70759Y46159D01*
X70824Y46116D01*
X70900Y46101D01*
X70976Y46116D01*
X71041Y46159D01*
X71084Y46224D01*
X71099Y46300D01*
X71084Y46376D01*
X71041Y46441D01*
X70976Y46484D01*
X70900Y46499D01*
D02*
G37*
G36*
X40400Y46599D02*
X40324Y46584D01*
X40259Y46541D01*
X40216Y46476D01*
X40201Y46400D01*
X40216Y46324D01*
X40259Y46259D01*
X40324Y46216D01*
X40400Y46201D01*
X40476Y46216D01*
X40541Y46259D01*
X40584Y46324D01*
X40599Y46400D01*
X40584Y46476D01*
X40541Y46541D01*
X40476Y46584D01*
X40400Y46599D01*
D02*
G37*
G36*
X74200Y49373D02*
X74116Y49362D01*
X74039Y49330D01*
X73972Y49278D01*
X73920Y49211D01*
X73888Y49134D01*
X73877Y49050D01*
X73888Y48966D01*
X73920Y48889D01*
X73972Y48822D01*
X74039Y48770D01*
X74116Y48738D01*
X74200Y48727D01*
X74284Y48738D01*
X74361Y48770D01*
X74428Y48822D01*
X74480Y48889D01*
X74512Y48966D01*
X74523Y49050D01*
X74512Y49134D01*
X74480Y49211D01*
X74428Y49278D01*
X74361Y49330D01*
X74284Y49362D01*
X74200Y49373D01*
D02*
G37*
G36*
X77700Y50324D02*
X77549Y50309D01*
X77404Y50265D01*
X77270Y50193D01*
X77153Y50097D01*
X77057Y49980D01*
X76985Y49846D01*
X76941Y49701D01*
X76926Y49550D01*
X76941Y49399D01*
X76985Y49254D01*
X77057Y49120D01*
X77153Y49003D01*
X77270Y48907D01*
X77404Y48835D01*
X77549Y48791D01*
X77700Y48776D01*
X77851Y48791D01*
X77996Y48835D01*
X78130Y48907D01*
X78247Y49003D01*
X78343Y49120D01*
X78415Y49254D01*
X78459Y49399D01*
X78474Y49550D01*
X78459Y49701D01*
X78415Y49846D01*
X78343Y49980D01*
X78247Y50097D01*
X78130Y50193D01*
X77996Y50265D01*
X77851Y50309D01*
X77700Y50324D01*
D02*
G37*
G36*
X47400Y49299D02*
X47324Y49284D01*
X47259Y49241D01*
X47216Y49176D01*
X47201Y49100D01*
X47216Y49024D01*
X47259Y48959D01*
X47324Y48916D01*
X47400Y48901D01*
X47476Y48916D01*
X47541Y48959D01*
X47584Y49024D01*
X47599Y49100D01*
X47584Y49176D01*
X47541Y49241D01*
X47476Y49284D01*
X47400Y49299D01*
D02*
G37*
G36*
X57600Y48899D02*
X57524Y48884D01*
X57459Y48841D01*
X57416Y48776D01*
X57401Y48700D01*
X57416Y48624D01*
X57459Y48559D01*
X57524Y48516D01*
X57600Y48501D01*
X57676Y48516D01*
X57741Y48559D01*
X57784Y48624D01*
X57799Y48700D01*
X57784Y48776D01*
X57741Y48841D01*
X57676Y48884D01*
X57600Y48899D01*
D02*
G37*
G36*
X70500Y49050D02*
X70404Y49031D01*
X70323Y48977D01*
X70269Y48896D01*
X70250Y48800D01*
X70269Y48704D01*
X70323Y48623D01*
X70404Y48569D01*
X70500Y48550D01*
X70596Y48569D01*
X70677Y48623D01*
X70731Y48704D01*
X70750Y48800D01*
X70731Y48896D01*
X70677Y48977D01*
X70596Y49031D01*
X70500Y49050D01*
D02*
G37*
G36*
X56450Y48948D02*
X56374Y48933D01*
X56310Y48890D01*
X56267Y48826D01*
X56252Y48750D01*
X56267Y48674D01*
X56310Y48609D01*
X56374Y48566D01*
X56450Y48551D01*
X56526Y48566D01*
X56591Y48609D01*
X56634Y48674D01*
X56649Y48750D01*
X56634Y48826D01*
X56591Y48890D01*
X56526Y48933D01*
X56450Y48948D01*
D02*
G37*
G36*
X34200Y49649D02*
X34124Y49634D01*
X34059Y49591D01*
X34016Y49526D01*
X34001Y49450D01*
X34016Y49374D01*
X34059Y49309D01*
X34124Y49266D01*
X34200Y49251D01*
X34276Y49266D01*
X34341Y49309D01*
X34384Y49374D01*
X34399Y49450D01*
X34384Y49526D01*
X34341Y49591D01*
X34276Y49634D01*
X34200Y49649D01*
D02*
G37*
G36*
X35200D02*
X35124Y49634D01*
X35059Y49591D01*
X35016Y49526D01*
X35001Y49450D01*
X35016Y49374D01*
X35059Y49309D01*
X35124Y49266D01*
X35200Y49251D01*
X35276Y49266D01*
X35341Y49309D01*
X35384Y49374D01*
X35399Y49450D01*
X35384Y49526D01*
X35341Y49591D01*
X35276Y49634D01*
X35200Y49649D01*
D02*
G37*
G36*
X38200D02*
X38124Y49634D01*
X38059Y49591D01*
X38016Y49526D01*
X38001Y49450D01*
X38016Y49374D01*
X38059Y49309D01*
X38124Y49266D01*
X38200Y49251D01*
X38276Y49266D01*
X38341Y49309D01*
X38384Y49374D01*
X38399Y49450D01*
X38384Y49526D01*
X38341Y49591D01*
X38276Y49634D01*
X38200Y49649D01*
D02*
G37*
G36*
X30200Y49599D02*
X30124Y49584D01*
X30059Y49541D01*
X30016Y49476D01*
X30001Y49400D01*
X30016Y49324D01*
X30059Y49259D01*
X30124Y49216D01*
X30200Y49201D01*
X30276Y49216D01*
X30341Y49259D01*
X30384Y49324D01*
X30399Y49400D01*
X30384Y49476D01*
X30341Y49541D01*
X30276Y49584D01*
X30200Y49599D01*
D02*
G37*
G36*
X33300D02*
X33224Y49584D01*
X33159Y49541D01*
X33116Y49476D01*
X33101Y49400D01*
X33116Y49324D01*
X33159Y49259D01*
X33224Y49216D01*
X33300Y49201D01*
X33376Y49216D01*
X33441Y49259D01*
X33484Y49324D01*
X33499Y49400D01*
X33484Y49476D01*
X33441Y49541D01*
X33376Y49584D01*
X33300Y49599D01*
D02*
G37*
G36*
X37200D02*
X37124Y49584D01*
X37059Y49541D01*
X37016Y49476D01*
X37001Y49400D01*
X37016Y49324D01*
X37059Y49259D01*
X37124Y49216D01*
X37200Y49201D01*
X37276Y49216D01*
X37341Y49259D01*
X37384Y49324D01*
X37399Y49400D01*
X37384Y49476D01*
X37341Y49541D01*
X37276Y49584D01*
X37200Y49599D01*
D02*
G37*
G36*
X75200Y48873D02*
X75116Y48862D01*
X75039Y48830D01*
X74972Y48778D01*
X74920Y48711D01*
X74888Y48634D01*
X74877Y48550D01*
X74888Y48466D01*
X74920Y48389D01*
X74972Y48322D01*
X75039Y48270D01*
X75116Y48238D01*
X75200Y48227D01*
X75284Y48238D01*
X75361Y48270D01*
X75428Y48322D01*
X75480Y48389D01*
X75512Y48466D01*
X75523Y48550D01*
X75512Y48634D01*
X75480Y48711D01*
X75428Y48778D01*
X75361Y48830D01*
X75284Y48862D01*
X75200Y48873D01*
D02*
G37*
G36*
X47400Y48099D02*
X47324Y48084D01*
X47259Y48041D01*
X47216Y47976D01*
X47201Y47900D01*
X47216Y47824D01*
X47259Y47759D01*
X47324Y47716D01*
X47400Y47701D01*
X47476Y47716D01*
X47541Y47759D01*
X47584Y47824D01*
X47599Y47900D01*
X47584Y47976D01*
X47541Y48041D01*
X47476Y48084D01*
X47400Y48099D01*
D02*
G37*
G36*
X74200Y48373D02*
X74116Y48362D01*
X74039Y48330D01*
X73972Y48278D01*
X73920Y48211D01*
X73888Y48134D01*
X73877Y48050D01*
X73888Y47966D01*
X73920Y47889D01*
X73972Y47822D01*
X74039Y47770D01*
X74116Y47738D01*
X74200Y47727D01*
X74284Y47738D01*
X74361Y47770D01*
X74428Y47822D01*
X74480Y47889D01*
X74512Y47966D01*
X74523Y48050D01*
X74512Y48134D01*
X74480Y48211D01*
X74428Y48278D01*
X74361Y48330D01*
X74284Y48362D01*
X74200Y48373D01*
D02*
G37*
G36*
X55565Y48133D02*
X55489Y48118D01*
X55425Y48075D01*
X55382Y48011D01*
X55367Y47935D01*
X55382Y47859D01*
X55425Y47794D01*
X55489Y47751D01*
X55565Y47736D01*
X55641Y47751D01*
X55706Y47794D01*
X55749Y47859D01*
X55764Y47935D01*
X55749Y48011D01*
X55706Y48075D01*
X55641Y48118D01*
X55565Y48133D01*
D02*
G37*
G36*
X75200Y47873D02*
X75116Y47862D01*
X75039Y47830D01*
X74972Y47778D01*
X74920Y47711D01*
X74888Y47634D01*
X74877Y47550D01*
X74888Y47466D01*
X74920Y47389D01*
X74972Y47322D01*
X75039Y47270D01*
X75116Y47238D01*
X75200Y47227D01*
X75284Y47238D01*
X75361Y47270D01*
X75428Y47322D01*
X75480Y47389D01*
X75512Y47466D01*
X75523Y47550D01*
X75512Y47634D01*
X75480Y47711D01*
X75428Y47778D01*
X75361Y47830D01*
X75284Y47862D01*
X75200Y47873D01*
D02*
G37*
G36*
X57600Y47799D02*
X57524Y47784D01*
X57459Y47741D01*
X57416Y47676D01*
X57401Y47600D01*
X57416Y47524D01*
X57459Y47459D01*
X57524Y47416D01*
X57600Y47401D01*
X57676Y47416D01*
X57741Y47459D01*
X57784Y47524D01*
X57799Y47600D01*
X57784Y47676D01*
X57741Y47741D01*
X57676Y47784D01*
X57600Y47799D01*
D02*
G37*
G36*
X31400Y48499D02*
X31324Y48484D01*
X31259Y48441D01*
X31216Y48376D01*
X31201Y48300D01*
X31216Y48224D01*
X31259Y48159D01*
X31324Y48116D01*
X31375Y48106D01*
X31384Y48057D01*
X31359Y48041D01*
X31316Y47976D01*
X31301Y47900D01*
X31316Y47824D01*
X31359Y47759D01*
X31424Y47716D01*
X31500Y47701D01*
X31576Y47716D01*
X31641Y47759D01*
X31684Y47824D01*
X31699Y47900D01*
X31684Y47976D01*
X31641Y48041D01*
X31576Y48084D01*
X31525Y48094D01*
X31516Y48143D01*
X31541Y48159D01*
X31584Y48224D01*
X31599Y48300D01*
X31584Y48376D01*
X31541Y48441D01*
X31476Y48484D01*
X31400Y48499D01*
D02*
G37*
G36*
X32950Y48599D02*
X32874Y48584D01*
X32809Y48541D01*
X32766Y48476D01*
X32751Y48400D01*
X32766Y48324D01*
X32809Y48259D01*
X32874Y48216D01*
X32950Y48201D01*
X33026Y48216D01*
X33091Y48259D01*
X33134Y48324D01*
X33149Y48400D01*
X33134Y48476D01*
X33091Y48541D01*
X33026Y48584D01*
X32950Y48599D01*
D02*
G37*
G36*
X40400D02*
X40324Y48584D01*
X40259Y48541D01*
X40216Y48476D01*
X40201Y48400D01*
X40216Y48324D01*
X40259Y48259D01*
X40324Y48216D01*
X40400Y48201D01*
X40476Y48216D01*
X40541Y48259D01*
X40584Y48324D01*
X40599Y48400D01*
X40584Y48476D01*
X40541Y48541D01*
X40476Y48584D01*
X40400Y48599D01*
D02*
G37*
G36*
X60100D02*
X60024Y48584D01*
X59959Y48541D01*
X59916Y48476D01*
X59901Y48400D01*
X59916Y48324D01*
X59959Y48259D01*
X60024Y48216D01*
X60100Y48201D01*
X60176Y48216D01*
X60241Y48259D01*
X60284Y48324D01*
X60299Y48400D01*
X60284Y48476D01*
X60241Y48541D01*
X60176Y48584D01*
X60100Y48599D01*
D02*
G37*
G36*
X41900Y48199D02*
X41824Y48184D01*
X41759Y48141D01*
X41716Y48076D01*
X41701Y48000D01*
X41716Y47924D01*
X41759Y47859D01*
X41824Y47816D01*
X41900Y47801D01*
X41976Y47816D01*
X42041Y47859D01*
X42084Y47924D01*
X42099Y48000D01*
X42084Y48076D01*
X42041Y48141D01*
X41976Y48184D01*
X41900Y48199D01*
D02*
G37*
G36*
X62135Y48315D02*
X62039Y48296D01*
X61958Y48242D01*
X61904Y48161D01*
X61885Y48065D01*
X61904Y47970D01*
X61958Y47889D01*
X62039Y47835D01*
X62135Y47816D01*
X62230Y47835D01*
X62311Y47889D01*
X62365Y47970D01*
X62384Y48065D01*
X62365Y48161D01*
X62311Y48242D01*
X62230Y48296D01*
X62135Y48315D01*
D02*
G37*
G36*
X44100Y48499D02*
X44024Y48484D01*
X43959Y48441D01*
X43916Y48376D01*
X43901Y48300D01*
X43916Y48224D01*
X43959Y48159D01*
X44024Y48116D01*
X44100Y48101D01*
X44176Y48116D01*
X44241Y48159D01*
X44284Y48224D01*
X44299Y48300D01*
X44284Y48376D01*
X44241Y48441D01*
X44176Y48484D01*
X44100Y48499D01*
D02*
G37*
%LPD*%
D38*
X46700Y35750D02*
X46810Y35860D01*
D40*
X29600Y40500D02*
X29977Y40877D01*
X30100Y37600D02*
X32900Y40400D01*
X33700Y40900D02*
X34000Y40600D01*
Y39300D02*
Y40600D01*
X32900Y40400D02*
Y40900D01*
X33200Y41200D01*
X39500Y48800D02*
X44500D01*
X48100Y52400D01*
X57900D01*
X64435Y58935D01*
X54400Y52900D02*
X60435Y58935D01*
X47500Y52900D02*
X54400D01*
X43800Y49200D02*
X47500Y52900D01*
X38700Y49200D02*
X43800D01*
X37700D02*
Y49500D01*
X38200Y50000D01*
X43100D01*
X45000Y51900D01*
X46000D01*
X47700Y53600D01*
X51400D01*
X56700Y58900D01*
X47100Y53600D02*
X52435Y58935D01*
X43500Y53600D02*
X47100D01*
X41500Y51600D02*
X43500Y53600D01*
X40300Y51600D02*
X41500D01*
X39000Y50300D02*
X40300Y51600D01*
X37700Y50300D02*
X39000D01*
X26500Y51100D02*
Y55100D01*
X37500Y41900D02*
Y43100D01*
X19500Y50000D02*
X27000D01*
X19500Y49000D02*
X27400D01*
X31000Y45400D01*
X27000Y50000D02*
X31100Y45900D01*
X34700D02*
X37500Y43100D01*
X31500Y45400D02*
X32000Y45900D01*
X31000Y45400D02*
X31500D01*
X31375Y46525D02*
X31600Y46300D01*
X26500Y51100D02*
X31075Y46525D01*
X31375D01*
X31100Y45900D02*
X31600D01*
X31900Y46200D01*
X32400D01*
X32700Y45900D01*
X34700D01*
X23500Y48500D02*
X29300Y42700D01*
X36100D01*
X38100Y40700D01*
X38600D01*
X18950Y48850D02*
X19300Y48500D01*
X18950Y48850D02*
Y49550D01*
X18500Y50000D02*
X18950Y49550D01*
X19300Y48500D02*
X23500D01*
X29850Y31600D02*
X33150D01*
X34600Y32950D02*
Y33050D01*
X33150Y31600D02*
X34600Y33050D01*
X29800Y34250D02*
X30100Y34550D01*
Y37600D01*
X27500Y34750D02*
X29600Y36850D01*
Y40500D01*
X21800Y31700D02*
X26650D01*
X19500Y34000D02*
X21800Y31700D01*
X32850Y32000D02*
X33800Y32950D01*
X32000Y32400D02*
X32500Y32900D01*
X30800Y32400D02*
X32000D01*
X28050Y33100D02*
X28850D01*
X26650Y31700D02*
X28050Y33100D01*
X27850Y31400D02*
X28350D01*
X28950Y32000D01*
X32850D01*
X18500Y34000D02*
X21550Y30950D01*
X26300D01*
X31450Y34700D02*
Y36750D01*
X34000Y39300D01*
X82550Y37640D02*
Y37040D01*
X82950D01*
X83150D02*
Y37440D01*
X83350Y37640D01*
X83550Y37440D01*
Y37040D01*
Y37340D01*
X83150D01*
X83750Y37640D02*
Y37540D01*
X83950Y37340D01*
X84149Y37540D01*
Y37640D01*
X83950Y37340D02*
Y37040D01*
X84749Y37640D02*
X84349D01*
Y37040D01*
X84749D01*
X84349Y37340D02*
X84549D01*
X84949Y37040D02*
Y37640D01*
X85249D01*
X85349Y37540D01*
Y37340D01*
X85249Y37240D01*
X84949D01*
X85149D02*
X85349Y37040D01*
X86149Y37540D02*
X86249Y37640D01*
X86449D01*
X86549Y37540D01*
Y37440D01*
X86449Y37340D01*
X86349D01*
X86449D01*
X86549Y37240D01*
Y37140D01*
X86449Y37040D01*
X86249D01*
X86149Y37140D01*
D41*
X18500Y35000D02*
X19000Y35500D01*
X26750D02*
X27500Y34750D01*
X19000Y35500D02*
X26750D01*
D42*
X28785Y33565D02*
X29119Y33900D01*
X32000D01*
X33000Y32900D01*
D47*
X19500Y34000D02*
D03*
X18500Y35000D02*
D03*
Y50000D02*
D03*
Y34000D02*
D03*
X19500Y49000D02*
D03*
Y50000D02*
D03*
D49*
X62400Y45500D02*
D03*
Y47300D02*
D03*
Y48800D02*
D03*
Y50300D02*
D03*
X43600Y34600D02*
D03*
X43500Y36100D02*
D03*
X56880Y32480D02*
D03*
X55489Y32249D02*
D03*
X46810Y35860D02*
D03*
D50*
X58700Y50900D02*
D03*
Y49900D02*
D03*
Y48900D02*
D03*
Y47900D02*
D03*
Y46900D02*
D03*
Y45900D02*
D03*
Y44900D02*
D03*
Y43900D02*
D03*
X41900Y47400D02*
D03*
X41927Y44027D02*
D03*
X31370Y43830D02*
D03*
X31373Y47373D02*
D03*
X55400Y42000D02*
D03*
X56595Y42805D02*
D03*
X37500Y41900D02*
D03*
X29977Y40877D02*
D03*
X33700Y40900D02*
D03*
X33200Y41200D02*
D03*
X39500Y48800D02*
D03*
X64435Y58935D02*
D03*
X60435D02*
D03*
X38700Y49200D02*
D03*
X37700D02*
D03*
X56700Y58900D02*
D03*
X52435Y58935D02*
D03*
X37700Y50300D02*
D03*
X26500Y55100D02*
D03*
X32000Y45900D02*
D03*
X31600Y46300D02*
D03*
X38600Y40700D02*
D03*
X29850Y31600D02*
D03*
X34600Y32950D02*
D03*
X33800D02*
D03*
X33000Y32900D02*
D03*
X29800Y34250D02*
D03*
X32500Y32900D02*
D03*
X28785Y33565D02*
D03*
X27500Y34750D02*
D03*
X30800Y32400D02*
D03*
X28850Y33100D02*
D03*
X27850Y31400D02*
D03*
X26300Y30950D02*
D03*
X31450Y34700D02*
D03*
M02*
