%FSLAX24Y24*%
%MOIN*%
G70*
G01*
G75*
G04 Layer_Physical_Order=4*
G04 Layer_Color=32768*
%ADD10R,0.0394X0.0433*%
%ADD11R,0.0433X0.0394*%
%ADD12R,0.1024X0.0945*%
%ADD13R,0.0945X0.1024*%
%ADD14C,0.0400*%
%ADD15R,0.0728X0.0118*%
%ADD16R,0.0709X0.0157*%
%ADD17R,0.0827X0.1614*%
%ADD18R,0.0787X0.0551*%
%ADD19O,0.0700X0.0300*%
%ADD20R,0.0700X0.0300*%
%ADD21R,0.0122X0.0709*%
%ADD22R,0.0709X0.0122*%
%ADD23O,0.0122X0.0709*%
%ADD24R,0.0157X0.0709*%
%ADD25R,0.0709X0.0157*%
%ADD26R,0.0118X0.0728*%
%ADD27R,0.0728X0.0118*%
%ADD28R,0.0630X0.0512*%
%ADD29R,0.0630X0.0709*%
%ADD30R,0.0709X0.0630*%
%ADD31R,0.1000X0.1400*%
%ADD32R,0.0300X0.0600*%
%ADD33R,0.1400X0.1000*%
%ADD34R,0.0600X0.0300*%
%ADD35R,0.0276X0.0354*%
%ADD36R,0.0354X0.0276*%
%ADD37R,0.0394X0.1083*%
%ADD38C,0.0100*%
%ADD39C,0.0200*%
%ADD40C,0.0080*%
%ADD41C,0.0160*%
%ADD42C,0.0120*%
%ADD43C,0.0600*%
%ADD44C,0.1400*%
%ADD45C,0.0750*%
%ADD46C,0.0500*%
%ADD47C,0.1600*%
%ADD48C,0.0433*%
%ADD49C,0.0350*%
%ADD50C,0.0250*%
%ADD51C,0.0300*%
G36*
X45900Y42238D02*
X45852Y42223D01*
X45841Y42241D01*
X45776Y42284D01*
X45700Y42299D01*
X45624Y42284D01*
X45559Y42241D01*
X45516Y42176D01*
X45501Y42100D01*
X45516Y42024D01*
X45559Y41959D01*
X45624Y41916D01*
X45700Y41901D01*
X45776Y41916D01*
X45841Y41959D01*
X45852Y41977D01*
X45900Y41962D01*
Y41218D01*
X45861Y41187D01*
X45800Y41199D01*
X45724Y41184D01*
X45659Y41141D01*
X45616Y41076D01*
X45601Y41000D01*
X45616Y40924D01*
X45659Y40859D01*
X45724Y40816D01*
X45800Y40801D01*
X45861Y40813D01*
X45900Y40782D01*
Y36687D01*
X45861Y36656D01*
X45773Y36673D01*
X45678Y36654D01*
X45597Y36600D01*
X45543Y36519D01*
X45524Y36423D01*
X45543Y36328D01*
X45597Y36247D01*
X45678Y36193D01*
X45773Y36174D01*
X45861Y36191D01*
X45900Y36159D01*
Y31000D01*
X44907D01*
X44875Y31039D01*
X44881Y31068D01*
X44862Y31164D01*
X44808Y31245D01*
X44727Y31299D01*
X44632Y31318D01*
X44536Y31299D01*
X44455Y31245D01*
X44401Y31164D01*
X44382Y31068D01*
X44388Y31039D01*
X44356Y31000D01*
X39367D01*
X39343Y31044D01*
X39362Y31073D01*
X39381Y31168D01*
X39362Y31264D01*
X39308Y31345D01*
X39227Y31399D01*
X39132Y31418D01*
X39036Y31399D01*
X38955Y31345D01*
X38901Y31264D01*
X38882Y31168D01*
X38901Y31073D01*
X38920Y31044D01*
X38896Y31000D01*
X36221D01*
X36216Y31050D01*
X36238Y31054D01*
X36303Y31097D01*
X36346Y31162D01*
X36361Y31238D01*
X36346Y31314D01*
X36303Y31378D01*
X36238Y31421D01*
X36162Y31437D01*
X36086Y31421D01*
X36022Y31378D01*
X35979Y31314D01*
X35963Y31238D01*
X35979Y31162D01*
X36022Y31097D01*
X36086Y31054D01*
X36108Y31050D01*
X36103Y31000D01*
X35434D01*
X35429Y31050D01*
X35451Y31054D01*
X35515Y31097D01*
X35558Y31162D01*
X35574Y31238D01*
X35558Y31314D01*
X35515Y31378D01*
X35451Y31421D01*
X35375Y31437D01*
X35299Y31421D01*
X35234Y31378D01*
X35191Y31314D01*
X35176Y31238D01*
X35191Y31162D01*
X35234Y31097D01*
X35299Y31054D01*
X35321Y31050D01*
X35316Y31000D01*
X34647D01*
X34642Y31050D01*
X34663Y31054D01*
X34728Y31097D01*
X34771Y31162D01*
X34786Y31238D01*
X34771Y31314D01*
X34728Y31378D01*
X34663Y31421D01*
X34587Y31437D01*
X34511Y31421D01*
X34447Y31378D01*
X34404Y31314D01*
X34389Y31238D01*
X34404Y31162D01*
X34447Y31097D01*
X34511Y31054D01*
X34533Y31050D01*
X34528Y31000D01*
X33859D01*
X33854Y31050D01*
X33876Y31054D01*
X33941Y31097D01*
X33984Y31162D01*
X33999Y31238D01*
X33984Y31314D01*
X33941Y31378D01*
X33876Y31421D01*
X33800Y31437D01*
X33724Y31421D01*
X33659Y31378D01*
X33616Y31314D01*
X33601Y31238D01*
X33616Y31162D01*
X33659Y31097D01*
X33724Y31054D01*
X33746Y31050D01*
X33741Y31000D01*
X33072D01*
X33067Y31050D01*
X33089Y31054D01*
X33153Y31097D01*
X33196Y31162D01*
X33211Y31238D01*
X33196Y31314D01*
X33153Y31378D01*
X33089Y31421D01*
X33013Y31437D01*
X32937Y31421D01*
X32872Y31378D01*
X32829Y31314D01*
X32814Y31238D01*
X32829Y31162D01*
X32872Y31097D01*
X32937Y31054D01*
X32958Y31050D01*
X32953Y31000D01*
X32284D01*
X32279Y31050D01*
X32301Y31054D01*
X32366Y31097D01*
X32409Y31162D01*
X32424Y31238D01*
X32409Y31314D01*
X32366Y31378D01*
X32301Y31421D01*
X32225Y31437D01*
X32149Y31421D01*
X32085Y31378D01*
X32042Y31314D01*
X32026Y31238D01*
X32042Y31162D01*
X32085Y31097D01*
X32149Y31054D01*
X32171Y31050D01*
X32166Y31000D01*
X31497D01*
X31492Y31050D01*
X31514Y31054D01*
X31578Y31097D01*
X31621Y31162D01*
X31637Y31238D01*
X31621Y31314D01*
X31578Y31378D01*
X31514Y31421D01*
X31438Y31437D01*
X31362Y31421D01*
X31297Y31378D01*
X31254Y31314D01*
X31239Y31238D01*
X31254Y31162D01*
X31297Y31097D01*
X31362Y31054D01*
X31384Y31050D01*
X31379Y31000D01*
X30638D01*
X30619Y31046D01*
X31537Y31963D01*
X31563Y32003D01*
X31572Y32050D01*
Y32689D01*
X31620Y32705D01*
X31627Y32696D01*
X31687Y32650D01*
X31757Y32621D01*
X31832Y32611D01*
X31906Y32621D01*
X31976Y32650D01*
X32036Y32696D01*
X32082Y32755D01*
X32111Y32825D01*
X32120Y32900D01*
X32111Y32975D01*
X32082Y33045D01*
X32036Y33104D01*
X31976Y33150D01*
X31906Y33179D01*
X31832Y33189D01*
X31757Y33179D01*
X31687Y33150D01*
X31627Y33104D01*
X31620Y33095D01*
X31572Y33111D01*
Y34547D01*
X31591Y34559D01*
X31634Y34624D01*
X31649Y34700D01*
X31634Y34776D01*
X31591Y34841D01*
X31526Y34884D01*
X31450Y34899D01*
X31374Y34884D01*
X31309Y34841D01*
X31266Y34776D01*
X31251Y34700D01*
X31266Y34624D01*
X31309Y34559D01*
X31328Y34547D01*
Y32101D01*
X30372Y31145D01*
X30350Y31149D01*
X30274Y31134D01*
X30209Y31091D01*
X30166Y31026D01*
X30161Y31000D01*
X26489D01*
X26484Y31026D01*
X26441Y31091D01*
X26376Y31134D01*
X26300Y31149D01*
X26224Y31134D01*
X26159Y31091D01*
X26116Y31026D01*
X26111Y31000D01*
X25000D01*
Y40021D01*
X25039Y40052D01*
X25050Y40050D01*
X25146Y40069D01*
X25227Y40123D01*
X25281Y40204D01*
X25300Y40300D01*
X25281Y40396D01*
X25227Y40477D01*
X25146Y40531D01*
X25050Y40550D01*
X25039Y40548D01*
X25000Y40579D01*
Y51900D01*
X45900D01*
Y42238D01*
D02*
G37*
G36*
X58000Y43000D02*
Y37600D01*
X46000D01*
Y49582D01*
X46039Y49613D01*
X46100Y49601D01*
X46176Y49616D01*
X46241Y49659D01*
X46284Y49724D01*
X46299Y49800D01*
X46284Y49876D01*
X46241Y49941D01*
X46176Y49984D01*
X46100Y49999D01*
X46039Y49987D01*
X46000Y50018D01*
Y52000D01*
X40000D01*
Y56454D01*
X40044Y56478D01*
X40099Y56441D01*
X40175Y56426D01*
X40251Y56441D01*
X40316Y56484D01*
X40359Y56549D01*
X40374Y56625D01*
X40359Y56701D01*
X40316Y56765D01*
X40251Y56808D01*
X40175Y56824D01*
X40099Y56808D01*
X40044Y56772D01*
X40000Y56795D01*
Y58582D01*
X40039Y58613D01*
X40100Y58601D01*
X40176Y58616D01*
X40241Y58659D01*
X40284Y58724D01*
X40299Y58800D01*
X40284Y58876D01*
X40241Y58941D01*
X40176Y58984D01*
X40100Y58999D01*
X40039Y58987D01*
X40000Y59018D01*
Y60382D01*
X40039Y60413D01*
X40100Y60401D01*
X40176Y60416D01*
X40241Y60459D01*
X40284Y60524D01*
X40299Y60600D01*
X40284Y60676D01*
X40241Y60741D01*
X40176Y60784D01*
X40100Y60799D01*
X40039Y60787D01*
X40000Y60818D01*
Y62000D01*
X58000D01*
Y43000D01*
D02*
G37*
%LPC*%
G36*
X30200Y42199D02*
X30124Y42184D01*
X30059Y42141D01*
X30016Y42076D01*
X30001Y42000D01*
X30016Y41924D01*
X30059Y41859D01*
X30124Y41816D01*
X30200Y41801D01*
X30276Y41816D01*
X30341Y41859D01*
X30384Y41924D01*
X30399Y42000D01*
X30384Y42076D01*
X30341Y42141D01*
X30276Y42184D01*
X30200Y42199D01*
D02*
G37*
G36*
X33000D02*
X32924Y42184D01*
X32859Y42141D01*
X32816Y42076D01*
X32801Y42000D01*
X32816Y41924D01*
X32859Y41859D01*
X32924Y41816D01*
X33000Y41801D01*
X33076Y41816D01*
X33141Y41859D01*
X33184Y41924D01*
X33199Y42000D01*
X33184Y42076D01*
X33141Y42141D01*
X33076Y42184D01*
X33000Y42199D01*
D02*
G37*
G36*
X40450D02*
X40374Y42184D01*
X40309Y42141D01*
X40266Y42076D01*
X40251Y42000D01*
X40266Y41924D01*
X40309Y41859D01*
X40374Y41816D01*
X40450Y41801D01*
X40526Y41816D01*
X40591Y41859D01*
X40634Y41924D01*
X40649Y42000D01*
X40634Y42076D01*
X40591Y42141D01*
X40526Y42184D01*
X40450Y42199D01*
D02*
G37*
G36*
X34000Y41699D02*
X33924Y41684D01*
X33859Y41641D01*
X33816Y41576D01*
X33801Y41500D01*
X33816Y41424D01*
X33859Y41359D01*
X33924Y41316D01*
X34000Y41301D01*
X34076Y41316D01*
X34141Y41359D01*
X34184Y41424D01*
X34199Y41500D01*
X34184Y41576D01*
X34141Y41641D01*
X34076Y41684D01*
X34000Y41699D01*
D02*
G37*
G36*
X39200Y41999D02*
X39124Y41984D01*
X39059Y41941D01*
X39016Y41876D01*
X39001Y41800D01*
X39016Y41724D01*
X39059Y41659D01*
X39124Y41616D01*
X39200Y41601D01*
X39276Y41616D01*
X39341Y41659D01*
X39384Y41724D01*
X39399Y41800D01*
X39384Y41876D01*
X39341Y41941D01*
X39276Y41984D01*
X39200Y41999D01*
D02*
G37*
G36*
X37500Y42099D02*
X37424Y42084D01*
X37359Y42041D01*
X37316Y41976D01*
X37301Y41900D01*
X37316Y41824D01*
X37359Y41759D01*
X37424Y41716D01*
X37500Y41701D01*
X37576Y41716D01*
X37641Y41759D01*
X37684Y41824D01*
X37699Y41900D01*
X37684Y41976D01*
X37641Y42041D01*
X37576Y42084D01*
X37500Y42099D01*
D02*
G37*
G36*
X31342Y42257D02*
X31266Y42242D01*
X31201Y42199D01*
X31158Y42134D01*
X31143Y42058D01*
X31158Y41982D01*
X31201Y41918D01*
X31266Y41875D01*
X31342Y41859D01*
X31418Y41875D01*
X31482Y41918D01*
X31525Y41982D01*
X31541Y42058D01*
X31525Y42134D01*
X31482Y42199D01*
X31418Y42242D01*
X31342Y42257D01*
D02*
G37*
G36*
X42042D02*
X41966Y42242D01*
X41901Y42199D01*
X41858Y42134D01*
X41843Y42058D01*
X41858Y41982D01*
X41901Y41918D01*
X41966Y41875D01*
X42042Y41859D01*
X42118Y41875D01*
X42182Y41918D01*
X42225Y41982D01*
X42241Y42058D01*
X42225Y42134D01*
X42182Y42199D01*
X42118Y42242D01*
X42042Y42257D01*
D02*
G37*
G36*
X51700Y42299D02*
X51624Y42284D01*
X51559Y42241D01*
X51516Y42176D01*
X51501Y42100D01*
X51516Y42024D01*
X51559Y41959D01*
X51624Y41916D01*
X51700Y41901D01*
X51776Y41916D01*
X51841Y41959D01*
X51884Y42024D01*
X51899Y42100D01*
X51884Y42176D01*
X51841Y42241D01*
X51776Y42284D01*
X51700Y42299D01*
D02*
G37*
G36*
X43200Y42199D02*
X43124Y42184D01*
X43059Y42141D01*
X43016Y42076D01*
X43001Y42000D01*
X43016Y41924D01*
X43059Y41859D01*
X43124Y41816D01*
X43200Y41801D01*
X43276Y41816D01*
X43341Y41859D01*
X43384Y41924D01*
X43399Y42000D01*
X43384Y42076D01*
X43341Y42141D01*
X43276Y42184D01*
X43200Y42199D01*
D02*
G37*
G36*
X43900D02*
X43824Y42184D01*
X43759Y42141D01*
X43716Y42076D01*
X43701Y42000D01*
X43716Y41924D01*
X43759Y41859D01*
X43824Y41816D01*
X43900Y41801D01*
X43976Y41816D01*
X44041Y41859D01*
X44084Y41924D01*
X44099Y42000D01*
X44084Y42076D01*
X44041Y42141D01*
X43976Y42184D01*
X43900Y42199D01*
D02*
G37*
G36*
X55400D02*
X55324Y42184D01*
X55259Y42141D01*
X55216Y42076D01*
X55201Y42000D01*
X55216Y41924D01*
X55259Y41859D01*
X55324Y41816D01*
X55400Y41801D01*
X55476Y41816D01*
X55541Y41859D01*
X55584Y41924D01*
X55599Y42000D01*
X55584Y42076D01*
X55541Y42141D01*
X55476Y42184D01*
X55400Y42199D01*
D02*
G37*
G36*
X46600Y41299D02*
X46524Y41284D01*
X46459Y41241D01*
X46416Y41176D01*
X46401Y41100D01*
X46416Y41024D01*
X46459Y40959D01*
X46524Y40916D01*
X46600Y40901D01*
X46676Y40916D01*
X46676Y40917D01*
X46701Y40900D01*
X46716Y40824D01*
X46759Y40759D01*
X46824Y40716D01*
X46900Y40701D01*
X46976Y40716D01*
X47041Y40759D01*
X47084Y40824D01*
X47099Y40900D01*
X47084Y40976D01*
X47041Y41041D01*
X46976Y41084D01*
X46900Y41099D01*
X46824Y41084D01*
X46824Y41083D01*
X46799Y41100D01*
X46784Y41176D01*
X46741Y41241D01*
X46676Y41284D01*
X46600Y41299D01*
D02*
G37*
G36*
X51100Y41099D02*
X51024Y41084D01*
X50959Y41041D01*
X50916Y40976D01*
X50901Y40900D01*
X50916Y40824D01*
X50959Y40759D01*
X51024Y40716D01*
X51100Y40701D01*
X51176Y40716D01*
X51241Y40759D01*
X51284Y40824D01*
X51299Y40900D01*
X51284Y40976D01*
X51241Y41041D01*
X51176Y41084D01*
X51100Y41099D01*
D02*
G37*
G36*
X36500Y40999D02*
X36424Y40984D01*
X36359Y40941D01*
X36316Y40876D01*
X36301Y40800D01*
X36232Y40786D01*
X36208Y40791D01*
X36132Y40776D01*
X36067Y40733D01*
X36034Y40683D01*
X35984D01*
X35955Y40726D01*
X35890Y40770D01*
X35814Y40785D01*
X35738Y40770D01*
X35674Y40726D01*
X35642Y40679D01*
X35593Y40688D01*
X35584Y40733D01*
X35541Y40798D01*
X35476Y40841D01*
X35400Y40856D01*
X35324Y40841D01*
X35259Y40798D01*
X35216Y40733D01*
X35201Y40657D01*
X35216Y40581D01*
X35259Y40517D01*
X35324Y40474D01*
X35400Y40458D01*
X35476Y40474D01*
X35541Y40517D01*
X35573Y40564D01*
X35622Y40555D01*
X35630Y40510D01*
X35674Y40445D01*
X35738Y40402D01*
X35814Y40387D01*
X35890Y40402D01*
X35955Y40445D01*
X35988Y40495D01*
X36038D01*
X36067Y40452D01*
X36132Y40408D01*
X36208Y40393D01*
X36284Y40408D01*
X36348Y40452D01*
X36392Y40516D01*
X36407Y40592D01*
X36476Y40606D01*
X36500Y40601D01*
X36576Y40616D01*
X36641Y40659D01*
X36684Y40724D01*
X36699Y40800D01*
X36684Y40876D01*
X36641Y40941D01*
X36576Y40984D01*
X36500Y40999D01*
D02*
G37*
G36*
X37500Y40699D02*
X37424Y40684D01*
X37359Y40641D01*
X37316Y40576D01*
X37301Y40500D01*
X37316Y40424D01*
X37359Y40359D01*
X37424Y40316D01*
X37500Y40301D01*
X37576Y40316D01*
X37641Y40359D01*
X37684Y40424D01*
X37699Y40500D01*
X37684Y40576D01*
X37641Y40641D01*
X37576Y40684D01*
X37500Y40699D01*
D02*
G37*
G36*
X40600D02*
X40524Y40684D01*
X40459Y40641D01*
X40416Y40576D01*
X40401Y40500D01*
X40416Y40424D01*
X40459Y40359D01*
X40524Y40316D01*
X40600Y40301D01*
X40676Y40316D01*
X40741Y40359D01*
X40784Y40424D01*
X40799Y40500D01*
X40784Y40576D01*
X40741Y40641D01*
X40676Y40684D01*
X40600Y40699D01*
D02*
G37*
G36*
X29977Y41076D02*
X29901Y41061D01*
X29837Y41018D01*
X29793Y40953D01*
X29778Y40877D01*
X29793Y40801D01*
X29837Y40737D01*
X29901Y40693D01*
X29977Y40678D01*
X30053Y40693D01*
X30118Y40737D01*
X30161Y40801D01*
X30176Y40877D01*
X30161Y40953D01*
X30118Y41018D01*
X30053Y41061D01*
X29977Y41076D01*
D02*
G37*
G36*
X41900Y41199D02*
X41824Y41184D01*
X41759Y41141D01*
X41716Y41076D01*
X41701Y41000D01*
X41716Y40924D01*
X41759Y40859D01*
X41824Y40816D01*
X41900Y40801D01*
X41976Y40816D01*
X42041Y40859D01*
X42084Y40924D01*
X42099Y41000D01*
X42084Y41076D01*
X42041Y41141D01*
X41976Y41184D01*
X41900Y41199D01*
D02*
G37*
G36*
X54600Y41499D02*
X54524Y41484D01*
X54459Y41441D01*
X54416Y41376D01*
X54401Y41300D01*
X54416Y41224D01*
X54459Y41159D01*
X54524Y41116D01*
X54600Y41101D01*
X54676Y41116D01*
X54741Y41159D01*
X54784Y41224D01*
X54799Y41300D01*
X54784Y41376D01*
X54741Y41441D01*
X54676Y41484D01*
X54600Y41499D01*
D02*
G37*
G36*
X36600Y41599D02*
X36524Y41584D01*
X36459Y41541D01*
X36416Y41476D01*
X36401Y41400D01*
X36416Y41324D01*
X36459Y41259D01*
X36524Y41216D01*
X36600Y41201D01*
X36676Y41216D01*
X36741Y41259D01*
X36766Y41297D01*
X36772Y41299D01*
X36817D01*
X36855Y41242D01*
X36919Y41199D01*
X36995Y41184D01*
X37071Y41199D01*
X37136Y41242D01*
X37179Y41307D01*
X37194Y41383D01*
X37179Y41459D01*
X37136Y41523D01*
X37071Y41566D01*
X36995Y41581D01*
X36919Y41566D01*
X36855Y41523D01*
X36829Y41485D01*
X36823Y41484D01*
X36778D01*
X36741Y41541D01*
X36676Y41584D01*
X36600Y41599D01*
D02*
G37*
G36*
X33200Y41399D02*
X33124Y41384D01*
X33059Y41341D01*
X33025Y41289D01*
X32975D01*
X32941Y41341D01*
X32876Y41384D01*
X32800Y41399D01*
X32724Y41384D01*
X32659Y41341D01*
X32616Y41276D01*
X32601Y41200D01*
X32616Y41124D01*
X32659Y41059D01*
X32724Y41016D01*
X32800Y41001D01*
X32876Y41016D01*
X32941Y41059D01*
X32975Y41111D01*
X33025D01*
X33059Y41059D01*
X33124Y41016D01*
X33175Y41006D01*
X33184Y40957D01*
X33159Y40941D01*
X33116Y40876D01*
X33101Y40800D01*
X33116Y40724D01*
X33159Y40659D01*
X33224Y40616D01*
X33300Y40601D01*
X33376Y40616D01*
X33441Y40659D01*
X33484Y40724D01*
X33494Y40775D01*
X33543Y40784D01*
X33559Y40759D01*
X33611Y40725D01*
Y40675D01*
X33559Y40641D01*
X33516Y40576D01*
X33501Y40500D01*
X33516Y40424D01*
X33559Y40359D01*
X33624Y40316D01*
X33700Y40301D01*
X33776Y40316D01*
X33841Y40359D01*
X33884Y40424D01*
X33899Y40500D01*
X33884Y40576D01*
X33841Y40641D01*
X33789Y40675D01*
Y40725D01*
X33841Y40759D01*
X33884Y40824D01*
X33899Y40900D01*
X33884Y40976D01*
X33841Y41041D01*
X33776Y41084D01*
X33700Y41099D01*
X33624Y41084D01*
X33559Y41041D01*
X33516Y40976D01*
X33506Y40925D01*
X33457Y40916D01*
X33441Y40941D01*
X33376Y40984D01*
X33325Y40994D01*
X33316Y41043D01*
X33341Y41059D01*
X33384Y41124D01*
X33399Y41200D01*
X33384Y41276D01*
X33341Y41341D01*
X33276Y41384D01*
X33200Y41399D01*
D02*
G37*
G36*
X31600Y41299D02*
X31524Y41284D01*
X31459Y41241D01*
X31416Y41176D01*
X31401Y41100D01*
X31405Y41078D01*
X31013Y40687D01*
X30987Y40647D01*
X30978Y40600D01*
Y35051D01*
X30113Y34187D01*
X30087Y34147D01*
X30078Y34100D01*
Y33487D01*
X30059Y33475D01*
X30016Y33411D01*
X30001Y33335D01*
X30016Y33259D01*
X30059Y33194D01*
X30124Y33151D01*
X30200Y33136D01*
X30276Y33151D01*
X30341Y33194D01*
X30384Y33259D01*
X30399Y33335D01*
X30384Y33411D01*
X30341Y33475D01*
X30322Y33487D01*
Y34049D01*
X31187Y34913D01*
X31213Y34953D01*
X31222Y35000D01*
Y40031D01*
X31266Y40055D01*
X31324Y40016D01*
X31400Y40001D01*
X31476Y40016D01*
X31541Y40059D01*
X31584Y40124D01*
X31599Y40200D01*
X31584Y40276D01*
X31541Y40341D01*
X31476Y40384D01*
X31400Y40399D01*
X31324Y40384D01*
X31266Y40345D01*
X31222Y40369D01*
Y40549D01*
X31578Y40905D01*
X31600Y40901D01*
X31676Y40916D01*
X31741Y40959D01*
X31784Y41024D01*
X31799Y41100D01*
X31784Y41176D01*
X31741Y41241D01*
X31676Y41284D01*
X31600Y41299D01*
D02*
G37*
G36*
X57665Y41464D02*
X57589Y41449D01*
X57525Y41406D01*
X57482Y41341D01*
X57467Y41265D01*
X57482Y41189D01*
X57525Y41125D01*
X57589Y41082D01*
X57665Y41067D01*
X57741Y41082D01*
X57806Y41125D01*
X57849Y41189D01*
X57864Y41265D01*
X57849Y41341D01*
X57806Y41406D01*
X57741Y41449D01*
X57665Y41464D01*
D02*
G37*
G36*
X43900Y41499D02*
X43824Y41484D01*
X43759Y41441D01*
X43716Y41376D01*
X43701Y41300D01*
X43716Y41224D01*
X43759Y41159D01*
X43824Y41116D01*
X43900Y41101D01*
X43976Y41116D01*
X44041Y41159D01*
X44084Y41224D01*
X44099Y41300D01*
X44084Y41376D01*
X44041Y41441D01*
X43976Y41484D01*
X43900Y41499D01*
D02*
G37*
G36*
X49604Y44695D02*
X49528Y44680D01*
X49463Y44637D01*
X49420Y44572D01*
X49405Y44496D01*
X49420Y44420D01*
X49463Y44355D01*
X49528Y44312D01*
X49604Y44297D01*
X49680Y44312D01*
X49745Y44355D01*
X49788Y44420D01*
X49803Y44496D01*
X49788Y44572D01*
X49745Y44637D01*
X49680Y44680D01*
X49604Y44695D01*
D02*
G37*
G36*
X51200Y44699D02*
X51124Y44684D01*
X51059Y44641D01*
X51016Y44576D01*
X51001Y44500D01*
X51016Y44424D01*
X51059Y44359D01*
X51124Y44316D01*
X51200Y44301D01*
X51276Y44316D01*
X51341Y44359D01*
X51384Y44424D01*
X51399Y44500D01*
X51384Y44576D01*
X51341Y44641D01*
X51276Y44684D01*
X51200Y44699D01*
D02*
G37*
G36*
X53738Y44737D02*
X53662Y44721D01*
X53597Y44678D01*
X53554Y44614D01*
X53539Y44538D01*
X53554Y44462D01*
X53597Y44397D01*
X53662Y44354D01*
X53738Y44339D01*
X53814Y44354D01*
X53878Y44397D01*
X53921Y44462D01*
X53937Y44538D01*
X53921Y44614D01*
X53878Y44678D01*
X53814Y44721D01*
X53738Y44737D01*
D02*
G37*
G36*
X31370Y44029D02*
X31294Y44014D01*
X31229Y43971D01*
X31186Y43906D01*
X31171Y43830D01*
X31186Y43754D01*
X31229Y43689D01*
X31294Y43646D01*
X31370Y43631D01*
X31446Y43646D01*
X31511Y43689D01*
X31554Y43754D01*
X31569Y43830D01*
X31554Y43906D01*
X31511Y43971D01*
X31446Y44014D01*
X31370Y44029D01*
D02*
G37*
G36*
X40450Y44199D02*
X40374Y44184D01*
X40309Y44141D01*
X40266Y44076D01*
X40251Y44000D01*
X40266Y43924D01*
X40309Y43859D01*
X40374Y43816D01*
X40450Y43801D01*
X40526Y43816D01*
X40591Y43859D01*
X40634Y43924D01*
X40649Y44000D01*
X40634Y44076D01*
X40591Y44141D01*
X40526Y44184D01*
X40450Y44199D01*
D02*
G37*
G36*
X41927Y44226D02*
X41851Y44210D01*
X41786Y44167D01*
X41743Y44103D01*
X41728Y44027D01*
X41743Y43951D01*
X41786Y43886D01*
X41851Y43843D01*
X41927Y43828D01*
X42003Y43843D01*
X42067Y43886D01*
X42110Y43951D01*
X42126Y44027D01*
X42110Y44103D01*
X42067Y44167D01*
X42003Y44210D01*
X41927Y44226D01*
D02*
G37*
G36*
X48400Y44799D02*
X48324Y44784D01*
X48259Y44741D01*
X48216Y44676D01*
X48201Y44600D01*
X48216Y44524D01*
X48259Y44459D01*
X48324Y44416D01*
X48400Y44401D01*
X48476Y44416D01*
X48541Y44459D01*
X48584Y44524D01*
X48599Y44600D01*
X48584Y44676D01*
X48541Y44741D01*
X48476Y44784D01*
X48400Y44799D01*
D02*
G37*
G36*
X42000Y45399D02*
X41924Y45384D01*
X41859Y45341D01*
X41816Y45276D01*
X41801Y45200D01*
X41816Y45124D01*
X41859Y45059D01*
X41884Y45043D01*
X41875Y44994D01*
X41824Y44984D01*
X41759Y44941D01*
X41716Y44876D01*
X41701Y44800D01*
X41716Y44724D01*
X41759Y44659D01*
X41824Y44616D01*
X41900Y44601D01*
X41976Y44616D01*
X42041Y44659D01*
X42084Y44724D01*
X42099Y44800D01*
X42084Y44876D01*
X42041Y44941D01*
X42016Y44957D01*
X42025Y45006D01*
X42076Y45016D01*
X42141Y45059D01*
X42184Y45124D01*
X42199Y45200D01*
X42184Y45276D01*
X42141Y45341D01*
X42076Y45384D01*
X42000Y45399D01*
D02*
G37*
G36*
X40400Y45199D02*
X40324Y45184D01*
X40259Y45141D01*
X40216Y45076D01*
X40201Y45000D01*
X40216Y44924D01*
X40259Y44859D01*
X40324Y44816D01*
X40400Y44801D01*
X40476Y44816D01*
X40541Y44859D01*
X40584Y44924D01*
X40599Y45000D01*
X40584Y45076D01*
X40541Y45141D01*
X40476Y45184D01*
X40400Y45199D01*
D02*
G37*
G36*
X57600Y45399D02*
X57524Y45384D01*
X57459Y45341D01*
X57416Y45276D01*
X57401Y45200D01*
X57416Y45124D01*
X57459Y45059D01*
X57524Y45016D01*
X57600Y45001D01*
X57676Y45016D01*
X57741Y45059D01*
X57784Y45124D01*
X57799Y45200D01*
X57784Y45276D01*
X57741Y45341D01*
X57676Y45384D01*
X57600Y45399D01*
D02*
G37*
G36*
X52300Y44799D02*
X52224Y44784D01*
X52159Y44741D01*
X52116Y44676D01*
X52101Y44600D01*
X52116Y44524D01*
X52159Y44459D01*
X52224Y44416D01*
X52300Y44401D01*
X52376Y44416D01*
X52441Y44459D01*
X52484Y44524D01*
X52499Y44600D01*
X52484Y44676D01*
X52441Y44741D01*
X52376Y44784D01*
X52300Y44799D01*
D02*
G37*
G36*
X31311Y45210D02*
X31235Y45195D01*
X31170Y45152D01*
X31127Y45087D01*
X31112Y45011D01*
X31127Y44935D01*
X31170Y44870D01*
X31235Y44827D01*
X31283Y44818D01*
X31293Y44769D01*
X31277Y44758D01*
X31234Y44693D01*
X31219Y44617D01*
X31234Y44541D01*
X31277Y44477D01*
X31341Y44434D01*
X31417Y44419D01*
X31493Y44434D01*
X31558Y44477D01*
X31601Y44541D01*
X31616Y44617D01*
X31601Y44693D01*
X31558Y44758D01*
X31493Y44801D01*
X31445Y44811D01*
X31435Y44860D01*
X31452Y44870D01*
X31495Y44935D01*
X31510Y45011D01*
X31495Y45087D01*
X31452Y45152D01*
X31387Y45195D01*
X31311Y45210D01*
D02*
G37*
G36*
X32950Y44999D02*
X32874Y44984D01*
X32809Y44941D01*
X32766Y44876D01*
X32751Y44800D01*
X32766Y44724D01*
X32809Y44659D01*
X32874Y44616D01*
X32950Y44601D01*
X33026Y44616D01*
X33091Y44659D01*
X33134Y44724D01*
X33149Y44800D01*
X33134Y44876D01*
X33091Y44941D01*
X33026Y44984D01*
X32950Y44999D01*
D02*
G37*
G36*
X42000Y43299D02*
X41924Y43284D01*
X41859Y43241D01*
X41816Y43176D01*
X41801Y43100D01*
X41816Y43024D01*
X41859Y42959D01*
X41924Y42916D01*
X42000Y42901D01*
X42076Y42916D01*
X42141Y42959D01*
X42184Y43024D01*
X42199Y43100D01*
X42184Y43176D01*
X42141Y43241D01*
X42076Y43284D01*
X42000Y43299D01*
D02*
G37*
G36*
X55600Y43399D02*
X55524Y43384D01*
X55459Y43341D01*
X55416Y43276D01*
X55401Y43200D01*
X55416Y43124D01*
X55459Y43059D01*
X55524Y43016D01*
X55600Y43001D01*
X55676Y43016D01*
X55741Y43059D01*
X55784Y43124D01*
X55799Y43200D01*
X55784Y43276D01*
X55741Y43341D01*
X55676Y43384D01*
X55600Y43399D01*
D02*
G37*
G36*
X31361Y43438D02*
X31285Y43423D01*
X31220Y43380D01*
X31177Y43315D01*
X31162Y43239D01*
X31177Y43163D01*
X31220Y43099D01*
X31285Y43056D01*
X31361Y43041D01*
X31437Y43056D01*
X31501Y43099D01*
X31544Y43163D01*
X31559Y43239D01*
X31544Y43315D01*
X31501Y43380D01*
X31437Y43423D01*
X31361Y43438D01*
D02*
G37*
G36*
X55300Y42899D02*
X55224Y42884D01*
X55159Y42841D01*
X55116Y42776D01*
X55101Y42700D01*
X55116Y42624D01*
X55159Y42559D01*
X55224Y42516D01*
X55300Y42501D01*
X55376Y42516D01*
X55441Y42559D01*
X55484Y42624D01*
X55499Y42700D01*
X55484Y42776D01*
X55441Y42841D01*
X55376Y42884D01*
X55300Y42899D01*
D02*
G37*
G36*
X56595Y43004D02*
X56519Y42989D01*
X56454Y42946D01*
X56411Y42881D01*
X56396Y42805D01*
X56411Y42729D01*
X56454Y42665D01*
X56519Y42621D01*
X56595Y42606D01*
X56671Y42621D01*
X56735Y42665D01*
X56779Y42729D01*
X56794Y42805D01*
X56779Y42881D01*
X56735Y42946D01*
X56671Y42989D01*
X56595Y43004D01*
D02*
G37*
G36*
X40450Y43199D02*
X40374Y43184D01*
X40309Y43141D01*
X40266Y43076D01*
X40251Y43000D01*
X40266Y42924D01*
X40309Y42859D01*
X40374Y42816D01*
X40450Y42801D01*
X40526Y42816D01*
X40591Y42859D01*
X40634Y42924D01*
X40649Y43000D01*
X40634Y43076D01*
X40591Y43141D01*
X40526Y43184D01*
X40450Y43199D01*
D02*
G37*
G36*
X50500Y43499D02*
X50424Y43484D01*
X50359Y43441D01*
X50316Y43376D01*
X50301Y43300D01*
X50316Y43224D01*
X50359Y43159D01*
X50424Y43116D01*
X50500Y43101D01*
X50576Y43116D01*
X50641Y43159D01*
X50684Y43224D01*
X50699Y43300D01*
X50684Y43376D01*
X50641Y43441D01*
X50576Y43484D01*
X50500Y43499D01*
D02*
G37*
G36*
X52300Y43599D02*
X52224Y43584D01*
X52159Y43541D01*
X52116Y43476D01*
X52101Y43400D01*
X52116Y43324D01*
X52159Y43259D01*
X52224Y43216D01*
X52300Y43201D01*
X52376Y43216D01*
X52441Y43259D01*
X52484Y43324D01*
X52499Y43400D01*
X52484Y43476D01*
X52441Y43541D01*
X52376Y43584D01*
X52300Y43599D01*
D02*
G37*
G36*
X54400D02*
X54324Y43584D01*
X54259Y43541D01*
X54216Y43476D01*
X54201Y43400D01*
X54216Y43324D01*
X54259Y43259D01*
X54324Y43216D01*
X54400Y43201D01*
X54476Y43216D01*
X54541Y43259D01*
X54584Y43324D01*
X54599Y43400D01*
X54584Y43476D01*
X54541Y43541D01*
X54476Y43584D01*
X54400Y43599D01*
D02*
G37*
G36*
X32950Y43999D02*
X32874Y43984D01*
X32809Y43941D01*
X32766Y43876D01*
X32751Y43800D01*
X32766Y43724D01*
X32809Y43659D01*
X32874Y43616D01*
X32950Y43601D01*
X33026Y43616D01*
X33091Y43659D01*
X33134Y43724D01*
X33149Y43800D01*
X33134Y43876D01*
X33091Y43941D01*
X33026Y43984D01*
X32950Y43999D01*
D02*
G37*
G36*
X53500Y43499D02*
X53424Y43484D01*
X53359Y43441D01*
X53316Y43376D01*
X53301Y43300D01*
X53316Y43224D01*
X53359Y43159D01*
X53424Y43116D01*
X53500Y43101D01*
X53576Y43116D01*
X53641Y43159D01*
X53684Y43224D01*
X53699Y43300D01*
X53684Y43376D01*
X53641Y43441D01*
X53576Y43484D01*
X53500Y43499D01*
D02*
G37*
G36*
X49700Y43599D02*
X49624Y43584D01*
X49559Y43541D01*
X49516Y43476D01*
X49501Y43400D01*
X49516Y43324D01*
X49559Y43259D01*
X49624Y43216D01*
X49700Y43201D01*
X49776Y43216D01*
X49841Y43259D01*
X49884Y43324D01*
X49899Y43400D01*
X49884Y43476D01*
X49841Y43541D01*
X49776Y43584D01*
X49700Y43599D01*
D02*
G37*
G36*
X51300D02*
X51224Y43584D01*
X51159Y43541D01*
X51116Y43476D01*
X51101Y43400D01*
X51116Y43324D01*
X51159Y43259D01*
X51224Y43216D01*
X51300Y43201D01*
X51376Y43216D01*
X51441Y43259D01*
X51484Y43324D01*
X51499Y43400D01*
X51484Y43476D01*
X51441Y43541D01*
X51376Y43584D01*
X51300Y43599D01*
D02*
G37*
G36*
X39100Y33550D02*
X39004Y33531D01*
X38923Y33477D01*
X38869Y33396D01*
X38850Y33300D01*
X38869Y33204D01*
X38923Y33123D01*
X39004Y33069D01*
X39100Y33050D01*
X39196Y33069D01*
X39277Y33123D01*
X39331Y33204D01*
X39350Y33300D01*
X39331Y33396D01*
X39277Y33477D01*
X39196Y33531D01*
X39100Y33550D01*
D02*
G37*
G36*
X44600D02*
X44504Y33531D01*
X44423Y33477D01*
X44369Y33396D01*
X44350Y33300D01*
X44369Y33204D01*
X44423Y33123D01*
X44504Y33069D01*
X44600Y33050D01*
X44696Y33069D01*
X44777Y33123D01*
X44831Y33204D01*
X44850Y33300D01*
X44831Y33396D01*
X44777Y33477D01*
X44696Y33531D01*
X44600Y33550D01*
D02*
G37*
G36*
X31000Y33549D02*
X30924Y33534D01*
X30859Y33491D01*
X30816Y33426D01*
X30801Y33350D01*
X30816Y33274D01*
X30859Y33209D01*
X30924Y33166D01*
X31000Y33151D01*
X31076Y33166D01*
X31141Y33209D01*
X31184Y33274D01*
X31199Y33350D01*
X31184Y33426D01*
X31141Y33491D01*
X31076Y33534D01*
X31000Y33549D01*
D02*
G37*
G36*
X34600Y33149D02*
X34524Y33134D01*
X34459Y33091D01*
X34416Y33026D01*
X34401Y32950D01*
X34416Y32874D01*
X34459Y32809D01*
X34524Y32766D01*
X34600Y32751D01*
X34676Y32766D01*
X34741Y32809D01*
X34784Y32874D01*
X34799Y32950D01*
X34784Y33026D01*
X34741Y33091D01*
X34676Y33134D01*
X34600Y33149D01*
D02*
G37*
G36*
X27500Y33299D02*
X27424Y33284D01*
X27359Y33241D01*
X27316Y33176D01*
X27301Y33100D01*
X27316Y33024D01*
X27359Y32959D01*
X27424Y32916D01*
X27500Y32901D01*
X27576Y32916D01*
X27641Y32959D01*
X27684Y33024D01*
X27699Y33100D01*
X27684Y33176D01*
X27641Y33241D01*
X27576Y33284D01*
X27500Y33299D01*
D02*
G37*
G36*
X28850D02*
X28774Y33284D01*
X28709Y33241D01*
X28666Y33176D01*
X28651Y33100D01*
X28666Y33024D01*
X28709Y32959D01*
X28774Y32916D01*
X28850Y32901D01*
X28926Y32916D01*
X28991Y32959D01*
X29034Y33024D01*
X29049Y33100D01*
X29034Y33176D01*
X28991Y33241D01*
X28926Y33284D01*
X28850Y33299D01*
D02*
G37*
G36*
X26456Y34104D02*
X26379Y34089D01*
X26315Y34046D01*
X26272Y33982D01*
X26257Y33906D01*
X26272Y33829D01*
X26315Y33765D01*
X26379Y33722D01*
X26456Y33707D01*
X26532Y33722D01*
X26596Y33765D01*
X26639Y33829D01*
X26654Y33906D01*
X26639Y33982D01*
X26596Y34046D01*
X26532Y34089D01*
X26456Y34104D01*
D02*
G37*
G36*
X29800Y34449D02*
X29724Y34434D01*
X29659Y34391D01*
X29616Y34326D01*
X29601Y34250D01*
X29616Y34174D01*
X29659Y34109D01*
X29724Y34066D01*
X29800Y34051D01*
X29876Y34066D01*
X29941Y34109D01*
X29984Y34174D01*
X29999Y34250D01*
X29984Y34326D01*
X29941Y34391D01*
X29876Y34434D01*
X29800Y34449D01*
D02*
G37*
G36*
X43600Y34850D02*
X43504Y34831D01*
X43423Y34777D01*
X43369Y34696D01*
X43350Y34600D01*
X43369Y34504D01*
X43423Y34423D01*
X43504Y34369D01*
X43600Y34350D01*
X43696Y34369D01*
X43777Y34423D01*
X43831Y34504D01*
X43850Y34600D01*
X43831Y34696D01*
X43777Y34777D01*
X43696Y34831D01*
X43600Y34850D01*
D02*
G37*
G36*
X45300Y34950D02*
X45204Y34931D01*
X45123Y34877D01*
X45069Y34796D01*
X45050Y34700D01*
X45069Y34604D01*
X45123Y34523D01*
X45204Y34469D01*
X45300Y34450D01*
X45396Y34469D01*
X45477Y34523D01*
X45531Y34604D01*
X45550Y34700D01*
X45531Y34796D01*
X45477Y34877D01*
X45396Y34931D01*
X45300Y34950D01*
D02*
G37*
G36*
X42450Y34174D02*
X42364Y34157D01*
X42291Y34109D01*
X42243Y34036D01*
X42226Y33950D01*
X42243Y33864D01*
X42291Y33791D01*
X42364Y33743D01*
X42450Y33726D01*
X42536Y33743D01*
X42609Y33791D01*
X42657Y33864D01*
X42674Y33950D01*
X42657Y34036D01*
X42609Y34109D01*
X42536Y34157D01*
X42450Y34174D01*
D02*
G37*
G36*
X40700Y34250D02*
X40604Y34231D01*
X40523Y34177D01*
X40469Y34096D01*
X40450Y34000D01*
X40469Y33904D01*
X40523Y33823D01*
X40604Y33769D01*
X40700Y33750D01*
X40796Y33769D01*
X40877Y33823D01*
X40931Y33904D01*
X40950Y34000D01*
X40931Y34096D01*
X40877Y34177D01*
X40796Y34231D01*
X40700Y34250D01*
D02*
G37*
G36*
X37765Y34350D02*
X37670Y34331D01*
X37589Y34277D01*
X37535Y34196D01*
X37516Y34100D01*
X37535Y34004D01*
X37589Y33923D01*
X37670Y33869D01*
X37765Y33850D01*
X37861Y33869D01*
X37942Y33923D01*
X37996Y34004D01*
X38015Y34100D01*
X37996Y34196D01*
X37942Y34277D01*
X37861Y34331D01*
X37765Y34350D01*
D02*
G37*
G36*
X43769Y32318D02*
X43673Y32299D01*
X43592Y32245D01*
X43538Y32164D01*
X43519Y32069D01*
X43538Y31973D01*
X43592Y31892D01*
X43673Y31838D01*
X43769Y31819D01*
X43864Y31838D01*
X43945Y31892D01*
X43999Y31973D01*
X44018Y32069D01*
X43999Y32164D01*
X43945Y32245D01*
X43864Y32299D01*
X43769Y32318D01*
D02*
G37*
G36*
X39931Y32381D02*
X39836Y32362D01*
X39755Y32308D01*
X39701Y32227D01*
X39682Y32132D01*
X39701Y32036D01*
X39755Y31955D01*
X39836Y31901D01*
X39931Y31882D01*
X40027Y31901D01*
X40108Y31955D01*
X40162Y32036D01*
X40181Y32132D01*
X40162Y32227D01*
X40108Y32308D01*
X40027Y32362D01*
X39931Y32381D01*
D02*
G37*
G36*
X38268Y32418D02*
X38173Y32399D01*
X38092Y32345D01*
X38038Y32264D01*
X38019Y32169D01*
X38038Y32073D01*
X38092Y31992D01*
X38173Y31938D01*
X38268Y31919D01*
X38364Y31938D01*
X38445Y31992D01*
X38499Y32073D01*
X38518Y32169D01*
X38499Y32264D01*
X38445Y32345D01*
X38364Y32399D01*
X38268Y32418D01*
D02*
G37*
G36*
X27850Y31599D02*
X27774Y31584D01*
X27709Y31541D01*
X27666Y31476D01*
X27651Y31400D01*
X27666Y31324D01*
X27709Y31259D01*
X27774Y31216D01*
X27850Y31201D01*
X27926Y31216D01*
X27991Y31259D01*
X28034Y31324D01*
X28049Y31400D01*
X28034Y31476D01*
X27991Y31541D01*
X27926Y31584D01*
X27850Y31599D01*
D02*
G37*
G36*
X29850Y31799D02*
X29774Y31784D01*
X29709Y31741D01*
X29666Y31676D01*
X29651Y31600D01*
X29666Y31524D01*
X29709Y31459D01*
X29774Y31416D01*
X29850Y31401D01*
X29926Y31416D01*
X29991Y31459D01*
X30034Y31524D01*
X30049Y31600D01*
X30034Y31676D01*
X29991Y31741D01*
X29926Y31784D01*
X29850Y31799D01*
D02*
G37*
G36*
X45431Y32281D02*
X45336Y32262D01*
X45255Y32208D01*
X45201Y32127D01*
X45182Y32032D01*
X45201Y31936D01*
X45255Y31855D01*
X45336Y31801D01*
X45431Y31782D01*
X45527Y31801D01*
X45608Y31855D01*
X45662Y31936D01*
X45681Y32032D01*
X45662Y32127D01*
X45608Y32208D01*
X45527Y32262D01*
X45431Y32281D01*
D02*
G37*
G36*
X26400Y32349D02*
X26324Y32334D01*
X26259Y32291D01*
X26216Y32226D01*
X26201Y32150D01*
X26216Y32074D01*
X26259Y32009D01*
X26324Y31966D01*
X26400Y31951D01*
X26476Y31966D01*
X26541Y32009D01*
X26584Y32074D01*
X26599Y32150D01*
X26584Y32226D01*
X26541Y32291D01*
X26476Y32334D01*
X26400Y32349D01*
D02*
G37*
G36*
X32500Y33099D02*
X32424Y33084D01*
X32359Y33041D01*
X32316Y32976D01*
X32301Y32900D01*
X32316Y32824D01*
X32359Y32759D01*
X32424Y32716D01*
X32500Y32701D01*
X32576Y32716D01*
X32641Y32759D01*
X32684Y32824D01*
X32699Y32900D01*
X32684Y32976D01*
X32641Y33041D01*
X32576Y33084D01*
X32500Y33099D01*
D02*
G37*
G36*
X33000D02*
X32924Y33084D01*
X32859Y33041D01*
X32816Y32976D01*
X32801Y32900D01*
X32816Y32824D01*
X32859Y32759D01*
X32924Y32716D01*
X33000Y32701D01*
X33076Y32716D01*
X33141Y32759D01*
X33184Y32824D01*
X33199Y32900D01*
X33184Y32976D01*
X33141Y33041D01*
X33076Y33084D01*
X33000Y33099D01*
D02*
G37*
G36*
X33800Y33149D02*
X33724Y33134D01*
X33659Y33091D01*
X33616Y33026D01*
X33601Y32950D01*
X33616Y32874D01*
X33659Y32809D01*
X33724Y32766D01*
X33800Y32751D01*
X33876Y32766D01*
X33941Y32809D01*
X33984Y32874D01*
X33999Y32950D01*
X33984Y33026D01*
X33941Y33091D01*
X33876Y33134D01*
X33800Y33149D01*
D02*
G37*
G36*
X30800Y32599D02*
X30724Y32584D01*
X30659Y32541D01*
X30616Y32476D01*
X30601Y32400D01*
X30616Y32324D01*
X30659Y32259D01*
X30724Y32216D01*
X30800Y32201D01*
X30876Y32216D01*
X30941Y32259D01*
X30984Y32324D01*
X30999Y32400D01*
X30984Y32476D01*
X30941Y32541D01*
X30876Y32584D01*
X30800Y32599D01*
D02*
G37*
G36*
X42550Y33100D02*
X42454Y33081D01*
X42373Y33027D01*
X42319Y32946D01*
X42300Y32850D01*
X42319Y32754D01*
X42373Y32673D01*
X42454Y32619D01*
X42550Y32600D01*
X42646Y32619D01*
X42727Y32673D01*
X42781Y32754D01*
X42800Y32850D01*
X42781Y32946D01*
X42727Y33027D01*
X42646Y33081D01*
X42550Y33100D01*
D02*
G37*
G36*
X35768Y33189D02*
X35694Y33179D01*
X35624Y33150D01*
X35564Y33104D01*
X35518Y33045D01*
X35489Y32975D01*
X35480Y32900D01*
X35489Y32825D01*
X35518Y32755D01*
X35564Y32696D01*
X35624Y32650D01*
X35694Y32621D01*
X35768Y32611D01*
X35843Y32621D01*
X35913Y32650D01*
X35973Y32696D01*
X36019Y32755D01*
X36048Y32825D01*
X36058Y32900D01*
X36048Y32975D01*
X36019Y33045D01*
X35973Y33104D01*
X35913Y33150D01*
X35843Y33179D01*
X35768Y33189D01*
D02*
G37*
G36*
X36011Y39410D02*
X35935Y39395D01*
X35870Y39352D01*
X35827Y39287D01*
X35812Y39211D01*
X35827Y39135D01*
X35870Y39070D01*
X35935Y39027D01*
X36011Y39012D01*
X36087Y39027D01*
X36152Y39070D01*
X36181Y39114D01*
X36231D01*
X36264Y39064D01*
X36329Y39021D01*
X36405Y39006D01*
X36481Y39021D01*
X36545Y39064D01*
X36588Y39129D01*
X36604Y39205D01*
X36588Y39281D01*
X36545Y39345D01*
X36481Y39388D01*
X36405Y39404D01*
X36329Y39388D01*
X36264Y39345D01*
X36235Y39302D01*
X36185D01*
X36152Y39352D01*
X36087Y39395D01*
X36011Y39410D01*
D02*
G37*
G36*
X46700Y39599D02*
X46624Y39584D01*
X46559Y39541D01*
X46516Y39476D01*
X46501Y39400D01*
X46516Y39324D01*
X46559Y39259D01*
X46624Y39216D01*
X46700Y39201D01*
X46776Y39216D01*
X46841Y39259D01*
X46884Y39324D01*
X46899Y39400D01*
X46884Y39476D01*
X46841Y39541D01*
X46776Y39584D01*
X46700Y39599D01*
D02*
G37*
G36*
X42600Y39799D02*
X42524Y39784D01*
X42459Y39741D01*
X42416Y39676D01*
X42401Y39600D01*
X42416Y39524D01*
X42459Y39459D01*
X42524Y39416D01*
X42600Y39401D01*
X42676Y39416D01*
X42741Y39459D01*
X42784Y39524D01*
X42799Y39600D01*
X42784Y39676D01*
X42741Y39741D01*
X42676Y39784D01*
X42600Y39799D01*
D02*
G37*
G36*
X37900Y39349D02*
X37824Y39334D01*
X37759Y39291D01*
X37716Y39226D01*
X37701Y39150D01*
X37716Y39074D01*
X37759Y39009D01*
X37824Y38966D01*
X37900Y38951D01*
X37976Y38966D01*
X38041Y39009D01*
X38084Y39074D01*
X38099Y39150D01*
X38084Y39226D01*
X38041Y39291D01*
X37976Y39334D01*
X37900Y39349D01*
D02*
G37*
G36*
X33200Y39379D02*
X33124Y39364D01*
X33059Y39321D01*
X33016Y39256D01*
X33001Y39180D01*
X33016Y39104D01*
X33059Y39039D01*
X33124Y38996D01*
X33200Y38981D01*
X33276Y38996D01*
X33341Y39039D01*
X33384Y39104D01*
X33399Y39180D01*
X33384Y39256D01*
X33341Y39321D01*
X33276Y39364D01*
X33200Y39379D01*
D02*
G37*
G36*
X32650Y39399D02*
X32574Y39384D01*
X32509Y39341D01*
X32466Y39276D01*
X32451Y39200D01*
X32466Y39124D01*
X32509Y39059D01*
X32574Y39016D01*
X32650Y39001D01*
X32726Y39016D01*
X32791Y39059D01*
X32834Y39124D01*
X32849Y39200D01*
X32834Y39276D01*
X32791Y39341D01*
X32726Y39384D01*
X32650Y39399D01*
D02*
G37*
G36*
X49300Y40499D02*
X49224Y40484D01*
X49159Y40441D01*
X49116Y40376D01*
X49101Y40300D01*
X49116Y40224D01*
X49159Y40159D01*
X49224Y40116D01*
X49300Y40101D01*
X49376Y40116D01*
X49441Y40159D01*
X49484Y40224D01*
X49499Y40300D01*
X49484Y40376D01*
X49441Y40441D01*
X49376Y40484D01*
X49300Y40499D01*
D02*
G37*
G36*
X39700Y40599D02*
X39624Y40584D01*
X39559Y40541D01*
X39516Y40476D01*
X39501Y40400D01*
X39516Y40324D01*
X39559Y40259D01*
X39624Y40216D01*
X39700Y40201D01*
X39776Y40216D01*
X39841Y40259D01*
X39884Y40324D01*
X39899Y40400D01*
X39884Y40476D01*
X39841Y40541D01*
X39776Y40584D01*
X39700Y40599D01*
D02*
G37*
G36*
X42635Y40634D02*
X42559Y40619D01*
X42494Y40576D01*
X42451Y40511D01*
X42436Y40435D01*
X42451Y40359D01*
X42494Y40294D01*
X42559Y40251D01*
X42635Y40236D01*
X42711Y40251D01*
X42776Y40294D01*
X42819Y40359D01*
X42834Y40435D01*
X42819Y40511D01*
X42776Y40576D01*
X42711Y40619D01*
X42635Y40634D01*
D02*
G37*
G36*
X34300Y40699D02*
X34224Y40684D01*
X34159Y40641D01*
X34116Y40576D01*
X34101Y40500D01*
X34116Y40424D01*
X34159Y40359D01*
X34224Y40316D01*
X34300Y40301D01*
X34376Y40316D01*
X34441Y40359D01*
X34484Y40424D01*
X34499Y40500D01*
X34484Y40576D01*
X34441Y40641D01*
X34376Y40684D01*
X34300Y40699D01*
D02*
G37*
G36*
X41720Y40529D02*
X41644Y40514D01*
X41579Y40471D01*
X41536Y40406D01*
X41521Y40330D01*
X41536Y40254D01*
X41579Y40190D01*
X41644Y40147D01*
X41720Y40131D01*
X41796Y40147D01*
X41860Y40190D01*
X41903Y40254D01*
X41919Y40330D01*
X41903Y40406D01*
X41860Y40471D01*
X41796Y40514D01*
X41720Y40529D01*
D02*
G37*
G36*
X38600Y40899D02*
X38524Y40884D01*
X38459Y40841D01*
X38416Y40776D01*
X38401Y40700D01*
X38416Y40624D01*
X38459Y40559D01*
X38417Y40495D01*
X38409Y40491D01*
X38366Y40426D01*
X38351Y40350D01*
X38366Y40274D01*
X38409Y40209D01*
X38474Y40166D01*
X38550Y40151D01*
X38626Y40166D01*
X38691Y40209D01*
X38734Y40274D01*
X38749Y40350D01*
X38734Y40426D01*
X38691Y40491D01*
X38673Y40502D01*
X38676Y40516D01*
X38741Y40559D01*
X38784Y40624D01*
X38799Y40700D01*
X38784Y40776D01*
X38741Y40841D01*
X38676Y40884D01*
X38600Y40899D01*
D02*
G37*
G36*
X41129Y40570D02*
X41053Y40555D01*
X40989Y40511D01*
X40945Y40447D01*
X40930Y40371D01*
X40945Y40295D01*
X40989Y40230D01*
X41053Y40187D01*
X41129Y40172D01*
X41205Y40187D01*
X41270Y40230D01*
X41313Y40295D01*
X41328Y40371D01*
X41313Y40447D01*
X41270Y40511D01*
X41205Y40555D01*
X41129Y40570D01*
D02*
G37*
G36*
X37400Y36050D02*
X37304Y36031D01*
X37223Y35977D01*
X37169Y35896D01*
X37150Y35800D01*
X37169Y35704D01*
X37223Y35623D01*
X37304Y35569D01*
X37400Y35550D01*
X37496Y35569D01*
X37577Y35623D01*
X37631Y35704D01*
X37650Y35800D01*
X37631Y35896D01*
X37577Y35977D01*
X37496Y36031D01*
X37400Y36050D01*
D02*
G37*
G36*
X39651Y36201D02*
X39556Y36182D01*
X39475Y36128D01*
X39420Y36047D01*
X39401Y35951D01*
X39420Y35856D01*
X39475Y35775D01*
X39556Y35720D01*
X39651Y35701D01*
X39747Y35720D01*
X39828Y35775D01*
X39882Y35856D01*
X39901Y35951D01*
X39882Y36047D01*
X39828Y36128D01*
X39747Y36182D01*
X39651Y36201D01*
D02*
G37*
G36*
X43500Y36350D02*
X43404Y36331D01*
X43323Y36277D01*
X43269Y36196D01*
X43250Y36100D01*
X43269Y36004D01*
X43323Y35923D01*
X43404Y35869D01*
X43500Y35850D01*
X43596Y35869D01*
X43677Y35923D01*
X43731Y36004D01*
X43750Y36100D01*
X43731Y36196D01*
X43677Y36277D01*
X43596Y36331D01*
X43500Y36350D01*
D02*
G37*
G36*
X27500Y34949D02*
X27424Y34934D01*
X27359Y34891D01*
X27316Y34826D01*
X27301Y34750D01*
X27316Y34674D01*
X27359Y34609D01*
X27424Y34566D01*
X27500Y34551D01*
X27576Y34566D01*
X27641Y34609D01*
X27684Y34674D01*
X27699Y34750D01*
X27684Y34826D01*
X27641Y34891D01*
X27576Y34934D01*
X27500Y34949D01*
D02*
G37*
G36*
X45300Y35650D02*
X45204Y35631D01*
X45123Y35577D01*
X45069Y35496D01*
X45050Y35400D01*
X45069Y35304D01*
X45123Y35223D01*
X45204Y35169D01*
X45300Y35150D01*
X45396Y35169D01*
X45477Y35223D01*
X45531Y35304D01*
X45550Y35400D01*
X45531Y35496D01*
X45477Y35577D01*
X45396Y35631D01*
X45300Y35650D01*
D02*
G37*
G36*
X40800Y35950D02*
X40704Y35931D01*
X40623Y35877D01*
X40569Y35796D01*
X40550Y35700D01*
X40569Y35604D01*
X40623Y35523D01*
X40704Y35469D01*
X40800Y35450D01*
X40896Y35469D01*
X40977Y35523D01*
X41031Y35604D01*
X41050Y35700D01*
X41031Y35796D01*
X40977Y35877D01*
X40896Y35931D01*
X40800Y35950D01*
D02*
G37*
G36*
X41260Y36690D02*
X41164Y36671D01*
X41083Y36617D01*
X41029Y36536D01*
X41010Y36440D01*
X41029Y36345D01*
X41083Y36264D01*
X41164Y36209D01*
X41260Y36190D01*
X41355Y36209D01*
X41436Y36264D01*
X41491Y36345D01*
X41510Y36440D01*
X41491Y36536D01*
X41436Y36617D01*
X41355Y36671D01*
X41260Y36690D01*
D02*
G37*
G36*
X48951Y38549D02*
X48856Y38530D01*
X48775Y38475D01*
X48720Y38394D01*
X48701Y38299D01*
X48720Y38203D01*
X48775Y38122D01*
X48856Y38068D01*
X48951Y38049D01*
X49047Y38068D01*
X49128Y38122D01*
X49182Y38203D01*
X49201Y38299D01*
X49182Y38394D01*
X49128Y38475D01*
X49047Y38530D01*
X48951Y38549D01*
D02*
G37*
G36*
X39100Y39099D02*
X39024Y39084D01*
X38959Y39041D01*
X38916Y38976D01*
X38901Y38900D01*
X38916Y38824D01*
X38959Y38759D01*
X39024Y38716D01*
X39100Y38701D01*
X39176Y38716D01*
X39241Y38759D01*
X39284Y38824D01*
X39299Y38900D01*
X39284Y38976D01*
X39241Y39041D01*
X39176Y39084D01*
X39100Y39099D01*
D02*
G37*
G36*
X37350Y39249D02*
X37274Y39234D01*
X37209Y39191D01*
X37166Y39126D01*
X37151Y39050D01*
X37166Y38974D01*
X37209Y38909D01*
X37274Y38866D01*
X37350Y38851D01*
X37426Y38866D01*
X37491Y38909D01*
X37534Y38974D01*
X37549Y39050D01*
X37534Y39126D01*
X37491Y39191D01*
X37426Y39234D01*
X37350Y39249D01*
D02*
G37*
G36*
X50600Y38399D02*
X50524Y38384D01*
X50459Y38341D01*
X50416Y38276D01*
X50401Y38200D01*
X50416Y38124D01*
X50459Y38059D01*
X50524Y38016D01*
X50600Y38001D01*
X50676Y38016D01*
X50741Y38059D01*
X50784Y38124D01*
X50799Y38200D01*
X50784Y38276D01*
X50741Y38341D01*
X50676Y38384D01*
X50600Y38399D01*
D02*
G37*
G36*
X55200D02*
X55124Y38384D01*
X55059Y38341D01*
X55016Y38276D01*
X55001Y38200D01*
X55016Y38124D01*
X55059Y38059D01*
X55124Y38016D01*
X55200Y38001D01*
X55276Y38016D01*
X55341Y38059D01*
X55384Y38124D01*
X55399Y38200D01*
X55384Y38276D01*
X55341Y38341D01*
X55276Y38384D01*
X55200Y38399D01*
D02*
G37*
G36*
X56800D02*
X56724Y38384D01*
X56659Y38341D01*
X56616Y38276D01*
X56601Y38200D01*
X56616Y38124D01*
X56659Y38059D01*
X56724Y38016D01*
X56800Y38001D01*
X56876Y38016D01*
X56941Y38059D01*
X56984Y38124D01*
X56999Y38200D01*
X56984Y38276D01*
X56941Y38341D01*
X56876Y38384D01*
X56800Y38399D01*
D02*
G37*
G36*
X52700Y45599D02*
X52624Y45584D01*
X52559Y45541D01*
X52516Y45476D01*
X52501Y45400D01*
X52516Y45324D01*
X52559Y45259D01*
X52624Y45216D01*
X52700Y45201D01*
X52776Y45216D01*
X52841Y45259D01*
X52884Y45324D01*
X52899Y45400D01*
X52884Y45476D01*
X52841Y45541D01*
X52776Y45584D01*
X52700Y45599D01*
D02*
G37*
G36*
X41720Y51279D02*
X41644Y51264D01*
X41579Y51221D01*
X41536Y51156D01*
X41521Y51080D01*
X41536Y51004D01*
X41579Y50940D01*
X41644Y50897D01*
X41720Y50882D01*
X41796Y50897D01*
X41860Y50940D01*
X41903Y51004D01*
X41919Y51080D01*
X41903Y51156D01*
X41860Y51221D01*
X41796Y51264D01*
X41720Y51279D01*
D02*
G37*
G36*
X30765Y51364D02*
X30689Y51349D01*
X30624Y51306D01*
X30581Y51241D01*
X30566Y51165D01*
X30581Y51089D01*
X30624Y51024D01*
X30689Y50981D01*
X30765Y50966D01*
X30841Y50981D01*
X30906Y51024D01*
X30949Y51089D01*
X30964Y51165D01*
X30949Y51241D01*
X30906Y51306D01*
X30841Y51349D01*
X30765Y51364D01*
D02*
G37*
G36*
X49013Y51385D02*
X48937Y51370D01*
X48873Y51327D01*
X48830Y51263D01*
X48815Y51187D01*
X48830Y51111D01*
X48873Y51046D01*
X48937Y51003D01*
X49013Y50988D01*
X49089Y51003D01*
X49154Y51046D01*
X49197Y51111D01*
X49212Y51187D01*
X49197Y51263D01*
X49154Y51327D01*
X49089Y51370D01*
X49013Y51385D01*
D02*
G37*
G36*
X35617Y51216D02*
X35541Y51201D01*
X35477Y51158D01*
X35434Y51093D01*
X35419Y51017D01*
X35434Y50941D01*
X35477Y50877D01*
X35541Y50834D01*
X35617Y50819D01*
X35693Y50834D01*
X35758Y50877D01*
X35787Y50920D01*
X35837D01*
X35870Y50870D01*
X35935Y50827D01*
X36011Y50812D01*
X36087Y50827D01*
X36152Y50870D01*
X36195Y50935D01*
X36210Y51011D01*
X36195Y51087D01*
X36152Y51152D01*
X36087Y51195D01*
X36011Y51210D01*
X35935Y51195D01*
X35870Y51152D01*
X35841Y51108D01*
X35791D01*
X35758Y51158D01*
X35693Y51201D01*
X35617Y51216D01*
D02*
G37*
G36*
X33846Y51253D02*
X33770Y51238D01*
X33705Y51195D01*
X33662Y51130D01*
X33647Y51054D01*
X33662Y50978D01*
X33705Y50914D01*
X33770Y50871D01*
X33846Y50856D01*
X33922Y50871D01*
X33986Y50914D01*
X34029Y50978D01*
X34044Y51054D01*
X34029Y51130D01*
X33986Y51195D01*
X33922Y51238D01*
X33846Y51253D01*
D02*
G37*
G36*
X39161Y51259D02*
X39085Y51244D01*
X39020Y51201D01*
X38977Y51137D01*
X38962Y51061D01*
X38977Y50985D01*
X39020Y50920D01*
X39085Y50877D01*
X39161Y50862D01*
X39237Y50877D01*
X39301Y50920D01*
X39344Y50985D01*
X39359Y51061D01*
X39344Y51137D01*
X39301Y51201D01*
X39237Y51244D01*
X39161Y51259D01*
D02*
G37*
G36*
X49604Y51395D02*
X49528Y51380D01*
X49463Y51337D01*
X49420Y51272D01*
X49405Y51196D01*
X49420Y51120D01*
X49463Y51055D01*
X49528Y51012D01*
X49604Y50997D01*
X49680Y51012D01*
X49745Y51055D01*
X49788Y51120D01*
X49803Y51196D01*
X49788Y51272D01*
X49745Y51337D01*
X49680Y51380D01*
X49604Y51395D01*
D02*
G37*
G36*
X52100Y51399D02*
X52024Y51384D01*
X51959Y51341D01*
X51916Y51276D01*
X51901Y51200D01*
X51916Y51124D01*
X51959Y51059D01*
X52024Y51016D01*
X52100Y51001D01*
X52176Y51016D01*
X52241Y51059D01*
X52284Y51124D01*
X52299Y51200D01*
X52284Y51276D01*
X52241Y51341D01*
X52176Y51384D01*
X52100Y51399D01*
D02*
G37*
G36*
X53000D02*
X52924Y51384D01*
X52859Y51341D01*
X52816Y51276D01*
X52801Y51200D01*
X52816Y51124D01*
X52859Y51059D01*
X52924Y51016D01*
X53000Y51001D01*
X53076Y51016D01*
X53141Y51059D01*
X53184Y51124D01*
X53199Y51200D01*
X53184Y51276D01*
X53141Y51341D01*
X53076Y51384D01*
X53000Y51399D01*
D02*
G37*
G36*
X55200D02*
X55124Y51384D01*
X55059Y51341D01*
X55016Y51276D01*
X55001Y51200D01*
X55016Y51124D01*
X55059Y51059D01*
X55124Y51016D01*
X55200Y51001D01*
X55276Y51016D01*
X55341Y51059D01*
X55384Y51124D01*
X55399Y51200D01*
X55384Y51276D01*
X55341Y51341D01*
X55276Y51384D01*
X55200Y51399D01*
D02*
G37*
G36*
X46400D02*
X46324Y51384D01*
X46259Y51341D01*
X46216Y51276D01*
X46201Y51200D01*
X46216Y51124D01*
X46259Y51059D01*
X46324Y51016D01*
X46400Y51001D01*
X46476Y51016D01*
X46541Y51059D01*
X46584Y51124D01*
X46599Y51200D01*
X46584Y51276D01*
X46541Y51341D01*
X46476Y51384D01*
X46400Y51399D01*
D02*
G37*
G36*
X50500D02*
X50424Y51384D01*
X50359Y51341D01*
X50316Y51276D01*
X50301Y51200D01*
X50316Y51124D01*
X50359Y51059D01*
X50424Y51016D01*
X50500Y51001D01*
X50576Y51016D01*
X50641Y51059D01*
X50684Y51124D01*
X50699Y51200D01*
X50684Y51276D01*
X50641Y51341D01*
X50576Y51384D01*
X50500Y51399D01*
D02*
G37*
G36*
X51300D02*
X51224Y51384D01*
X51159Y51341D01*
X51116Y51276D01*
X51101Y51200D01*
X51116Y51124D01*
X51159Y51059D01*
X51224Y51016D01*
X51300Y51001D01*
X51376Y51016D01*
X51441Y51059D01*
X51484Y51124D01*
X51499Y51200D01*
X51484Y51276D01*
X51441Y51341D01*
X51376Y51384D01*
X51300Y51399D01*
D02*
G37*
G36*
X55300Y50199D02*
X55224Y50184D01*
X55159Y50141D01*
X55116Y50076D01*
X55101Y50000D01*
X55116Y49924D01*
X55159Y49859D01*
X55224Y49816D01*
X55300Y49801D01*
X55376Y49816D01*
X55441Y49859D01*
X55484Y49924D01*
X55499Y50000D01*
X55484Y50076D01*
X55441Y50141D01*
X55376Y50184D01*
X55300Y50199D01*
D02*
G37*
G36*
X56100D02*
X56024Y50184D01*
X55959Y50141D01*
X55916Y50076D01*
X55901Y50000D01*
X55916Y49924D01*
X55959Y49859D01*
X56024Y49816D01*
X56100Y49801D01*
X56176Y49816D01*
X56241Y49859D01*
X56284Y49924D01*
X56299Y50000D01*
X56284Y50076D01*
X56241Y50141D01*
X56176Y50184D01*
X56100Y50199D01*
D02*
G37*
G36*
X33200Y50299D02*
X33124Y50284D01*
X33059Y50241D01*
X33016Y50176D01*
X33001Y50100D01*
X33016Y50024D01*
X33059Y49959D01*
X33124Y49916D01*
X33200Y49901D01*
X33276Y49916D01*
X33341Y49959D01*
X33384Y50024D01*
X33399Y50100D01*
X33384Y50176D01*
X33341Y50241D01*
X33276Y50284D01*
X33200Y50299D01*
D02*
G37*
G36*
X54500Y50099D02*
X54424Y50084D01*
X54359Y50041D01*
X54316Y49976D01*
X54301Y49900D01*
X54316Y49824D01*
X54359Y49759D01*
X54424Y49716D01*
X54500Y49701D01*
X54576Y49716D01*
X54641Y49759D01*
X54684Y49824D01*
X54699Y49900D01*
X54684Y49976D01*
X54641Y50041D01*
X54576Y50084D01*
X54500Y50099D01*
D02*
G37*
G36*
X44100Y50199D02*
X44024Y50184D01*
X43959Y50141D01*
X43916Y50076D01*
X43901Y50000D01*
X43916Y49924D01*
X43959Y49859D01*
X44024Y49816D01*
X44100Y49801D01*
X44176Y49816D01*
X44241Y49859D01*
X44284Y49924D01*
X44299Y50000D01*
X44284Y50076D01*
X44241Y50141D01*
X44176Y50184D01*
X44100Y50199D01*
D02*
G37*
G36*
X50500D02*
X50424Y50184D01*
X50359Y50141D01*
X50316Y50076D01*
X50301Y50000D01*
X50316Y49924D01*
X50359Y49859D01*
X50424Y49816D01*
X50500Y49801D01*
X50576Y49816D01*
X50641Y49859D01*
X50684Y49924D01*
X50699Y50000D01*
X50684Y50076D01*
X50641Y50141D01*
X50576Y50184D01*
X50500Y50199D01*
D02*
G37*
G36*
X53600D02*
X53524Y50184D01*
X53459Y50141D01*
X53416Y50076D01*
X53406Y50025D01*
X53357Y50016D01*
X53341Y50041D01*
X53276Y50084D01*
X53200Y50099D01*
X53124Y50084D01*
X53059Y50041D01*
X53016Y49976D01*
X53001Y49900D01*
X53016Y49824D01*
X53059Y49759D01*
X53124Y49716D01*
X53200Y49701D01*
X53276Y49716D01*
X53341Y49759D01*
X53384Y49824D01*
X53394Y49875D01*
X53443Y49884D01*
X53459Y49859D01*
X53524Y49816D01*
X53600Y49801D01*
X53676Y49816D01*
X53741Y49859D01*
X53784Y49924D01*
X53799Y50000D01*
X53784Y50076D01*
X53741Y50141D01*
X53676Y50184D01*
X53600Y50199D01*
D02*
G37*
G36*
X26300Y50850D02*
X26204Y50831D01*
X26123Y50777D01*
X26069Y50696D01*
X26050Y50600D01*
X26069Y50504D01*
X26123Y50423D01*
X26204Y50369D01*
X26300Y50350D01*
X26396Y50369D01*
X26477Y50423D01*
X26531Y50504D01*
X26550Y50600D01*
X26531Y50696D01*
X26477Y50777D01*
X26396Y50831D01*
X26300Y50850D01*
D02*
G37*
G36*
X44100Y50799D02*
X44024Y50784D01*
X43959Y50741D01*
X43916Y50676D01*
X43901Y50600D01*
X43916Y50524D01*
X43959Y50459D01*
X44024Y50416D01*
X44100Y50401D01*
X44176Y50416D01*
X44241Y50459D01*
X44284Y50524D01*
X44299Y50600D01*
X44284Y50676D01*
X44241Y50741D01*
X44176Y50784D01*
X44100Y50799D01*
D02*
G37*
G36*
X40600Y51099D02*
X40524Y51084D01*
X40459Y51041D01*
X40416Y50976D01*
X40401Y50900D01*
X40416Y50824D01*
X40459Y50759D01*
X40524Y50716D01*
X40600Y50701D01*
X40676Y50716D01*
X40741Y50759D01*
X40784Y50824D01*
X40799Y50900D01*
X40784Y50976D01*
X40741Y51041D01*
X40676Y51084D01*
X40600Y51099D01*
D02*
G37*
G36*
X37700Y50499D02*
X37624Y50484D01*
X37559Y50441D01*
X37516Y50376D01*
X37501Y50300D01*
X37516Y50224D01*
X37559Y50159D01*
X37624Y50116D01*
X37700Y50101D01*
X37776Y50116D01*
X37841Y50159D01*
X37884Y50224D01*
X37899Y50300D01*
X37884Y50376D01*
X37841Y50441D01*
X37776Y50484D01*
X37700Y50499D01*
D02*
G37*
G36*
X33500Y50699D02*
X33424Y50684D01*
X33359Y50641D01*
X33316Y50576D01*
X33301Y50500D01*
X33316Y50424D01*
X33359Y50359D01*
X33424Y50316D01*
X33500Y50301D01*
X33576Y50316D01*
X33641Y50359D01*
X33684Y50424D01*
X33699Y50500D01*
X33684Y50576D01*
X33641Y50641D01*
X33576Y50684D01*
X33500Y50699D01*
D02*
G37*
G36*
X46600D02*
X46524Y50684D01*
X46459Y50641D01*
X46416Y50576D01*
X46401Y50500D01*
X46416Y50424D01*
X46459Y50359D01*
X46524Y50316D01*
X46600Y50301D01*
X46676Y50316D01*
X46741Y50359D01*
X46784Y50424D01*
X46799Y50500D01*
X46784Y50576D01*
X46741Y50641D01*
X46676Y50684D01*
X46600Y50699D01*
D02*
G37*
G36*
X43000Y56700D02*
X42904Y56681D01*
X42823Y56627D01*
X42769Y56546D01*
X42750Y56450D01*
X42769Y56354D01*
X42823Y56273D01*
X42904Y56219D01*
X43000Y56200D01*
X43096Y56219D01*
X43177Y56273D01*
X43231Y56354D01*
X43250Y56450D01*
X43231Y56546D01*
X43177Y56627D01*
X43096Y56681D01*
X43000Y56700D01*
D02*
G37*
G36*
X44900Y57450D02*
X44804Y57431D01*
X44723Y57377D01*
X44669Y57296D01*
X44650Y57200D01*
X44669Y57104D01*
X44723Y57023D01*
X44804Y56969D01*
X44900Y56950D01*
X44996Y56969D01*
X45077Y57023D01*
X45131Y57104D01*
X45150Y57200D01*
X45131Y57296D01*
X45077Y57377D01*
X44996Y57431D01*
X44900Y57450D01*
D02*
G37*
G36*
X49000Y58099D02*
X48924Y58084D01*
X48859Y58041D01*
X48816Y57976D01*
X48801Y57900D01*
X48816Y57824D01*
X48859Y57759D01*
X48924Y57716D01*
X49000Y57701D01*
X49076Y57716D01*
X49141Y57759D01*
X49184Y57824D01*
X49199Y57900D01*
X49184Y57976D01*
X49141Y58041D01*
X49076Y58084D01*
X49000Y58099D01*
D02*
G37*
G36*
X40500Y55899D02*
X40424Y55884D01*
X40359Y55841D01*
X40316Y55776D01*
X40301Y55700D01*
X40316Y55624D01*
X40359Y55559D01*
X40424Y55516D01*
X40500Y55501D01*
X40576Y55516D01*
X40641Y55559D01*
X40684Y55624D01*
X40699Y55700D01*
X40684Y55776D01*
X40641Y55841D01*
X40576Y55884D01*
X40500Y55899D01*
D02*
G37*
G36*
X44169Y56418D02*
X44073Y56399D01*
X43992Y56345D01*
X43938Y56264D01*
X43919Y56168D01*
X43938Y56073D01*
X43992Y55992D01*
X44073Y55938D01*
X44169Y55919D01*
X44264Y55938D01*
X44345Y55992D01*
X44399Y56073D01*
X44418Y56168D01*
X44399Y56264D01*
X44345Y56345D01*
X44264Y56399D01*
X44169Y56418D01*
D02*
G37*
G36*
X45732D02*
X45636Y56399D01*
X45555Y56345D01*
X45501Y56264D01*
X45482Y56168D01*
X45501Y56073D01*
X45555Y55992D01*
X45636Y55938D01*
X45732Y55919D01*
X45827Y55938D01*
X45908Y55992D01*
X45962Y56073D01*
X45981Y56168D01*
X45962Y56264D01*
X45908Y56345D01*
X45827Y56399D01*
X45732Y56418D01*
D02*
G37*
G36*
X43300Y58699D02*
X43224Y58684D01*
X43159Y58641D01*
X43116Y58576D01*
X43101Y58500D01*
X43116Y58424D01*
X43159Y58359D01*
X43224Y58316D01*
X43300Y58301D01*
X43376Y58316D01*
X43441Y58359D01*
X43484Y58424D01*
X43499Y58500D01*
X43484Y58576D01*
X43441Y58641D01*
X43376Y58684D01*
X43300Y58699D01*
D02*
G37*
G36*
X44365Y59233D02*
X44289Y59218D01*
X44225Y59175D01*
X44182Y59111D01*
X44167Y59035D01*
X44182Y58959D01*
X44225Y58894D01*
X44289Y58851D01*
X44365Y58836D01*
X44441Y58851D01*
X44506Y58894D01*
X44549Y58959D01*
X44564Y59035D01*
X44549Y59111D01*
X44506Y59175D01*
X44441Y59218D01*
X44365Y59233D01*
D02*
G37*
G36*
X46365Y59264D02*
X46289Y59249D01*
X46225Y59206D01*
X46182Y59141D01*
X46167Y59065D01*
X46182Y58989D01*
X46225Y58925D01*
X46289Y58882D01*
X46365Y58867D01*
X46441Y58882D01*
X46506Y58925D01*
X46549Y58989D01*
X46564Y59065D01*
X46549Y59141D01*
X46506Y59206D01*
X46441Y59249D01*
X46365Y59264D01*
D02*
G37*
G36*
X48665Y60164D02*
X48589Y60149D01*
X48525Y60106D01*
X48482Y60041D01*
X48467Y59965D01*
X48482Y59889D01*
X48525Y59825D01*
X48589Y59782D01*
X48665Y59767D01*
X48741Y59782D01*
X48806Y59825D01*
X48849Y59889D01*
X48864Y59965D01*
X48849Y60041D01*
X48806Y60106D01*
X48741Y60149D01*
X48665Y60164D01*
D02*
G37*
G36*
X56700Y59099D02*
X56624Y59084D01*
X56559Y59041D01*
X56516Y58976D01*
X56501Y58900D01*
X56516Y58824D01*
X56559Y58759D01*
X56624Y58716D01*
X56700Y58701D01*
X56776Y58716D01*
X56841Y58759D01*
X56884Y58824D01*
X56899Y58900D01*
X56884Y58976D01*
X56841Y59041D01*
X56776Y59084D01*
X56700Y59099D01*
D02*
G37*
G36*
X52435Y59133D02*
X52359Y59118D01*
X52294Y59075D01*
X52251Y59011D01*
X52236Y58935D01*
X52251Y58859D01*
X52294Y58794D01*
X52359Y58751D01*
X52435Y58736D01*
X52511Y58751D01*
X52575Y58794D01*
X52618Y58859D01*
X52633Y58935D01*
X52618Y59011D01*
X52575Y59075D01*
X52511Y59118D01*
X52435Y59133D01*
D02*
G37*
G36*
X54474Y59173D02*
X54398Y59158D01*
X54333Y59115D01*
X54290Y59050D01*
X54275Y58974D01*
X54290Y58898D01*
X54333Y58833D01*
X54398Y58790D01*
X54474Y58775D01*
X54550Y58790D01*
X54615Y58833D01*
X54658Y58898D01*
X54673Y58974D01*
X54658Y59050D01*
X54615Y59115D01*
X54550Y59158D01*
X54474Y59173D01*
D02*
G37*
G36*
X30200Y51499D02*
X30124Y51484D01*
X30059Y51441D01*
X30016Y51376D01*
X30001Y51300D01*
X30016Y51224D01*
X30059Y51159D01*
X30124Y51116D01*
X30200Y51101D01*
X30276Y51116D01*
X30341Y51159D01*
X30384Y51224D01*
X30399Y51300D01*
X30384Y51376D01*
X30341Y51441D01*
X30276Y51484D01*
X30200Y51499D01*
D02*
G37*
G36*
X43050Y52750D02*
X42954Y52731D01*
X42873Y52677D01*
X42819Y52596D01*
X42800Y52500D01*
X42819Y52404D01*
X42873Y52323D01*
X42954Y52269D01*
X43050Y52250D01*
X43146Y52269D01*
X43227Y52323D01*
X43281Y52404D01*
X43300Y52500D01*
X43281Y52596D01*
X43227Y52677D01*
X43146Y52731D01*
X43050Y52750D01*
D02*
G37*
G36*
X44494Y52943D02*
X44418Y52928D01*
X44354Y52885D01*
X44311Y52821D01*
X44296Y52744D01*
X44311Y52668D01*
X44354Y52604D01*
X44418Y52561D01*
X44494Y52546D01*
X44571Y52561D01*
X44635Y52604D01*
X44678Y52668D01*
X44693Y52744D01*
X44678Y52821D01*
X44635Y52885D01*
X44571Y52928D01*
X44494Y52943D01*
D02*
G37*
G36*
X32800Y51199D02*
X32724Y51184D01*
X32659Y51141D01*
X32616Y51076D01*
X32607Y51074D01*
X32606Y51075D01*
X32541Y51118D01*
X32465Y51133D01*
X32389Y51118D01*
X32325Y51075D01*
X32282Y51011D01*
X32267Y50935D01*
X32282Y50859D01*
X32325Y50794D01*
X32389Y50751D01*
X32465Y50736D01*
X32541Y50751D01*
X32606Y50794D01*
X32649Y50859D01*
X32659Y50860D01*
X32659Y50859D01*
X32724Y50816D01*
X32800Y50801D01*
X32876Y50816D01*
X32941Y50859D01*
X32984Y50924D01*
X32999Y51000D01*
X32984Y51076D01*
X32941Y51141D01*
X32876Y51184D01*
X32800Y51199D01*
D02*
G37*
G36*
X37200D02*
X37124Y51184D01*
X37059Y51141D01*
X37025Y51089D01*
X36975D01*
X36941Y51141D01*
X36876Y51184D01*
X36800Y51199D01*
X36724Y51184D01*
X36659Y51141D01*
X36616Y51076D01*
X36601Y51000D01*
X36616Y50924D01*
X36659Y50859D01*
X36724Y50816D01*
X36800Y50801D01*
X36876Y50816D01*
X36941Y50859D01*
X36975Y50911D01*
X37025D01*
X37059Y50859D01*
X37124Y50816D01*
X37200Y50801D01*
X37276Y50816D01*
X37341Y50859D01*
X37384Y50924D01*
X37399Y51000D01*
X37384Y51076D01*
X37341Y51141D01*
X37276Y51184D01*
X37200Y51199D01*
D02*
G37*
G36*
X25550Y51600D02*
X25454Y51581D01*
X25373Y51527D01*
X25319Y51446D01*
X25300Y51350D01*
X25319Y51254D01*
X25373Y51173D01*
X25454Y51119D01*
X25550Y51100D01*
X25646Y51119D01*
X25727Y51173D01*
X25781Y51254D01*
X25800Y51350D01*
X25781Y51446D01*
X25727Y51527D01*
X25646Y51581D01*
X25550Y51600D01*
D02*
G37*
G36*
X50000Y53549D02*
X49924Y53534D01*
X49859Y53491D01*
X49816Y53426D01*
X49801Y53350D01*
X49816Y53274D01*
X49859Y53209D01*
X49924Y53166D01*
X50000Y53151D01*
X50076Y53166D01*
X50141Y53209D01*
X50184Y53274D01*
X50199Y53350D01*
X50184Y53426D01*
X50141Y53491D01*
X50076Y53534D01*
X50000Y53549D01*
D02*
G37*
G36*
X47535Y54915D02*
X47439Y54896D01*
X47358Y54842D01*
X47304Y54761D01*
X47285Y54665D01*
X47304Y54570D01*
X47358Y54489D01*
X47439Y54435D01*
X47535Y54416D01*
X47630Y54435D01*
X47711Y54489D01*
X47765Y54570D01*
X47784Y54665D01*
X47765Y54761D01*
X47711Y54842D01*
X47630Y54896D01*
X47535Y54915D01*
D02*
G37*
G36*
X49000Y55099D02*
X48924Y55084D01*
X48859Y55041D01*
X48816Y54976D01*
X48801Y54900D01*
X48816Y54824D01*
X48859Y54759D01*
X48924Y54716D01*
X49000Y54701D01*
X49076Y54716D01*
X49141Y54759D01*
X49184Y54824D01*
X49199Y54900D01*
X49184Y54976D01*
X49141Y55041D01*
X49076Y55084D01*
X49000Y55099D01*
D02*
G37*
G36*
X44800Y55350D02*
X44704Y55331D01*
X44623Y55277D01*
X44569Y55196D01*
X44550Y55100D01*
X44569Y55004D01*
X44623Y54923D01*
X44704Y54869D01*
X44800Y54850D01*
X44896Y54869D01*
X44977Y54923D01*
X45031Y55004D01*
X45050Y55100D01*
X45031Y55196D01*
X44977Y55277D01*
X44896Y55331D01*
X44800Y55350D01*
D02*
G37*
G36*
X43400Y54450D02*
X43304Y54431D01*
X43223Y54377D01*
X43169Y54296D01*
X43150Y54200D01*
X43169Y54104D01*
X43223Y54023D01*
X43304Y53969D01*
X43400Y53950D01*
X43496Y53969D01*
X43577Y54023D01*
X43631Y54104D01*
X43650Y54200D01*
X43631Y54296D01*
X43577Y54377D01*
X43496Y54431D01*
X43400Y54450D01*
D02*
G37*
G36*
X46300D02*
X46204Y54431D01*
X46123Y54377D01*
X46069Y54296D01*
X46050Y54200D01*
X46069Y54104D01*
X46123Y54023D01*
X46204Y53969D01*
X46300Y53950D01*
X46396Y53969D01*
X46477Y54023D01*
X46531Y54104D01*
X46550Y54200D01*
X46531Y54296D01*
X46477Y54377D01*
X46396Y54431D01*
X46300Y54450D01*
D02*
G37*
G36*
X42950Y54850D02*
X42854Y54831D01*
X42773Y54777D01*
X42719Y54696D01*
X42700Y54600D01*
X42719Y54504D01*
X42773Y54423D01*
X42854Y54369D01*
X42950Y54350D01*
X43046Y54369D01*
X43127Y54423D01*
X43181Y54504D01*
X43200Y54600D01*
X43181Y54696D01*
X43127Y54777D01*
X43046Y54831D01*
X42950Y54850D01*
D02*
G37*
G36*
X41983Y46982D02*
X41907Y46966D01*
X41842Y46923D01*
X41799Y46859D01*
X41784Y46783D01*
X41799Y46707D01*
X41842Y46642D01*
X41907Y46599D01*
X41983Y46584D01*
X42059Y46599D01*
X42123Y46642D01*
X42166Y46707D01*
X42182Y46783D01*
X42166Y46859D01*
X42123Y46923D01*
X42059Y46966D01*
X41983Y46982D01*
D02*
G37*
G36*
X48600Y46999D02*
X48524Y46984D01*
X48459Y46941D01*
X48416Y46876D01*
X48401Y46800D01*
X48416Y46724D01*
X48459Y46659D01*
X48524Y46616D01*
X48600Y46601D01*
X48676Y46616D01*
X48741Y46659D01*
X48784Y46724D01*
X48799Y46800D01*
X48784Y46876D01*
X48741Y46941D01*
X48676Y46984D01*
X48600Y46999D01*
D02*
G37*
G36*
X47400Y47099D02*
X47324Y47084D01*
X47259Y47041D01*
X47216Y46976D01*
X47201Y46900D01*
X47216Y46824D01*
X47259Y46759D01*
X47324Y46716D01*
X47400Y46701D01*
X47476Y46716D01*
X47541Y46759D01*
X47584Y46824D01*
X47599Y46900D01*
X47584Y46976D01*
X47541Y47041D01*
X47476Y47084D01*
X47400Y47099D01*
D02*
G37*
G36*
X33200Y46899D02*
X33124Y46884D01*
X33059Y46841D01*
X33016Y46776D01*
X33001Y46700D01*
X33016Y46624D01*
X33059Y46559D01*
X33124Y46516D01*
X33200Y46501D01*
X33276Y46516D01*
X33341Y46559D01*
X33384Y46624D01*
X33399Y46700D01*
X33384Y46776D01*
X33341Y46841D01*
X33276Y46884D01*
X33200Y46899D01*
D02*
G37*
G36*
X57500D02*
X57424Y46884D01*
X57359Y46841D01*
X57316Y46776D01*
X57301Y46700D01*
X57316Y46624D01*
X57359Y46559D01*
X57424Y46516D01*
X57500Y46501D01*
X57576Y46516D01*
X57641Y46559D01*
X57684Y46624D01*
X57699Y46700D01*
X57684Y46776D01*
X57641Y46841D01*
X57576Y46884D01*
X57500Y46899D01*
D02*
G37*
G36*
X31600Y46949D02*
X31524Y46934D01*
X31459Y46891D01*
X31416Y46826D01*
X31401Y46750D01*
X31416Y46674D01*
X31459Y46609D01*
X31524Y46566D01*
X31600Y46551D01*
X31676Y46566D01*
X31741Y46609D01*
X31784Y46674D01*
X31799Y46750D01*
X31784Y46826D01*
X31741Y46891D01*
X31676Y46934D01*
X31600Y46949D01*
D02*
G37*
G36*
X31373Y47572D02*
X31297Y47557D01*
X31233Y47514D01*
X31190Y47449D01*
X31174Y47373D01*
X31190Y47297D01*
X31233Y47233D01*
X31297Y47190D01*
X31373Y47174D01*
X31449Y47190D01*
X31514Y47233D01*
X31557Y47297D01*
X31572Y47373D01*
X31557Y47449D01*
X31514Y47514D01*
X31449Y47557D01*
X31373Y47572D01*
D02*
G37*
G36*
X57600Y47799D02*
X57524Y47784D01*
X57459Y47741D01*
X57416Y47676D01*
X57401Y47600D01*
X57416Y47524D01*
X57459Y47459D01*
X57524Y47416D01*
X57600Y47401D01*
X57676Y47416D01*
X57741Y47459D01*
X57784Y47524D01*
X57799Y47600D01*
X57784Y47676D01*
X57741Y47741D01*
X57676Y47784D01*
X57600Y47799D01*
D02*
G37*
G36*
X47400Y48099D02*
X47324Y48084D01*
X47259Y48041D01*
X47216Y47976D01*
X47201Y47900D01*
X47216Y47824D01*
X47259Y47759D01*
X47324Y47716D01*
X47400Y47701D01*
X47476Y47716D01*
X47541Y47759D01*
X47584Y47824D01*
X47599Y47900D01*
X47584Y47976D01*
X47541Y48041D01*
X47476Y48084D01*
X47400Y48099D01*
D02*
G37*
G36*
X55565Y48133D02*
X55489Y48118D01*
X55425Y48075D01*
X55382Y48011D01*
X55367Y47935D01*
X55382Y47859D01*
X55425Y47794D01*
X55489Y47751D01*
X55565Y47736D01*
X55641Y47751D01*
X55706Y47794D01*
X55749Y47859D01*
X55764Y47935D01*
X55749Y48011D01*
X55706Y48075D01*
X55641Y48118D01*
X55565Y48133D01*
D02*
G37*
G36*
X33000Y47599D02*
X32924Y47584D01*
X32859Y47541D01*
X32816Y47476D01*
X32801Y47400D01*
X32816Y47324D01*
X32859Y47259D01*
X32924Y47216D01*
X33000Y47201D01*
X33076Y47216D01*
X33141Y47259D01*
X33184Y47324D01*
X33199Y47400D01*
X33184Y47476D01*
X33141Y47541D01*
X33076Y47584D01*
X33000Y47599D01*
D02*
G37*
G36*
X40400D02*
X40324Y47584D01*
X40259Y47541D01*
X40216Y47476D01*
X40201Y47400D01*
X40216Y47324D01*
X40259Y47259D01*
X40324Y47216D01*
X40400Y47201D01*
X40476Y47216D01*
X40541Y47259D01*
X40584Y47324D01*
X40599Y47400D01*
X40584Y47476D01*
X40541Y47541D01*
X40476Y47584D01*
X40400Y47599D01*
D02*
G37*
G36*
X41900D02*
X41824Y47584D01*
X41759Y47541D01*
X41716Y47476D01*
X41701Y47400D01*
X41716Y47324D01*
X41759Y47259D01*
X41824Y47216D01*
X41900Y47201D01*
X41976Y47216D01*
X42041Y47259D01*
X42084Y47324D01*
X42099Y47400D01*
X42084Y47476D01*
X42041Y47541D01*
X41976Y47584D01*
X41900Y47599D01*
D02*
G37*
G36*
X32000Y46099D02*
X31924Y46084D01*
X31859Y46041D01*
X31816Y45976D01*
X31801Y45900D01*
X31816Y45824D01*
X31859Y45759D01*
X31924Y45716D01*
X32000Y45701D01*
X32076Y45716D01*
X32141Y45759D01*
X32184Y45824D01*
X32199Y45900D01*
X32184Y45976D01*
X32141Y46041D01*
X32076Y46084D01*
X32000Y46099D01*
D02*
G37*
G36*
X51200D02*
X51124Y46084D01*
X51059Y46041D01*
X51016Y45976D01*
X51001Y45900D01*
X51016Y45824D01*
X51059Y45759D01*
X51124Y45716D01*
X51200Y45701D01*
X51276Y45716D01*
X51341Y45759D01*
X51384Y45824D01*
X51399Y45900D01*
X51384Y45976D01*
X51341Y46041D01*
X51276Y46084D01*
X51200Y46099D01*
D02*
G37*
G36*
X50000Y46199D02*
X49924Y46184D01*
X49859Y46141D01*
X49816Y46076D01*
X49801Y46000D01*
X49816Y45924D01*
X49859Y45859D01*
X49924Y45816D01*
X50000Y45801D01*
X50076Y45816D01*
X50141Y45859D01*
X50184Y45924D01*
X50199Y46000D01*
X50184Y46076D01*
X50141Y46141D01*
X50076Y46184D01*
X50000Y46199D01*
D02*
G37*
G36*
X47403Y45996D02*
X47327Y45981D01*
X47263Y45937D01*
X47219Y45873D01*
X47204Y45797D01*
X47219Y45721D01*
X47263Y45656D01*
X47327Y45613D01*
X47403Y45598D01*
X47479Y45613D01*
X47544Y45656D01*
X47587Y45721D01*
X47602Y45797D01*
X47587Y45873D01*
X47544Y45937D01*
X47479Y45981D01*
X47403Y45996D01*
D02*
G37*
G36*
X48600Y45999D02*
X48524Y45984D01*
X48459Y45941D01*
X48416Y45876D01*
X48401Y45800D01*
X48416Y45724D01*
X48459Y45659D01*
X48524Y45616D01*
X48600Y45601D01*
X48676Y45616D01*
X48741Y45659D01*
X48784Y45724D01*
X48799Y45800D01*
X48784Y45876D01*
X48741Y45941D01*
X48676Y45984D01*
X48600Y45999D01*
D02*
G37*
G36*
X56300D02*
X56224Y45984D01*
X56159Y45941D01*
X56116Y45876D01*
X56101Y45800D01*
X56116Y45724D01*
X56159Y45659D01*
X56224Y45616D01*
X56300Y45601D01*
X56376Y45616D01*
X56441Y45659D01*
X56484Y45724D01*
X56499Y45800D01*
X56484Y45876D01*
X56441Y45941D01*
X56376Y45984D01*
X56300Y45999D01*
D02*
G37*
G36*
X54800Y46199D02*
X54724Y46184D01*
X54659Y46141D01*
X54616Y46076D01*
X54601Y46000D01*
X54616Y45924D01*
X54659Y45859D01*
X54724Y45816D01*
X54800Y45801D01*
X54876Y45816D01*
X54941Y45859D01*
X54984Y45924D01*
X54999Y46000D01*
X54984Y46076D01*
X54941Y46141D01*
X54876Y46184D01*
X54800Y46199D01*
D02*
G37*
G36*
X40400Y46599D02*
X40324Y46584D01*
X40259Y46541D01*
X40216Y46476D01*
X40201Y46400D01*
X40216Y46324D01*
X40259Y46259D01*
X40324Y46216D01*
X40400Y46201D01*
X40476Y46216D01*
X40541Y46259D01*
X40584Y46324D01*
X40599Y46400D01*
X40584Y46476D01*
X40541Y46541D01*
X40476Y46584D01*
X40400Y46599D01*
D02*
G37*
G36*
X49400D02*
X49324Y46584D01*
X49259Y46541D01*
X49216Y46476D01*
X49201Y46400D01*
X49216Y46324D01*
X49259Y46259D01*
X49324Y46216D01*
X49400Y46201D01*
X49476Y46216D01*
X49541Y46259D01*
X49584Y46324D01*
X49599Y46400D01*
X49584Y46476D01*
X49541Y46541D01*
X49476Y46584D01*
X49400Y46599D01*
D02*
G37*
G36*
X43400Y46799D02*
X43324Y46784D01*
X43259Y46741D01*
X43216Y46676D01*
X43201Y46600D01*
X43216Y46524D01*
X43259Y46459D01*
X43324Y46416D01*
X43400Y46401D01*
X43476Y46416D01*
X43541Y46459D01*
X43584Y46524D01*
X43599Y46600D01*
X43584Y46676D01*
X43541Y46741D01*
X43476Y46784D01*
X43400Y46799D01*
D02*
G37*
G36*
X42000Y46399D02*
X41924Y46384D01*
X41859Y46341D01*
X41816Y46276D01*
X41801Y46200D01*
X41816Y46124D01*
X41859Y46059D01*
X41924Y46016D01*
X42000Y46001D01*
X42076Y46016D01*
X42141Y46059D01*
X42184Y46124D01*
X42199Y46200D01*
X42184Y46276D01*
X42141Y46341D01*
X42076Y46384D01*
X42000Y46399D01*
D02*
G37*
G36*
X53800D02*
X53724Y46384D01*
X53659Y46341D01*
X53616Y46276D01*
X53601Y46200D01*
X53616Y46124D01*
X53659Y46059D01*
X53724Y46016D01*
X53800Y46001D01*
X53876Y46016D01*
X53941Y46059D01*
X53984Y46124D01*
X53999Y46200D01*
X53984Y46276D01*
X53941Y46341D01*
X53876Y46384D01*
X53800Y46399D01*
D02*
G37*
G36*
X31600Y46499D02*
X31524Y46484D01*
X31459Y46441D01*
X31416Y46376D01*
X31401Y46300D01*
X31416Y46224D01*
X31459Y46159D01*
X31524Y46116D01*
X31600Y46101D01*
X31676Y46116D01*
X31741Y46159D01*
X31784Y46224D01*
X31799Y46300D01*
X31784Y46376D01*
X31741Y46441D01*
X31676Y46484D01*
X31600Y46499D01*
D02*
G37*
G36*
X34200Y49649D02*
X34124Y49634D01*
X34059Y49591D01*
X34016Y49526D01*
X34001Y49450D01*
X34016Y49374D01*
X34059Y49309D01*
X34124Y49266D01*
X34200Y49251D01*
X34276Y49266D01*
X34341Y49309D01*
X34384Y49374D01*
X34399Y49450D01*
X34384Y49526D01*
X34341Y49591D01*
X34276Y49634D01*
X34200Y49649D01*
D02*
G37*
G36*
X35200D02*
X35124Y49634D01*
X35059Y49591D01*
X35016Y49526D01*
X35001Y49450D01*
X35016Y49374D01*
X35059Y49309D01*
X35124Y49266D01*
X35200Y49251D01*
X35276Y49266D01*
X35341Y49309D01*
X35384Y49374D01*
X35399Y49450D01*
X35384Y49526D01*
X35341Y49591D01*
X35276Y49634D01*
X35200Y49649D01*
D02*
G37*
G36*
X38200D02*
X38124Y49634D01*
X38059Y49591D01*
X38016Y49526D01*
X38001Y49450D01*
X38016Y49374D01*
X38059Y49309D01*
X38124Y49266D01*
X38200Y49251D01*
X38276Y49266D01*
X38341Y49309D01*
X38384Y49374D01*
X38399Y49450D01*
X38384Y49526D01*
X38341Y49591D01*
X38276Y49634D01*
X38200Y49649D01*
D02*
G37*
G36*
X38700Y49399D02*
X38624Y49384D01*
X38559Y49341D01*
X38516Y49276D01*
X38501Y49200D01*
X38516Y49124D01*
X38559Y49059D01*
X38624Y49016D01*
X38700Y49001D01*
X38776Y49016D01*
X38841Y49059D01*
X38884Y49124D01*
X38899Y49200D01*
X38884Y49276D01*
X38841Y49341D01*
X38776Y49384D01*
X38700Y49399D01*
D02*
G37*
G36*
X33300Y49599D02*
X33224Y49584D01*
X33159Y49541D01*
X33116Y49476D01*
X33101Y49400D01*
X33116Y49324D01*
X33159Y49259D01*
X33224Y49216D01*
X33300Y49201D01*
X33376Y49216D01*
X33441Y49259D01*
X33484Y49324D01*
X33499Y49400D01*
X33484Y49476D01*
X33441Y49541D01*
X33376Y49584D01*
X33300Y49599D01*
D02*
G37*
G36*
X37200D02*
X37124Y49584D01*
X37059Y49541D01*
X37016Y49476D01*
X37001Y49400D01*
X37016Y49324D01*
X37059Y49259D01*
X37124Y49216D01*
X37200Y49201D01*
X37276Y49216D01*
X37341Y49259D01*
X37384Y49324D01*
X37399Y49400D01*
X37384Y49476D01*
X37341Y49541D01*
X37276Y49584D01*
X37200Y49599D01*
D02*
G37*
G36*
X56335Y49733D02*
X56259Y49718D01*
X56194Y49675D01*
X56151Y49611D01*
X56136Y49535D01*
X56151Y49459D01*
X56194Y49394D01*
X56259Y49351D01*
X56335Y49336D01*
X56411Y49351D01*
X56475Y49394D01*
X56518Y49459D01*
X56533Y49535D01*
X56518Y49611D01*
X56475Y49675D01*
X56411Y49718D01*
X56335Y49733D01*
D02*
G37*
G36*
X40450Y49799D02*
X40374Y49784D01*
X40309Y49741D01*
X40275Y49689D01*
X40225D01*
X40191Y49741D01*
X40126Y49784D01*
X40050Y49799D01*
X39974Y49784D01*
X39909Y49741D01*
X39866Y49676D01*
X39851Y49600D01*
X39866Y49524D01*
X39909Y49459D01*
X39974Y49416D01*
X40050Y49401D01*
X40126Y49416D01*
X40191Y49459D01*
X40225Y49511D01*
X40275D01*
X40309Y49459D01*
X40374Y49416D01*
X40450Y49401D01*
X40526Y49416D01*
X40591Y49459D01*
X40634Y49524D01*
X40649Y49600D01*
X40634Y49676D01*
X40591Y49741D01*
X40526Y49784D01*
X40450Y49799D01*
D02*
G37*
G36*
X49000Y50099D02*
X48924Y50084D01*
X48859Y50041D01*
X48816Y49976D01*
X48801Y49900D01*
X48816Y49824D01*
X48859Y49759D01*
X48924Y49716D01*
X49000Y49701D01*
X49076Y49716D01*
X49141Y49759D01*
X49184Y49824D01*
X49199Y49900D01*
X49184Y49976D01*
X49141Y50041D01*
X49076Y50084D01*
X49000Y50099D01*
D02*
G37*
G36*
X52000D02*
X51924Y50084D01*
X51859Y50041D01*
X51816Y49976D01*
X51801Y49900D01*
X51816Y49824D01*
X51859Y49759D01*
X51924Y49716D01*
X52000Y49701D01*
X52076Y49716D01*
X52141Y49759D01*
X52184Y49824D01*
X52199Y49900D01*
X52184Y49976D01*
X52141Y50041D01*
X52076Y50084D01*
X52000Y50099D01*
D02*
G37*
G36*
X42061Y49737D02*
X41985Y49722D01*
X41921Y49679D01*
X41878Y49615D01*
X41863Y49539D01*
X41878Y49462D01*
X41921Y49398D01*
X41985Y49355D01*
X42061Y49340D01*
X42137Y49355D01*
X42202Y49398D01*
X42245Y49462D01*
X42260Y49539D01*
X42245Y49615D01*
X42202Y49679D01*
X42137Y49722D01*
X42061Y49737D01*
D02*
G37*
G36*
X43200Y49799D02*
X43124Y49784D01*
X43059Y49741D01*
X43016Y49676D01*
X43001Y49600D01*
X43016Y49524D01*
X43059Y49459D01*
X43124Y49416D01*
X43200Y49401D01*
X43276Y49416D01*
X43341Y49459D01*
X43384Y49524D01*
X43399Y49600D01*
X43384Y49676D01*
X43341Y49741D01*
X43276Y49784D01*
X43200Y49799D01*
D02*
G37*
G36*
X31300Y51399D02*
X31224Y51384D01*
X31159Y51341D01*
X31116Y51276D01*
X31101Y51200D01*
X31116Y51124D01*
X31159Y51059D01*
X31224Y51016D01*
X31300Y51001D01*
X31322Y51005D01*
X31978Y50349D01*
Y49542D01*
X31936Y49515D01*
X31922Y49520D01*
Y49700D01*
X31913Y49747D01*
X31887Y49787D01*
X31795Y49878D01*
X31799Y49900D01*
X31784Y49976D01*
X31741Y50041D01*
X31676Y50084D01*
X31616Y50096D01*
X31606Y50145D01*
X31667Y50185D01*
X31710Y50250D01*
X31725Y50326D01*
X31710Y50402D01*
X31667Y50467D01*
X31602Y50510D01*
X31526Y50525D01*
X31450Y50510D01*
X31385Y50467D01*
X31342Y50402D01*
X31327Y50326D01*
X31331Y50304D01*
X30441Y49414D01*
X30393Y49429D01*
X30384Y49476D01*
X30341Y49541D01*
X30276Y49584D01*
X30200Y49599D01*
X30124Y49584D01*
X30059Y49541D01*
X30016Y49476D01*
X30001Y49400D01*
X30016Y49324D01*
X30059Y49259D01*
X30124Y49216D01*
X30171Y49207D01*
X30186Y49159D01*
X29949Y48922D01*
X29100D01*
X29053Y48913D01*
X29013Y48887D01*
X27013Y46887D01*
X26987Y46847D01*
X26978Y46800D01*
Y35900D01*
X26987Y35853D01*
X27013Y35813D01*
X28105Y34722D01*
X28101Y34700D01*
X28116Y34624D01*
X28159Y34559D01*
X28224Y34516D01*
X28300Y34501D01*
X28376Y34516D01*
X28441Y34559D01*
X28484Y34624D01*
X28499Y34700D01*
X28484Y34776D01*
X28441Y34841D01*
X28376Y34884D01*
X28300Y34899D01*
X28278Y34895D01*
X27222Y35951D01*
Y46749D01*
X29151Y48678D01*
X30000D01*
X30047Y48687D01*
X30087Y48713D01*
X31372Y49999D01*
X31416Y49976D01*
X31401Y49900D01*
X31416Y49824D01*
X31459Y49759D01*
X31524Y49716D01*
X31600Y49701D01*
X31622Y49705D01*
X31678Y49649D01*
Y49451D01*
X31628Y49401D01*
X31584Y49425D01*
X31599Y49500D01*
X31584Y49576D01*
X31541Y49641D01*
X31476Y49684D01*
X31400Y49699D01*
X31324Y49684D01*
X31259Y49641D01*
X31216Y49576D01*
X31201Y49500D01*
X31216Y49424D01*
X31259Y49359D01*
X31324Y49316D01*
X31400Y49301D01*
X31476Y49316D01*
X31499Y49272D01*
X30749Y48522D01*
X29400D01*
X29353Y48513D01*
X29313Y48487D01*
X27713Y46887D01*
X27687Y46847D01*
X27678Y46800D01*
Y36000D01*
X27687Y35953D01*
X27713Y35913D01*
X28678Y34949D01*
Y34101D01*
X28263Y33687D01*
X28237Y33647D01*
X28228Y33600D01*
Y32850D01*
X28237Y32803D01*
X28263Y32763D01*
X28613Y32413D01*
X28631Y32402D01*
X28659Y32359D01*
X28724Y32316D01*
X28800Y32301D01*
X28876Y32316D01*
X28941Y32359D01*
X28984Y32424D01*
X28999Y32500D01*
X28984Y32576D01*
X28941Y32641D01*
X28876Y32684D01*
X28800Y32699D01*
X28724Y32684D01*
X28703Y32670D01*
X28472Y32901D01*
Y33549D01*
X28549Y33626D01*
X28593Y33603D01*
X28586Y33565D01*
X28601Y33489D01*
X28644Y33425D01*
X28709Y33382D01*
X28785Y33367D01*
X28861Y33382D01*
X28925Y33425D01*
X28968Y33489D01*
X28983Y33565D01*
X28968Y33641D01*
X28925Y33706D01*
X28861Y33749D01*
X28785Y33764D01*
X28747Y33757D01*
X28724Y33801D01*
X28887Y33963D01*
X28913Y34003D01*
X28922Y34050D01*
Y35000D01*
X28913Y35047D01*
X28902Y35063D01*
X28887Y35087D01*
X27922Y36051D01*
Y40714D01*
X27970Y40728D01*
X27973Y40723D01*
X28054Y40669D01*
X28150Y40650D01*
X28246Y40669D01*
X28327Y40723D01*
X28381Y40804D01*
X28400Y40900D01*
X28381Y40996D01*
X28327Y41077D01*
X28246Y41131D01*
X28150Y41150D01*
X28054Y41131D01*
X27973Y41077D01*
X27970Y41072D01*
X27922Y41086D01*
Y46749D01*
X29451Y48278D01*
X30800D01*
X30846Y48287D01*
X30870Y48243D01*
X29241Y46614D01*
X29193Y46629D01*
X29184Y46676D01*
X29141Y46741D01*
X29076Y46784D01*
X29000Y46799D01*
X28924Y46784D01*
X28859Y46741D01*
X28816Y46676D01*
X28801Y46600D01*
X28816Y46524D01*
X28859Y46459D01*
X28924Y46416D01*
X28971Y46407D01*
X28986Y46359D01*
X28513Y45887D01*
X28487Y45847D01*
X28478Y45800D01*
Y35950D01*
X28487Y35903D01*
X28513Y35863D01*
X29178Y35199D01*
Y32351D01*
X28649Y31822D01*
X28151D01*
X27195Y32778D01*
X27199Y32800D01*
X27184Y32876D01*
X27141Y32941D01*
X27076Y32984D01*
X27000Y32999D01*
X26924Y32984D01*
X26859Y32941D01*
X26816Y32876D01*
X26801Y32800D01*
X26816Y32724D01*
X26859Y32659D01*
X26924Y32616D01*
X27000Y32601D01*
X27022Y32605D01*
X28013Y31613D01*
X28053Y31587D01*
X28100Y31578D01*
X28700D01*
X28747Y31587D01*
X28787Y31613D01*
X29387Y32213D01*
X29413Y32253D01*
X29422Y32300D01*
Y35250D01*
X29413Y35297D01*
X29387Y35337D01*
X28722Y36001D01*
Y45749D01*
X31181Y48208D01*
X31230Y48203D01*
X31259Y48159D01*
X31324Y48116D01*
X31400Y48101D01*
X31476Y48116D01*
X31541Y48159D01*
X31584Y48224D01*
X31599Y48300D01*
X31584Y48376D01*
X31541Y48441D01*
X31476Y48484D01*
X31400Y48499D01*
X31375Y48494D01*
X31351Y48538D01*
X32187Y49373D01*
X32213Y49413D01*
X32222Y49460D01*
Y50073D01*
X32266Y50097D01*
X32289Y50082D01*
X32365Y50067D01*
X32441Y50082D01*
X32506Y50125D01*
X32549Y50189D01*
X32564Y50265D01*
X32549Y50341D01*
X32506Y50406D01*
X32441Y50449D01*
X32365Y50464D01*
X32289Y50449D01*
X32225Y50406D01*
X32213Y50447D01*
Y50447D01*
X32187Y50487D01*
X31495Y51178D01*
X31499Y51200D01*
X31484Y51276D01*
X31441Y51341D01*
X31376Y51384D01*
X31300Y51399D01*
D02*
G37*
G36*
X50200Y48599D02*
X50124Y48584D01*
X50059Y48541D01*
X50016Y48476D01*
X50001Y48400D01*
X50016Y48324D01*
X50059Y48259D01*
X50124Y48216D01*
X50200Y48201D01*
X50276Y48216D01*
X50341Y48259D01*
X50384Y48324D01*
X50399Y48400D01*
X50384Y48476D01*
X50341Y48541D01*
X50276Y48584D01*
X50200Y48599D01*
D02*
G37*
G36*
X49465Y48664D02*
X49389Y48649D01*
X49325Y48606D01*
X49282Y48541D01*
X49267Y48465D01*
X49282Y48389D01*
X49325Y48325D01*
X49389Y48282D01*
X49465Y48267D01*
X49541Y48282D01*
X49606Y48325D01*
X49649Y48389D01*
X49664Y48465D01*
X49649Y48541D01*
X49606Y48606D01*
X49541Y48649D01*
X49465Y48664D01*
D02*
G37*
G36*
X52000Y48699D02*
X51924Y48684D01*
X51859Y48641D01*
X51816Y48576D01*
X51801Y48500D01*
X51816Y48424D01*
X51859Y48359D01*
X51924Y48316D01*
X52000Y48301D01*
X52076Y48316D01*
X52141Y48359D01*
X52184Y48424D01*
X52199Y48500D01*
X52184Y48576D01*
X52141Y48641D01*
X52076Y48684D01*
X52000Y48699D01*
D02*
G37*
G36*
X44100Y48499D02*
X44024Y48484D01*
X43959Y48441D01*
X43916Y48376D01*
X43901Y48300D01*
X43916Y48224D01*
X43959Y48159D01*
X44024Y48116D01*
X44100Y48101D01*
X44176Y48116D01*
X44241Y48159D01*
X44284Y48224D01*
X44299Y48300D01*
X44284Y48376D01*
X44241Y48441D01*
X44176Y48484D01*
X44100Y48499D01*
D02*
G37*
G36*
X32950Y48599D02*
X32874Y48584D01*
X32809Y48541D01*
X32766Y48476D01*
X32751Y48400D01*
X32766Y48324D01*
X32809Y48259D01*
X32874Y48216D01*
X32950Y48201D01*
X33026Y48216D01*
X33091Y48259D01*
X33134Y48324D01*
X33149Y48400D01*
X33134Y48476D01*
X33091Y48541D01*
X33026Y48584D01*
X32950Y48599D01*
D02*
G37*
G36*
X40400D02*
X40324Y48584D01*
X40259Y48541D01*
X40216Y48476D01*
X40201Y48400D01*
X40216Y48324D01*
X40259Y48259D01*
X40324Y48216D01*
X40400Y48201D01*
X40476Y48216D01*
X40541Y48259D01*
X40584Y48324D01*
X40599Y48400D01*
X40584Y48476D01*
X40541Y48541D01*
X40476Y48584D01*
X40400Y48599D01*
D02*
G37*
G36*
X54000Y48699D02*
X53924Y48684D01*
X53859Y48641D01*
X53816Y48576D01*
X53801Y48500D01*
X53816Y48424D01*
X53859Y48359D01*
X53924Y48316D01*
X54000Y48301D01*
X54076Y48316D01*
X54141Y48359D01*
X54184Y48424D01*
X54199Y48500D01*
X54184Y48576D01*
X54141Y48641D01*
X54076Y48684D01*
X54000Y48699D01*
D02*
G37*
G36*
X47400Y49299D02*
X47324Y49284D01*
X47259Y49241D01*
X47216Y49176D01*
X47201Y49100D01*
X47216Y49024D01*
X47259Y48959D01*
X47324Y48916D01*
X47400Y48901D01*
X47476Y48916D01*
X47541Y48959D01*
X47584Y49024D01*
X47599Y49100D01*
X47584Y49176D01*
X47541Y49241D01*
X47476Y49284D01*
X47400Y49299D01*
D02*
G37*
G36*
X48543Y49342D02*
X48467Y49327D01*
X48403Y49284D01*
X48360Y49219D01*
X48344Y49143D01*
X48360Y49067D01*
X48403Y49003D01*
X48467Y48960D01*
X48543Y48944D01*
X48619Y48960D01*
X48684Y49003D01*
X48727Y49067D01*
X48742Y49143D01*
X48727Y49219D01*
X48684Y49284D01*
X48619Y49327D01*
X48543Y49342D01*
D02*
G37*
G36*
X37700Y49399D02*
X37624Y49384D01*
X37559Y49341D01*
X37516Y49276D01*
X37501Y49200D01*
X37516Y49124D01*
X37559Y49059D01*
X37624Y49016D01*
X37700Y49001D01*
X37776Y49016D01*
X37841Y49059D01*
X37884Y49124D01*
X37899Y49200D01*
X37884Y49276D01*
X37841Y49341D01*
X37776Y49384D01*
X37700Y49399D01*
D02*
G37*
G36*
X55000Y48699D02*
X54924Y48684D01*
X54859Y48641D01*
X54816Y48576D01*
X54801Y48500D01*
X54816Y48424D01*
X54859Y48359D01*
X54924Y48316D01*
X55000Y48301D01*
X55076Y48316D01*
X55141Y48359D01*
X55184Y48424D01*
X55199Y48500D01*
X55184Y48576D01*
X55141Y48641D01*
X55076Y48684D01*
X55000Y48699D01*
D02*
G37*
G36*
X57600Y48899D02*
X57524Y48884D01*
X57459Y48841D01*
X57416Y48776D01*
X57401Y48700D01*
X57416Y48624D01*
X57459Y48559D01*
X57524Y48516D01*
X57600Y48501D01*
X57676Y48516D01*
X57741Y48559D01*
X57784Y48624D01*
X57799Y48700D01*
X57784Y48776D01*
X57741Y48841D01*
X57676Y48884D01*
X57600Y48899D01*
D02*
G37*
G36*
X39500Y48999D02*
X39424Y48984D01*
X39359Y48941D01*
X39316Y48876D01*
X39301Y48800D01*
X39316Y48724D01*
X39359Y48659D01*
X39424Y48616D01*
X39500Y48601D01*
X39576Y48616D01*
X39641Y48659D01*
X39684Y48724D01*
X39699Y48800D01*
X39684Y48876D01*
X39641Y48941D01*
X39576Y48984D01*
X39500Y48999D01*
D02*
G37*
%LPD*%
D38*
X29400Y48400D02*
X30800D01*
X31800Y49400D01*
Y49700D01*
X31600Y49900D02*
X31800Y49700D01*
X27800Y46800D02*
X29400Y48400D01*
X30000Y48800D02*
X31526Y50326D01*
X29100Y48800D02*
X30000D01*
X27100Y46800D02*
X29100Y48800D01*
X28600Y45800D02*
X31163Y48363D01*
Y48523D01*
X32100Y49460D01*
Y50400D01*
X31300Y51200D02*
X32100Y50400D01*
X31100Y40600D02*
X31600Y41100D01*
X27100Y35900D02*
X28300Y34700D01*
X27100Y35900D02*
Y46800D01*
X27800Y36000D02*
X28800Y35000D01*
Y34050D02*
Y35000D01*
X28350Y33600D02*
X28800Y34050D01*
X28350Y32850D02*
Y33600D01*
Y32850D02*
X28700Y32500D01*
X28800D01*
X27800Y36000D02*
Y46800D01*
X28600Y35950D02*
X29300Y35250D01*
Y32300D02*
Y35250D01*
X28700Y31700D02*
X29300Y32300D01*
X28100Y31700D02*
X28700D01*
X27000Y32800D02*
X28100Y31700D01*
X28600Y35950D02*
Y45800D01*
X30200Y34100D02*
X31100Y35000D01*
X30200Y33335D02*
Y34100D01*
X31100Y35000D02*
Y40600D01*
X30350Y30950D02*
X31450Y32050D01*
Y34700D01*
X82550Y36560D02*
Y35960D01*
X82950D01*
X83150D02*
Y36360D01*
X83350Y36560D01*
X83550Y36360D01*
Y35960D01*
Y36260D01*
X83150D01*
X83750Y36560D02*
Y36460D01*
X83950Y36260D01*
X84149Y36460D01*
Y36560D01*
X83950Y36260D02*
Y35960D01*
X84749Y36560D02*
X84349D01*
Y35960D01*
X84749D01*
X84349Y36260D02*
X84549D01*
X84949Y35960D02*
Y36560D01*
X85249D01*
X85349Y36460D01*
Y36260D01*
X85249Y36160D01*
X84949D01*
X85149D02*
X85349Y35960D01*
X86449D02*
Y36560D01*
X86149Y36260D01*
X86549D01*
D49*
X46300Y53200D02*
D03*
X38500Y34700D02*
D03*
X38700Y36000D02*
D03*
D50*
X49600Y49800D02*
D03*
X48600Y47800D02*
D03*
X47300Y44900D02*
D03*
X50400Y44600D02*
D03*
X54300D02*
D03*
X55706Y44594D02*
D03*
X56387Y44813D02*
D03*
X56300Y46600D02*
D03*
X56400Y47400D02*
D03*
X56450Y48750D02*
D03*
X54131Y50031D02*
D03*
X52557Y49943D02*
D03*
X51376Y49976D02*
D03*
X34436Y51036D02*
D03*
X38500Y51000D02*
D03*
X41900Y48000D02*
D03*
X41800Y43400D02*
D03*
X38964Y40364D02*
D03*
X31500Y47900D02*
D03*
X30200Y43700D02*
D03*
X56200Y40800D02*
D03*
X34830Y40430D02*
D03*
X31600Y49900D02*
D03*
X31526Y50326D02*
D03*
X31300Y51200D02*
D03*
X31600Y41100D02*
D03*
X52550Y52650D02*
D03*
X51800Y53350D02*
D03*
X28300Y34700D02*
D03*
X28800Y32500D02*
D03*
X27000Y32800D02*
D03*
X30200Y33335D02*
D03*
X30350Y30950D02*
D03*
X31450Y34700D02*
D03*
M02*
