%FSLAX24Y24*%
%MOIN*%
G70*
G01*
G75*
G04 Layer_Physical_Order=1*
%ADD10C,0.0080*%
%ADD11R,0.0433X0.0394*%
%ADD12R,0.0728X0.0118*%
%ADD13R,0.0728X0.0118*%
%ADD14R,0.0118X0.0728*%
%ADD15R,0.1024X0.0945*%
%ADD16R,0.0709X0.0157*%
%ADD17R,0.0157X0.0709*%
%ADD18R,0.0709X0.0122*%
%ADD19O,0.0122X0.0709*%
%ADD20R,0.0122X0.0709*%
%ADD21R,0.0700X0.0300*%
%ADD22O,0.0700X0.0300*%
%ADD23R,0.0300X0.0600*%
%ADD24R,0.1000X0.1400*%
%ADD25R,0.0945X0.1024*%
%ADD26R,0.0394X0.0433*%
%ADD27R,0.0551X0.0787*%
%ADD28R,0.0709X0.0630*%
%ADD29R,0.0827X0.1614*%
%ADD30R,0.0630X0.0709*%
%ADD31R,0.0709X0.0157*%
%ADD32C,0.0400*%
%ADD33C,0.0100*%
%ADD34C,0.0160*%
%ADD35C,0.0200*%
%ADD36C,0.1732*%
%ADD37C,0.0500*%
%ADD38C,0.0750*%
%ADD39C,0.1400*%
%ADD40C,0.1300*%
%ADD41C,0.0520*%
%ADD42C,0.0250*%
%ADD43C,0.0480*%
%ADD44C,0.0350*%
D10*
X45535Y37500D02*
G03*
X45322Y37266I-235J0D01*
G01*
X43690Y32862D02*
G03*
X43735Y33000I-190J138D01*
G01*
G03*
X43310Y32862I-235J0D01*
G01*
X43190D02*
G03*
X43235Y33000I-190J138D01*
G01*
G03*
X42810Y32862I-235J0D01*
G01*
X45235Y31800D02*
G03*
X45190Y31938I-235J0D01*
G01*
X44810D02*
G03*
X45235Y31800I190J-138D01*
G01*
X43735D02*
G03*
X43690Y31938I-235J0D01*
G01*
X43310D02*
G03*
X43735Y31800I190J-138D01*
G01*
X43235D02*
G03*
X43190Y31938I-235J0D01*
G01*
X42810D02*
G03*
X43235Y31800I190J-138D01*
G01*
X40894Y38094D02*
G03*
X41000Y38050I106J106D01*
G01*
X40894Y38094D02*
G03*
X41000Y38050I106J106D01*
G01*
X40258Y36832D02*
G03*
X40305Y36945I-113J113D01*
G01*
X40258Y36832D02*
G03*
X40305Y36945I-113J113D01*
G01*
X42275Y32340D02*
G03*
X41902Y32530I-235J0D01*
G01*
Y32150D02*
G03*
X42275Y32340I138J190D01*
G01*
X41435Y31500D02*
G03*
X41390Y31638I-235J0D01*
G01*
X41010D02*
G03*
X41435Y31500I190J-138D01*
G01*
X40618Y32568D02*
G03*
X40618Y32112I-58J-228D01*
G01*
X45613Y53700D02*
G03*
X45187Y53700I-213J-100D01*
G01*
X44487Y57587D02*
G03*
X44600Y57540I113J113D01*
G01*
X44487Y57587D02*
G03*
X44600Y57540I113J113D01*
G01*
X43613Y53700D02*
G03*
X43187Y53700I-213J-100D01*
G01*
X55250Y31781D02*
G03*
X55635Y31600I150J-181D01*
G01*
X54500Y31587D02*
G03*
X54635Y31800I-100J213D01*
G01*
G03*
X54500Y32013I-235J0D01*
G01*
X55635Y31600D02*
G03*
X55550Y31781I-235J0D01*
G01*
X55683Y31790D02*
G03*
X56135Y31700I217J-90D01*
G01*
G03*
X56117Y31790I-235J0D01*
G01*
X55140Y32389D02*
G03*
X55140Y32011I-140J-189D01*
G01*
X56135Y32700D02*
G03*
X55683Y32610I-235J0D01*
G01*
X56117D02*
G03*
X56135Y32700I-217J90D01*
G01*
X57660Y32011D02*
G03*
X58035Y32200I140J189D01*
G01*
X58298Y31730D02*
G03*
X58298Y31350I-138J-190D01*
G01*
X58035Y32200D02*
G03*
X57660Y32389I-235J0D01*
G01*
X62249Y32746D02*
G03*
X62550Y32400I-49J-346D01*
G01*
G03*
X62546Y32450I-350J0D01*
G01*
X62748Y32651D02*
G03*
X62810Y32790I-148J149D01*
G01*
X62890Y32600D02*
G03*
X62952Y32451I210J0D01*
G01*
X63151Y32252D02*
G03*
X63300Y32190I149J148D01*
G01*
X62890Y32600D02*
G03*
X62952Y32452I210J0D01*
G01*
X63152Y32252D02*
G03*
X63300Y32190I148J148D01*
G01*
X62748Y32652D02*
G03*
X62810Y32790I-148J148D01*
G01*
X64220Y32190D02*
G03*
X64780Y32190I280J210D01*
G01*
X65000D02*
G03*
X65148Y32252I0J210D01*
G01*
X65000Y32190D02*
G03*
X65149Y32252I0J210D01*
G01*
X64780Y32610D02*
G03*
X64220Y32610I-280J-210D01*
G01*
X67890Y32605D02*
G03*
X68000Y32287I210J-105D01*
G01*
X62487Y33813D02*
G03*
X62440Y33700I113J-113D01*
G01*
X62487Y33813D02*
G03*
X62440Y33700I113J-113D01*
G01*
X65735Y33345D02*
G03*
X65586Y33283I0J-210D01*
G01*
X65735Y33345D02*
G03*
X65586Y33283I0J-210D01*
G01*
X64760Y34000D02*
G03*
X64713Y34113I-160J0D01*
G01*
X64760Y34000D02*
G03*
X64713Y34113I-160J0D01*
G01*
X63078Y34358D02*
G03*
X62987Y34313I22J-159D01*
G01*
X63078Y34358D02*
G03*
X62987Y34313I22J-159D01*
G01*
X64513D02*
G03*
X64400Y34360I-113J-113D01*
G01*
X64513Y34313D02*
G03*
X64400Y34360I-113J-113D01*
G01*
X66550Y33900D02*
G03*
X65990Y33620I-350J0D01*
G01*
X66410D02*
G03*
X66550Y33900I-210J280D01*
G01*
X31529Y42200D02*
G03*
X31239Y42270I-187J-142D01*
G01*
Y43038D02*
G03*
X31596Y43239I121J201D01*
G01*
G03*
X31239Y43441I-235J0D01*
G01*
X32777Y42700D02*
G03*
X32922Y42266I123J-200D01*
G01*
X32961Y42227D02*
G03*
X32777Y42200I-61J-227D01*
G01*
X32978Y43122D02*
G03*
X32777Y42700I-78J-222D01*
G01*
X33435Y43200D02*
G03*
X32978Y43122I-235J0D01*
G01*
X32935Y44032D02*
G03*
X33135Y43800I-35J-232D01*
G01*
G03*
X33065Y43968I-235J0D01*
G01*
G03*
X33122Y43966I35J232D01*
G01*
X31245Y44457D02*
G03*
X31652Y44617I172J160D01*
G01*
G03*
X31477Y44845I-235J0D01*
G01*
X31546Y45011D02*
G03*
X31239Y45235I-235J0D01*
G01*
X31477Y44845D02*
G03*
X31546Y45011I-166J166D01*
G01*
X33335Y44200D02*
G03*
X32935Y44032I-235J0D01*
G01*
X32857Y45031D02*
G03*
X33131Y44757I43J-231D01*
G01*
X32878Y45521D02*
G03*
X32822Y45066I-78J-222D01*
G01*
X33335Y45600D02*
G03*
X32878Y45521I-235J0D01*
G01*
X35964Y44186D02*
G03*
X35920Y44292I-150J0D01*
G01*
X35964Y44186D02*
G03*
X35920Y44292I-150J0D01*
G01*
X31265Y46609D02*
G03*
X31735Y46600I235J-9D01*
G01*
X31239Y47426D02*
G03*
X31283Y47457I-69J144D01*
G01*
X31239Y47426D02*
G03*
X31283Y47457I-69J144D01*
G01*
X33100Y46523D02*
G03*
X33100Y46277I-200J-123D01*
G01*
X33241Y46173D02*
G03*
X33422Y45766I159J-173D01*
G01*
X33100Y46277D02*
G03*
X33241Y46173I200J123D01*
G01*
X33481Y46550D02*
G03*
X33100Y46523I-181J-150D01*
G01*
X33706Y46506D02*
G03*
X33600Y46550I-106J-106D01*
G01*
X33706Y46506D02*
G03*
X33600Y46550I-106J-106D01*
G01*
X31430Y46896D02*
G03*
X31317Y46943I-113J-113D01*
G01*
X31431Y46896D02*
G03*
X31317Y46943I-113J-113D01*
G01*
X31735Y46600D02*
G03*
X31491Y46835I-235J0D01*
G01*
X33135Y47400D02*
G03*
X33135Y47400I-235J0D01*
G01*
X31491Y47665D02*
G03*
X31735Y47900I9J235D01*
G01*
G03*
X31559Y48127I-235J0D01*
G01*
G03*
X31635Y48300I-159J173D01*
G01*
G03*
X31239Y48471I-235J0D01*
G01*
X33135Y48400D02*
G03*
X33135Y48400I-235J0D01*
G01*
X32448Y48798D02*
G03*
X32554Y48842I0J150D01*
G01*
X32448Y48798D02*
G03*
X32554Y48842I0J150D01*
G01*
X33579Y48822D02*
G03*
X33350Y48419I-78J-222D01*
G01*
Y48200D02*
G03*
X33394Y48094I150J0D01*
G01*
X33350Y48200D02*
G03*
X33394Y48094I150J0D01*
G01*
X33069Y49357D02*
G03*
X33535Y49400I231J43D01*
G01*
G03*
X33343Y49631I-235J0D01*
G01*
X33606Y49894D02*
G03*
X33650Y50000I-106J106D01*
G01*
X33606Y49894D02*
G03*
X33650Y50000I-106J106D01*
G01*
Y50319D02*
G03*
X33735Y50500I-150J181D01*
G01*
G03*
X33727Y50561I-235J0D01*
G01*
X34035Y47200D02*
G03*
X33822Y46966I-235J0D01*
G01*
X34035Y48900D02*
G03*
X33579Y48822I-235J0D01*
G01*
X34435Y49500D02*
G03*
X34435Y49500I-235J0D01*
G01*
X33794Y50494D02*
G03*
X33900Y50450I106J106D01*
G01*
X33794Y50494D02*
G03*
X33900Y50450I106J106D01*
G01*
X35435Y49500D02*
G03*
X35435Y49500I-235J0D01*
G01*
X35819Y50450D02*
G03*
X36235Y50600I181J150D01*
G01*
G03*
X36119Y50802I-235J0D01*
G01*
G03*
X36246Y51011I-108J209D01*
G01*
X36358Y44792D02*
G03*
X36314Y44898I-150J0D01*
G01*
X36358Y44792D02*
G03*
X36314Y44898I-150J0D01*
G01*
X36948Y45902D02*
G03*
X36905Y46008I-150J0D01*
G01*
X36948Y45902D02*
G03*
X36904Y46008I-150J0D01*
G01*
X40623Y42200D02*
G03*
X40377Y42200I-123J-200D01*
G01*
X40735Y43000D02*
G03*
X40735Y43000I-235J0D01*
G01*
Y44000D02*
G03*
X40735Y44000I-235J0D01*
G01*
Y45000D02*
G03*
X40735Y45000I-235J0D01*
G01*
Y46400D02*
G03*
X40735Y46400I-235J0D01*
G01*
Y47400D02*
G03*
X40735Y47400I-235J0D01*
G01*
Y48400D02*
G03*
X40735Y48400I-235J0D01*
G01*
X41809Y43635D02*
G03*
X41775Y43166I-9J-235D01*
G01*
G03*
X42161Y42929I225J-66D01*
G01*
X41841Y45027D02*
G03*
X41909Y44565I59J-227D01*
G01*
X42161Y42261D02*
G03*
X41854Y42200I-119J-203D01*
G01*
X42161Y43974D02*
G03*
X42117Y43943I69J-144D01*
G01*
X42161Y43974D02*
G03*
X42117Y43943I69J-144D01*
G01*
X41969Y44504D02*
G03*
X42083Y44457I113J113D01*
G01*
X41970Y44504D02*
G03*
X42083Y44457I113J113D01*
G01*
X42161Y45371D02*
G03*
X41841Y45027I-161J-171D01*
G01*
X42009Y46435D02*
G03*
X42161Y46029I-9J-235D01*
G01*
X42155Y46943D02*
G03*
X42155Y46623I-172J-160D01*
G01*
X41835Y49000D02*
G03*
X41622Y48766I-235J0D01*
G01*
X42135Y48000D02*
G03*
X41909Y47765I-235J0D01*
G01*
X42161Y46546D02*
G03*
X42076Y46502I28J-158D01*
G01*
X42161Y46546D02*
G03*
X42076Y46502I28J-158D01*
G01*
X42020Y47654D02*
G03*
X42133Y47607I113J113D01*
G01*
X42020Y47654D02*
G03*
X42133Y47607I113J113D01*
G01*
X42137Y48251D02*
G03*
X42161Y48232I106J106D01*
G01*
X42136Y48251D02*
G03*
X42161Y48232I106J106D01*
G01*
X37435Y49500D02*
G03*
X37435Y49500I-235J0D01*
G01*
X38435D02*
G03*
X38435Y49500I-235J0D01*
G01*
X40235Y49700D02*
G03*
X40235Y49700I-235J0D01*
G01*
X40735Y49600D02*
G03*
X40735Y49600I-235J0D01*
G01*
X40266Y50901D02*
G03*
X40366Y50884I75J141D01*
G01*
X42161Y49752D02*
G03*
X42161Y49326I-99J-213D01*
G01*
X40266Y50901D02*
G03*
X40366Y50884I75J141D01*
G01*
X37000Y50877D02*
G03*
X37435Y51000I200J123D01*
G01*
X36629Y51161D02*
G03*
X37000Y50877I171J-161D01*
G01*
X36246Y51011D02*
G03*
X36192Y51161I-235J0D01*
G01*
X37502Y51076D02*
G03*
X37546Y51161I-113J113D01*
G01*
X37502Y51076D02*
G03*
X37546Y51161I-113J113D01*
G01*
X40366Y50884D02*
G03*
X40835Y50900I234J16D01*
G01*
X38735Y51000D02*
G03*
X38729Y51052I-235J0D01*
G01*
X38329Y51161D02*
G03*
X38735Y51000I171J-161D01*
G01*
X38948Y51161D02*
G03*
X39333Y50901I213J-100D01*
G01*
X40848Y50922D02*
G03*
X40895Y51035I-113J113D01*
G01*
X40849Y50922D02*
G03*
X40895Y51035I-113J113D01*
G01*
X41499Y51161D02*
G03*
X41955Y51080I221J-81D01*
G01*
G03*
X41889Y51244I-235J0D01*
G01*
X43391Y51037D02*
G03*
X43009Y51037I-191J-137D01*
G01*
X46569D02*
G03*
X46635Y51200I-169J163D01*
G01*
X47000Y51050D02*
G03*
X46938Y51037I0J-150D01*
G01*
X47000Y51050D02*
G03*
X46938Y51037I0J-150D01*
G01*
X47562D02*
G03*
X47500Y51050I-62J-137D01*
G01*
X47562Y51037D02*
G03*
X47500Y51050I-62J-137D01*
G01*
X46635Y51200D02*
G03*
X46219Y51350I-235J0D01*
G01*
X45812Y37200D02*
X46500D01*
X45732Y37280D02*
X46500D01*
X45972Y37040D02*
X46500D01*
X45892Y37120D02*
X46500D01*
X46000Y37012D02*
Y38050D01*
X45920Y37092D02*
Y38050D01*
X45840Y37172D02*
Y38050D01*
X45760Y37252D02*
Y38050D01*
X46500Y36512D02*
Y38050D01*
X46480Y36532D02*
Y38050D01*
X46400Y36612D02*
Y38050D01*
X46052Y36960D02*
X46500D01*
X46320Y36692D02*
Y38050D01*
X46240Y36772D02*
Y38050D01*
X46160Y36852D02*
Y38050D01*
X46080Y36932D02*
Y38050D01*
X45520Y37583D02*
Y38050D01*
X45451Y37680D02*
X46500D01*
X45534Y37520D02*
X46500D01*
X45513Y37600D02*
X46500D01*
X45440Y37689D02*
Y38050D01*
X45360Y37727D02*
Y38050D01*
X45280Y37734D02*
Y38050D01*
X45200Y37713D02*
Y38050D01*
X45572Y37440D02*
X46500D01*
X45534Y37478D02*
X46500Y36512D01*
X45652Y37360D02*
X46500D01*
X45322Y37266D02*
X46350Y36238D01*
X45680Y37332D02*
Y38050D01*
X45600Y37412D02*
Y38050D01*
X45200Y32810D02*
Y37287D01*
X46212Y36800D02*
X46500D01*
X46132Y36880D02*
X46500D01*
X46372Y36640D02*
X46500D01*
X46292Y36720D02*
X46500D01*
X46452Y36560D02*
X46500D01*
X44610Y35120D02*
X46350D01*
X44610Y35040D02*
X46350D01*
X44610Y34960D02*
X46350D01*
X44610Y34880D02*
X46350D01*
X44610Y34800D02*
X46350D01*
X44610Y34720D02*
X46350D01*
X44610Y34640D02*
X46350D01*
X44610Y34560D02*
X46350D01*
X44610Y34480D02*
X46350D01*
X44760Y32810D02*
X45260D01*
X44610Y34400D02*
X46350D01*
X44610Y34320D02*
X46350D01*
X44610Y34240D02*
X46350D01*
X44610Y34160D02*
X46350D01*
X44610Y34080D02*
X46350D01*
X44610Y34000D02*
X46350D01*
X44610Y33920D02*
X46350D01*
X44610Y33840D02*
X46350D01*
X44610Y33760D02*
X46350D01*
X44610Y33680D02*
X46350D01*
X44610Y33600D02*
X46350D01*
X43702Y33120D02*
X46350D01*
X43623Y33200D02*
X46350D01*
X43732Y33040D02*
X46350D01*
X43732Y32960D02*
X46350D01*
X43702Y32880D02*
X46350D01*
X45120Y37651D02*
Y38050D01*
X44560Y35178D02*
Y38050D01*
X44480Y35178D02*
Y38050D01*
X44400Y35178D02*
Y38050D01*
X44320Y35178D02*
Y38050D01*
X44240Y35178D02*
Y38050D01*
X44160Y35178D02*
Y38050D01*
X44080Y35178D02*
Y38050D01*
X45040Y32810D02*
Y38050D01*
X44960Y32810D02*
Y38050D01*
X45120Y32810D02*
Y37349D01*
X44880Y32810D02*
Y38050D01*
X44800Y32810D02*
Y38050D01*
X44720Y32810D02*
Y38050D01*
X44640Y32810D02*
Y38050D01*
X44000Y35178D02*
Y38050D01*
X43920Y35178D02*
Y38050D01*
X43840Y35178D02*
Y38050D01*
X43760Y35178D02*
Y38050D01*
X43680Y35178D02*
Y38050D01*
X43600Y35178D02*
Y38050D01*
X43520Y35178D02*
Y38050D01*
X43440Y35178D02*
Y38050D01*
X43120Y33202D02*
Y38050D01*
X43360Y33189D02*
Y38050D01*
X43280Y33083D02*
Y38050D01*
X43200Y33123D02*
Y38050D01*
X43040Y33232D02*
Y38050D01*
X42960Y33232D02*
Y38050D01*
X42880Y33202D02*
Y38050D01*
X42800Y33123D02*
Y38050D01*
X44610Y33558D02*
Y35178D01*
X44560Y32810D02*
Y33558D01*
X44480Y32810D02*
Y33558D01*
X43680Y33151D02*
Y33558D01*
X43600Y33213D02*
Y33558D01*
X44400Y32810D02*
Y33558D01*
X44320Y32810D02*
Y33558D01*
X44260Y32810D02*
X44740D01*
X44240D02*
Y33558D01*
X44160Y32810D02*
Y33558D01*
X44080Y32810D02*
Y33558D01*
X44000Y32810D02*
Y33558D01*
X43920Y32810D02*
Y33558D01*
X43390Y35178D02*
X44610D01*
X43390Y33558D02*
X44610D01*
X43520Y33234D02*
Y33558D01*
X43390D02*
Y35178D01*
X43440Y33227D02*
Y33558D01*
X43123Y33200D02*
X43377D01*
X43202Y33120D02*
X43298D01*
X43232Y33040D02*
X43268D01*
X43202Y32880D02*
X43298D01*
X43232Y32960D02*
X43268D01*
X46320Y31832D02*
Y36268D01*
X46240Y31752D02*
Y36348D01*
X46350Y31862D02*
Y36238D01*
X45260Y32800D02*
X46350D01*
X46000Y31512D02*
Y36588D01*
X45920Y31432D02*
Y36668D01*
X46160Y31672D02*
Y36428D01*
X46080Y31592D02*
Y36508D01*
X45680Y31192D02*
Y36908D01*
X45600Y31112D02*
Y36988D01*
X45840Y31352D02*
Y36748D01*
X45760Y31272D02*
Y36828D01*
X45360Y31050D02*
Y37228D01*
X45280Y31050D02*
Y37266D01*
X45520Y31050D02*
Y37068D01*
X45440Y31050D02*
Y37148D01*
X45260Y32720D02*
X46350D01*
X45260Y32640D02*
X46350D01*
X45260Y32560D02*
X46350D01*
X45260Y32480D02*
X46350D01*
X45260Y32400D02*
X46350D01*
X43760Y32810D02*
X44240D01*
X45260Y32320D02*
X46350D01*
X45260Y32240D02*
X46350D01*
X45260Y31990D02*
Y32810D01*
Y32160D02*
X46350D01*
X45260Y32080D02*
X46350D01*
X45260Y32000D02*
X46350D01*
X45200Y31923D02*
Y31990D01*
X45190D02*
X45260D01*
X45190Y31938D02*
Y31990D01*
X44760D02*
X44810D01*
X45232Y31840D02*
X46328D01*
X45202Y31920D02*
X46350D01*
X45232Y31760D02*
X46248D01*
X45202Y31680D02*
X46168D01*
X44810Y31938D02*
Y31990D01*
X44800Y31923D02*
Y31990D01*
X45123Y31600D02*
X46088D01*
X45538Y31050D02*
X46350Y31862D01*
X45200Y31050D02*
Y31677D01*
X45120Y31050D02*
Y31598D01*
X44880Y31050D02*
Y31598D01*
X44800Y31050D02*
Y31677D01*
X45040Y31050D02*
Y31568D01*
X44960Y31050D02*
Y31568D01*
X43732Y31840D02*
X44768D01*
X43702Y31920D02*
X44798D01*
X43702Y31680D02*
X44798D01*
X43623Y31600D02*
X44877D01*
X44720Y31050D02*
Y31990D01*
X44260D02*
X44740D01*
X43760D02*
X44240D01*
X43732Y31760D02*
X44768D01*
X44640Y31050D02*
Y31990D01*
X44560Y31050D02*
Y31990D01*
X44480Y31050D02*
Y31990D01*
X44400Y31050D02*
Y31990D01*
X44320Y31050D02*
Y31990D01*
X44240Y31050D02*
Y31990D01*
X44160Y31050D02*
Y31990D01*
X43840Y32810D02*
Y33558D01*
X43760Y32810D02*
Y33558D01*
X43690Y32810D02*
Y32862D01*
Y32810D02*
X43740D01*
X43310D02*
Y32862D01*
X43280Y32810D02*
Y32917D01*
X43260Y32810D02*
X43310D01*
X43200D02*
Y32877D01*
X44080Y31050D02*
Y31990D01*
X44000Y31050D02*
Y31990D01*
X43920Y31050D02*
Y31990D01*
X43840Y31050D02*
Y31990D01*
X43190Y32810D02*
Y32862D01*
Y32810D02*
X43240D01*
X43760Y31050D02*
Y31990D01*
X43690D02*
X43740D01*
X42810Y32810D02*
Y32862D01*
X42800Y32810D02*
Y32877D01*
X42740Y32810D02*
X42810D01*
X42229Y32480D02*
X42740D01*
Y31990D02*
Y32810D01*
X42267Y32400D02*
X42740D01*
X42274Y32320D02*
X42740D01*
X42253Y32240D02*
X42740D01*
X42720Y31050D02*
Y38050D01*
X42640Y31050D02*
Y38050D01*
X42560Y31050D02*
Y38050D01*
X42480Y31050D02*
Y38050D01*
X42400Y31050D02*
Y38050D01*
X42320Y31050D02*
Y38050D01*
X42240Y31050D02*
Y32217D01*
X43690Y31938D02*
Y31990D01*
X43260D02*
X43310D01*
Y31938D02*
Y31990D01*
X43280Y31883D02*
Y31990D01*
X43200Y31923D02*
Y31990D01*
X43232Y31840D02*
X43268D01*
X43202Y31920D02*
X43298D01*
X43680Y31050D02*
Y31649D01*
X43600Y31050D02*
Y31587D01*
X43520Y31050D02*
Y31566D01*
X43280Y31050D02*
Y31717D01*
X43232Y31760D02*
X43268D01*
X43440Y31050D02*
Y31573D01*
X43360Y31050D02*
Y31611D01*
X43190Y31990D02*
X43240D01*
X43202Y31680D02*
X43298D01*
X43123Y31600D02*
X43377D01*
X43190Y31938D02*
Y31990D01*
X42740D02*
X42810D01*
Y31938D02*
Y31990D01*
X42800Y31923D02*
Y31990D01*
X43200Y31050D02*
Y31677D01*
X43120Y31050D02*
Y31598D01*
X43040Y31050D02*
Y31568D01*
X42880Y31050D02*
Y31598D01*
X42800Y31050D02*
Y31677D01*
X42960Y31050D02*
Y31568D01*
X41000Y38050D02*
X46500D01*
X40305Y38000D02*
X46500D01*
X40305Y37920D02*
X46500D01*
X40305Y37840D02*
X46500D01*
X40305Y37760D02*
X46500D01*
X40305Y37680D02*
X45149D01*
X40305Y37600D02*
X45087D01*
X40305Y37520D02*
X45066D01*
X40305Y37120D02*
X45468D01*
X40305Y37040D02*
X45548D01*
X40305Y36960D02*
X45628D01*
X40291Y36880D02*
X45708D01*
X40305Y37440D02*
X45073D01*
X40305Y37360D02*
X45111D01*
X40305Y37280D02*
X45217D01*
X40305Y37200D02*
X45388D01*
X39906Y36480D02*
X46108D01*
X39826Y36400D02*
X46188D01*
X39746Y36320D02*
X46268D01*
X39666Y36240D02*
X46348D01*
X40226Y36800D02*
X45788D01*
X40146Y36720D02*
X45868D01*
X40066Y36640D02*
X45948D01*
X39986Y36560D02*
X46028D01*
X39586Y36160D02*
X46350D01*
X39506Y36080D02*
X46350D01*
X39426Y36000D02*
X46350D01*
X39346Y35920D02*
X46350D01*
X39266Y35840D02*
X46350D01*
X39186Y35760D02*
X46350D01*
X39106Y35680D02*
X46350D01*
X39026Y35600D02*
X46350D01*
X41782Y35440D02*
X46350D01*
X41782Y35360D02*
X46350D01*
X41782Y35280D02*
X46350D01*
X41782Y35200D02*
X46350D01*
X41782Y35120D02*
X43390D01*
X41782Y35040D02*
X43390D01*
X41782Y34960D02*
X43390D01*
X41782Y34880D02*
X43390D01*
X41782Y34800D02*
X43390D01*
X41782Y34720D02*
X43390D01*
X41782Y34640D02*
X43390D01*
X41782Y34560D02*
X43390D01*
X41782Y34480D02*
X43390D01*
X41782Y34400D02*
X43390D01*
X41782Y34320D02*
X43390D01*
X41782Y34240D02*
X43390D01*
X38946Y35520D02*
X46350D01*
X38500Y34160D02*
X43390D01*
X38500Y34080D02*
X43390D01*
X38500Y34000D02*
X43390D01*
X38500Y33920D02*
X43390D01*
X38500Y33840D02*
X43390D01*
X38500Y33760D02*
X43390D01*
X38500Y33680D02*
X43390D01*
X38500Y33520D02*
X46350D01*
X38500Y33440D02*
X46350D01*
X38500Y33360D02*
X46350D01*
X38500Y33280D02*
X46350D01*
X38500Y33600D02*
X43390D01*
X38500Y33200D02*
X42877D01*
X38500Y33120D02*
X42798D01*
X41760Y35482D02*
Y38050D01*
X41680Y35482D02*
Y38050D01*
X41600Y35482D02*
Y38050D01*
X41520Y35482D02*
Y38050D01*
X41440Y35482D02*
Y38050D01*
X41360Y35482D02*
Y38050D01*
X41280Y35482D02*
Y38050D01*
X41200Y35482D02*
Y38050D01*
X41120Y35482D02*
Y38050D01*
X41040Y35482D02*
Y38050D01*
X40800Y35482D02*
Y38188D01*
X40720Y35482D02*
Y38268D01*
X40960Y35482D02*
Y38055D01*
X40880Y35482D02*
Y38108D01*
X40305Y38683D02*
X40894Y38094D01*
X40305Y38320D02*
X40668D01*
X40305Y38240D02*
X40748D01*
X40305Y38160D02*
X40828D01*
X40305Y38640D02*
X40348D01*
X40305Y38560D02*
X40428D01*
X40305Y38480D02*
X40508D01*
X40305Y38400D02*
X40588D01*
X40640Y35482D02*
Y38348D01*
X40305Y36945D02*
Y38683D01*
X40618Y35482D02*
X41782D01*
X40305Y38080D02*
X40910D01*
X38500Y35074D02*
X40258Y36832D01*
X41782Y34238D02*
Y35482D01*
X40618Y34238D02*
Y35482D01*
X38866Y35440D02*
X40618D01*
X38786Y35360D02*
X40618D01*
X41760Y32962D02*
Y34238D01*
X40618D02*
X41782D01*
Y32960D02*
X42768D01*
X41680Y32962D02*
Y34238D01*
X41600Y32962D02*
Y34238D01*
X41520Y32962D02*
Y34238D01*
X41440Y32962D02*
Y34238D01*
X41360Y32962D02*
Y34238D01*
X38706Y35280D02*
X40618D01*
X38626Y35200D02*
X40618D01*
X38546Y35120D02*
X40618D01*
X38500Y35040D02*
X40618D01*
X38500Y34960D02*
X40618D01*
X38500Y34880D02*
X40618D01*
X38500Y34800D02*
X40618D01*
X38500Y34720D02*
X40618D01*
X38500Y34640D02*
X40618D01*
X38500Y34560D02*
X40618D01*
X38500Y34480D02*
X40618D01*
X38500Y33040D02*
X42768D01*
X38500Y34400D02*
X40618D01*
X38500Y34320D02*
X40618D01*
X38500Y34240D02*
X40618D01*
X42240Y32464D02*
Y38050D01*
X42160Y32542D02*
Y38050D01*
X42123Y32560D02*
X42740D01*
X42080Y32572D02*
Y38050D01*
X42000Y32572D02*
Y38050D01*
X41920Y32542D02*
Y38050D01*
X41840Y32530D02*
Y38050D01*
X41782Y32530D02*
Y32962D01*
X42191Y32160D02*
X42740D01*
X42160Y31050D02*
Y32138D01*
X41920Y31050D02*
Y32138D01*
X41840Y31050D02*
Y32150D01*
X42080Y31050D02*
Y32109D01*
X42000Y31050D02*
Y32109D01*
X41782Y32880D02*
X42798D01*
X40618Y32962D02*
X41782D01*
Y32800D02*
X42740D01*
X41782Y32720D02*
X42740D01*
X41280Y32962D02*
Y34238D01*
X41200Y32962D02*
Y34238D01*
X41120Y32962D02*
Y34238D01*
X41040Y32962D02*
Y34238D01*
X41782Y32640D02*
X42740D01*
X41782Y32560D02*
X41957D01*
X41782Y32080D02*
X42740D01*
X41782Y32000D02*
X42740D01*
X41782Y32530D02*
X41902D01*
X41782Y32150D02*
X41902D01*
X41782Y31718D02*
Y32150D01*
Y31920D02*
X42798D01*
X41390Y31680D02*
X42798D01*
X41434Y31520D02*
X46008D01*
X41413Y31600D02*
X42877D01*
X41782Y31840D02*
X42768D01*
X41782Y31760D02*
X42768D01*
X41390Y31718D02*
X41782D01*
X41390Y31638D02*
Y31718D01*
X41760Y31050D02*
Y31718D01*
X41680Y31050D02*
Y31718D01*
X41427Y31440D02*
X45928D01*
X41389Y31360D02*
X45848D01*
X41600Y31050D02*
Y31718D01*
X41520Y31050D02*
Y31718D01*
X41440Y31050D02*
Y31718D01*
X41283Y31280D02*
X45768D01*
X38500D02*
X41117D01*
X38500Y31200D02*
X45688D01*
X41010Y31638D02*
Y31718D01*
X40618D02*
X41010D01*
X38500Y31680D02*
X41010D01*
X38500Y31600D02*
X40987D01*
X41360Y31050D02*
Y31328D01*
X41280Y31050D02*
Y31279D01*
X38500Y31120D02*
X45608D01*
X38500Y31050D02*
X45538D01*
X41200D02*
Y31265D01*
X41040Y31050D02*
Y31328D01*
X41120Y31050D02*
Y31279D01*
X40960Y32962D02*
Y34238D01*
X40880Y32962D02*
Y34238D01*
X40800Y32962D02*
Y34238D01*
X40720Y32962D02*
Y34238D01*
X40400Y32512D02*
Y38588D01*
X40320Y31050D02*
Y38668D01*
X40560Y32575D02*
Y38428D01*
X40480Y32561D02*
Y38508D01*
X40240Y31050D02*
Y36814D01*
X40160Y31050D02*
Y36734D01*
X40080Y31050D02*
Y36654D01*
X40000Y31050D02*
Y36574D01*
X39920Y31050D02*
Y36494D01*
X39840Y31050D02*
Y36414D01*
X39760Y31050D02*
Y36334D01*
X39680Y31050D02*
Y36254D01*
X39600Y31050D02*
Y36174D01*
X39520Y31050D02*
Y36094D01*
X39440Y31050D02*
Y36014D01*
X39360Y31050D02*
Y35934D01*
X39280Y31050D02*
Y35854D01*
X39200Y31050D02*
Y35774D01*
X39120Y31050D02*
Y35694D01*
X39040Y31050D02*
Y35614D01*
X38960Y31050D02*
Y35534D01*
X38880Y31050D02*
Y35454D01*
X38800Y31050D02*
Y35374D01*
X38720Y31050D02*
Y35294D01*
X38640Y31050D02*
Y35214D01*
X38560Y31050D02*
Y35134D01*
X38500Y31050D02*
Y35074D01*
X40640Y32962D02*
Y34238D01*
X38500Y32960D02*
X40618D01*
X38500Y32880D02*
X40618D01*
X38500Y32800D02*
X40618D01*
Y32568D02*
Y32962D01*
X38500Y32720D02*
X40618D01*
Y31718D02*
Y32112D01*
X40960Y31050D02*
Y31718D01*
X40880Y31050D02*
Y31718D01*
X40800Y31050D02*
Y31718D01*
X40720Y31050D02*
Y31718D01*
X40480Y31050D02*
Y32119D01*
X40400Y31050D02*
Y32168D01*
X40640Y31050D02*
Y31718D01*
X40560Y31050D02*
Y32105D01*
X38500Y32640D02*
X40618D01*
X38500Y32560D02*
X40477D01*
X38500Y32160D02*
X40409D01*
X38500Y32080D02*
X40618D01*
X38500Y32480D02*
X40371D01*
X38500Y32400D02*
X40333D01*
X38500Y32320D02*
X40326D01*
X38500Y32240D02*
X40347D01*
X38500Y32000D02*
X40618D01*
X38500Y31520D02*
X40966D01*
X38500Y31440D02*
X40973D01*
X38500Y31360D02*
X41011D01*
X38500Y31920D02*
X40618D01*
X38500Y31840D02*
X40618D01*
X38500Y31760D02*
X40618D01*
X23600Y30900D02*
X45600D01*
X45300Y37500D02*
X46500Y36300D01*
X41900Y39300D02*
X43600D01*
X24435Y63700D02*
X26600Y61535D01*
X46500Y31800D02*
Y36300D01*
X45600Y30900D02*
X46500Y31800D01*
X44900Y38900D02*
X46900Y40900D01*
X44674Y38900D02*
X44900D01*
X47600Y41100D02*
X50700D01*
X41700Y38700D02*
X45200D01*
X51966Y41966D02*
Y43946D01*
X45200Y38700D02*
X47600Y41100D01*
X41326Y39074D02*
Y39765D01*
X47700Y40900D02*
X51100D01*
X41600Y38500D02*
X45300D01*
X51769Y42169D02*
Y43946D01*
X51700Y42100D02*
X51769Y42169D01*
X49800Y39600D02*
X51100Y40900D01*
X50449Y33000D02*
Y37451D01*
X45300Y38500D02*
X47700Y40900D01*
X40932Y39168D02*
Y39765D01*
X68135Y58935D02*
X68800D01*
X45650Y38350D02*
X46700Y39400D01*
X40539Y39061D02*
Y39765D01*
Y39061D02*
X41250Y38350D01*
X45650D01*
X56265Y58935D02*
X57200D01*
X32074Y39174D02*
Y39765D01*
X30400Y38100D02*
X31000D01*
X49360Y54576D02*
Y55914D01*
X49280Y54576D02*
Y55994D01*
X49440Y54576D02*
Y55834D01*
X49120Y54576D02*
Y56154D01*
X49200Y54576D02*
Y56074D01*
X48960Y54576D02*
Y56314D01*
X49040Y54576D02*
Y56234D01*
X48800Y54576D02*
Y56474D01*
X48880Y54576D02*
Y56394D01*
X47582Y55680D02*
X49594D01*
X47582Y55600D02*
X49674D01*
X47582Y55520D02*
X49754D01*
X47582Y55840D02*
X49434D01*
X47582Y55760D02*
X49514D01*
X47734Y57540D02*
X50500Y54774D01*
X47582Y55280D02*
X49994D01*
X47582Y55440D02*
X49834D01*
X47582Y55360D02*
X49914D01*
X49464Y54560D02*
X50500D01*
X49464Y54480D02*
X50500D01*
X49464Y54400D02*
X50500D01*
X49464Y54320D02*
X50500D01*
X49464Y54240D02*
X50500D01*
X49464Y54160D02*
X50500D01*
X47582Y55040D02*
X50234D01*
X47582Y54960D02*
X50314D01*
X47582Y54880D02*
X50394D01*
X47582Y55200D02*
X50074D01*
X47582Y55120D02*
X50154D01*
X47582Y54720D02*
X50500D01*
X47582Y54640D02*
X50500D01*
X47582Y54800D02*
X50474D01*
X48536Y54576D02*
X49464D01*
X47520Y55882D02*
Y57540D01*
X47440Y55882D02*
Y57540D01*
X47360Y55882D02*
Y57540D01*
X47280Y55882D02*
Y57540D01*
X47200Y55882D02*
Y57540D01*
X48640Y54576D02*
Y56634D01*
X48720Y54576D02*
Y56554D01*
X47120Y55882D02*
Y57540D01*
X48560Y54576D02*
Y56714D01*
X47040Y55882D02*
Y57540D01*
X46960Y55882D02*
Y57540D01*
X46880Y55882D02*
Y57540D01*
X46800Y55882D02*
Y57540D01*
X46720Y55882D02*
Y57540D01*
X46640Y55882D02*
Y57540D01*
X46418Y55882D02*
X47582D01*
X46560D02*
Y57540D01*
X46480Y55882D02*
Y57540D01*
X45010Y54960D02*
X46418D01*
X47582Y54638D02*
Y55882D01*
X46418Y54638D02*
X47582D01*
X46418D02*
Y55882D01*
X45010Y54159D02*
Y55778D01*
Y54880D02*
X46418D01*
X45010Y54800D02*
X46418D01*
X45010Y54560D02*
X48536D01*
X45010Y54720D02*
X46418D01*
X45010Y54640D02*
X46418D01*
X45010Y54480D02*
X48536D01*
X45010Y54400D02*
X48536D01*
X45010Y54320D02*
X48536D01*
X45010Y54240D02*
X48536D01*
X50000Y53700D02*
Y55274D01*
X49920Y53700D02*
Y55354D01*
X50080Y53700D02*
Y55194D01*
X49760Y53700D02*
Y55514D01*
X49840Y53700D02*
Y55434D01*
X49600Y53700D02*
Y55674D01*
X49680Y53700D02*
Y55594D01*
X48480Y53700D02*
Y56794D01*
X49520Y53700D02*
Y55754D01*
X48320Y53700D02*
Y56954D01*
X48240Y53700D02*
Y57034D01*
X48400Y53700D02*
Y56874D01*
X48080Y53700D02*
Y57194D01*
X48160Y53700D02*
Y57114D01*
X47920Y53700D02*
Y57354D01*
X48000Y53700D02*
Y57274D01*
X47760Y53700D02*
Y57514D01*
X47840Y53700D02*
Y57434D01*
X50500Y53700D02*
Y54774D01*
X49464Y54080D02*
X50500D01*
X49464Y54000D02*
X50500D01*
X50480Y53700D02*
Y54794D01*
X49464Y53726D02*
Y54576D01*
X50320Y53700D02*
Y54954D01*
X50400Y53700D02*
Y54874D01*
X50160Y53700D02*
Y55114D01*
X50240Y53700D02*
Y55034D01*
X49464Y53920D02*
X50500D01*
X49464Y53840D02*
X50500D01*
X49464Y53760D02*
X50500D01*
X45010Y54160D02*
X48536D01*
X45613Y53700D02*
X50500D01*
X48536Y53726D02*
X49464D01*
X48536D02*
Y54576D01*
X45572Y53760D02*
X48536D01*
X47680Y53700D02*
Y57540D01*
X47600Y53700D02*
Y57540D01*
X46400Y53700D02*
Y57540D01*
X46320Y53700D02*
Y57540D01*
X46240Y53700D02*
Y57540D01*
X46160Y53700D02*
Y57540D01*
X46080Y53700D02*
Y57540D01*
X46000Y53700D02*
Y57540D01*
X45920Y53700D02*
Y57540D01*
X45600Y53723D02*
Y57540D01*
X45520Y53802D02*
Y57540D01*
X45440Y53832D02*
Y57540D01*
X45360Y53832D02*
Y57540D01*
X45280Y53802D02*
Y57540D01*
X45840Y53700D02*
Y57540D01*
X45760Y53700D02*
Y57540D01*
X45680Y53700D02*
Y57540D01*
X45200Y53723D02*
Y57540D01*
X47520Y53700D02*
Y54638D01*
X47440Y53700D02*
Y54638D01*
X47360Y53700D02*
Y54638D01*
X47280Y53700D02*
Y54638D01*
X47200Y53700D02*
Y54638D01*
X47120Y53700D02*
Y54638D01*
X47040Y53700D02*
Y54638D01*
X46960Y53700D02*
Y54638D01*
X46880Y53700D02*
Y54638D01*
X46800Y53700D02*
Y54638D01*
X46720Y53700D02*
Y54638D01*
X46640Y53700D02*
Y54638D01*
X46560Y53700D02*
Y54638D01*
X46480Y53700D02*
Y54638D01*
X45120Y53700D02*
Y57540D01*
X45040Y53700D02*
Y57540D01*
X42000Y57440D02*
X47834D01*
X42000Y57360D02*
X47914D01*
X42000Y57280D02*
X47994D01*
X44600Y57540D02*
X47734D01*
X42000Y57520D02*
X47754D01*
X42000Y57120D02*
X48154D01*
X42000Y57040D02*
X48234D01*
X44960Y55778D02*
Y57540D01*
X42000Y57200D02*
X48074D01*
X42000Y56800D02*
X48474D01*
X42000Y56720D02*
X48554D01*
X42000Y56640D02*
X48634D01*
X42000Y56960D02*
X48314D01*
X42000Y56880D02*
X48394D01*
X42000Y56400D02*
X48874D01*
X42000Y56320D02*
X48954D01*
X42000Y56560D02*
X48714D01*
X42000Y56480D02*
X48794D01*
X45010Y55760D02*
X46418D01*
X45010Y55680D02*
X46418D01*
X45010Y55600D02*
X46418D01*
X45010Y55520D02*
X46418D01*
X45010Y55440D02*
X46418D01*
X45010Y55360D02*
X46418D01*
X45010Y55280D02*
X46418D01*
X45010Y55200D02*
X46418D01*
X45010Y55120D02*
X46418D01*
X42000Y56080D02*
X49194D01*
X42000Y56000D02*
X49274D01*
X42000Y55920D02*
X49354D01*
X42000Y56240D02*
X49034D01*
X42000Y56160D02*
X49114D01*
X42000Y55840D02*
X46418D01*
X45010Y55040D02*
X46418D01*
X43790Y55778D02*
X45010D01*
X44880D02*
Y57540D01*
X44800Y55778D02*
Y57540D01*
X44374Y57700D02*
X44487Y57587D01*
X44400Y55778D02*
Y57674D01*
X44480Y55778D02*
Y57594D01*
X44320Y55778D02*
Y57700D01*
X44240Y55778D02*
Y57700D01*
X42000D02*
X44374D01*
X42000Y57680D02*
X44394D01*
X42000Y57600D02*
X44474D01*
X44160Y55778D02*
Y57700D01*
X42000Y57500D02*
Y57700D01*
X44080Y55778D02*
Y57700D01*
X44000Y55778D02*
Y57700D01*
X43920Y55778D02*
Y57700D01*
X43840Y55778D02*
Y57700D01*
X44720Y55778D02*
Y57540D01*
X44640Y55778D02*
Y57540D01*
X44560Y55778D02*
Y57545D01*
X42000Y55760D02*
X43790D01*
X42000Y55680D02*
X43790D01*
X42000Y55600D02*
X43790D01*
X42000Y55520D02*
X43790D01*
X42000Y55440D02*
X43790D01*
X42000Y55360D02*
X43790D01*
X42000Y55280D02*
X43790D01*
X42000Y55200D02*
X43790D01*
X42000Y55120D02*
X43790D01*
X42000Y55040D02*
X43790D01*
X42000Y54960D02*
X43790D01*
X42000Y54880D02*
X43790D01*
X42000Y54800D02*
X43790D01*
Y54159D02*
X45010D01*
X44960Y53700D02*
Y54159D01*
X43790D02*
Y55778D01*
X44880Y53700D02*
Y54159D01*
X44800Y53700D02*
Y54159D01*
X44720Y53700D02*
Y54159D01*
X43760Y53700D02*
Y57700D01*
X44640Y53700D02*
Y54159D01*
X42000Y54720D02*
X43790D01*
X42000Y54640D02*
X43790D01*
X42000Y54560D02*
X43790D01*
X42000Y54480D02*
X43790D01*
X42000Y54400D02*
X43790D01*
X42000Y54320D02*
X43790D01*
X43680Y53700D02*
Y57700D01*
X42000Y54240D02*
X43790D01*
X44560Y53700D02*
Y54159D01*
X44480Y53700D02*
Y54159D01*
X44400Y53700D02*
Y54159D01*
X44320Y53700D02*
Y54159D01*
X44240Y53700D02*
Y54159D01*
X44160Y53700D02*
Y54159D01*
X44080Y53700D02*
Y54159D01*
X44000Y53700D02*
Y54159D01*
X43920Y53700D02*
Y54159D01*
X42707Y54000D02*
X48536D01*
X42000Y54080D02*
X48536D01*
X42707Y53920D02*
X48536D01*
X42000Y54160D02*
X43790D01*
X42707Y53840D02*
X48536D01*
X43572Y53760D02*
X45228D01*
X43613Y53700D02*
X45187D01*
X43840D02*
Y54159D01*
X43600Y53723D02*
Y57700D01*
X43520Y53802D02*
Y57700D01*
X43440Y53832D02*
Y57700D01*
X43360Y53832D02*
Y57700D01*
X43280Y53802D02*
Y57700D01*
X43200Y53723D02*
Y57700D01*
X43120Y53700D02*
Y57700D01*
X43040Y53700D02*
Y57700D01*
X42960Y53700D02*
Y57700D01*
X42640Y54061D02*
Y57700D01*
X42560Y54061D02*
Y57700D01*
X42480Y54061D02*
Y57700D01*
X42400Y54061D02*
Y57700D01*
X42320Y54061D02*
Y57700D01*
X42880Y53700D02*
Y57700D01*
X42800Y53700D02*
Y57700D01*
X42720Y53700D02*
Y57700D01*
X42240Y54061D02*
Y57700D01*
X42707Y53760D02*
X43228D01*
X42093Y54061D02*
X42707D01*
X42160D02*
Y57700D01*
X42707Y53700D02*
Y54061D01*
Y53700D02*
X43187D01*
X42093D02*
Y54061D01*
X42000Y54000D02*
X42093D01*
X42000Y53920D02*
X42093D01*
X42000Y53840D02*
X42093D01*
X42000Y53760D02*
X42093D01*
X42080Y53700D02*
Y57700D01*
X42000Y53700D02*
X42093D01*
X42000D02*
Y57700D01*
Y53700D02*
Y57500D01*
X27700Y59200D02*
X29475Y60975D01*
X30728D01*
X28408Y46192D02*
X30765D01*
X27700Y46900D02*
Y59200D01*
Y46900D02*
X28408Y46192D01*
X23602Y45798D02*
X30765D01*
X21100Y45150D02*
X21550Y44700D01*
X21100Y45150D02*
Y46000D01*
X21300Y46200D01*
X21700D01*
X22100Y46600D01*
X22500D01*
X22900Y46200D01*
X23200D01*
X23602Y45798D01*
X23602Y45602D02*
X30765D01*
X23300Y45300D02*
X23602Y45602D01*
X21550Y45700D02*
X22400D01*
X22800Y45300D01*
X23300D01*
X57540Y36740D02*
X58400D01*
X22200Y33200D02*
X23000D01*
X37980Y38780D02*
Y39765D01*
X35858Y37558D02*
X36758D01*
X37980Y38780D01*
X32000Y33700D02*
X35858Y37558D01*
X29000Y33700D02*
X32000D01*
X28000Y32700D02*
X29000Y33700D01*
X25100Y34000D02*
X31500D01*
X37586Y38886D02*
Y39765D01*
X35259Y37759D02*
X36459D01*
X37586Y38886D01*
X31500Y34000D02*
X35259Y37759D01*
X21550Y33700D02*
X22500D01*
X24500Y34300D02*
X31300D01*
X37192Y39092D02*
Y39765D01*
X35054Y38054D02*
X36154D01*
X37192Y39092D01*
X31300Y34300D02*
X35054Y38054D01*
X23600Y34800D02*
X31200D01*
X36995Y39195D02*
Y39765D01*
X34800Y38400D02*
X36200D01*
X36995Y39195D01*
X31200Y34800D02*
X34800Y38400D01*
X21550Y34700D02*
X22400D01*
X33500Y48200D02*
X36602Y45098D01*
X33500Y48200D02*
Y48600D01*
X36602Y39765D02*
Y45098D01*
X33800Y48900D02*
X36798Y45902D01*
Y39765D02*
Y45902D01*
X32900Y42500D02*
X34043Y41357D01*
Y39765D02*
Y41357D01*
X33100Y41600D02*
X33846Y40854D01*
Y39765D02*
Y40854D01*
X56200Y41935D02*
Y42200D01*
X55313Y43087D02*
Y43946D01*
X55903Y43497D02*
X57200Y42200D01*
Y41935D02*
Y42200D01*
X55903Y43497D02*
Y43946D01*
X55509Y43291D02*
X55600Y43200D01*
X55509Y43291D02*
Y43946D01*
X55116Y42884D02*
X55300Y42700D01*
X55116Y42884D02*
Y43946D01*
X55313Y43087D02*
X56200Y42200D01*
X54935Y42000D02*
X55400D01*
X54919Y42016D02*
Y43946D01*
Y42016D02*
X54935Y42000D01*
X50600Y38200D02*
Y38665D01*
X55200Y38200D02*
Y38665D01*
X53147Y39946D02*
X53759Y39335D01*
X55200D01*
X53147Y39946D02*
Y43946D01*
X52950Y40074D02*
Y43946D01*
X52276Y39400D02*
X52950Y40074D01*
X50600Y39400D02*
X52276D01*
X45500Y51200D02*
X46400D01*
X44100Y50600D02*
X44700Y51200D01*
X42635Y50129D02*
X43971D01*
X44100Y50000D01*
X43900Y49700D02*
X44900D01*
X43668Y49932D02*
X43900Y49700D01*
X42635Y49932D02*
X43668D01*
X45535Y49800D02*
X46100D01*
X42635Y49342D02*
X46505D01*
X46700Y49537D02*
X47950D01*
X46505Y49342D02*
X46700Y49537D01*
X42635Y49145D02*
X46605D01*
X46800Y49340D02*
X47950D01*
X46605Y49145D02*
X46800Y49340D01*
X46766Y49734D02*
X47950D01*
X42635Y50326D02*
X46174D01*
X46766Y49734D01*
X45335Y41000D02*
X45800D01*
X44200D02*
X44665D01*
X43900Y41300D02*
X44200Y41000D01*
X42635Y42255D02*
X43645D01*
X43900Y42000D01*
X45600Y42200D02*
X45700Y42100D01*
X45335Y42200D02*
X45600D01*
X44100D02*
X44665D01*
X42635Y42452D02*
X43848D01*
X44100Y42200D01*
X51572Y42472D02*
Y43946D01*
X42635Y41665D02*
X50765D01*
X51572Y42472D01*
X50982Y42582D02*
Y43946D01*
X42635Y42649D02*
X45651D01*
X50400Y42000D02*
X50982Y42582D01*
X46300Y42000D02*
X50400D01*
X45651Y42649D02*
X46300Y42000D01*
X38767Y37567D02*
Y39765D01*
X37400Y36200D02*
X38767Y37567D01*
X38373Y38173D02*
Y39765D01*
X37400Y37200D02*
X38373Y38173D01*
X24800Y33700D02*
X25100Y34000D01*
X23600Y33700D02*
X24800D01*
X22500D02*
X22900Y34100D01*
X23200D01*
X23600Y33700D01*
X23300Y34300D02*
X23600Y34600D01*
X22400Y34300D02*
X23300D01*
X22300Y34200D02*
X22400Y34300D01*
X23000Y33200D02*
X23500Y32700D01*
X28000D01*
X24200Y34600D02*
X24500Y34300D01*
X23600Y34600D02*
X24200D01*
X23300Y35100D02*
X23600Y34800D01*
X22400Y34700D02*
X22800Y35100D01*
X23300D01*
X22200Y35200D02*
X22400D01*
X23300Y35300D02*
X23600Y35600D01*
X22500Y35300D02*
X23300D01*
X22400Y35200D02*
X22500Y35300D01*
X37389Y39765D02*
Y40311D01*
X33600Y46400D02*
X35814Y44186D01*
X33800Y47200D02*
X36208Y44792D01*
Y39765D02*
Y44792D01*
X33100Y45600D02*
X35420Y43280D01*
Y39765D02*
Y43280D01*
X32800Y45300D02*
X35224Y42876D01*
Y39765D02*
Y42876D01*
X33100Y44200D02*
X35027Y42273D01*
Y39765D02*
Y42273D01*
X33000Y41300D02*
X33649Y40651D01*
X33100Y40900D02*
X33452Y40548D01*
X33000Y40500D02*
X33255Y40245D01*
Y39765D02*
Y40245D01*
X33058Y39242D02*
X33200Y39100D01*
X33058Y39242D02*
Y39765D01*
X24482Y35782D02*
X30168Y41468D01*
X30765D01*
X23618Y35782D02*
X24482D01*
X23300Y36100D02*
X23618Y35782D01*
X21550Y35700D02*
X22400D01*
X22800Y36100D01*
X23300D01*
X22200Y36200D02*
X22300Y36300D01*
X29965Y41665D02*
X30765D01*
X23300Y36300D02*
X23700Y36700D01*
X22300Y36300D02*
X23300D01*
X23700Y36700D02*
X25000D01*
X29965Y41665D01*
X30055Y42255D02*
X30765D01*
X25400Y37600D02*
X30055Y42255D01*
X22400Y37100D02*
X23000D01*
X23500Y37600D01*
X25400D01*
X25224Y37824D02*
X29852Y42452D01*
X21400Y37700D02*
X22400D01*
X29852Y42452D02*
X30765D01*
X23576Y37824D02*
X25224D01*
X23300Y38100D02*
X23576Y37824D01*
X22400Y37700D02*
X22800Y38100D01*
X23300D01*
Y38300D02*
X23700Y38700D01*
X29749Y42649D02*
X30765D01*
X22400Y38300D02*
X23300D01*
X22300Y38200D02*
X22400Y38300D01*
X23700Y38700D02*
X25800D01*
X29749Y42649D01*
X29546Y42846D02*
X30765D01*
X23600Y39600D02*
X26300D01*
X29546Y42846D01*
X22300Y39200D02*
X23200D01*
X23600Y39600D01*
Y39800D02*
X26100D01*
X29343Y43043D02*
X30765D01*
X23300Y40100D02*
X23600Y39800D01*
X21600Y39700D02*
X22400D01*
X22800Y40100D01*
X23300D01*
X22400Y40300D02*
X23300D01*
X22300Y40200D02*
X22400Y40300D01*
X26100Y39800D02*
X29343Y43043D01*
X23500Y41600D02*
X25200D01*
X27627Y44027D01*
X26724Y44224D02*
X30765D01*
X21550Y41700D02*
X22500D01*
X22900Y42100D01*
X23300D01*
X23600Y41800D01*
X24300D01*
X26724Y44224D01*
X26120Y44420D02*
X30765D01*
X22400Y42300D02*
X23300D01*
X23700Y42700D01*
X24400D01*
X26120Y44420D01*
X25814Y44814D02*
X30765D01*
X22300Y43300D02*
X23300D01*
X23600Y43600D01*
X24600D01*
X25814Y44814D01*
X23500Y43800D02*
X24200D01*
X25608Y45208D02*
X30765D01*
X21550Y43700D02*
X22400D01*
X22800Y44100D01*
X23200D01*
X23500Y43800D01*
X22400Y44300D02*
X23200D01*
X25005Y45405D02*
X30765D01*
X23200Y44300D02*
X23600Y44700D01*
X22300Y44200D02*
X22400Y44300D01*
X24200Y43800D02*
X25608Y45208D01*
X23600Y44700D02*
X24300D01*
X25005Y45405D01*
X34830Y39170D02*
X34900Y39100D01*
X34830Y39170D02*
Y39765D01*
X50785Y42785D02*
Y43946D01*
X42635Y42846D02*
X45754D01*
X46300Y42300D01*
X50300D01*
X50785Y42785D01*
X50588Y43388D02*
Y43946D01*
X50500Y43300D02*
X50588Y43388D01*
X50195Y42994D02*
Y43946D01*
X42635Y43043D02*
X46057D01*
X49700Y42500D02*
X50195Y42994D01*
X46600Y42500D02*
X49700D01*
X46057Y43043D02*
X46600Y42500D01*
X49998Y43198D02*
Y43946D01*
X42635Y43436D02*
X46164D01*
X46900Y42700D01*
X49500D01*
X49998Y43198D01*
X49407Y43307D02*
Y43946D01*
X42635Y43633D02*
X46567D01*
X49000Y42900D02*
X49407Y43307D01*
X47300Y42900D02*
X49000D01*
X46567Y43633D02*
X47300Y42900D01*
X49210Y43410D02*
Y43946D01*
X42635Y44224D02*
X46576D01*
X47600Y43200D01*
X49000D01*
X49210Y43410D01*
X49013Y43513D02*
Y43946D01*
X42635Y44420D02*
X47180D01*
X48900Y43400D02*
X49013Y43513D01*
X48200Y43400D02*
X48900D01*
X47180Y44420D02*
X48200Y43400D01*
X48454Y43946D02*
X48817D01*
X42700Y44800D02*
X44900D01*
X45100Y44600D01*
X47800D01*
X48454Y43946D01*
X42635Y45208D02*
X42637Y45206D01*
X47950D01*
X47197Y45403D02*
X47950D01*
X42635Y45602D02*
X46998D01*
X47197Y45403D01*
X44991Y46191D02*
X47950D01*
X44598Y45798D02*
X44991Y46191D01*
X42635Y45798D02*
X44598D01*
X44587Y46387D02*
X47950D01*
X42635Y45995D02*
X44195D01*
X44587Y46387D01*
X44484Y46584D02*
X47950D01*
X42635Y46192D02*
X44092D01*
X44484Y46584D01*
X44675Y47175D02*
X47950D01*
X42635Y46980D02*
X44480D01*
X44675Y47175D01*
X44372Y47372D02*
X47950D01*
X42635Y47176D02*
X44176D01*
X44372Y47372D01*
X43969Y47569D02*
X47950D01*
X42635Y47373D02*
X43773D01*
X43969Y47569D01*
X46659Y48159D02*
X47950D01*
X42635Y47964D02*
X46464D01*
X46659Y48159D01*
X45347Y48553D02*
X47950D01*
X42635Y48751D02*
X45149D01*
X45347Y48553D01*
X45750Y48750D02*
X47950D01*
X42635Y48948D02*
X45552D01*
X45750Y48750D01*
X36763Y58137D02*
X37400Y57500D01*
Y56900D02*
Y57500D01*
X38400Y54300D02*
X38964Y53736D01*
Y51635D02*
Y53736D01*
X36763Y58137D02*
Y61991D01*
X35740Y57360D02*
Y61991D01*
X37586Y51635D02*
Y52314D01*
X37400Y53400D02*
X37500Y53500D01*
X35740Y57360D02*
X36300Y56800D01*
X34900Y57300D02*
Y59100D01*
X35400Y56700D02*
Y56800D01*
X36602Y51635D02*
Y53298D01*
X36300Y53600D02*
X36602Y53298D01*
X34460Y59540D02*
Y61991D01*
X34900Y57300D02*
X35400Y56800D01*
X34100Y57200D02*
Y58500D01*
X35420Y52320D02*
X35500Y52400D01*
X35420Y51635D02*
Y52320D01*
X33437Y59163D02*
Y61991D01*
X33700Y57200D02*
Y58400D01*
X35224Y52824D02*
X35400Y53000D01*
X35224Y51635D02*
Y52824D01*
X33181Y58919D02*
Y61991D01*
X33700Y57200D02*
X34300Y56600D01*
X32669Y57231D02*
Y61991D01*
X34700Y52800D02*
X34830Y52670D01*
Y51635D02*
Y52670D01*
X32669Y57231D02*
X33000Y56900D01*
X31900Y57400D02*
Y61800D01*
X32800Y53900D02*
X33452Y53248D01*
Y51635D02*
Y53248D01*
X31900Y57400D02*
X32600Y56700D01*
X29619Y60719D02*
X30728D01*
X29514Y46586D02*
X30765D01*
X27900Y48200D02*
X29514Y46586D01*
X27900Y48200D02*
Y59000D01*
X29619Y60719D01*
X29763Y60463D02*
X30728D01*
X29420Y46980D02*
X30765D01*
X28200Y48200D02*
X29420Y46980D01*
X28200Y48200D02*
Y58900D01*
X29763Y60463D01*
X29907Y60207D02*
X30728D01*
X29824Y47176D02*
X30765D01*
X28500Y58800D02*
X29907Y60207D01*
X28500Y48500D02*
Y58800D01*
Y48500D02*
X29824Y47176D01*
X29952Y59952D02*
X30728D01*
X29633Y47767D02*
X30765D01*
X28700Y48700D02*
X29633Y47767D01*
X28700Y48700D02*
Y58700D01*
X29952Y59952D01*
X29996Y59696D02*
X30728D01*
X29836Y47964D02*
X30765D01*
X28900Y58600D02*
X29996Y59696D01*
X28900Y48900D02*
Y58600D01*
Y48900D02*
X29836Y47964D01*
X30104Y57904D02*
X30728D01*
X29843Y48357D02*
X30765D01*
X29100Y49100D02*
X29843Y48357D01*
X29100Y49100D02*
Y56900D01*
X30104Y57904D01*
X30148Y57648D02*
X30728D01*
X29946Y48554D02*
X30765D01*
X29300Y56800D02*
X30148Y57648D01*
X29300Y49200D02*
Y56800D01*
Y49200D02*
X29946Y48554D01*
X29500Y49300D02*
X30049Y48751D01*
X29500Y49300D02*
Y56700D01*
X30193Y57393D01*
X41523Y51635D02*
Y57377D01*
X39472Y58416D02*
X40484D01*
X41523Y57377D01*
X41129Y51635D02*
Y56571D01*
X39472Y57648D02*
X40052D01*
X41129Y56571D01*
X40932Y51635D02*
Y54468D01*
X38555Y58760D02*
Y61991D01*
Y58760D02*
X38700Y58615D01*
Y58200D02*
Y58615D01*
X38400Y57900D02*
X38700Y58200D01*
X38400Y57500D02*
Y57900D01*
Y57500D02*
X38800Y57100D01*
Y56400D02*
Y57100D01*
Y56400D02*
X39300Y55900D01*
X39500D01*
X40932Y54468D01*
X38299Y58501D02*
Y61991D01*
X39400Y55400D02*
Y55500D01*
X40539Y51635D02*
Y54261D01*
X38299Y58501D02*
X38400Y58400D01*
X39400Y55400D02*
X40539Y54261D01*
X39700Y53000D02*
X39751Y52949D01*
Y51635D02*
Y52949D01*
X37531Y59069D02*
X38000Y58600D01*
X37531Y59069D02*
Y61991D01*
X39200Y53000D02*
X39554Y52646D01*
Y51635D02*
Y52646D01*
X38200Y57300D02*
Y57900D01*
X37275Y58825D02*
Y61991D01*
X39200Y52400D02*
X39357Y52243D01*
Y51635D02*
Y52243D01*
X37019Y58581D02*
Y61991D01*
X37800Y57200D02*
X38500Y56500D01*
X37275Y58825D02*
X38200Y57900D01*
X37019Y58581D02*
X37800Y57800D01*
Y57200D02*
Y57800D01*
X38767Y51635D02*
Y52233D01*
X38596Y52404D02*
Y53704D01*
X37531Y54769D02*
Y55609D01*
Y54769D02*
X38596Y53704D01*
Y52404D02*
X38767Y52233D01*
X37000Y56500D02*
Y57100D01*
X37700Y52900D02*
X37783Y52817D01*
Y51635D02*
Y52817D01*
X35996Y58104D02*
Y61991D01*
Y58104D02*
X37000Y57100D01*
X37400Y52500D02*
X37586Y52314D01*
X37400Y52500D02*
Y53400D01*
X34460Y59540D02*
X34900Y59100D01*
X36798Y51635D02*
Y53602D01*
X35740Y54660D02*
Y55609D01*
Y54660D02*
X36798Y53602D01*
X37192Y51635D02*
Y53508D01*
X35996Y54704D02*
Y55609D01*
Y54704D02*
X37192Y53508D01*
X35300Y54200D02*
Y54500D01*
X36405Y51635D02*
Y53095D01*
X34204Y59196D02*
Y61991D01*
X34500Y57100D02*
X34900Y56700D01*
X34204Y59196D02*
X34500Y58900D01*
Y57100D02*
Y58900D01*
X35300Y54200D02*
X36405Y53095D01*
X33437Y59163D02*
X34100Y58500D01*
X33181Y58919D02*
X33700Y58400D01*
X34800Y53600D02*
X35027Y53373D01*
X33300Y56600D02*
Y58000D01*
X35027Y51635D02*
Y53373D01*
X32925Y58375D02*
Y61991D01*
Y58375D02*
X33300Y58000D01*
X40145Y51635D02*
Y53255D01*
X38555Y54845D02*
Y55609D01*
Y54845D02*
X40145Y53255D01*
X39948Y51635D02*
Y53152D01*
X38299Y54801D02*
Y55609D01*
Y54801D02*
X39948Y53152D01*
X38373Y51635D02*
Y53627D01*
X37275Y54725D02*
Y55609D01*
Y54725D02*
X38373Y53627D01*
X38176Y51635D02*
Y53524D01*
X37019Y54681D02*
Y55609D01*
Y54681D02*
X38176Y53524D01*
X37980Y51635D02*
Y53420D01*
X36763Y54637D02*
Y55609D01*
Y54637D02*
X37980Y53420D01*
X36208Y51635D02*
Y52992D01*
X34460Y54740D02*
Y55609D01*
Y54740D02*
X36208Y52992D01*
X35814Y51635D02*
Y53086D01*
X34204Y54696D02*
Y55609D01*
Y54696D02*
X35814Y53086D01*
X33437Y54763D02*
X34443Y53757D01*
Y52557D02*
X34633Y52367D01*
Y51635D02*
Y52367D01*
X34443Y52557D02*
Y53757D01*
X33437Y54763D02*
Y55609D01*
X34239Y51635D02*
Y53561D01*
X33200Y54600D02*
Y55500D01*
Y54600D02*
X34239Y53561D01*
X34043Y51635D02*
Y53457D01*
X32925Y54575D02*
Y55609D01*
Y54575D02*
X34043Y53457D01*
X33649Y51635D02*
Y53451D01*
X32669Y54431D02*
Y55609D01*
Y54431D02*
X33649Y53451D01*
X32200Y53900D02*
X33255Y52845D01*
X31700Y56700D02*
Y61300D01*
X33255Y51635D02*
Y52845D01*
X31645Y61355D02*
Y61991D01*
Y61355D02*
X31700Y61300D01*
X33058Y51635D02*
Y52642D01*
X31901Y53799D02*
Y55609D01*
Y53799D02*
X33058Y52642D01*
X32861Y51635D02*
Y52539D01*
X31645Y53755D02*
Y55500D01*
Y53755D02*
X32861Y52539D01*
X31680Y51635D02*
Y52320D01*
X30237Y57137D02*
X30728D01*
X29700Y56600D02*
X30237Y57137D01*
X29700Y54300D02*
Y56600D01*
Y54300D02*
X31680Y52320D01*
X31877Y51635D02*
Y52423D01*
X30281Y56881D02*
X30728D01*
X29900Y56500D02*
X30281Y56881D01*
X29900Y54400D02*
Y56500D01*
Y54400D02*
X31877Y52423D01*
X32074Y51635D02*
Y52526D01*
X30325Y56625D02*
X30728D01*
X30100Y56400D02*
X30325Y56625D01*
X30100Y54500D02*
Y56400D01*
Y54500D02*
X32074Y52526D01*
X32468Y51635D02*
Y52432D01*
X30728Y54172D02*
Y56369D01*
Y54172D02*
X32468Y52432D01*
X41326Y39074D02*
X41700Y38700D01*
X40932Y39168D02*
X41600Y38500D01*
X50700Y41100D02*
X51100Y41500D01*
X51500D02*
X51966Y41966D01*
X51100Y41500D02*
X51500D01*
X49800Y38100D02*
X50449Y37451D01*
X49800Y38100D02*
Y39600D01*
X40342Y38858D02*
X41000Y38200D01*
X47200D01*
X52700Y46300D02*
X53900Y47500D01*
X54600D01*
X55706Y48606D01*
X49300Y32200D02*
X50100Y31400D01*
X50449D01*
X49300Y32200D02*
Y40300D01*
X40342Y38858D02*
Y39765D01*
X47200Y38200D02*
X49300Y40300D01*
X52700Y45400D02*
Y46300D01*
X55706Y48606D02*
Y50600D01*
X51551Y31400D02*
Y33000D01*
X50800Y53000D02*
X51572Y52228D01*
X49100Y53000D02*
X50800D01*
X49300Y52900D02*
X49998Y52202D01*
X49000Y52900D02*
X49300D01*
X50195Y50600D02*
Y51203D01*
X49998Y51400D02*
X50195Y51203D01*
X49998Y50600D02*
Y52202D01*
X50982Y51482D02*
X51200Y51700D01*
X50982Y50600D02*
Y51482D01*
X51200Y51700D02*
X51572D01*
Y50600D02*
Y52228D01*
X49000Y54151D02*
Y54900D01*
X31000Y38400D02*
X31877Y39277D01*
X37400Y37700D02*
X38176Y38476D01*
Y39765D01*
X31000Y38100D02*
X32074Y39174D01*
X37400Y36700D02*
X38570Y37870D01*
Y39765D01*
X32700Y38700D02*
X32861Y38861D01*
X32500Y38700D02*
X32700D01*
X32861Y38861D02*
Y39765D01*
X32600Y39100D02*
X32665Y39165D01*
Y39765D01*
X31300Y37800D02*
X32271Y38771D01*
X32300Y40600D02*
X32468Y40432D01*
X21400Y52800D02*
X22500Y51700D01*
Y50800D02*
Y51700D01*
X20900Y41500D02*
X21200Y41200D01*
X31200Y40400D02*
X31400Y40600D01*
X32300D01*
X23600D02*
X25200D01*
X28036Y43436D02*
X30765D01*
X23300Y40300D02*
X23600Y40600D01*
X25200D02*
X28036Y43436D01*
X23600Y40800D02*
X24100D01*
X24400Y41100D01*
X22400Y41200D02*
X22519Y41319D01*
X22300Y41200D02*
X22400D01*
X22519Y41319D02*
X23219D01*
X23500Y41600D01*
X27627Y44027D02*
X30765D01*
X22400Y40700D02*
X22800Y41100D01*
X22100Y40700D02*
X22400D01*
X21200Y41200D02*
X21600D01*
X22100Y40700D01*
X22800Y41100D02*
X23300D01*
X23600Y40800D01*
X33452Y39765D02*
Y40548D01*
X32900Y40900D02*
X33100D01*
X35617Y39765D02*
Y43783D01*
X33400Y46000D02*
X35617Y43783D01*
X25200Y48900D02*
Y52546D01*
X25000Y54746D02*
X25454D01*
X23000Y56400D02*
Y57000D01*
X21600Y63700D02*
X24435D01*
X20700Y62800D02*
X21600Y63700D01*
X20700Y33800D02*
Y62800D01*
Y33800D02*
X23600Y30900D01*
X41700Y39500D02*
X41900Y39300D01*
X47000Y50900D02*
X47500D01*
X48800Y49600D01*
X49300D01*
X49500Y49400D01*
X49700D01*
X49900Y49600D01*
Y49900D01*
X49801Y49999D02*
X49900Y49900D01*
X39100Y38900D02*
X39161Y38961D01*
Y39765D01*
X42600Y39600D02*
X45100D01*
X46600Y41100D01*
X49801Y49999D02*
Y50600D01*
X46600Y50500D02*
X47000Y50900D01*
X57400Y32200D02*
X57800D01*
X55000D02*
X55400D01*
Y31600D02*
Y32200D01*
X56400D02*
Y32700D01*
X54500Y31000D02*
Y31587D01*
X54560Y31000D02*
Y31628D01*
X54960Y31000D02*
Y31968D01*
X54880Y31000D02*
Y31998D01*
X55040Y31000D02*
Y31968D01*
X55120Y31000D02*
Y31998D01*
X55280Y31000D02*
Y31398D01*
X55360Y31000D02*
Y31368D01*
X55440Y31000D02*
Y31368D01*
X54500Y31440D02*
X55228D01*
X55200Y31000D02*
Y31477D01*
X55520Y31000D02*
Y31398D01*
X54523Y31600D02*
X55165D01*
X54632Y31840D02*
X55140D01*
X54523Y32000D02*
X54877D01*
X55140Y31790D02*
Y32011D01*
X54602Y31920D02*
X55140D01*
X54500Y31520D02*
X55179D01*
X54602Y31680D02*
X55179D01*
X54632Y31760D02*
X55228D01*
X55200Y31723D02*
Y31790D01*
X55140D02*
X55250D01*
X55572Y31760D02*
X55673D01*
X55600Y31000D02*
Y31477D01*
X55840Y31000D02*
Y31473D01*
X55920Y31000D02*
Y31466D01*
X55680Y31000D02*
Y31617D01*
X55760Y31000D02*
Y31511D01*
X56000Y31000D02*
Y31487D01*
X56080Y31000D02*
Y31549D01*
X56160Y31000D02*
Y31790D01*
X56240Y31000D02*
Y31790D01*
X56320Y31000D02*
Y31790D01*
X56400Y31000D02*
Y31790D01*
X56480Y31000D02*
Y31790D01*
X56560Y31000D02*
Y31790D01*
X55621Y31520D02*
X55749D01*
X55635Y31600D02*
X55687D01*
X55621Y31680D02*
X55666D01*
X55600Y31723D02*
Y31790D01*
X55550D02*
X55640D01*
X56160D02*
X56640D01*
Y31000D02*
Y31790D01*
X56720Y31000D02*
Y31790D01*
X56800Y31000D02*
Y31790D01*
X56880Y31000D02*
Y31790D01*
X56960Y31000D02*
Y31790D01*
X57040Y31000D02*
Y31790D01*
X54500Y32160D02*
X54768D01*
X54500Y32013D02*
Y38900D01*
Y32240D02*
X54768D01*
X54560Y31972D02*
Y38900D01*
X54640Y31000D02*
Y38900D01*
X54720Y31000D02*
Y38900D01*
X54500Y32080D02*
X54798D01*
X54800Y31000D02*
Y32077D01*
X54500Y32320D02*
X54798D01*
X54500Y32400D02*
X54877D01*
X54800Y32323D02*
Y38900D01*
X54880Y32402D02*
Y38900D01*
X54500Y32480D02*
X55140D01*
Y32389D02*
Y32610D01*
X54500Y32560D02*
X55140D01*
X54960Y32432D02*
Y38339D01*
X55040Y32432D02*
Y38339D01*
X55120Y32402D02*
Y38339D01*
X55200Y32610D02*
Y38339D01*
X54500Y32640D02*
X55673D01*
X55140Y32610D02*
X55640D01*
X54500Y32720D02*
X55666D01*
X54500Y32800D02*
X55687D01*
X54500Y32880D02*
X55749D01*
X54500Y33360D02*
X55790D01*
X54500Y33440D02*
X55790D01*
X55280Y32610D02*
Y38339D01*
X55360Y32610D02*
Y38339D01*
X55440Y32610D02*
Y38339D01*
X55520Y32610D02*
Y38900D01*
X55600Y32610D02*
Y38900D01*
X56160Y32610D02*
X56640D01*
X56160D02*
Y33359D01*
X56240Y32610D02*
Y33359D01*
X56320Y32610D02*
Y33359D01*
X56400Y32610D02*
Y33359D01*
X56480Y32610D02*
Y33359D01*
X56560Y32610D02*
Y33359D01*
X55840Y32927D02*
Y33359D01*
X55920Y32934D02*
Y33359D01*
X56000Y32913D02*
Y33359D01*
X55680Y32783D02*
Y38900D01*
X55760Y32889D02*
Y38900D01*
X56080Y32851D02*
Y33359D01*
X55790D02*
Y34978D01*
X56640Y32610D02*
Y33359D01*
X56720Y32610D02*
Y33359D01*
X56800Y32610D02*
Y33359D01*
X56880Y32610D02*
Y33359D01*
X56960Y32610D02*
Y33359D01*
X57040Y32610D02*
Y38339D01*
X57120Y31000D02*
Y31790D01*
X57200Y31000D02*
Y31790D01*
X57280Y31000D02*
Y31790D01*
X57360Y31000D02*
Y31790D01*
X57440Y31000D02*
Y31790D01*
X57520Y31000D02*
Y31790D01*
X54500Y31000D02*
X58418D01*
X54500Y31040D02*
X58418D01*
X54500Y31120D02*
X58418D01*
X57600Y31000D02*
Y31790D01*
X57680Y31000D02*
Y31998D01*
X57760Y31000D02*
Y31968D01*
X57840Y31000D02*
Y31968D01*
X55572Y31440D02*
X57947D01*
X56051Y31520D02*
X57926D01*
X56113Y31600D02*
X57933D01*
X56134Y31680D02*
X57971D01*
X56660Y31790D02*
X57140D01*
X57160D02*
X57660D01*
Y32011D01*
X54500Y31200D02*
X58418D01*
X54500Y31280D02*
X58418D01*
X54500Y31360D02*
X58009D01*
X56127Y31760D02*
X58077D01*
X57660Y31840D02*
X58418D01*
X57660Y31920D02*
X58418D01*
X58080Y31000D02*
Y31319D01*
X58160Y31000D02*
Y31305D01*
X58240Y31000D02*
Y31319D01*
X57920Y31000D02*
Y31998D01*
X58000Y31000D02*
Y31368D01*
Y31712D02*
Y32077D01*
X58320Y31000D02*
Y31350D01*
X58418Y31000D02*
Y31350D01*
X59582Y31000D02*
X68000D01*
X58298Y31350D02*
X58418D01*
X58400Y31000D02*
Y31350D01*
X59582Y31000D02*
Y32162D01*
X57923Y32000D02*
X58418D01*
X58298Y31730D02*
X58418D01*
X58243Y31760D02*
X58418D01*
X58002Y32080D02*
X58418D01*
X58032Y32160D02*
X58418D01*
Y31730D02*
Y32162D01*
X59582D01*
Y31760D02*
X68000D01*
X59582Y31840D02*
X68000D01*
X59582Y31920D02*
X68000D01*
X58032Y32240D02*
X61889D01*
X58002Y32320D02*
X61859D01*
X59582Y32000D02*
X68000D01*
X59582Y32160D02*
X61945D01*
X56660Y32610D02*
X57140D01*
X57120D02*
Y38900D01*
X57200Y32610D02*
Y38900D01*
X57280Y32610D02*
Y38900D01*
X57360Y32610D02*
Y38900D01*
X57440Y32610D02*
Y38900D01*
X57660Y32480D02*
X61859D01*
X57660Y32560D02*
X61889D01*
X57160Y32610D02*
X57660D01*
X57520D02*
Y38900D01*
X57660Y32389D02*
Y32610D01*
X57600D02*
Y38900D01*
X56127Y32640D02*
X61945D01*
X56134Y32720D02*
X62058D01*
X56113Y32800D02*
X62303D01*
X55790Y33359D02*
X57010D01*
Y34978D01*
Y33440D02*
X58418D01*
X54500Y32960D02*
X62340D01*
X56051Y32880D02*
X62340D01*
X54500Y33040D02*
X62340D01*
X54500Y33120D02*
X62340D01*
X54500Y33200D02*
X62340D01*
X54500Y33280D02*
X62340D01*
X57010Y33360D02*
X62340D01*
X58080Y31761D02*
Y36118D01*
X58480Y32162D02*
Y33438D01*
X58560Y32162D02*
Y33438D01*
X58160Y31775D02*
Y36118D01*
X58240Y31761D02*
Y36118D01*
X58320Y31730D02*
Y36118D01*
X58400Y31730D02*
Y36118D01*
X58640Y32162D02*
Y33438D01*
X58720Y32162D02*
Y33438D01*
X58800Y32162D02*
Y33438D01*
X58880Y32162D02*
Y33438D01*
X58960Y32162D02*
Y33438D01*
X59600Y31000D02*
Y38900D01*
X59040Y32162D02*
Y33438D01*
X57840Y32432D02*
Y36118D01*
X59120Y32162D02*
Y33438D01*
X58418D02*
Y34682D01*
X57680Y32402D02*
Y38900D01*
X57760Y32432D02*
Y38900D01*
X58000Y32323D02*
Y36118D01*
X57920Y32402D02*
Y36118D01*
X57923Y32400D02*
X61850D01*
X59200Y32162D02*
Y33438D01*
X59280Y32162D02*
Y33438D01*
X59360Y32162D02*
Y33438D01*
X58418D02*
X59582D01*
X59440Y32162D02*
Y33438D01*
X59520Y32162D02*
Y33438D01*
X54500Y33520D02*
X55790D01*
X54500Y33600D02*
X55790D01*
X54500Y33680D02*
X55790D01*
X54500Y33760D02*
X55790D01*
X54500Y33840D02*
X55790D01*
X54500Y33920D02*
X55790D01*
X54500Y34000D02*
X55790D01*
X54500Y34080D02*
X55790D01*
X54500Y34160D02*
X55790D01*
X54500Y34240D02*
X55790D01*
X54500Y34320D02*
X55790D01*
X54500Y34400D02*
X55790D01*
X54500Y34480D02*
X55790D01*
X54500Y34560D02*
X55790D01*
X54500Y34640D02*
X55790D01*
X54500Y34720D02*
X55790D01*
X54500Y34800D02*
X55790D01*
X54500Y34880D02*
X55790D01*
X54500Y34960D02*
X55790D01*
X54500Y36160D02*
X57818D01*
X54500Y36240D02*
X57818D01*
X54500Y36320D02*
X57818D01*
X54500Y36400D02*
X57818D01*
X54500Y36480D02*
X57818D01*
X54500Y36560D02*
X57818D01*
X54500Y36640D02*
X57818D01*
X54500Y36720D02*
X57818D01*
X57010Y33520D02*
X58418D01*
X57010Y33600D02*
X58418D01*
X57010Y33680D02*
X58418D01*
X57010Y33760D02*
X58418D01*
X57010Y33840D02*
X58418D01*
X57010Y33920D02*
X58418D01*
X57010Y34000D02*
X58418D01*
X57010Y34080D02*
X58418D01*
X57010Y34160D02*
X58418D01*
X57010Y34240D02*
X58418D01*
X57010Y34320D02*
X58418D01*
X54500Y36800D02*
X57818D01*
X55790Y34978D02*
X57010D01*
X54500Y36880D02*
X57818D01*
X56560Y34978D02*
Y38339D01*
X54893Y38339D02*
X55507D01*
X56640Y34978D02*
Y38339D01*
X57818Y36118D02*
Y37362D01*
X54500Y36960D02*
X57818D01*
X57010Y34400D02*
X58418D01*
X54500Y37040D02*
X57818D01*
X54500Y37120D02*
X57818D01*
X54500Y37200D02*
X57818D01*
X54500Y37280D02*
X57818D01*
X54500Y37360D02*
X57818D01*
X54500Y38400D02*
X54893D01*
X54500Y38480D02*
X54893D01*
X54500Y38560D02*
X54893D01*
Y38339D02*
Y38900D01*
X55507Y38339D02*
Y38900D01*
Y38400D02*
X56493D01*
X55507Y38480D02*
X56493D01*
X55507Y38560D02*
X56493D01*
X55840Y34978D02*
Y38900D01*
X55920Y34978D02*
Y38900D01*
X56000Y34978D02*
Y38900D01*
X56080Y34978D02*
Y38900D01*
X54500Y38640D02*
X54893D01*
X54500Y38720D02*
X54893D01*
X54500Y38800D02*
X54893D01*
X54400Y38900D02*
X54500D01*
X54400D02*
X54500D01*
Y38880D02*
X54893D01*
X54500Y38900D02*
X54893D01*
X55507Y38640D02*
X56493D01*
X55507Y38720D02*
X56493D01*
X55507Y38800D02*
X56493D01*
X55507Y38880D02*
X56493D01*
X55507Y38900D02*
X56493D01*
X56160Y34978D02*
Y38900D01*
X56720Y34978D02*
Y38339D01*
X56800Y34978D02*
Y38339D01*
X56240Y34978D02*
Y38900D01*
X56320Y34978D02*
Y38900D01*
X56400Y34978D02*
Y38900D01*
X56480Y34978D02*
Y38900D01*
X56880Y34978D02*
Y38339D01*
X56960Y34978D02*
Y38339D01*
X57840Y37362D02*
Y38638D01*
X57920Y37362D02*
Y38638D01*
X58000Y37362D02*
Y38638D01*
X58080Y37362D02*
Y38638D01*
X58160Y37362D02*
Y38638D01*
X56493Y38339D02*
X57107D01*
Y38640D02*
X57818D01*
X56493Y38339D02*
Y38900D01*
X57107Y38339D02*
Y38900D01*
Y38720D02*
X57818D01*
X58240Y37362D02*
Y38638D01*
X58320Y37362D02*
Y38638D01*
X57107Y38800D02*
X57818D01*
X57107Y38880D02*
X57818D01*
Y38638D02*
Y38900D01*
X57107D02*
X57818D01*
X57010Y34480D02*
X58418D01*
X57010Y34560D02*
X58418D01*
X57010Y34640D02*
X58418D01*
X58480Y34682D02*
Y36118D01*
X58560Y34682D02*
Y36118D01*
X58640Y34682D02*
Y36118D01*
X57010Y34720D02*
X62990D01*
X58418Y34682D02*
X59582D01*
X57010Y34800D02*
X62990D01*
X54500Y35040D02*
X62990D01*
X57010Y34880D02*
X62990D01*
X57010Y34960D02*
X62990D01*
X54500Y35120D02*
X62990D01*
X54500Y35200D02*
X62990D01*
X54500Y35280D02*
X62990D01*
X54500Y35360D02*
X62990D01*
X54500Y35440D02*
X62990D01*
X54500Y35520D02*
X62990D01*
X57818Y36118D02*
X58982D01*
X54500Y35600D02*
X62990D01*
X54500Y35680D02*
X62990D01*
X54500Y35760D02*
X62990D01*
X54500Y35840D02*
X62990D01*
X54500Y35920D02*
X62990D01*
X54500Y36000D02*
X68000D01*
X54500Y36080D02*
X68000D01*
X59582Y33440D02*
X62340D01*
X59582Y33520D02*
X62340D01*
X59582Y33600D02*
X62340D01*
X59582Y33438D02*
Y34682D01*
Y33680D02*
X62440D01*
X59582Y33760D02*
X62452D01*
X59582Y33840D02*
X62514D01*
X59582Y33920D02*
X62594D01*
X59582Y34000D02*
X62674D01*
X59582Y34080D02*
X62754D01*
X59582Y34160D02*
X62834D01*
X59582Y34240D02*
X62914D01*
X59582Y34320D02*
X62994D01*
X59582Y34400D02*
X62990D01*
X58720Y34682D02*
Y36118D01*
X58800Y34682D02*
Y36118D01*
X58880Y34682D02*
Y36118D01*
X58960Y34682D02*
Y36118D01*
X59582Y34480D02*
X62990D01*
X59582Y34560D02*
X62990D01*
X59582Y34640D02*
X62990D01*
X58982Y36160D02*
X68000D01*
X58982Y36240D02*
X68000D01*
X58982Y36320D02*
X68000D01*
X58982Y36400D02*
X68000D01*
X58400Y37362D02*
Y38638D01*
X58480Y37362D02*
Y38638D01*
X58560Y37362D02*
Y38638D01*
X54500Y37440D02*
X68000D01*
X57818Y37362D02*
X58982D01*
X58640D02*
Y38638D01*
X54500Y37520D02*
X68000D01*
X58720Y37362D02*
Y38638D01*
X58800Y37362D02*
Y38638D01*
X54500Y37600D02*
X68000D01*
X54500Y37680D02*
X68000D01*
X54500Y37760D02*
X68000D01*
X54500Y37840D02*
X68000D01*
X54500Y37920D02*
X68000D01*
X54500Y38000D02*
X68000D01*
X57818Y38638D02*
X58982D01*
X54500Y38080D02*
X68000D01*
X54500Y38160D02*
X68000D01*
X54500Y38240D02*
X68000D01*
X54500Y38320D02*
X68000D01*
X57107Y38400D02*
X68000D01*
X57107Y38480D02*
X68000D01*
X57107Y38560D02*
X68000D01*
X58982Y36118D02*
Y37362D01*
X59040Y34682D02*
Y38900D01*
X59120Y34682D02*
Y38900D01*
X59200Y34682D02*
Y38900D01*
X59280Y34682D02*
Y38900D01*
X59360Y34682D02*
Y38900D01*
X59440Y34682D02*
Y38900D01*
X58982Y36480D02*
X68000D01*
X58982Y36560D02*
X68000D01*
X58982Y36640D02*
X68000D01*
X58982Y36720D02*
X68000D01*
X58982Y36800D02*
X68000D01*
X59520Y34682D02*
Y38900D01*
X58982Y36880D02*
X68000D01*
X58982Y36960D02*
X68000D01*
X58982Y37040D02*
X68000D01*
X58982Y37120D02*
X68000D01*
X58880Y37362D02*
Y38638D01*
X58960Y37362D02*
Y38638D01*
X58982D02*
Y38900D01*
X60000D01*
X58982Y37200D02*
X68000D01*
X58982Y37280D02*
X68000D01*
X58982Y37360D02*
X68000D01*
X58982Y38640D02*
X68000D01*
X58982Y38720D02*
X68000D01*
X58982Y38800D02*
X68000D01*
X58982Y38880D02*
X68000D01*
X62080Y31000D02*
Y32071D01*
X62160Y31000D02*
Y32052D01*
X62240Y31000D02*
Y32052D01*
X61920Y31000D02*
Y32190D01*
X62000Y31000D02*
Y32113D01*
X62320Y31000D02*
Y32071D01*
X62400Y31000D02*
Y32113D01*
X62480Y31000D02*
Y32190D01*
X62560Y31000D02*
Y32463D01*
X62640Y31000D02*
Y32543D01*
X62720Y31000D02*
Y32623D01*
X62800Y31000D02*
Y32736D01*
X59582Y32080D02*
X62058D01*
X62657Y32560D02*
X62894D01*
X62546Y32450D02*
X62748Y32651D01*
X62737Y32640D02*
X62890D01*
X62794Y32720D02*
X62890D01*
X62342Y32080D02*
X64358D01*
X62455Y32160D02*
X64245D01*
X62511Y32240D02*
X63164D01*
X62541Y32320D02*
X63083D01*
X62550Y32400D02*
X63003D01*
X62577Y32480D02*
X62928D01*
X63200Y31000D02*
Y32215D01*
X63280Y31000D02*
Y32191D01*
X63360Y31000D02*
Y32190D01*
X62960Y31000D02*
Y32443D01*
X63040Y31000D02*
Y32363D01*
X63120Y31000D02*
Y32283D01*
X63440Y31000D02*
Y32190D01*
X63520Y31000D02*
Y32190D01*
X63600Y31000D02*
Y32190D01*
X63680Y31000D02*
Y32190D01*
X63760Y31000D02*
Y32190D01*
X63840Y31000D02*
Y32190D01*
X63920Y31000D02*
Y32190D01*
X64000Y31000D02*
Y32190D01*
X64080Y31000D02*
Y32190D01*
X62952Y32451D02*
X63151Y32252D01*
X63310Y32687D02*
X63387Y32610D01*
X64160Y31000D02*
Y32190D01*
X64240Y31000D02*
Y32166D01*
X64320Y31000D02*
Y32100D01*
X63300Y32190D02*
X64220D01*
X63310Y32720D02*
X64358D01*
X63387Y32610D02*
X64220D01*
X63357Y32640D02*
X64245D01*
X59680Y31000D02*
Y38900D01*
X59760Y31000D02*
Y38900D01*
X59840Y31000D02*
Y38900D01*
X59920Y31000D02*
Y38900D01*
X60000Y31000D02*
Y38900D01*
X60080Y31000D02*
Y38980D01*
X60160Y31000D02*
Y39060D01*
X60240Y31000D02*
Y39140D01*
X60320Y31000D02*
Y39220D01*
X60400Y31000D02*
Y39300D01*
X60480Y31000D02*
Y39380D01*
X60560Y31000D02*
Y39460D01*
X60640Y31000D02*
Y39540D01*
X60720Y31000D02*
Y39620D01*
X60800Y31000D02*
Y39700D01*
X60880Y31000D02*
Y39780D01*
X60960Y31000D02*
Y39860D01*
X61040Y31000D02*
Y39940D01*
X61120Y31000D02*
Y40020D01*
X61200Y31000D02*
Y40100D01*
X61280Y31000D02*
Y40180D01*
X61360Y31000D02*
Y40260D01*
X61440Y31000D02*
Y40340D01*
X61520Y31000D02*
Y40420D01*
X61600Y31000D02*
Y40500D01*
X61680Y31000D02*
Y40580D01*
X61760Y31000D02*
Y40600D01*
X62890Y32600D02*
Y32790D01*
X63440Y32610D02*
Y32790D01*
X63360Y32637D02*
Y32790D01*
X61840Y31000D02*
Y40600D01*
X61920Y32610D02*
Y40600D01*
X63520Y32610D02*
Y32790D01*
X63600Y32610D02*
Y32790D01*
X63680Y32610D02*
Y32790D01*
X63760Y32610D02*
Y32790D01*
X63840Y32610D02*
Y32790D01*
X63920Y32610D02*
Y32790D01*
X64000Y32610D02*
Y32790D01*
X64080Y32610D02*
Y32790D01*
X64160Y32610D02*
Y32790D01*
X62000Y32687D02*
Y40600D01*
X62249Y32746D02*
X62340Y32837D01*
Y33610D01*
X62080Y32729D02*
Y40600D01*
X62160Y32748D02*
Y40600D01*
X62240Y32748D02*
Y40600D01*
X62320Y32817D02*
Y40600D01*
X63310Y32687D02*
Y32790D01*
X62810D02*
X62840D01*
X63360D02*
X63840D01*
X63860D02*
X64340D01*
X64240Y32634D02*
Y32790D01*
X64320Y32700D02*
Y32790D01*
X64400Y31000D02*
Y32065D01*
X64480Y31000D02*
Y32051D01*
X64560Y31000D02*
Y32055D01*
X64640Y31000D02*
Y32079D01*
X64720Y31000D02*
Y32128D01*
X64800Y31000D02*
Y32190D01*
X59582Y31040D02*
X68000D01*
X59582Y31120D02*
X68000D01*
X59582Y31200D02*
X68000D01*
X64880Y31000D02*
Y32190D01*
X64960Y31000D02*
Y32190D01*
X65040Y31000D02*
Y32194D01*
X65120Y31000D02*
Y32228D01*
X64755Y32160D02*
X65893D01*
X64780Y32190D02*
X65000D01*
X64780Y32610D02*
X64913D01*
X65136Y32240D02*
X65893D01*
X59582Y31280D02*
X68000D01*
X59582Y31360D02*
X68000D01*
X59582Y31440D02*
X68000D01*
X59582Y31520D02*
X68000D01*
X59582Y31600D02*
X68000D01*
X59582Y31680D02*
X68000D01*
X64642Y32080D02*
X68000D01*
X65920Y31000D02*
Y32139D01*
X66000Y31000D02*
Y32139D01*
X66080Y31000D02*
Y32139D01*
X65200Y31000D02*
Y32303D01*
X65280Y31000D02*
Y32383D01*
X65360Y31000D02*
Y32463D01*
X65440Y31000D02*
Y32543D01*
X66160Y31000D02*
Y32139D01*
X66240Y31000D02*
Y32139D01*
X66320Y31000D02*
Y32139D01*
X66400Y31000D02*
Y32139D01*
X66480Y31000D02*
Y32139D01*
X67920Y31000D02*
Y32349D01*
X68000Y31000D02*
Y32287D01*
X65217Y32320D02*
X65893D01*
X65297Y32400D02*
X65893D01*
X65377Y32480D02*
X65893D01*
X65457Y32560D02*
X65893D01*
Y32139D02*
X66507D01*
Y32160D02*
X68000D01*
X66507Y32240D02*
X68000D01*
X66507Y32320D02*
X67949D01*
X66507Y32400D02*
X67887D01*
X66507Y32480D02*
X67866D01*
X66507Y32560D02*
X67873D01*
X65520Y31000D02*
Y32623D01*
X64755Y32640D02*
X64943D01*
X64800Y32610D02*
Y32790D01*
X64880Y32610D02*
Y40600D01*
X64913Y32610D02*
X65586Y33283D01*
X65537Y32640D02*
X65893D01*
X65600Y31000D02*
Y32703D01*
X65680Y31000D02*
Y32783D01*
X65760Y31000D02*
Y32863D01*
X65149Y32252D02*
X65822Y32925D01*
X65840Y31000D02*
Y32925D01*
X65893Y32139D02*
Y32792D01*
X64400Y32735D02*
Y32790D01*
X64480Y32749D02*
Y32790D01*
X64560Y32745D02*
Y32790D01*
X64640Y32721D02*
Y32790D01*
X64360D02*
X64860D01*
X64720Y32672D02*
Y32790D01*
X64860D02*
Y33610D01*
X64642Y32720D02*
X65023D01*
X65617D02*
X65893D01*
X64860Y32800D02*
X65103D01*
X64960Y32657D02*
Y40600D01*
X65040Y32737D02*
Y40600D01*
X65697Y32800D02*
X67518D01*
X65120Y32817D02*
Y40600D01*
X66560Y31000D02*
Y32890D01*
X66640Y31000D02*
Y32890D01*
X66720Y31000D02*
Y32890D01*
X66800Y31000D02*
Y32890D01*
X66880Y31000D02*
Y32890D01*
X66960Y31000D02*
Y32890D01*
X67040Y31000D02*
Y32890D01*
X67120Y31000D02*
Y32890D01*
X67520Y31000D02*
Y32618D01*
X67600Y31000D02*
Y32618D01*
X67200Y31000D02*
Y32890D01*
X67280Y31000D02*
Y32890D01*
X67360Y31000D02*
Y32890D01*
X67440Y31000D02*
Y32890D01*
X66507Y32139D02*
Y32792D01*
Y32640D02*
X67518D01*
X65893Y32792D02*
X66507D01*
X65893Y32808D02*
X66507D01*
X65893D02*
Y32925D01*
X66507Y32808D02*
Y32890D01*
X67680Y31000D02*
Y32618D01*
X67760Y31000D02*
Y32618D01*
X67840Y31000D02*
Y32618D01*
X67518D02*
X67890D01*
X66507Y32720D02*
X67518D01*
Y32618D02*
Y32890D01*
X62340Y33610D02*
X62440D01*
X62760D02*
X62840D01*
X62800D02*
Y33674D01*
X62440Y33610D02*
Y33700D01*
X62880Y33610D02*
Y33754D01*
X62960Y33610D02*
Y33834D01*
X62860Y33610D02*
X63340D01*
X63040D02*
Y33914D01*
X63360Y33610D02*
X63840D01*
X63120D02*
Y33994D01*
X63200Y33610D02*
Y34040D01*
X63280Y33610D02*
Y34040D01*
X63360Y33610D02*
Y34040D01*
X62760Y33634D02*
X63166Y34040D01*
X63440Y33610D02*
Y34040D01*
X62487Y33813D02*
X62987Y34313D01*
X63520Y33610D02*
Y34040D01*
X63600Y33610D02*
Y34040D01*
X62806Y33680D02*
X64440D01*
X62886Y33760D02*
X64440D01*
X62966Y33840D02*
X64440D01*
X63046Y33920D02*
X64440D01*
X63126Y34000D02*
X64374D01*
X63680Y33610D02*
Y34040D01*
X63166D02*
X64334D01*
X63760Y33610D02*
Y34040D01*
X64860Y32880D02*
X65183D01*
X63860Y33610D02*
X64340D01*
X63840D02*
Y34040D01*
X63920Y33610D02*
Y34040D01*
X64000Y33610D02*
Y34040D01*
X64860Y32960D02*
X65263D01*
X64860Y33040D02*
X65343D01*
X64860Y33120D02*
X65423D01*
X64860Y33200D02*
X65503D01*
X64860Y33280D02*
X65583D01*
X64360Y33610D02*
X64440D01*
X64400D02*
Y33974D01*
X64440Y33610D02*
Y33934D01*
X64080Y33610D02*
Y34040D01*
X64160Y33610D02*
Y34040D01*
X64240Y33610D02*
Y34040D01*
X64320Y33610D02*
Y34040D01*
X64760Y33610D02*
X64860D01*
X64760Y33840D02*
X65855D01*
X64760Y33920D02*
X65851D01*
X64334Y34040D02*
X64440Y33934D01*
X64760Y33610D02*
Y34000D01*
X62400Y33610D02*
Y40600D01*
X62480Y33806D02*
Y40600D01*
X62560Y33886D02*
Y40600D01*
X62640Y33966D02*
Y40600D01*
X62720Y34046D02*
Y40600D01*
X62800Y34126D02*
Y40600D01*
X62990Y34358D02*
X63078D01*
X62880Y34206D02*
Y40600D01*
X62960Y34286D02*
Y40600D01*
X62990Y34358D02*
Y35979D01*
X60000Y38900D02*
X61700Y40600D01*
X63040Y35979D02*
Y40600D01*
X63120Y35979D02*
Y40600D01*
X63200Y35979D02*
Y40600D01*
X63280Y35979D02*
Y40600D01*
X63360Y35979D02*
Y40600D01*
X63440Y35979D02*
Y40600D01*
X62990Y35979D02*
X64210D01*
X63520D02*
Y40600D01*
X63600Y35979D02*
Y40600D01*
X63680Y35979D02*
Y40600D01*
X64513Y34313D02*
X64713Y34113D01*
X64640Y34186D02*
Y40600D01*
X64560Y34266D02*
Y40600D01*
X64800Y33610D02*
Y40600D01*
X64720Y34106D02*
Y40600D01*
X65200Y32897D02*
Y40600D01*
X65280Y32977D02*
Y40600D01*
X65360Y33057D02*
Y40600D01*
X65440Y33137D02*
Y40600D01*
X65520Y33217D02*
Y40600D01*
X65600Y33296D02*
Y40600D01*
X65680Y33337D02*
Y40600D01*
X65760Y33345D02*
Y40600D01*
X65840Y33345D02*
Y40600D01*
X63760Y35979D02*
Y40600D01*
X64210Y34360D02*
Y35979D01*
X63840D02*
Y40600D01*
X63920Y35979D02*
Y40600D01*
X64000Y35979D02*
Y40600D01*
X64080Y35979D02*
Y40600D01*
X64160Y35979D02*
Y40600D01*
X64210Y34360D02*
X64400D01*
X64240D02*
Y40600D01*
X64320Y34360D02*
Y40600D01*
X64480Y34339D02*
Y40600D01*
X64400Y34360D02*
Y40600D01*
X64860Y33360D02*
X65893D01*
X65777Y32880D02*
X65893D01*
X65735Y33345D02*
X65893D01*
X64760Y33760D02*
X65879D01*
X64860Y33440D02*
X65893D01*
X64760Y34000D02*
X65865D01*
X64760Y33680D02*
X65928D01*
X64860Y33520D02*
X65990D01*
X64860Y33600D02*
X65990D01*
X64586Y34240D02*
X66117D01*
X64506Y34320D02*
X68000D01*
X64739Y34080D02*
X65900D01*
X64666Y34160D02*
X65966D01*
X64210Y34400D02*
X68000D01*
X64210Y34480D02*
X68000D01*
X64210Y34560D02*
X68000D01*
X64210Y34640D02*
X68000D01*
X64210Y34720D02*
X68000D01*
X64210Y34800D02*
X68000D01*
X64210Y34880D02*
X68000D01*
X64210Y34960D02*
X68000D01*
X64210Y35040D02*
X68000D01*
X64210Y35120D02*
X68000D01*
X64210Y35200D02*
X68000D01*
X64210Y35280D02*
X68000D01*
X64210Y35360D02*
X68000D01*
X64210Y35440D02*
X68000D01*
X65822Y32925D02*
X65893D01*
Y33345D02*
Y33461D01*
X65990D01*
X65920D02*
Y33690D01*
X65990Y33461D02*
Y33620D01*
X66507Y33310D02*
Y33461D01*
X66410D02*
Y33620D01*
X66507Y32890D02*
X67518D01*
X66507Y32880D02*
X67518D01*
X66507Y33310D02*
X67518D01*
X66410Y33461D02*
X66507D01*
X66480D02*
Y33690D01*
X67518Y33310D02*
Y33782D01*
X66507Y33360D02*
X67518D01*
X66410Y33520D02*
X67518D01*
X66507Y33440D02*
X67518D01*
X66410Y33600D02*
X67518D01*
X66472Y33680D02*
X67518D01*
X66521Y33760D02*
X67518D01*
X66545Y33840D02*
X68000D01*
X67518Y33782D02*
X68000D01*
X66549Y33920D02*
X68000D01*
X66434Y34160D02*
X68000D01*
X66283Y34240D02*
X68000D01*
X66535Y34000D02*
X68000D01*
X66500Y34080D02*
X68000D01*
X64210Y35520D02*
X68000D01*
X64210Y35600D02*
X68000D01*
X64210Y35680D02*
X68000D01*
X60060Y38960D02*
X68000D01*
X64210Y35760D02*
X68000D01*
X64210Y35840D02*
X68000D01*
X60140Y39040D02*
X68000D01*
X60220Y39120D02*
X68000D01*
X60300Y39200D02*
X68000D01*
X60380Y39280D02*
X68000D01*
X60460Y39360D02*
X68000D01*
X60540Y39440D02*
X68000D01*
X60620Y39520D02*
X68000D01*
X60700Y39600D02*
X68000D01*
X60780Y39680D02*
X68000D01*
X60860Y39760D02*
X68000D01*
X60940Y39840D02*
X68000D01*
X61020Y39920D02*
X68000D01*
X61100Y40000D02*
X68000D01*
X61180Y40080D02*
X68000D01*
X61260Y40160D02*
X68000D01*
X61340Y40240D02*
X68000D01*
X61420Y40320D02*
X68000D01*
X61500Y40400D02*
X68000D01*
X61580Y40480D02*
X68000D01*
X61660Y40560D02*
X68000D01*
X61700Y40600D02*
X68000D01*
X66560Y33310D02*
Y40600D01*
X66640Y33310D02*
Y40600D01*
X66720Y33310D02*
Y40600D01*
X66800Y33310D02*
Y40600D01*
X66880Y33310D02*
Y40600D01*
X66960Y33310D02*
Y40600D01*
X67040Y33310D02*
Y40600D01*
X67120Y33310D02*
Y40600D01*
X67200Y33310D02*
Y40600D01*
X67280Y33310D02*
Y40600D01*
X67360Y33310D02*
Y40600D01*
X67440Y33310D02*
Y40600D01*
X67520Y33782D02*
Y40600D01*
X67600Y33782D02*
Y40600D01*
X65920Y34110D02*
Y40600D01*
X66000Y34187D02*
Y40600D01*
X66080Y34229D02*
Y40600D01*
X66160Y34248D02*
Y40600D01*
X66240Y34248D02*
Y40600D01*
X66400Y34187D02*
Y40600D01*
X66320Y34229D02*
Y40600D01*
X64210Y35920D02*
X68000D01*
X67680Y33782D02*
Y40600D01*
X66480Y34110D02*
Y40600D01*
X67760Y33782D02*
Y40600D01*
X67840Y33782D02*
Y40600D01*
X67920Y33782D02*
Y40600D01*
X68000Y33782D02*
Y40600D01*
X39472Y58160D02*
X40340D01*
X41326Y51635D02*
Y57174D01*
X29900Y50100D02*
X30265Y49735D01*
X30193Y57393D02*
X30728D01*
X30049Y48751D02*
X30765D01*
X39472Y56369D02*
X39831D01*
X30765Y49342D02*
X31242D01*
X31400Y49500D01*
X29900Y50100D02*
Y51800D01*
X38800Y60500D02*
X39019Y60719D01*
X38800Y60200D02*
X38807Y60207D01*
X38800Y60200D02*
Y60500D01*
X38807Y60207D02*
X39472D01*
X39019Y60719D02*
X39472D01*
X30265Y49735D02*
X30765D01*
X29900Y51800D02*
X30500Y52400D01*
X38800Y60900D02*
X38875Y60975D01*
X39472D01*
X32245Y49145D02*
X33200Y50100D01*
X39472Y56625D02*
X40175D01*
X30765Y49145D02*
X32245D01*
X32448Y48948D02*
X33500Y50000D01*
X29000Y46600D02*
X29211Y46389D01*
X30765D01*
X23000Y54746D02*
X25200Y52546D01*
Y48900D02*
X28105Y45995D01*
X30765D01*
X24500Y47200D02*
Y49000D01*
X35814Y39765D02*
Y44186D01*
X33300Y46400D02*
X33600D01*
X33649Y39765D02*
Y40651D01*
X32500Y41300D02*
X33000D01*
X24600Y35600D02*
X30271Y41271D01*
X23600Y35600D02*
X24600D01*
X30271Y41271D02*
X30765D01*
X30291Y40800D02*
X30368Y40877D01*
X23600Y46800D02*
X24100D01*
X23200Y47200D02*
X23600Y46800D01*
X22800Y50300D02*
X24000D01*
X21550Y49050D02*
X22800Y50300D01*
X21550Y48700D02*
Y49050D01*
X24000Y50300D02*
X24200Y50500D01*
X26065Y50565D02*
Y51000D01*
X24000Y49700D02*
X24600Y50300D01*
X23600Y49700D02*
X24000D01*
X21550Y47350D02*
X22100Y46800D01*
X22600D01*
X21550Y47350D02*
Y47700D01*
X22600Y46800D02*
X23000Y47200D01*
X30200Y40800D02*
X30291D01*
X23000Y47200D02*
X23200D01*
X24500Y49000D02*
X24700Y49200D01*
X26600Y49300D02*
X26735Y49435D01*
Y50000D01*
X24100Y46800D02*
X24500Y47200D01*
X27300Y51565D02*
Y54000D01*
X26735Y51000D02*
X27300Y51565D01*
X27000Y54300D02*
X27300Y54000D01*
X42635Y50523D02*
X43423D01*
X43600Y50700D01*
X44800Y48356D02*
X47950D01*
X44602Y48554D02*
X44800Y48356D01*
X42635Y48554D02*
X44602D01*
X43961Y48161D02*
X44100Y48300D01*
X42635Y48161D02*
X43961D01*
X30765Y48948D02*
X32448D01*
X39831Y56369D02*
X40500Y55700D01*
X33500Y50000D02*
Y50500D01*
X33700Y50800D02*
X33900Y50600D01*
X32923Y50800D02*
X33700D01*
X32723Y50600D02*
X32923Y50800D01*
X32000Y50600D02*
X32723D01*
X31300Y51300D02*
X32000Y50600D01*
X26800Y51600D02*
Y51900D01*
X42243Y48357D02*
X42635D01*
X41600Y49000D02*
X42243Y48357D01*
X33900Y50600D02*
X36000D01*
X23800Y59500D02*
X25200D01*
X26600Y60900D01*
X22900Y49200D02*
X23100D01*
X22600Y48900D02*
X22900Y49200D01*
X22600Y48600D02*
Y48900D01*
Y48600D02*
X22700Y48500D01*
X22300Y47500D02*
X22700Y47900D01*
X26065Y51535D02*
Y52000D01*
X24600Y50300D02*
Y51200D01*
X23100Y49200D02*
X23600Y49700D01*
X22700Y47900D02*
Y48500D01*
X22300Y47200D02*
Y47500D01*
X20900Y49900D02*
X21330Y50330D01*
X22030D01*
X22500Y50800D01*
X20900Y41500D02*
Y49900D01*
X21100Y47150D02*
Y49800D01*
X21400Y50100D01*
X22300D01*
X23400Y51200D01*
X21100Y47150D02*
X21550Y46700D01*
X23400Y51200D02*
Y51900D01*
X42558Y46558D02*
X42600Y46600D01*
X43400D01*
X34436Y39765D02*
Y41364D01*
X32900Y42900D02*
X34436Y41364D01*
X34633Y39765D02*
Y41767D01*
X33200Y43200D02*
X34633Y41767D01*
X29800Y38400D02*
X31000D01*
X31877Y39277D02*
Y39765D01*
X52165Y58935D02*
X53400D01*
X24400Y41100D02*
X24900D01*
X21400Y52800D02*
Y62900D01*
X30000Y40400D02*
X31200D01*
X32468Y39765D02*
Y40432D01*
X63965Y58935D02*
X65000D01*
X31300Y36900D02*
Y37800D01*
X32271Y38771D02*
Y39765D01*
X60265Y58935D02*
X61000D01*
X26735Y53000D02*
Y54935D01*
X26800Y55000D01*
X42635Y50720D02*
X43020D01*
X43200Y50900D01*
X31239Y42283D02*
Y42424D01*
Y42283D02*
Y42424D01*
Y42480D01*
Y42621D01*
Y42480D02*
Y42621D01*
Y42677D01*
Y42818D01*
Y42677D02*
Y42818D01*
X31280Y42285D02*
Y43019D01*
X31239Y42818D02*
Y42873D01*
Y43015D01*
Y42400D02*
X32687D01*
X31239Y42320D02*
X32749D01*
X31491Y42240D02*
X32948D01*
X31239Y42480D02*
X32666D01*
X31239Y42560D02*
X32673D01*
X31239Y42640D02*
X32711D01*
X31239Y42800D02*
X32687D01*
X31239Y42720D02*
X32749D01*
X31440Y42272D02*
Y43018D01*
X31360Y42293D02*
Y43004D01*
X31239Y42880D02*
X32666D01*
X31239Y42873D02*
Y43015D01*
Y43464D02*
Y43605D01*
Y43464D02*
Y43605D01*
Y43661D01*
Y43802D01*
Y43661D02*
Y43802D01*
Y43858D01*
Y43999D01*
Y43858D02*
Y43999D01*
Y44055D01*
Y42960D02*
X32673D01*
X31239Y43520D02*
X33568D01*
X31485Y43040D02*
X32711D01*
X31239Y43680D02*
X32698D01*
X31239Y43600D02*
X32777D01*
X31239Y43760D02*
X32668D01*
X31239Y43840D02*
X32668D01*
X31239Y43920D02*
X32698D01*
X31239Y44000D02*
X32777D01*
X31239Y44160D02*
X32868D01*
X31239Y44080D02*
X32898D01*
X31529Y42200D02*
X32777D01*
X32720D02*
Y42349D01*
X32800Y42213D02*
Y42287D01*
X32880Y42234D02*
Y42266D01*
X31520Y42211D02*
Y43067D01*
X32720Y42651D02*
Y42749D01*
X31563Y43120D02*
X32817D01*
X32720Y43051D02*
Y43649D01*
X32800Y43113D02*
Y43587D01*
X32880Y43134D02*
Y43566D01*
X31592Y43200D02*
X32965D01*
X32922Y42266D02*
X32961Y42227D01*
X33760Y42852D02*
Y43328D01*
X33840Y42772D02*
Y43248D01*
X32960Y43127D02*
Y43573D01*
X33440Y43172D02*
Y43648D01*
X33680Y42932D02*
Y43408D01*
X33520Y43092D02*
Y43568D01*
X33600Y43012D02*
Y43488D01*
X31592Y43280D02*
X32979D01*
X31562Y43360D02*
X33028D01*
X33040Y43372D02*
Y43611D01*
X33120Y43421D02*
Y43717D01*
X33200Y43435D02*
Y43888D01*
X33132Y43840D02*
X33248D01*
X32880Y44034D02*
Y44117D01*
X33120Y43883D02*
Y43966D01*
X33102Y43920D02*
X33168D01*
X31483Y43440D02*
X33648D01*
X33102Y43680D02*
X33408D01*
X33023Y43600D02*
X33488D01*
X33435Y43200D02*
X33888D01*
X33372Y43360D02*
X33728D01*
X33421Y43280D02*
X33808D01*
X33360Y43372D02*
Y43728D01*
X33280Y43421D02*
Y43808D01*
X33132Y43760D02*
X33328D01*
X33840Y43672D02*
Y44048D01*
X33760Y43752D02*
Y44128D01*
X33432Y44080D02*
X33808D01*
X31239Y44055D02*
Y44196D01*
Y44055D02*
Y44196D01*
Y44251D01*
Y44393D01*
Y44251D02*
Y44393D01*
X31280Y43460D02*
Y44427D01*
X31239Y44393D02*
Y44448D01*
Y44400D02*
X31328D01*
X31520Y43412D02*
Y44406D01*
X31360Y43474D02*
Y44389D01*
X31440Y43461D02*
Y44383D01*
X31239Y44240D02*
X32868D01*
X31239Y44320D02*
X32898D01*
X31507Y44400D02*
X32977D01*
X31600Y42200D02*
Y44469D01*
X31645Y44560D02*
X33328D01*
X31608Y44480D02*
X33408D01*
X31651Y44640D02*
X32728D01*
X31680Y42200D02*
Y46449D01*
X31760Y42200D02*
Y48798D01*
X31840Y42200D02*
Y48798D01*
X31239Y45236D02*
Y45377D01*
Y45236D02*
Y45377D01*
X31520Y44829D02*
Y44904D01*
X31239Y45377D02*
Y45433D01*
X31280Y45244D02*
Y46517D01*
X31239Y45433D02*
Y45574D01*
X31239Y45433D02*
Y45629D01*
X31520Y45119D02*
Y46366D01*
X31360Y45241D02*
Y46411D01*
X31440Y45207D02*
Y46373D01*
X31506Y44880D02*
X32679D01*
X31519Y45120D02*
X32649D01*
X31540Y44960D02*
X32728D01*
X31629Y44720D02*
X32679D01*
X31565Y44800D02*
X32665D01*
X31544Y45040D02*
X32848D01*
X31239Y45280D02*
X32566D01*
X31239Y45360D02*
X32573D01*
X31239Y45440D02*
X32611D01*
X31600Y44765D02*
Y46387D01*
X31451Y45200D02*
X32587D01*
X31239Y45520D02*
X32717D01*
X31920Y42200D02*
Y48798D01*
X32000Y42200D02*
Y48798D01*
X32080Y42200D02*
Y48798D01*
X32640Y42200D02*
Y45128D01*
X32720Y43951D02*
Y44649D01*
X32160Y42200D02*
Y48798D01*
X32240Y42200D02*
Y48798D01*
X32320Y42200D02*
Y48798D01*
X32400Y42200D02*
Y48798D01*
X32480Y42200D02*
Y48801D01*
X32560Y42200D02*
Y48848D01*
X33352Y44160D02*
X33728D01*
X33302Y44320D02*
X33568D01*
X33332Y44240D02*
X33648D01*
X33680Y43832D02*
Y44208D01*
X33520Y43992D02*
Y44368D01*
X33600Y43912D02*
Y44288D01*
X32800Y44013D02*
Y44587D01*
X32880Y44283D02*
Y44566D01*
X33440Y44072D02*
Y44448D01*
X33280Y44351D02*
Y44608D01*
X33360Y44152D02*
Y44528D01*
X32960Y44389D02*
Y44573D01*
X33040Y44427D02*
Y44611D01*
X33120Y44434D02*
Y44717D01*
X33121Y44720D02*
X33168D01*
X33200Y44413D02*
Y44688D01*
X32720Y44951D02*
Y45079D01*
X32640Y45472D02*
Y48928D01*
X32800Y45013D02*
Y45065D01*
X32720Y45521D02*
Y46249D01*
X32822Y45066D02*
X32857Y45031D01*
X33223Y44400D02*
X33488D01*
X33072Y44640D02*
X33248D01*
X33472Y45440D02*
X33748D01*
X33840Y45072D02*
Y45348D01*
X33760Y45152D02*
Y45428D01*
X33552Y45360D02*
X33828D01*
X33440Y45472D02*
Y45748D01*
X33392Y45520D02*
X33668D01*
X33680Y45232D02*
Y45508D01*
X33520Y45392D02*
Y45668D01*
X33600Y45312D02*
Y45588D01*
X33892Y42720D02*
X34368D01*
X33812Y42800D02*
X34288D01*
X34400Y42212D02*
Y42688D01*
X34240Y42372D02*
Y42848D01*
X34320Y42292D02*
Y42768D01*
X33434Y43178D02*
X34412Y42200D01*
X33920Y42692D02*
Y43168D01*
X33732Y42880D02*
X34208D01*
X34160Y42452D02*
Y42928D01*
X34000Y42612D02*
Y43088D01*
X34080Y42532D02*
Y43008D01*
X34292Y42320D02*
X34768D01*
X34132Y42480D02*
X34608D01*
X34212Y42400D02*
X34688D01*
X34412Y42200D02*
X34877D01*
X34640D02*
Y42448D01*
X34372Y42240D02*
X34848D01*
X33122Y43966D02*
X34877Y42211D01*
X33972Y42640D02*
X34448D01*
X34052Y42560D02*
X34528D01*
X34480Y42200D02*
Y42608D01*
X34560Y42200D02*
Y42528D01*
X34632Y42880D02*
X35008D01*
X33652Y42960D02*
X34128D01*
X33492Y43120D02*
X33968D01*
X33572Y43040D02*
X34048D01*
X34240Y43272D02*
Y43648D01*
X33832Y43680D02*
X34208D01*
X33912Y43600D02*
X34288D01*
X33752Y43760D02*
X34128D01*
X33592Y43920D02*
X33968D01*
X33672Y43840D02*
X34048D01*
X34160Y43352D02*
Y43728D01*
X34000Y43512D02*
Y43888D01*
X34080Y43432D02*
Y43808D01*
X34392Y43120D02*
X34768D01*
X34232Y43280D02*
X34608D01*
X34312Y43200D02*
X34688D01*
X34552Y42960D02*
X34928D01*
X34560Y42952D02*
Y43328D01*
X34472Y43040D02*
X34848D01*
X34152Y43360D02*
X34528D01*
X33992Y43520D02*
X34368D01*
X34072Y43440D02*
X34448D01*
X34480Y43032D02*
Y43408D01*
X34320Y43192D02*
Y43568D01*
X34400Y43112D02*
Y43488D01*
X34720Y42200D02*
Y42368D01*
X34800Y42200D02*
Y42288D01*
X35074Y42439D02*
Y42814D01*
X35032Y42480D02*
X35074D01*
X34952Y42560D02*
X35074D01*
X34800Y42712D02*
Y43088D01*
X34640Y42872D02*
Y43248D01*
X34720Y42792D02*
Y43168D01*
X35040Y42472D02*
Y42848D01*
X34880Y42632D02*
Y43008D01*
X34960Y42552D02*
Y42928D01*
X35964Y42200D02*
X36058D01*
X35964Y42240D02*
X36058D01*
X35964Y42320D02*
X36058D01*
X35964Y42400D02*
X36058D01*
X35964Y42480D02*
X36058D01*
X35964Y42560D02*
X36058D01*
X34872Y42640D02*
X35074D01*
X34792Y42720D02*
X35074D01*
X34712Y42800D02*
X35074D01*
X35964Y42640D02*
X36058D01*
X35964Y42720D02*
X36058D01*
X35964Y42800D02*
X36058D01*
X35392Y43520D02*
X35467D01*
X35312Y43600D02*
X35467D01*
X35232Y43680D02*
X35467D01*
X35964Y42880D02*
X36058D01*
X35467Y43445D02*
Y43721D01*
X35964Y42960D02*
X36058D01*
X35152Y43760D02*
X35428D01*
X34992Y43920D02*
X35268D01*
X35072Y43840D02*
X35348D01*
X35440Y43472D02*
Y43748D01*
X35280Y43632D02*
Y43908D01*
X35360Y43552D02*
Y43828D01*
X35964Y43040D02*
X36058D01*
X35964Y43120D02*
X36058D01*
X35964Y43200D02*
X36058D01*
X35964Y43280D02*
X36058D01*
X35964Y43360D02*
X36058D01*
X35964Y43440D02*
X36058D01*
X35964Y43520D02*
X36058D01*
X35964Y43600D02*
X36058D01*
X35964Y43680D02*
X36058D01*
X35964Y43760D02*
X36058D01*
X35964Y43840D02*
X36058D01*
X35964Y43920D02*
X36058D01*
X33920Y43592D02*
Y43968D01*
X33512Y44000D02*
X33888D01*
X34720Y44192D02*
Y44468D01*
X34432Y44480D02*
X34708D01*
X34512Y44400D02*
X34788D01*
X34400Y44512D02*
Y44788D01*
X34320Y44592D02*
Y44868D01*
X34352Y44560D02*
X34628D01*
X34640Y44272D02*
Y44548D01*
X34480Y44432D02*
Y44708D01*
X34560Y44352D02*
Y44628D01*
X33334Y44178D02*
X35074Y42439D01*
X34672Y44240D02*
X34948D01*
X34752Y44160D02*
X35028D01*
X34912Y44000D02*
X35188D01*
X34880Y44032D02*
Y44308D01*
X34832Y44080D02*
X35108D01*
X33131Y44757D02*
X35074Y42814D01*
X33334Y45578D02*
X35467Y43445D01*
X33422Y45766D02*
X35467Y43721D01*
X34800Y44112D02*
Y44388D01*
X34592Y44320D02*
X34868D01*
X33706Y46506D02*
X35920Y44292D01*
X34032Y44880D02*
X34308D01*
X33872Y45040D02*
X34148D01*
X33952Y44960D02*
X34228D01*
X34240Y44672D02*
Y44948D01*
X34160Y44752D02*
Y45028D01*
X34112Y44800D02*
X34388D01*
X33792Y45120D02*
X34068D01*
X33632Y45280D02*
X33908D01*
X33712Y45200D02*
X33988D01*
X34080Y44832D02*
Y45108D01*
X33920Y44992D02*
Y45268D01*
X34000Y44912D02*
Y45188D01*
X34272Y44640D02*
X34548D01*
X34192Y44720D02*
X34468D01*
X34692Y45520D02*
X35268D01*
X34932Y45280D02*
X35508D01*
X34772Y45440D02*
X35348D01*
X34852Y45360D02*
X35428D01*
X33822Y46966D02*
X36058Y44730D01*
X34034Y47178D02*
X36314Y44898D01*
X33394Y48094D02*
X36452Y45036D01*
X34880Y45332D02*
Y45908D01*
X34720Y45492D02*
Y46068D01*
X34800Y45412D02*
Y45988D01*
X35120Y43792D02*
Y44068D01*
X34960Y43952D02*
Y44228D01*
X35040Y43872D02*
Y44148D01*
X35964Y42200D02*
Y44186D01*
X35200Y43712D02*
Y43988D01*
X35680Y44532D02*
Y45108D01*
X35520Y44692D02*
Y45268D01*
X35600Y44612D02*
Y45188D01*
X35920Y44292D02*
Y44868D01*
X35760Y44452D02*
Y45028D01*
X35840Y44372D02*
Y44948D01*
X35964Y44000D02*
X36058D01*
X35892Y44320D02*
X36058D01*
X35964Y44080D02*
X36058D01*
X35964Y44160D02*
X36058D01*
X35954Y44240D02*
X36058D01*
X35732Y44480D02*
X36058D01*
X35652Y44560D02*
X36058D01*
X35572Y44640D02*
X36058D01*
X36000Y42200D02*
Y44788D01*
X36058Y42200D02*
Y44730D01*
X35812Y44400D02*
X36058D01*
X35172Y45040D02*
X35748D01*
X35012Y45200D02*
X35588D01*
X35092Y45120D02*
X35668D01*
X35440Y44772D02*
Y45348D01*
X35360Y44852D02*
Y45428D01*
X35252Y44960D02*
X35828D01*
X35120Y45092D02*
Y45668D01*
X34960Y45252D02*
Y45828D01*
X35040Y45172D02*
Y45748D01*
X35280Y44932D02*
Y45508D01*
X35200Y45012D02*
Y45588D01*
X35760Y45452D02*
Y45728D01*
X35492Y44720D02*
X36058D01*
X35332Y44880D02*
X35908D01*
X35412Y44800D02*
X35988D01*
X36092Y45120D02*
X36368D01*
X35932Y45280D02*
X36208D01*
X36012Y45200D02*
X36288D01*
X35852Y45360D02*
X36128D01*
X35840Y45372D02*
Y45648D01*
X35772Y45440D02*
X36048D01*
X36080Y45132D02*
Y45408D01*
X35920Y45292D02*
Y45568D01*
X36000Y45212D02*
Y45488D01*
X31239Y45629D02*
Y45771D01*
Y45629D02*
Y45771D01*
Y45967D01*
X31239Y45826D02*
Y45967D01*
Y46023D01*
Y46164D01*
Y46023D02*
Y46164D01*
Y46220D01*
Y46361D01*
Y46220D02*
Y46361D01*
Y46417D01*
X31239Y45600D02*
X32865D01*
X31239Y45680D02*
X32879D01*
X31239Y45760D02*
X32928D01*
X31239Y45840D02*
X33228D01*
X31239Y45920D02*
X33179D01*
X31239Y46000D02*
X33165D01*
X31239Y46080D02*
X33179D01*
X31239Y46240D02*
X32728D01*
X31239Y46160D02*
X33228D01*
X31239Y46320D02*
X32679D01*
X31239Y46400D02*
X31377D01*
X31239Y46417D02*
Y46558D01*
Y46417D02*
Y46558D01*
Y46614D01*
Y46952D02*
Y47007D01*
Y47149D01*
Y47007D02*
Y47149D01*
Y47204D01*
Y47345D01*
X31280Y46943D02*
Y47454D01*
X31239Y47204D02*
Y47345D01*
Y47401D01*
Y46480D02*
X31298D01*
X31239Y46943D02*
X31317D01*
X31239Y46960D02*
X33828D01*
X31239Y47040D02*
X33628D01*
X31239Y47200D02*
X32777D01*
X31239Y47120D02*
X33579D01*
X31239Y47280D02*
X32698D01*
X31239Y47360D02*
X32668D01*
X31263Y47440D02*
X32668D01*
X31283Y47457D02*
X31491Y47665D01*
X32800Y45535D02*
Y46187D01*
X32880Y45683D02*
Y46166D01*
X32960Y45789D02*
Y46173D01*
X33200Y45813D02*
Y45877D01*
Y46123D02*
Y46187D01*
X31623Y46400D02*
X32665D01*
X31702Y46480D02*
X32679D01*
X33040Y45827D02*
Y46211D01*
X33120Y45834D02*
Y46249D01*
X33072Y46240D02*
X33128D01*
X33280Y45751D02*
Y45798D01*
X33272Y45760D02*
X33428D01*
X33360Y45552D02*
Y45768D01*
X33321Y45680D02*
X33508D01*
X33335Y45600D02*
X33588D01*
X33840Y46372D02*
Y46948D01*
X33760Y46452D02*
Y46968D01*
X31431Y46896D02*
X31491Y46835D01*
X31732Y46560D02*
X32728D01*
X32800Y46613D02*
Y47187D01*
X31360Y46937D02*
Y47534D01*
X31346Y47520D02*
X32698D01*
X31426Y47600D02*
X32777D01*
X32720Y46551D02*
Y47249D01*
X31440Y46886D02*
Y47614D01*
X31520Y46834D02*
Y47666D01*
X33072Y46560D02*
X33128D01*
X32880Y46634D02*
Y47166D01*
X32960Y46627D02*
Y47173D01*
X33680Y46527D02*
Y46998D01*
X33481Y46550D02*
X33600D01*
Y47077D01*
X33040Y46589D02*
Y47211D01*
X33023Y47200D02*
X33565D01*
X33120Y46551D02*
Y47317D01*
X33102Y47280D02*
X33579D01*
X33132Y47360D02*
X33628D01*
X31680Y46751D02*
Y47749D01*
X31600Y46813D02*
Y47687D01*
Y48113D02*
Y48177D01*
X31239Y48471D02*
Y48527D01*
X31680Y48051D02*
Y48798D01*
X31600Y48423D02*
Y48798D01*
X31634Y48320D02*
X32679D01*
X31583Y47680D02*
X33808D01*
X31651Y48080D02*
X33408D01*
X31689Y47760D02*
X33728D01*
X31727Y47840D02*
X33648D01*
X31713Y48000D02*
X33488D01*
X31734Y47920D02*
X33568D01*
X31589Y48160D02*
X33355D01*
X31613Y48400D02*
X32665D01*
X31627Y48240D02*
X32728D01*
X32720Y47551D02*
Y48249D01*
X32800Y47613D02*
Y48187D01*
X31239Y48471D02*
Y48527D01*
Y48582D01*
Y48723D01*
X31280Y48502D02*
Y48798D01*
X31239Y48582D02*
Y48723D01*
Y48779D01*
X31360Y48532D02*
Y48798D01*
X31440Y48532D02*
Y48798D01*
X31239D02*
X32448D01*
X31520Y48502D02*
Y48798D01*
X31239Y48560D02*
X32728D01*
X31239Y48640D02*
X33268D01*
X31239Y48720D02*
X33298D01*
X31551Y48480D02*
X32679D01*
X32472Y48800D02*
X33377D01*
X32592Y48880D02*
X33566D01*
X32720Y48551D02*
Y49008D01*
X32554Y48842D02*
X33069Y49357D01*
X32672Y48960D02*
X33573D01*
X32800Y48613D02*
Y49088D01*
X32752Y49040D02*
X33611D01*
X32832Y49120D02*
X33717D01*
X32880Y47634D02*
Y48166D01*
X32960Y47627D02*
Y48173D01*
X33120Y47483D02*
Y48317D01*
X33040Y47589D02*
Y48211D01*
X33072Y48240D02*
X33350D01*
X33121Y48480D02*
X33298D01*
X33120Y48483D02*
Y49249D01*
X33072Y48560D02*
X33268D01*
X33200Y46613D02*
Y49187D01*
X33280Y46634D02*
Y48517D01*
X33350Y48200D02*
Y48419D01*
X33520Y46550D02*
Y47968D01*
X33440Y46589D02*
Y48048D01*
X33600Y47323D02*
Y47888D01*
X33680Y47402D02*
Y47808D01*
X33760Y47432D02*
Y47728D01*
X33840Y47432D02*
Y47648D01*
X33121Y48320D02*
X33350D01*
X33135Y48400D02*
X33350D01*
X33360Y46627D02*
Y48146D01*
X32880Y48634D02*
Y49168D01*
X32960Y48627D02*
Y49248D01*
X32912Y49200D02*
X33177D01*
X33280Y48683D02*
Y49166D01*
X33360Y48789D02*
Y49173D01*
X33440Y48827D02*
Y49211D01*
X33040Y48589D02*
Y49328D01*
X32992Y49280D02*
X33098D01*
X33520Y48834D02*
Y49317D01*
X33440Y49589D02*
Y49728D01*
X33600Y49023D02*
Y49888D01*
X33520Y49483D02*
Y49808D01*
X33343Y49631D02*
X33606Y49894D01*
X33650Y50000D02*
Y50319D01*
X33680Y49102D02*
Y50349D01*
X33760Y49132D02*
Y50528D01*
X33727Y50561D02*
X33794Y50494D01*
X33840Y49132D02*
Y50463D01*
X33812Y46400D02*
X34388D01*
X33732Y46480D02*
X34308D01*
X34400Y45812D02*
Y46388D01*
X34240Y45972D02*
Y46548D01*
X34320Y45892D02*
Y46468D01*
X33920Y46292D02*
Y46868D01*
X31732Y46640D02*
X34148D01*
X33472Y46560D02*
X34228D01*
X34160Y46052D02*
Y46628D01*
X34000Y46212D02*
Y46788D01*
X34080Y46132D02*
Y46708D01*
X34292Y45920D02*
X34868D01*
X34132Y46080D02*
X34708D01*
X34212Y46000D02*
X34788D01*
X34532Y45680D02*
X35108D01*
X34372Y45840D02*
X34948D01*
X34452Y45760D02*
X35028D01*
X34052Y46160D02*
X34628D01*
X33892Y46320D02*
X34468D01*
X33972Y46240D02*
X34548D01*
X34560Y45652D02*
Y46228D01*
X34480Y45732D02*
Y46308D01*
X34572Y46640D02*
X34848D01*
X31702Y46720D02*
X34068D01*
X31446Y46880D02*
X33908D01*
X31623Y46800D02*
X33988D01*
X34160Y47052D02*
Y47328D01*
X34080Y47132D02*
Y47408D01*
X33972Y47360D02*
X34128D01*
X33132Y47440D02*
X34048D01*
X33023Y47600D02*
X33888D01*
X33102Y47520D02*
X33968D01*
X33920Y47402D02*
Y47568D01*
X34000Y47323D02*
Y47488D01*
X34332Y46880D02*
X34608D01*
X34172Y47040D02*
X34448D01*
X34252Y46960D02*
X34528D01*
X34492Y46720D02*
X34768D01*
X34480Y46732D02*
Y47008D01*
X34412Y46800D02*
X34688D01*
X34092Y47120D02*
X34368D01*
X34021Y47280D02*
X34208D01*
X34035Y47200D02*
X34288D01*
X34400Y46812D02*
Y47088D01*
X34240Y46972D02*
Y47248D01*
X34320Y46892D02*
Y47168D01*
X34640Y45572D02*
Y46148D01*
X34612Y45600D02*
X35188D01*
X35360Y45852D02*
Y46128D01*
X35280Y45932D02*
Y46208D01*
X35052Y46160D02*
X35328D01*
X34972Y46240D02*
X35248D01*
X34960Y46252D02*
Y46528D01*
X34892Y46320D02*
X35168D01*
X35200Y46012D02*
Y46288D01*
X35040Y46172D02*
Y46448D01*
X35120Y46092D02*
Y46368D01*
X35532Y45680D02*
X35808D01*
X35372Y45840D02*
X35648D01*
X35452Y45760D02*
X35728D01*
X35692Y45520D02*
X35968D01*
X35680Y45532D02*
Y45808D01*
X35612Y45600D02*
X35888D01*
X35292Y45920D02*
X35568D01*
X35132Y46080D02*
X35408D01*
X35212Y46000D02*
X35488D01*
X35600Y45612D02*
Y45888D01*
X35440Y45772D02*
Y46048D01*
X35520Y45692D02*
Y45968D01*
X34732Y46480D02*
X35008D01*
X34720Y46492D02*
Y46768D01*
X34652Y46560D02*
X34928D01*
X34880Y46332D02*
Y46608D01*
X34800Y46412D02*
Y46688D01*
X34812Y46400D02*
X35088D01*
X34640Y46572D02*
Y46848D01*
X34560Y46652D02*
Y46928D01*
X35392Y47520D02*
X40298D01*
X35632Y47280D02*
X40298D01*
X35552Y47360D02*
X40268D01*
X35472Y47440D02*
X40268D01*
X35872Y47040D02*
X42161D01*
X35712Y47200D02*
X40377D01*
X35792Y47120D02*
X42161D01*
X36112Y46800D02*
X41748D01*
X36032Y46880D02*
X41769D01*
X35952Y46960D02*
X41828D01*
X35072Y47840D02*
X41728D01*
X34912Y48000D02*
X41665D01*
X34992Y47920D02*
X41679D01*
X35312Y47600D02*
X40377D01*
X35152Y47760D02*
X41914D01*
X35232Y47680D02*
X41994D01*
X33502Y49280D02*
X34117D01*
X34240Y48672D02*
Y49268D01*
X34080Y48832D02*
Y49298D01*
X34160Y48752D02*
Y49268D01*
X33920Y49102D02*
Y50450D01*
X33532Y49440D02*
X33973D01*
X33532Y49360D02*
X34011D01*
X34400Y48512D02*
Y49377D01*
X34000Y49023D02*
Y49377D01*
X34320Y48592D02*
Y49298D01*
X34034Y48878D02*
X36904Y46008D01*
X34027Y48960D02*
X41368D01*
X34112Y48800D02*
X41477D01*
X34352Y48560D02*
X40328D01*
X34192Y48720D02*
X41668D01*
X34272Y48640D02*
X41748D01*
X33883Y49120D02*
X41398D01*
X33423Y49200D02*
X41477D01*
X33989Y49040D02*
X41368D01*
X34389Y49360D02*
X35011D01*
X34283Y49280D02*
X35117D01*
X33502Y49520D02*
X33966D01*
X33423Y49600D02*
X33987D01*
X33392Y49680D02*
X34049D01*
X34000Y49623D02*
Y50450D01*
X34080Y49702D02*
Y50450D01*
X34160Y49732D02*
Y50450D01*
X33734Y50480D02*
X33810D01*
X34400Y49623D02*
Y50450D01*
X34240Y49732D02*
Y50450D01*
X34320Y49702D02*
Y50450D01*
X33472Y49760D02*
X39773D01*
X33552Y49840D02*
X39811D01*
X33627Y49920D02*
X39917D01*
X34413Y49600D02*
X34987D01*
X34351Y49680D02*
X35049D01*
X33650Y50000D02*
X42161D01*
X33650Y50080D02*
X42161D01*
X33650Y50160D02*
X42161D01*
X33650Y50240D02*
X42161D01*
X33651Y50320D02*
X42161D01*
X33900Y50450D02*
X35819D01*
X33713Y50400D02*
X35877D01*
X35120Y47792D02*
Y49279D01*
X34640Y48272D02*
Y50450D01*
X35040Y47872D02*
Y49328D01*
X35360Y47552D02*
Y49328D01*
X35200Y47712D02*
Y49265D01*
X35280Y47632D02*
Y49279D01*
X34880Y48032D02*
Y50450D01*
X34720Y48192D02*
Y50450D01*
X34800Y48112D02*
Y50450D01*
X35520Y47392D02*
Y50450D01*
X34960Y47952D02*
Y50450D01*
X35440Y47472D02*
Y50450D01*
X34752Y48160D02*
X41728D01*
X34592Y48320D02*
X40279D01*
X34672Y48240D02*
X40328D01*
X36000Y46912D02*
Y50365D01*
X35920Y46992D02*
Y50379D01*
X34832Y48080D02*
X41679D01*
X35760Y47152D02*
Y50450D01*
X35600Y47312D02*
Y50450D01*
X35680Y47232D02*
Y50450D01*
X36160Y46752D02*
Y50428D01*
X35840Y47072D02*
Y50428D01*
X36080Y46832D02*
Y50379D01*
X34480Y48432D02*
Y50450D01*
X34427Y49440D02*
X34973D01*
X34434Y49520D02*
X34966D01*
X34560Y48352D02*
Y50450D01*
X35040Y49672D02*
Y50450D01*
X35120Y49721D02*
Y50450D01*
X35200Y49735D02*
Y50450D01*
X35280Y49721D02*
Y50450D01*
X35360Y49672D02*
Y50450D01*
X36160Y50772D02*
Y50829D01*
X34512Y48400D02*
X40265D01*
X35283Y49280D02*
X37117D01*
X34432Y48480D02*
X40279D01*
X35389Y49360D02*
X37011D01*
X35427Y49440D02*
X36973D01*
X35434Y49520D02*
X36966D01*
X35413Y49600D02*
X36987D01*
X35351Y49680D02*
X37049D01*
X36123Y50400D02*
X42161D01*
X36123Y50800D02*
X36677D01*
X36358Y42200D02*
X36452D01*
X36358Y42240D02*
X36452D01*
X36358Y42320D02*
X36452D01*
X36358Y42400D02*
X36452D01*
X36358Y42480D02*
X36452D01*
X36358Y42560D02*
X36452D01*
X36358Y42640D02*
X36452D01*
X36358Y42720D02*
X36452D01*
X36358Y42200D02*
Y44792D01*
X36400Y42200D02*
Y45088D01*
X36452Y42200D02*
Y45036D01*
X36358Y42800D02*
X36452D01*
X36358Y42880D02*
X36452D01*
X36358Y42960D02*
X36452D01*
X36358Y43040D02*
X36452D01*
X36358Y43120D02*
X36452D01*
X36358Y43200D02*
X36452D01*
X36358Y43280D02*
X36452D01*
X36358Y43360D02*
X36452D01*
X36358Y43440D02*
X36452D01*
X36358Y43520D02*
X36452D01*
X36358Y43600D02*
X36452D01*
X36358Y43680D02*
X36452D01*
X36358Y43760D02*
X36452D01*
X36358Y43840D02*
X36452D01*
X36358Y43920D02*
X36452D01*
X36358Y44000D02*
X36452D01*
X36358Y44080D02*
X36452D01*
X36358Y44160D02*
X36452D01*
X36160Y45052D02*
Y45328D01*
X36240Y44972D02*
Y45248D01*
X36358Y44240D02*
X36452D01*
X36320Y44892D02*
Y45168D01*
X36358Y44320D02*
X36452D01*
X36358Y44400D02*
X36452D01*
X36358Y44480D02*
X36452D01*
X36358Y44560D02*
X36452D01*
X36358Y44640D02*
X36452D01*
X36358Y44720D02*
X36452D01*
X36329Y44880D02*
X36452D01*
X36252Y44960D02*
X36452D01*
X36172Y45040D02*
X36448D01*
X36358Y44800D02*
X36452D01*
X36948Y42200D02*
X40377D01*
X36948Y42800D02*
X40377D01*
X40320Y42200D02*
Y42849D01*
X36948Y42880D02*
X40298D01*
X40400Y42213D02*
Y42787D01*
X36948Y42960D02*
X40268D01*
X36948Y43040D02*
X40268D01*
X36948Y43120D02*
X40298D01*
X36948Y42200D02*
Y45902D01*
X40320Y43151D02*
Y43849D01*
X36948Y43200D02*
X40377D01*
X40480Y42234D02*
Y42766D01*
X40640Y42200D02*
Y42811D01*
X40560Y42227D02*
Y42773D01*
X40720Y42200D02*
Y42917D01*
X40400Y43213D02*
Y43787D01*
X40480Y43234D02*
Y43766D01*
X40560Y43227D02*
Y43773D01*
X41600Y42200D02*
Y43277D01*
X40640Y43189D02*
Y43811D01*
X40720Y43083D02*
Y43917D01*
X36948Y43840D02*
X40328D01*
X36948Y43920D02*
X40279D01*
X36948Y44000D02*
X40265D01*
X36948Y44080D02*
X40279D01*
X36948Y44160D02*
X40328D01*
X36948Y44800D02*
X40377D01*
X36948Y44880D02*
X40298D01*
X36948Y44960D02*
X40268D01*
X36948Y45040D02*
X40268D01*
X40320Y44151D02*
Y44849D01*
X36948Y45120D02*
X40298D01*
X36948Y45200D02*
X40377D01*
X36948Y43280D02*
X41598D01*
X36948Y43360D02*
X41568D01*
X36948Y43440D02*
X41568D01*
X36948Y43520D02*
X41598D01*
X40480Y44234D02*
Y44766D01*
X40400Y44213D02*
Y44787D01*
X40560Y44227D02*
Y44773D01*
X40720Y44083D02*
Y44917D01*
X40640Y44189D02*
Y44811D01*
X40623Y44800D02*
X41665D01*
X37040Y42200D02*
Y49328D01*
X37120Y42200D02*
Y49279D01*
X37200Y42200D02*
Y49265D01*
X37280Y42200D02*
Y49279D01*
X37360Y42200D02*
Y49328D01*
X36960Y42200D02*
Y50828D01*
X37440Y42200D02*
Y51014D01*
X37520Y42200D02*
Y51097D01*
X37600Y42200D02*
Y51161D01*
X37680Y42200D02*
Y51161D01*
X37760Y42200D02*
Y51161D01*
X38000Y42200D02*
Y49377D01*
X38080Y42200D02*
Y49298D01*
X38160Y42200D02*
Y49268D01*
X38240Y42200D02*
Y49268D01*
X38320Y42200D02*
Y49298D01*
X38400Y42200D02*
Y49377D01*
X37840Y42200D02*
Y51161D01*
X37920Y42200D02*
Y51161D01*
X38480Y42200D02*
Y50766D01*
X38560Y42200D02*
Y50773D01*
X38640Y42200D02*
Y50811D01*
X38720Y42200D02*
Y50917D01*
X36720Y46192D02*
Y50779D01*
X36240Y46672D02*
Y50958D01*
X36640Y46272D02*
Y50828D01*
X38960Y42200D02*
Y50938D01*
X36800Y46112D02*
Y50765D01*
X36880Y46032D02*
Y50779D01*
X36480Y46432D02*
Y51161D01*
X36320Y46592D02*
Y51161D01*
X36400Y46512D02*
Y51161D01*
X38800Y42200D02*
Y51161D01*
X36560Y46352D02*
Y51161D01*
X38880Y42200D02*
Y51161D01*
X36512Y46400D02*
X40265D01*
X36432Y46480D02*
X40279D01*
X36352Y46560D02*
X40328D01*
X39120Y42200D02*
Y50829D01*
X36592Y46320D02*
X40279D01*
X36672Y46240D02*
X40328D01*
X39040Y42200D02*
Y50859D01*
X39200Y42200D02*
Y50829D01*
X39280Y42200D02*
Y50858D01*
X39360Y42200D02*
Y50901D01*
X39440Y42200D02*
Y50901D01*
X39520Y42200D02*
Y50901D01*
X39920Y42200D02*
Y49479D01*
X40000Y42200D02*
Y49465D01*
X40080Y42200D02*
Y49479D01*
X40320Y45151D02*
Y46249D01*
X40640Y45189D02*
Y46211D01*
X39600Y42200D02*
Y50901D01*
X39680Y42200D02*
Y50901D01*
X39760Y42200D02*
Y50901D01*
X39840Y42200D02*
Y49528D01*
X40160Y42200D02*
Y49528D01*
X40240Y42200D02*
Y50901D01*
X40800Y42200D02*
Y50777D01*
X40720Y45083D02*
Y46317D01*
X40880Y42200D02*
Y50967D01*
X41440Y42200D02*
Y48828D01*
X41520Y42200D02*
Y48779D01*
X41600Y43523D02*
Y48765D01*
X40960Y42200D02*
Y51161D01*
X41040Y42200D02*
Y51161D01*
X41120Y42200D02*
Y51161D01*
X41200Y42200D02*
Y51161D01*
X41280Y42200D02*
Y51161D01*
X41360Y42200D02*
Y51161D01*
X40400Y45213D02*
Y46187D01*
X40320Y46551D02*
Y47249D01*
X40400Y46613D02*
Y47187D01*
X40480Y45234D02*
Y46166D01*
Y46634D02*
Y47166D01*
X40560Y45227D02*
Y46173D01*
X40320Y47551D02*
Y48249D01*
Y48551D02*
Y49449D01*
X40400Y47613D02*
Y48187D01*
X40480Y47634D02*
Y48166D01*
X40400Y48613D02*
Y49387D01*
X40480Y48634D02*
Y49366D01*
X40560Y46627D02*
Y47173D01*
X40720Y46483D02*
Y47317D01*
X40560Y47627D02*
Y48173D01*
X40640Y46589D02*
Y47211D01*
Y47589D02*
Y48211D01*
X40560Y48627D02*
Y49373D01*
X40720Y47483D02*
Y48317D01*
X40640Y48589D02*
Y49411D01*
X40720Y48483D02*
Y49517D01*
X40623Y42200D02*
X41854D01*
X40702Y43120D02*
X41766D01*
X41760Y42200D02*
Y43168D01*
X40732Y43040D02*
X41773D01*
X40732Y42960D02*
X41811D01*
X40623Y43200D02*
X41677D01*
X36948Y43600D02*
X41677D01*
X36948Y43680D02*
X41854D01*
X41680Y42200D02*
Y43198D01*
Y43602D02*
Y44717D01*
X36948Y42240D02*
X41893D01*
X36948Y42320D02*
X42161D01*
X36948Y42400D02*
X42161D01*
X36948Y42480D02*
X42161D01*
X36948Y42560D02*
X42161D01*
X36948Y42640D02*
X42161D01*
X36948Y42720D02*
X42161D01*
X36948Y43760D02*
X41934D01*
X40623Y42800D02*
X42161D01*
X40702Y42880D02*
X41917D01*
X40672Y43840D02*
X42014D01*
X36948Y44480D02*
X42001D01*
X36948Y44640D02*
X41728D01*
X36948Y44560D02*
X41914D01*
X36948Y44720D02*
X41679D01*
X40702Y44880D02*
X41679D01*
X40732Y44960D02*
X41728D01*
X40623Y45200D02*
X41765D01*
X36948Y45280D02*
X41779D01*
X36948Y45360D02*
X41828D01*
X40702Y45120D02*
X41779D01*
X40732Y45040D02*
X41828D01*
X40672Y44160D02*
X42161D01*
X36948Y44240D02*
X42161D01*
X36948Y44320D02*
X42161D01*
X40721Y43920D02*
X42094D01*
X40735Y44000D02*
X42161D01*
X40721Y44080D02*
X42161D01*
X36948Y44400D02*
X42161D01*
X36948Y45440D02*
X42161D01*
X36948Y45520D02*
X42161D01*
X36948Y45600D02*
X42161D01*
X36948Y45680D02*
X42161D01*
X36948Y45760D02*
X42161D01*
X41840Y42200D02*
Y42928D01*
X41920Y42259D02*
Y42879D01*
X42000Y42290D02*
Y42865D01*
X42080Y42290D02*
Y42879D01*
X41760Y43632D02*
Y44611D01*
X41840Y43666D02*
Y44573D01*
X41809Y43635D02*
X42117Y43943D01*
X42160Y42261D02*
Y42928D01*
X41920Y43746D02*
Y44554D01*
X42000Y43826D02*
Y44480D01*
X42161Y42283D02*
Y42424D01*
Y42283D02*
Y42424D01*
Y42480D01*
Y42621D01*
Y42480D02*
Y42621D01*
Y42677D01*
Y42818D01*
Y42677D02*
Y42818D01*
X42083Y42880D02*
X42161D01*
Y42818D02*
Y42873D01*
Y42929D01*
Y42873D02*
Y42929D01*
Y43999D02*
Y44055D01*
Y44196D01*
Y44055D02*
Y44196D01*
Y44251D01*
X41909Y44565D02*
X41969Y44504D01*
X42080Y43906D02*
Y44457D01*
X42160Y43974D02*
Y44457D01*
X42161Y44251D02*
Y44393D01*
Y44251D02*
Y44393D01*
X42083Y44457D02*
X42161D01*
Y44393D02*
Y44448D01*
Y45377D02*
Y45433D01*
Y45574D01*
Y45433D02*
Y45574D01*
Y45629D01*
Y45771D01*
Y45629D02*
Y45771D01*
Y45826D01*
X36832Y46080D02*
X41798D01*
X36752Y46160D02*
X41768D01*
X41840Y45372D02*
Y46028D01*
X40672Y46240D02*
X41768D01*
X36912Y46000D02*
X41877D01*
X40721Y46320D02*
X41798D01*
X36192Y46720D02*
X41756D01*
X36272Y46640D02*
X41796D01*
X41680Y44883D02*
Y47917D01*
X41760Y44989D02*
Y46708D01*
X41840Y46372D02*
Y46596D01*
X36948Y45840D02*
X42161D01*
X40735Y46400D02*
X41877D01*
X36947Y45920D02*
X42161D01*
X41920Y45421D02*
Y45979D01*
X42000Y45435D02*
Y45965D01*
X40721Y46480D02*
X42054D01*
X40672Y46560D02*
X41908D01*
X41920Y46421D02*
Y46556D01*
X42000Y46435D02*
Y46548D01*
X42009Y46435D02*
X42076Y46502D01*
X41760Y46858D02*
Y47811D01*
X41840Y46969D02*
Y47773D01*
X40735Y48400D02*
X41988D01*
X41920Y47009D02*
Y47754D01*
Y48234D02*
Y48468D01*
X42000Y47017D02*
Y47674D01*
X40721Y48480D02*
X41908D01*
X40672Y48560D02*
X41828D01*
X41680Y48083D02*
Y48708D01*
X41760Y48189D02*
Y48628D01*
X41840Y48227D02*
Y48548D01*
X40623Y47200D02*
X42161D01*
X40702Y47280D02*
X42161D01*
X40702Y47520D02*
X42161D01*
X40732Y47360D02*
X42161D01*
X41909Y47765D02*
X42020Y47654D01*
X40732Y47440D02*
X42161D01*
X40672Y48240D02*
X42149D01*
X40721Y48320D02*
X42068D01*
X41622Y48766D02*
X42136Y48251D01*
X41834Y48978D02*
X42161Y48651D01*
X41932Y48880D02*
X42161D01*
X42080Y45421D02*
Y45979D01*
X42161Y45826D02*
Y45967D01*
X42123Y46000D02*
X42161D01*
X42160Y45372D02*
Y46028D01*
X42161Y45826D02*
Y45967D01*
Y46023D01*
X42080Y46506D02*
Y46569D01*
X42058Y46560D02*
X42161D01*
X42080Y46997D02*
Y47616D01*
X42161Y46558D02*
Y46614D01*
Y46952D02*
Y47007D01*
Y47149D01*
Y47007D02*
Y47149D01*
Y47204D01*
Y47345D01*
Y47204D02*
Y47345D01*
Y47401D01*
Y47542D01*
Y47401D02*
Y47542D01*
Y47598D01*
X42135Y47991D02*
X42161Y47965D01*
X42072Y48160D02*
X42161D01*
Y47992D02*
Y48133D01*
Y47992D02*
Y48133D01*
X42121Y48080D02*
X42161D01*
X42080Y48151D02*
Y48308D01*
X42000Y48213D02*
Y48388D01*
Y48812D02*
Y49312D01*
X42160Y47966D02*
Y48232D01*
X42080Y48732D02*
Y49304D01*
X42161Y48133D02*
Y48188D01*
Y48232D01*
Y48188D02*
Y48232D01*
Y48651D02*
Y48723D01*
Y48651D02*
Y48723D01*
X42092Y48720D02*
X42161D01*
Y48723D02*
Y48779D01*
X42012Y48800D02*
X42161D01*
X42160Y48652D02*
Y49325D01*
X42161Y48779D02*
Y48920D01*
Y48779D02*
Y48920D01*
X37283Y49280D02*
X38117D01*
X37389Y49360D02*
X38011D01*
X37427Y49440D02*
X37973D01*
X37434Y49520D02*
X37966D01*
X37413Y49600D02*
X37987D01*
X37040Y49672D02*
Y50828D01*
X37351Y49680D02*
X38049D01*
X38400Y49623D02*
Y50787D01*
X37360Y49672D02*
Y50828D01*
X38320Y49702D02*
Y50849D01*
X38283Y49280D02*
X42161D01*
X38427Y49440D02*
X40328D01*
X38389Y49360D02*
X41909D01*
X38434Y49520D02*
X39849D01*
X38413Y49600D02*
X39787D01*
X40151Y49520D02*
X40279D01*
X38351Y49680D02*
X39766D01*
X40213Y49600D02*
X40265D01*
X40234Y49680D02*
X40279D01*
X37120Y49721D02*
Y50779D01*
X36206Y50880D02*
X36598D01*
X36923Y50800D02*
X37077D01*
X37200Y49735D02*
Y50765D01*
X37280Y49721D02*
Y50779D01*
X37323Y50800D02*
X38377D01*
X39840Y49872D02*
Y50901D01*
X37402Y50880D02*
X38298D01*
X38702D02*
X39010D01*
X39920Y49921D02*
Y50901D01*
X40000Y49935D02*
Y50901D01*
X40080Y49921D02*
Y50901D01*
X36202Y50480D02*
X42161D01*
X36232Y50560D02*
X42161D01*
X36232Y50640D02*
X42161D01*
X40227Y49760D02*
X40328D01*
X40189Y49840D02*
X42161D01*
X40083Y49920D02*
X42161D01*
X36202Y50720D02*
X40449D01*
X38623Y50800D02*
X40387D01*
X39311Y50880D02*
X40366D01*
X40160Y49872D02*
Y50901D01*
X39333D02*
X40266D01*
X40672Y49440D02*
X41848D01*
X40721Y49520D02*
X41827D01*
X41840Y48972D02*
Y49460D01*
X40735Y49600D02*
X41835D01*
X40721Y49680D02*
X41874D01*
X41600Y49235D02*
Y50878D01*
X40320Y49751D02*
Y50883D01*
X40720Y49683D02*
Y50698D01*
X41760Y49172D02*
Y50849D01*
X41680Y49221D02*
Y50849D01*
X41840Y49617D02*
Y50878D01*
X41852Y48960D02*
X42161D01*
X41832Y49040D02*
X42161D01*
X41802Y49120D02*
X42161D01*
Y48920D02*
Y48976D01*
Y49117D01*
Y48976D02*
Y49117D01*
X41920Y48892D02*
Y49351D01*
X41723Y49200D02*
X42161D01*
Y49117D02*
Y49173D01*
Y49314D01*
Y49173D02*
Y49314D01*
X40672Y49760D02*
X41983D01*
X42161Y49763D02*
Y49904D01*
Y49763D02*
Y49904D01*
Y49960D01*
Y50101D01*
Y49960D02*
Y50101D01*
X40400Y49813D02*
Y50777D01*
X40480Y49834D02*
Y50698D01*
X40640Y49789D02*
Y50668D01*
X40560Y49827D02*
Y50668D01*
X40834Y50880D02*
X41597D01*
X42161Y50101D02*
Y50157D01*
Y50298D01*
Y50157D02*
Y50298D01*
Y50354D01*
Y50495D01*
Y50354D02*
Y50495D01*
X40751Y50720D02*
X42161D01*
X40813Y50800D02*
X42161D01*
X41843Y50880D02*
X42161D01*
Y50495D02*
Y50551D01*
Y50692D01*
Y50551D02*
Y50692D01*
X36240Y50960D02*
X36568D01*
X36244Y51040D02*
X36568D01*
X36219Y51120D02*
X36598D01*
X37435Y51009D02*
X37502Y51076D01*
X36240Y51064D02*
Y51161D01*
X38000Y49623D02*
Y51161D01*
X37432Y50960D02*
X38268D01*
X37466Y51040D02*
X38268D01*
X38732Y50960D02*
X38948D01*
X38732Y51040D02*
X38927D01*
X38080Y49702D02*
Y51161D01*
X38160Y49732D02*
Y51161D01*
X38240Y49732D02*
Y51161D01*
X38730Y51070D02*
Y51161D01*
X36192D02*
X36236D01*
X36377D01*
X36236D02*
X36377D01*
X36433D01*
X36574D01*
X36433D02*
X36574D01*
X36629D01*
X37558D02*
X37614D01*
X37755D01*
X37614D02*
X37755D01*
X37810D01*
X37952D01*
X37533Y51120D02*
X38298D01*
X37810Y51161D02*
X37952D01*
X38007D01*
X38730Y51120D02*
X38933D01*
X38007Y51161D02*
X38149D01*
X38007D02*
X38149D01*
X38204D01*
X38329D01*
X38204D02*
X38329D01*
X38739D02*
X38795D01*
X38936D01*
X38795D02*
X38936D01*
X40877Y50960D02*
X41518D01*
X41520Y49221D02*
Y50956D01*
X40895Y51040D02*
X41488D01*
X40895Y51120D02*
X41488D01*
X40895Y51035D02*
Y51161D01*
X40904D02*
X40960D01*
X41101D01*
X41440Y49172D02*
Y51161D01*
X40960D02*
X41101D01*
X41157D01*
X41920Y49726D02*
Y50957D01*
X42160Y49752D02*
Y52739D01*
X42161Y50692D02*
Y50889D01*
X42240D02*
Y52739D01*
X42000Y49765D02*
Y53400D01*
X42080Y49773D02*
Y53400D01*
X42320Y50889D02*
Y52739D01*
X42400Y50889D02*
Y52739D01*
X42480Y50889D02*
Y52739D01*
X42560Y50889D02*
Y52739D01*
X41157Y51161D02*
X41298D01*
X41157D02*
X41298D01*
X41354D01*
X41495D01*
X41354D02*
X41495D01*
X41889Y51244D02*
Y52109D01*
X41673D02*
Y53400D01*
X41692Y52109D02*
X41889D01*
X41673Y53400D02*
X41900D01*
X41920Y51203D02*
Y53400D01*
X41760Y52109D02*
Y53400D01*
X41840Y52109D02*
Y53400D01*
X41673Y52800D02*
X42093D01*
X41673Y52880D02*
X42093D01*
X41673Y52960D02*
X42093D01*
X41673Y53040D02*
X42093D01*
X41673Y53120D02*
X42093D01*
X41673Y53200D02*
X42093D01*
X41673Y53280D02*
X42093D01*
Y52739D02*
Y53392D01*
X41673Y53360D02*
X42093D01*
X41922Y50960D02*
X42600D01*
X41951Y51040D02*
X43011D01*
X42161Y50889D02*
X42600D01*
Y51037D01*
X43009D01*
X41951Y51120D02*
X43117D01*
X43360Y51072D02*
Y52590D01*
X43440Y51037D02*
Y52590D01*
X43520Y51037D02*
Y52590D01*
X43600Y51037D02*
Y52590D01*
X43391Y51037D02*
X44325D01*
X43680D02*
Y52590D01*
X43389Y51040D02*
X44328D01*
X43760Y51037D02*
Y52590D01*
X43840Y51037D02*
Y52590D01*
X44325Y51037D02*
X44539Y51251D01*
X43920Y51037D02*
Y52590D01*
X44000Y51037D02*
Y52590D01*
X44080Y51037D02*
Y52590D01*
X44160Y51037D02*
Y52590D01*
X44240Y51037D02*
Y52590D01*
X44320Y51037D02*
Y52590D01*
X41889Y51280D02*
X44539D01*
X41889Y51360D02*
X44539D01*
X41673Y52160D02*
X46418D01*
X43283Y51120D02*
X44408D01*
X41922Y51200D02*
X44488D01*
X41889Y51440D02*
X44539D01*
X43200Y51135D02*
Y52590D01*
X43140D02*
X43640D01*
X41673Y52240D02*
X46418D01*
X43280Y51121D02*
Y52590D01*
X43660D02*
X44140D01*
X44400Y51112D02*
Y52590D01*
X41889Y51520D02*
X47800D01*
X41889Y51600D02*
X47800D01*
X41889Y51680D02*
X47800D01*
X41889Y51760D02*
X47800D01*
X41889Y51840D02*
X47800D01*
X41889Y51920D02*
X47800D01*
X41673Y52320D02*
X46418D01*
X41673Y52400D02*
X46418D01*
X41673Y52480D02*
X46418D01*
X41889Y52000D02*
X47800D01*
X41673Y52560D02*
X46418D01*
X41889Y52080D02*
X47800D01*
X45192Y51037D02*
Y51507D01*
X46569Y51037D02*
X46938D01*
X46572Y51040D02*
X46946D01*
X45208Y51037D02*
Y51507D01*
X46640Y51037D02*
Y52118D01*
X46720Y51037D02*
Y52118D01*
X46800Y51037D02*
Y52118D01*
X46880Y51037D02*
Y52118D01*
X46960Y51045D02*
Y52118D01*
X47040Y51050D02*
Y52118D01*
X47000Y51050D02*
X47500D01*
X47562Y51037D02*
X47800D01*
X47120Y51050D02*
Y52118D01*
X47200Y51050D02*
Y52118D01*
X47280Y51050D02*
Y52118D01*
X47360Y51050D02*
Y52118D01*
X47440Y51050D02*
Y52118D01*
X47520Y51049D02*
Y52118D01*
X44539Y51251D02*
Y51507D01*
X45192D01*
X45861Y51350D02*
X46219D01*
X45861D02*
Y51507D01*
Y51360D02*
X46228D01*
X44480Y51192D02*
Y52590D01*
X44560Y51507D02*
Y52590D01*
X45208Y51507D02*
X45861D01*
X46560Y51372D02*
Y52118D01*
X46480Y51421D02*
Y52118D01*
X46418D02*
X47582D01*
X46621Y51120D02*
X47800D01*
X46572Y51360D02*
X47800D01*
X45861Y51440D02*
X47800D01*
X47554Y51040D02*
X47800D01*
X46635Y51200D02*
X47800D01*
X46621Y51280D02*
X47800D01*
X47582Y52160D02*
X47800D01*
X47582Y52240D02*
X47800D01*
X47582Y52320D02*
X47800D01*
X47582Y52400D02*
X47800D01*
X47582Y52480D02*
X47800D01*
X47582Y52560D02*
X47800D01*
X42640Y51037D02*
Y52739D01*
X42720Y51037D02*
Y53400D01*
X44640Y51507D02*
Y52590D01*
X44160D02*
X44640D01*
X44720Y51507D02*
Y52590D01*
X42800Y51037D02*
Y53400D01*
X42880Y51037D02*
Y53400D01*
X42960Y51037D02*
Y53400D01*
X43040Y51072D02*
Y53400D01*
X43120Y51121D02*
Y53400D01*
X43140Y52590D02*
Y53400D01*
X44800Y51507D02*
Y52590D01*
X44880Y51507D02*
Y52590D01*
X44660D02*
X45140D01*
X44960Y51507D02*
Y52590D01*
X45040Y51507D02*
Y52590D01*
X45120Y51507D02*
Y52590D01*
X45280Y51507D02*
Y52590D01*
X45360Y51507D02*
Y52590D01*
X45160D02*
X45660D01*
X45440Y51507D02*
Y52590D01*
X45520Y51507D02*
Y52590D01*
X45600Y51507D02*
Y52590D01*
X41673Y52640D02*
X43140D01*
X42093Y52739D02*
X42707D01*
X41673Y52720D02*
X43140D01*
X42707Y52800D02*
X43140D01*
X42707Y52880D02*
X43140D01*
X42707Y52960D02*
X43140D01*
X42093Y53392D02*
X42707D01*
Y53040D02*
X43140D01*
X42707Y52739D02*
Y53392D01*
Y53120D02*
X43140D01*
X42707Y53200D02*
X43140D01*
X45660Y52640D02*
X46418D01*
X45660Y52720D02*
X46418D01*
X45660Y52800D02*
X46418D01*
X45660Y52880D02*
X46418D01*
X45660Y52960D02*
X46418D01*
X45660Y53040D02*
X46418D01*
X42707Y53280D02*
X43140D01*
X42707Y53360D02*
X43140D01*
X41900Y53400D02*
X43140D01*
X45660Y53120D02*
X46418D01*
X45660Y53200D02*
X46418D01*
X45660Y53280D02*
X46418D01*
X45680Y51507D02*
Y53400D01*
X45660Y52590D02*
Y53400D01*
X45760Y51507D02*
Y53400D01*
X45920Y51350D02*
Y53400D01*
X45840Y51507D02*
Y53400D01*
X46418Y52118D02*
Y53362D01*
X46000Y51350D02*
Y53400D01*
X46080Y51350D02*
Y53400D01*
X46160Y51350D02*
Y53400D01*
X46240Y51372D02*
Y53400D01*
X46320Y51421D02*
Y53400D01*
X46400Y51435D02*
Y53400D01*
X47582Y52640D02*
X47800D01*
X47582Y52720D02*
X47800D01*
X47582Y52800D02*
X47800D01*
X47600Y51037D02*
Y53400D01*
X47582Y52118D02*
Y53362D01*
X47680Y51037D02*
Y53400D01*
X47760Y51037D02*
Y53400D01*
X47800Y51037D02*
Y53400D01*
X45660Y53360D02*
X46418D01*
X46480Y53362D02*
Y53400D01*
X46560Y53362D02*
Y53400D01*
X46640Y53362D02*
Y53400D01*
X46720Y53362D02*
Y53400D01*
X46800Y53362D02*
Y53400D01*
X46880Y53362D02*
Y53400D01*
X46960Y53362D02*
Y53400D01*
X47040Y53362D02*
Y53400D01*
X47120Y53362D02*
Y53400D01*
X47200Y53362D02*
Y53400D01*
X47280Y53362D02*
Y53400D01*
X47582Y52880D02*
X47800D01*
X47582Y52960D02*
X47800D01*
X47582Y53040D02*
X47800D01*
X47582Y53120D02*
X47800D01*
X47582Y53200D02*
X47800D01*
X47582Y53280D02*
X47800D01*
X46418Y53362D02*
X47582D01*
X47360D02*
Y53400D01*
X45660D02*
X47800D01*
X47440Y53362D02*
Y53400D01*
X47520Y53362D02*
Y53400D01*
X47582Y53360D02*
X47800D01*
D11*
X42835Y59500D02*
D03*
X42165D02*
D03*
X42835Y58500D02*
D03*
X42165D02*
D03*
X45035Y59500D02*
D03*
X44365D02*
D03*
X45035Y58500D02*
D03*
X44365D02*
D03*
X47035Y59500D02*
D03*
X46365D02*
D03*
X47035Y58500D02*
D03*
X46365D02*
D03*
X44665Y42200D02*
D03*
X45335D02*
D03*
X44865Y51200D02*
D03*
X45535D02*
D03*
X59065Y43900D02*
D03*
X59735D02*
D03*
X59065Y44900D02*
D03*
X59735D02*
D03*
X59065Y49900D02*
D03*
X59735D02*
D03*
X59065Y50900D02*
D03*
X59735D02*
D03*
X59065Y48900D02*
D03*
X59735D02*
D03*
X59065Y47900D02*
D03*
X59735D02*
D03*
X59065Y46900D02*
D03*
X59735D02*
D03*
X59065Y45900D02*
D03*
X59735D02*
D03*
X69265Y45800D02*
D03*
X69935D02*
D03*
X69265Y47200D02*
D03*
X69935D02*
D03*
X69265Y48800D02*
D03*
X69935D02*
D03*
X69265Y50600D02*
D03*
X69935D02*
D03*
X69535Y42600D02*
D03*
X68865D02*
D03*
X48665Y58500D02*
D03*
X49335D02*
D03*
X48665Y59500D02*
D03*
X49335D02*
D03*
X45535Y49800D02*
D03*
X44865D02*
D03*
X45335Y41000D02*
D03*
X44665D02*
D03*
X26735Y52000D02*
D03*
X26065D02*
D03*
X26735Y50000D02*
D03*
X26065D02*
D03*
X26735Y51000D02*
D03*
X26065D02*
D03*
X26735Y53000D02*
D03*
X26065D02*
D03*
D12*
X30765Y50720D02*
D03*
Y50523D02*
D03*
Y50326D02*
D03*
Y50129D02*
D03*
Y49932D02*
D03*
Y49735D02*
D03*
Y49539D02*
D03*
Y49342D02*
D03*
Y49145D02*
D03*
Y48948D02*
D03*
Y48751D02*
D03*
Y48554D02*
D03*
Y48357D02*
D03*
Y48161D02*
D03*
Y47964D02*
D03*
Y47767D02*
D03*
Y47570D02*
D03*
Y47373D02*
D03*
Y47176D02*
D03*
Y46980D02*
D03*
Y46783D02*
D03*
Y46586D02*
D03*
Y46389D02*
D03*
Y45995D02*
D03*
Y45405D02*
D03*
Y45208D02*
D03*
Y45011D02*
D03*
Y44814D02*
D03*
Y44617D02*
D03*
Y44420D02*
D03*
Y44224D02*
D03*
Y44027D02*
D03*
Y43830D02*
D03*
Y43633D02*
D03*
Y43436D02*
D03*
Y43239D02*
D03*
Y43043D02*
D03*
Y42846D02*
D03*
Y42649D02*
D03*
Y42452D02*
D03*
Y42255D02*
D03*
Y42058D02*
D03*
Y41861D02*
D03*
Y41665D02*
D03*
Y41468D02*
D03*
Y41271D02*
D03*
Y41074D02*
D03*
Y40877D02*
D03*
Y40680D02*
D03*
X42635Y50326D02*
D03*
Y50129D02*
D03*
Y49932D02*
D03*
Y49735D02*
D03*
Y49539D02*
D03*
Y49342D02*
D03*
Y49145D02*
D03*
Y48948D02*
D03*
Y48751D02*
D03*
Y48554D02*
D03*
Y48161D02*
D03*
Y47964D02*
D03*
Y47767D02*
D03*
Y47570D02*
D03*
Y47373D02*
D03*
Y47176D02*
D03*
Y46980D02*
D03*
Y46783D02*
D03*
Y46586D02*
D03*
Y46389D02*
D03*
Y46192D02*
D03*
Y45995D02*
D03*
Y45798D02*
D03*
Y45602D02*
D03*
Y45405D02*
D03*
Y45208D02*
D03*
Y45011D02*
D03*
Y44814D02*
D03*
Y44617D02*
D03*
Y44420D02*
D03*
Y44224D02*
D03*
Y44027D02*
D03*
Y43830D02*
D03*
Y43633D02*
D03*
Y43436D02*
D03*
Y43239D02*
D03*
Y43043D02*
D03*
Y42846D02*
D03*
Y42649D02*
D03*
Y42452D02*
D03*
Y42255D02*
D03*
Y42058D02*
D03*
Y41861D02*
D03*
Y41665D02*
D03*
Y41468D02*
D03*
Y41271D02*
D03*
Y41074D02*
D03*
Y40877D02*
D03*
Y40680D02*
D03*
X30765Y46192D02*
D03*
X42635Y50720D02*
D03*
Y50523D02*
D03*
Y48357D02*
D03*
D13*
X30765Y45798D02*
D03*
Y45602D02*
D03*
D14*
X41720Y51635D02*
D03*
X41523D02*
D03*
X41326D02*
D03*
X41129D02*
D03*
X40932D02*
D03*
X40735D02*
D03*
X40539D02*
D03*
X40342D02*
D03*
X40145D02*
D03*
X39948D02*
D03*
X39751D02*
D03*
X39554D02*
D03*
X39357D02*
D03*
X39161D02*
D03*
X38964D02*
D03*
X38767D02*
D03*
X38570D02*
D03*
X38373D02*
D03*
X38176D02*
D03*
X37980D02*
D03*
X37783D02*
D03*
X37586D02*
D03*
X37389D02*
D03*
X37192D02*
D03*
X36995D02*
D03*
X36798D02*
D03*
X36602D02*
D03*
X36405D02*
D03*
X36208D02*
D03*
X36011D02*
D03*
X35814D02*
D03*
X35617D02*
D03*
X35420D02*
D03*
X35224D02*
D03*
X35027D02*
D03*
X34830D02*
D03*
X34633D02*
D03*
X34436D02*
D03*
X34239D02*
D03*
X34043D02*
D03*
X33846D02*
D03*
X33649D02*
D03*
X33452D02*
D03*
X33255D02*
D03*
X33058D02*
D03*
X32861D02*
D03*
X32665D02*
D03*
X32468D02*
D03*
X32271D02*
D03*
X32074D02*
D03*
X31877D02*
D03*
X31680D02*
D03*
X41720Y39765D02*
D03*
X41523D02*
D03*
X41326D02*
D03*
X41129D02*
D03*
X40932D02*
D03*
X40735D02*
D03*
X40539D02*
D03*
X40342D02*
D03*
X40145D02*
D03*
X39948D02*
D03*
X39751D02*
D03*
X39554D02*
D03*
X39357D02*
D03*
X39161D02*
D03*
X38964D02*
D03*
X38767D02*
D03*
X38570D02*
D03*
X38373D02*
D03*
X38176D02*
D03*
X37980D02*
D03*
X37783D02*
D03*
X37586D02*
D03*
X37389D02*
D03*
X37192D02*
D03*
X36995D02*
D03*
X36798D02*
D03*
X36602D02*
D03*
X36405D02*
D03*
X36208D02*
D03*
X36011D02*
D03*
X35814D02*
D03*
X35617D02*
D03*
X35420D02*
D03*
X35224D02*
D03*
X35027D02*
D03*
X34830D02*
D03*
X34633D02*
D03*
X34436D02*
D03*
X34239D02*
D03*
X34043D02*
D03*
X33846D02*
D03*
X33649D02*
D03*
X33452D02*
D03*
X33255D02*
D03*
X33058D02*
D03*
X32861D02*
D03*
X32665D02*
D03*
X32468D02*
D03*
X32271D02*
D03*
X32074D02*
D03*
X31877D02*
D03*
X31680D02*
D03*
D15*
X68140Y33200D02*
D03*
X70660D02*
D03*
D16*
X39472Y61231D02*
D03*
Y60975D02*
D03*
Y60719D02*
D03*
Y60463D02*
D03*
Y60207D02*
D03*
Y59952D02*
D03*
Y59696D02*
D03*
Y59440D02*
D03*
Y59184D02*
D03*
Y58928D02*
D03*
Y58672D02*
D03*
Y58416D02*
D03*
Y58160D02*
D03*
Y57904D02*
D03*
Y57648D02*
D03*
Y57393D02*
D03*
Y57137D02*
D03*
Y56881D02*
D03*
Y56625D02*
D03*
Y56369D02*
D03*
X30728D02*
D03*
Y56625D02*
D03*
Y56881D02*
D03*
Y57137D02*
D03*
Y57393D02*
D03*
Y57648D02*
D03*
Y57904D02*
D03*
Y58160D02*
D03*
Y58416D02*
D03*
Y58672D02*
D03*
Y58928D02*
D03*
Y59184D02*
D03*
Y59440D02*
D03*
Y59696D02*
D03*
Y59952D02*
D03*
Y60207D02*
D03*
Y60463D02*
D03*
Y60719D02*
D03*
Y61231D02*
D03*
D17*
X38811Y55609D02*
D03*
X38555D02*
D03*
X38299D02*
D03*
X38043D02*
D03*
X37787D02*
D03*
X37531D02*
D03*
X37275D02*
D03*
X37019D02*
D03*
X36763D02*
D03*
X36507D02*
D03*
X36252D02*
D03*
X35996D02*
D03*
X35740D02*
D03*
X35484D02*
D03*
X35228D02*
D03*
X34972D02*
D03*
X34716D02*
D03*
X34460D02*
D03*
X34204D02*
D03*
X33948D02*
D03*
X33693D02*
D03*
X33437D02*
D03*
X33181D02*
D03*
X32925D02*
D03*
X32669D02*
D03*
X32413D02*
D03*
X32157D02*
D03*
X31901D02*
D03*
X31645D02*
D03*
X31389D02*
D03*
Y61991D02*
D03*
X31645D02*
D03*
X31901D02*
D03*
X32157D02*
D03*
X32413D02*
D03*
X32669D02*
D03*
X32925D02*
D03*
X33181D02*
D03*
X33437D02*
D03*
X33693D02*
D03*
X33948D02*
D03*
X34204D02*
D03*
X34460D02*
D03*
X34716D02*
D03*
X34972D02*
D03*
X35228D02*
D03*
X35484D02*
D03*
X35740D02*
D03*
X35996D02*
D03*
X36252D02*
D03*
X36507D02*
D03*
X36763D02*
D03*
X37019D02*
D03*
X37275D02*
D03*
X37531D02*
D03*
X37787D02*
D03*
X38043D02*
D03*
X38299D02*
D03*
X38555D02*
D03*
X38811D02*
D03*
D18*
X56966Y44813D02*
D03*
Y45009D02*
D03*
Y45206D02*
D03*
Y45403D02*
D03*
Y45600D02*
D03*
Y45797D02*
D03*
Y45994D02*
D03*
Y46191D02*
D03*
Y46387D02*
D03*
Y46584D02*
D03*
Y46781D02*
D03*
Y46978D02*
D03*
Y47175D02*
D03*
Y47372D02*
D03*
Y47569D02*
D03*
Y47765D02*
D03*
Y47962D02*
D03*
Y48159D02*
D03*
Y48356D02*
D03*
Y48553D02*
D03*
Y48750D02*
D03*
Y48946D02*
D03*
Y49143D02*
D03*
Y49340D02*
D03*
Y49537D02*
D03*
Y49734D02*
D03*
X47950D02*
D03*
Y49537D02*
D03*
Y49340D02*
D03*
Y49143D02*
D03*
Y48946D02*
D03*
Y48750D02*
D03*
Y48553D02*
D03*
Y48356D02*
D03*
Y48159D02*
D03*
Y47962D02*
D03*
Y47765D02*
D03*
Y47569D02*
D03*
Y47372D02*
D03*
Y47175D02*
D03*
Y46978D02*
D03*
Y46781D02*
D03*
Y46584D02*
D03*
Y46387D02*
D03*
Y46191D02*
D03*
Y45994D02*
D03*
Y45797D02*
D03*
Y45600D02*
D03*
Y45403D02*
D03*
Y45206D02*
D03*
Y45009D02*
D03*
Y44813D02*
D03*
D19*
X56100Y50600D02*
D03*
D20*
X55903D02*
D03*
X55706D02*
D03*
X55509D02*
D03*
X55313D02*
D03*
X55116D02*
D03*
X54919D02*
D03*
X54722D02*
D03*
X54525D02*
D03*
X54328D02*
D03*
X54131D02*
D03*
X53935D02*
D03*
X53738D02*
D03*
X53541D02*
D03*
X53344D02*
D03*
X53147D02*
D03*
X52950D02*
D03*
X52754D02*
D03*
X52557D02*
D03*
X52360D02*
D03*
X52163D02*
D03*
X51966D02*
D03*
X51769D02*
D03*
X51572D02*
D03*
X51376D02*
D03*
X51179D02*
D03*
X50982D02*
D03*
X50785D02*
D03*
X50588D02*
D03*
X50391D02*
D03*
X50195D02*
D03*
X49998D02*
D03*
X49801D02*
D03*
X49604D02*
D03*
X49407D02*
D03*
X49210D02*
D03*
X49013D02*
D03*
X48817D02*
D03*
Y43946D02*
D03*
X49013D02*
D03*
X49210D02*
D03*
X49407D02*
D03*
X49604D02*
D03*
X49801D02*
D03*
X49998D02*
D03*
X50195D02*
D03*
X50391D02*
D03*
X50588D02*
D03*
X50785D02*
D03*
X50982D02*
D03*
X51179D02*
D03*
X51376D02*
D03*
X51572D02*
D03*
X51769D02*
D03*
X51966D02*
D03*
X52163D02*
D03*
X52360D02*
D03*
X52557D02*
D03*
X52754D02*
D03*
X52950D02*
D03*
X53147D02*
D03*
X53344D02*
D03*
X53541D02*
D03*
X53738D02*
D03*
X53935D02*
D03*
X54131D02*
D03*
X54328D02*
D03*
X54525D02*
D03*
X54722D02*
D03*
X54919D02*
D03*
X55116D02*
D03*
X55313D02*
D03*
X55509D02*
D03*
X55706D02*
D03*
X55903D02*
D03*
X56100D02*
D03*
D21*
X61500Y50300D02*
D03*
D22*
Y49800D02*
D03*
Y49300D02*
D03*
Y48800D02*
D03*
Y48300D02*
D03*
Y47800D02*
D03*
Y47300D02*
D03*
Y46800D02*
D03*
Y46300D02*
D03*
Y45800D02*
D03*
Y45300D02*
D03*
Y44800D02*
D03*
X67250Y50300D02*
D03*
Y49800D02*
D03*
Y49300D02*
D03*
Y48800D02*
D03*
Y48300D02*
D03*
Y47800D02*
D03*
Y47300D02*
D03*
Y46800D02*
D03*
Y46300D02*
D03*
Y45800D02*
D03*
Y45300D02*
D03*
Y44800D02*
D03*
D23*
X56400Y32200D02*
D03*
X56900D02*
D03*
X55400D02*
D03*
X57400D02*
D03*
X55900D02*
D03*
X44000Y32400D02*
D03*
X44500D02*
D03*
X43000D02*
D03*
X45000D02*
D03*
X43500D02*
D03*
X63600Y33200D02*
D03*
X64100D02*
D03*
X62600D02*
D03*
X64600D02*
D03*
X63100D02*
D03*
X44400Y53000D02*
D03*
X44900D02*
D03*
X43400D02*
D03*
X45400D02*
D03*
X43900D02*
D03*
D24*
X56400Y34169D02*
D03*
X44000Y34369D02*
D03*
X63600Y35168D02*
D03*
X44400Y54969D02*
D03*
D25*
X59000Y31540D02*
D03*
Y34060D02*
D03*
X41200Y32340D02*
D03*
Y34860D02*
D03*
X47000Y52740D02*
D03*
Y55260D02*
D03*
X58400Y36740D02*
D03*
Y39260D02*
D03*
D26*
X54000Y31865D02*
D03*
Y32535D02*
D03*
X66200Y33135D02*
D03*
Y32465D02*
D03*
X42400Y53065D02*
D03*
Y53735D02*
D03*
X56200Y41265D02*
D03*
Y41935D02*
D03*
X57200Y41935D02*
D03*
Y41265D02*
D03*
X55000Y41935D02*
D03*
Y41265D02*
D03*
X56800Y39335D02*
D03*
Y38665D02*
D03*
X58600Y41935D02*
D03*
Y41265D02*
D03*
X50600Y38665D02*
D03*
Y39335D02*
D03*
X55200Y38665D02*
D03*
Y39335D02*
D03*
X26600Y61535D02*
D03*
Y60865D02*
D03*
X73200Y58935D02*
D03*
Y58265D02*
D03*
X68800Y58935D02*
D03*
Y58265D02*
D03*
X65000Y58935D02*
D03*
Y58265D02*
D03*
X61000Y58935D02*
D03*
Y58265D02*
D03*
X57200Y58935D02*
D03*
Y58265D02*
D03*
X53400Y58935D02*
D03*
Y58265D02*
D03*
D27*
X25000Y54746D02*
D03*
X23000D02*
D03*
Y56400D02*
D03*
X25000D02*
D03*
D28*
X49000Y53049D02*
D03*
Y54151D02*
D03*
X71400Y52551D02*
D03*
Y51449D02*
D03*
Y41249D02*
D03*
Y42351D02*
D03*
D29*
X53709Y39385D02*
D03*
X52291D02*
D03*
X53709Y35015D02*
D03*
X52291D02*
D03*
D30*
X51551Y31400D02*
D03*
X50449D02*
D03*
X51551Y33000D02*
D03*
X50449D02*
D03*
D31*
X30728Y60975D02*
D03*
D32*
X44000Y34369D02*
X44570Y34938D01*
X44000Y34369D02*
X44570Y33798D01*
X43430Y34938D02*
X44000Y34369D01*
X43430Y33798D02*
X44000Y34369D01*
X44400Y54969D02*
X44970Y55539D01*
X43830D02*
X44400Y54969D01*
X44970Y54398D01*
X43830D02*
X44400Y54969D01*
X55830Y33598D02*
X56400Y34169D01*
X56970Y33598D01*
X55830Y34739D02*
X56400Y34169D01*
X56970Y34739D01*
X63030Y34599D02*
X63600Y35168D01*
X63030Y35738D02*
X63600Y35168D01*
X64170Y34599D01*
X63600Y35168D02*
X64170Y35738D01*
D33*
X41200Y34860D02*
Y35442D01*
Y34860D02*
X41742D01*
X40658D02*
X41200D01*
Y34278D02*
Y34860D01*
X72165Y58935D02*
X73200D01*
X41523Y39277D02*
Y39765D01*
X41900Y38900D02*
X44674D01*
X41523Y39277D02*
X41900Y38900D01*
X49000Y54151D02*
X49424D01*
X49000D02*
Y54536D01*
X48576Y54151D02*
X49000D01*
X47000Y55260D02*
Y55842D01*
Y55260D02*
X47542D01*
X46458D02*
X47000D01*
Y54678D02*
Y55260D01*
X49000Y53766D02*
Y54151D01*
X42400Y53735D02*
X42667D01*
X42400D02*
Y54021D01*
X42133Y53735D02*
X42400D01*
X47800Y58500D02*
X54525Y51775D01*
X47100Y58500D02*
X47800D01*
X54525Y50600D02*
Y51775D01*
X47300Y63200D02*
X47900Y62600D01*
X47600Y58500D02*
X47900Y58800D01*
X48665Y58235D02*
Y59965D01*
Y58235D02*
X49000Y57900D01*
X45500D02*
X48000D01*
X44900Y58500D02*
X45500Y57900D01*
X48000D02*
X54328Y51572D01*
Y50600D02*
Y51572D01*
X47800Y57700D02*
X53738Y51762D01*
Y50600D02*
Y51762D01*
X42100Y58400D02*
X42500Y58000D01*
X44300D01*
X44600Y57700D01*
X47800D01*
X42835Y59500D02*
Y61765D01*
X42400Y62200D02*
X42835Y61765D01*
X44984Y62816D02*
Y62916D01*
X45035Y58500D02*
X45300D01*
X44984Y62816D02*
X45700Y62100D01*
X45035Y59500D02*
Y61865D01*
X44800Y62100D02*
X45035Y61865D01*
X49335Y61735D02*
X49600Y62000D01*
X49335Y59500D02*
Y61735D01*
X49900Y58500D02*
X50500Y59100D01*
X49700Y63000D02*
X50500Y62200D01*
X49335Y58500D02*
X49900D01*
X50500Y59100D02*
Y62200D01*
X49400Y58000D02*
X54919Y52481D01*
X49400Y58000D02*
Y58600D01*
X54919Y50600D02*
Y52481D01*
X42165Y58500D02*
Y59500D01*
X45700Y58900D02*
Y62100D01*
X45300Y58500D02*
X45700Y58900D01*
X47900Y58800D02*
Y62600D01*
X47035Y61935D02*
X47300Y62200D01*
X47035Y59500D02*
Y61935D01*
X42835Y58500D02*
X43300D01*
X44365D02*
Y59500D01*
X46365Y58500D02*
Y59500D01*
X53565Y58100D02*
X55100D01*
X53400Y58265D02*
X53565Y58100D01*
X57365D02*
X58900D01*
X57200Y58265D02*
X57365Y58100D01*
X61165D02*
X62700D01*
X61000Y58265D02*
X61165Y58100D01*
X65165D02*
X66700D01*
X65000Y58265D02*
X65165Y58100D01*
X68700D02*
X70500D01*
X68600Y58200D02*
X68700Y58100D01*
X73100Y58300D02*
X73300Y58100D01*
X74900D01*
X64600Y33200D02*
Y34000D01*
X62600Y33200D02*
Y33700D01*
X63100Y34200D01*
X64400D01*
X64600Y34000D01*
X63600Y33200D02*
Y33800D01*
X58600Y40800D02*
Y41265D01*
Y41935D02*
Y42300D01*
X56100Y43800D02*
X56600Y43300D01*
X57600D01*
X58600Y42300D01*
X40145Y36945D02*
Y39765D01*
X37400Y34200D02*
X40145Y36945D01*
X39948Y37248D02*
Y39765D01*
X37400Y34700D02*
X39948Y37248D01*
X39751Y37551D02*
Y39765D01*
X37400Y35200D02*
X39751Y37551D01*
X39357Y37557D02*
Y39765D01*
X37500Y35700D02*
X39357Y37557D01*
X39554Y40254D02*
X39700Y40400D01*
X39554Y39765D02*
Y40254D01*
X36405Y39205D02*
Y39765D01*
X36011Y39211D02*
Y39765D01*
X34239Y39239D02*
Y39765D01*
X31645Y55500D02*
Y55609D01*
X34800Y56200D02*
X35400D01*
X34716Y55609D02*
Y56116D01*
X34800Y56200D01*
X43065Y49735D02*
X43200Y49600D01*
X42635Y49735D02*
X43065D01*
X42189Y46389D02*
X42635D01*
X42000Y46200D02*
X42189Y46389D01*
X42189Y45011D02*
X42635D01*
X42000Y45200D02*
X42189Y45011D01*
X42139Y43239D02*
X42635D01*
X42000Y43100D02*
X42139Y43239D01*
X43061Y41861D02*
X43200Y42000D01*
X42635Y41861D02*
X43061D01*
X31680Y39765D02*
Y40280D01*
X30765Y43239D02*
X31361D01*
X30339Y41861D02*
X30765D01*
X30200Y42000D02*
X30339Y41861D01*
X30367Y43633D02*
X30765D01*
X30200Y43800D02*
X30367Y43633D01*
X30765Y45011D02*
X31311D01*
X31261Y48161D02*
X31400Y48300D01*
X30765Y48161D02*
X31261D01*
X31170Y47570D02*
X31500Y47900D01*
X30765Y47570D02*
X31170D01*
X30339Y49539D02*
X30765D01*
X30200Y49400D02*
X30339Y49539D01*
X32665Y51135D02*
X32800Y51000D01*
X32665Y51135D02*
Y51635D01*
X33846Y51054D02*
Y51635D01*
X36011Y51011D02*
Y51635D01*
X36995Y51195D02*
Y51635D01*
X36800Y51000D02*
X36995Y51195D01*
X41720Y51080D02*
Y51635D01*
X30765Y50720D02*
X31320D01*
X32271Y51129D02*
Y51635D01*
Y51129D02*
X32465Y50935D01*
X30765Y47373D02*
X31373D01*
X30765Y46783D02*
X31317D01*
X31500Y46600D01*
X30765Y44617D02*
X31417D01*
X30765Y43830D02*
X31370D01*
X30765Y42058D02*
X31342D01*
X37783Y39765D02*
Y40283D01*
X38964Y39765D02*
Y40364D01*
X41129Y39765D02*
Y40371D01*
X42635Y40435D02*
Y40680D01*
X41900Y41000D02*
X42171Y41271D01*
X42635D01*
X42023Y40877D02*
X42635D01*
X41974Y41074D02*
X42635D01*
X41900Y41000D02*
X42023Y40877D01*
X42042Y42058D02*
X42635D01*
X42230Y43830D02*
X42635D01*
X41800Y43400D02*
X42230Y43830D01*
X41927Y44027D02*
X42635D01*
X41900Y44800D02*
X42083Y44617D01*
X42635D01*
X41983Y46783D02*
X42635D01*
X42070Y47570D02*
X42635D01*
X41900Y47400D02*
X42070Y47570D01*
X41900Y48000D02*
X42133Y47767D01*
X42635D01*
X42061Y49539D02*
X42635D01*
X40735Y51035D02*
Y51635D01*
X40600Y50900D02*
X40735Y51035D01*
X38570Y51070D02*
Y51635D01*
X38500Y51000D02*
X38570Y51070D01*
X37389Y51189D02*
Y51635D01*
X37200Y51000D02*
X37389Y51189D01*
X35617Y51017D02*
Y51635D01*
X34436Y51036D02*
Y51635D01*
X50391Y50109D02*
X50500Y50000D01*
X50391Y50109D02*
Y50600D01*
X50588D02*
Y51112D01*
X50500Y51200D02*
X50588Y51112D01*
X51179Y51079D02*
X51300Y51200D01*
X51179Y50600D02*
Y51079D01*
X51376Y49976D02*
Y50600D01*
X52557Y49943D02*
Y50600D01*
X52360D02*
Y51040D01*
X52100Y51200D02*
X52200D01*
X51966Y51066D02*
X52100Y51200D01*
X51966Y50600D02*
Y51066D01*
X52200Y51200D02*
X52360Y51040D01*
X52163Y50063D02*
Y50600D01*
X52000Y49900D02*
X52163Y50063D01*
X53000Y51200D02*
X53147Y51053D01*
X52950Y51150D02*
X53000Y51200D01*
X53147Y50600D02*
Y51053D01*
X52950Y50600D02*
Y51150D01*
X52900Y51200D02*
X53000D01*
X52754Y50600D02*
Y51054D01*
X52900Y51200D01*
X53344Y50044D02*
Y50600D01*
X53200Y49900D02*
X53344Y50044D01*
X54131Y50031D02*
Y50600D01*
X54722Y50122D02*
Y50600D01*
X54500Y49900D02*
X54722Y50122D01*
X55200Y51200D02*
X55313Y51087D01*
Y50600D02*
Y51087D01*
X55116Y51116D02*
X55200Y51200D01*
X55116Y50600D02*
Y51116D01*
X55509Y50209D02*
Y50600D01*
X55300Y50000D02*
X55509Y50209D01*
X56534Y49734D02*
X56966D01*
X56100Y50000D02*
Y50600D01*
X56335Y49535D02*
X56534Y49734D01*
X57600Y48700D02*
Y49000D01*
X57454Y48946D02*
X57600Y48800D01*
X56966Y49143D02*
X57457D01*
X57453Y48553D02*
X57600Y48700D01*
X56966Y48946D02*
X57454D01*
X56966Y48553D02*
X57453D01*
X57457Y49143D02*
X57600Y49000D01*
X56450Y48750D02*
X56966D01*
X55500Y48000D02*
X55565Y47935D01*
X57600Y47600D02*
Y47900D01*
X56966Y47962D02*
X57538D01*
X57435Y47765D02*
X57600Y47600D01*
X57372Y47372D02*
X57600Y47600D01*
X56966Y47765D02*
X57435D01*
X56966Y47372D02*
X57372D01*
X57538Y47962D02*
X57600Y47900D01*
X56569Y47569D02*
X56966D01*
X56400Y47400D02*
X56569Y47569D01*
X56513Y46387D02*
X56966D01*
X56300Y46600D02*
X56513Y46387D01*
X57419Y46781D02*
X57500Y46700D01*
X56966Y46781D02*
X57419D01*
X57384Y46584D02*
X57500Y46700D01*
X56966Y46584D02*
X57384D01*
X57397Y45403D02*
X57600Y45200D01*
X56966Y45403D02*
X57397D01*
X57409Y45009D02*
X57600Y45200D01*
X56966Y45009D02*
X57409D01*
X56391Y46191D02*
X56966D01*
X56500Y45600D02*
X56966D01*
X56300Y45800D02*
Y46100D01*
Y45800D02*
X56500Y45600D01*
X56300Y46100D02*
X56391Y46191D01*
X56406Y45206D02*
X56966D01*
X56387Y44813D02*
X56966D01*
X56387D02*
Y45187D01*
X56406Y45206D01*
X55706Y43946D02*
Y44594D01*
X54400Y43400D02*
X54722Y43722D01*
X54328Y43472D02*
Y43946D01*
Y43472D02*
X54400Y43400D01*
X54000D02*
X54400D01*
X53935Y43465D02*
Y43946D01*
X54525Y43525D02*
Y43946D01*
X54722Y43722D02*
Y43946D01*
X53935Y43465D02*
X54000Y43400D01*
X54131Y44432D02*
X54300Y44600D01*
X54131Y43946D02*
Y44432D01*
X53738Y43946D02*
Y44538D01*
X53344Y43556D02*
X53500Y43300D01*
X53344Y43556D02*
Y43946D01*
X52360Y43460D02*
Y43946D01*
X52300Y43400D02*
X52360Y43460D01*
X52163Y44463D02*
X52300Y44600D01*
X52163Y43946D02*
Y44463D01*
X51376Y43476D02*
Y43946D01*
X51300Y43400D02*
X51376Y43476D01*
X51179Y44479D02*
X51200Y44500D01*
X51179Y43946D02*
Y44479D01*
X50400Y43955D02*
Y44600D01*
X50391Y43946D02*
X50400Y43955D01*
X49604Y43946D02*
Y44496D01*
X49801Y43501D02*
Y43946D01*
X49700Y43400D02*
X49801Y43501D01*
X48400Y44600D02*
Y44700D01*
X47950Y44813D02*
X48287D01*
X48400Y44700D01*
X47409Y45009D02*
X47950D01*
X47300Y44900D02*
X47409Y45009D01*
X47403Y45797D02*
X47950D01*
Y45994D02*
X48406D01*
X48600Y45800D01*
X47478Y46978D02*
X47950D01*
X47400Y46900D02*
X47478Y46978D01*
X48581Y46781D02*
X48600Y46800D01*
X47950Y46781D02*
X48581D01*
X47400Y47900D02*
X47535Y47765D01*
X47950D01*
X47400Y49100D02*
X47554Y48946D01*
X47950D01*
X48438Y47962D02*
X48600Y47800D01*
X47950Y47962D02*
X48438D01*
X47950Y49143D02*
X48543D01*
X49604Y50600D02*
Y51196D01*
X49407Y49993D02*
X49600Y49800D01*
X49407Y49993D02*
Y50600D01*
X49210Y50110D02*
Y50600D01*
X49000Y49900D02*
X49210Y50110D01*
X48817Y50083D02*
X49000Y49900D01*
X48817Y50083D02*
Y50600D01*
X49013D02*
Y51187D01*
X56900Y45800D02*
X57500D01*
X59735Y43900D02*
Y44165D01*
X57500Y45800D02*
X58000Y45300D01*
Y44700D02*
Y45300D01*
Y44700D02*
X58400Y44300D01*
X59600D01*
X59735Y44165D01*
X59400Y44500D02*
X59700Y44800D01*
X56966Y45994D02*
X57606D01*
X58500Y44500D02*
X59400D01*
X58200Y44800D02*
X58500Y44500D01*
X58200Y44800D02*
Y45400D01*
X57606Y45994D02*
X58200Y45400D01*
X59735Y45900D02*
Y46165D01*
X56966Y46978D02*
X57722D01*
X58400Y46300D01*
X59600D01*
X59735Y46165D01*
X59400Y46500D02*
X59700Y46800D01*
X56966Y47175D02*
X57825D01*
X58500Y46500D02*
X59400D01*
X57825Y47175D02*
X58500Y46500D01*
X59735Y47900D02*
Y48265D01*
X56966Y48159D02*
X57959D01*
X59700Y48300D02*
X59735Y48265D01*
X58100Y48300D02*
X59700D01*
X57959Y48159D02*
X58100Y48300D01*
X59735Y48735D02*
Y48900D01*
X56966Y48356D02*
X57756D01*
X57900Y48500D01*
X59500D01*
X59735Y48735D01*
Y49900D02*
Y50165D01*
X56966Y49340D02*
X57540D01*
X59600Y50300D02*
X59735Y50165D01*
X58500Y50300D02*
X59600D01*
X57540Y49340D02*
X58500Y50300D01*
X59735Y50835D02*
Y50900D01*
X56966Y49537D02*
X57437D01*
X58400Y50500D01*
X59400D01*
X59735Y50835D01*
X40600Y40500D02*
X40735Y40365D01*
X40718Y39718D02*
X40735Y39735D01*
Y40365D01*
X55200Y38379D02*
Y38665D01*
X54933D02*
X55200D01*
X55467D01*
X56800Y38379D02*
Y38665D01*
X56533D02*
X56800D01*
X57067D01*
X58458Y34060D02*
X59000D01*
Y33478D02*
Y34060D01*
X59542D01*
X59000D02*
Y34642D01*
X57858Y36740D02*
X58400D01*
Y36158D02*
Y36740D01*
Y37322D01*
Y36740D02*
X58942D01*
X65933Y32465D02*
X66200D01*
Y32179D02*
Y32465D01*
X66467D01*
X66200D02*
Y32752D01*
X53757Y50000D02*
X53935Y50177D01*
X53541Y50059D02*
X53600Y50000D01*
X53541Y50059D02*
Y50600D01*
X53600Y50000D02*
X53757D01*
X53935Y50177D02*
Y50600D01*
X40340Y58160D02*
X41326Y57174D01*
X30200Y50100D02*
X30368Y49932D01*
X30765D01*
X30200Y50100D02*
Y51300D01*
X38831Y61231D02*
X39472D01*
X25600Y53000D02*
X26065D01*
X40323Y51061D02*
X40342Y51042D01*
X39161Y51061D02*
X40323D01*
X39161D02*
Y51635D01*
X40342Y51042D02*
Y51635D01*
X30765Y43830D02*
X31199D01*
X30765Y47373D02*
X31199D01*
X42201Y44027D02*
X42635D01*
X42201Y47570D02*
X42635D01*
X42400Y52779D02*
Y53065D01*
X42133D02*
X42400D01*
Y53352D01*
Y53065D02*
X42667D01*
X47000Y52158D02*
Y52740D01*
X46458D02*
X47000D01*
X47542D01*
X47000D02*
Y53322D01*
X82600Y39800D02*
Y39200D01*
X83000D01*
X83200D02*
Y39600D01*
X83400Y39800D01*
X83600Y39600D01*
Y39200D01*
Y39500D01*
X83200D01*
X83800Y39800D02*
Y39700D01*
X84000Y39500D01*
X84199Y39700D01*
Y39800D01*
X84000Y39500D02*
Y39200D01*
X84799Y39800D02*
X84399D01*
Y39200D01*
X84799D01*
X84399Y39500D02*
X84599D01*
X84999Y39200D02*
Y39800D01*
X85299D01*
X85399Y39700D01*
Y39500D01*
X85299Y39400D01*
X84999D01*
X85199D02*
X85399Y39200D01*
X86199D02*
X86399D01*
X86299D01*
Y39800D01*
X86199Y39700D01*
D34*
X43500Y31800D02*
Y33000D01*
X43200Y34700D02*
X43900D01*
X44100D02*
Y35400D01*
X44000Y34800D02*
X44700D01*
X40560Y34860D02*
X41940D01*
X41200D02*
Y35600D01*
X40560Y32340D02*
X42040D01*
X41200Y31500D02*
Y32340D01*
X43000Y31800D02*
Y32300D01*
X44000Y32400D02*
Y33000D01*
X45000Y31800D02*
Y32400D01*
X43000D02*
Y33000D01*
X70749Y41249D02*
X71949D01*
X71400Y40700D02*
Y41249D01*
X70749Y42351D02*
X72051D01*
X71400D02*
Y43000D01*
X70749Y52551D02*
X72249D01*
X70749Y51449D02*
X72251D01*
X71400Y50800D02*
Y51449D01*
X43731Y54969D02*
X45068D01*
X44400D02*
Y55800D01*
Y53000D02*
Y53500D01*
X45400Y53000D02*
Y53600D01*
X43400Y53000D02*
Y53600D01*
X56800Y38200D02*
Y38665D01*
X56200Y41935D02*
X56365D01*
X56865Y39400D02*
X58340D01*
X56365Y41935D02*
X56700Y41600D01*
Y39565D02*
Y41600D01*
Y39565D02*
X56865Y39400D01*
X56200Y40800D02*
Y41265D01*
X57200Y41265D02*
X57665D01*
X54635D02*
X55000D01*
X35200Y61300D02*
X35484Y61584D01*
Y61991D01*
X35228Y61328D02*
Y61991D01*
X34972Y61528D02*
X35200Y61300D01*
X34972Y61528D02*
Y61991D01*
X35400Y56200D02*
X35484Y56116D01*
Y55609D02*
Y56116D01*
X30131Y61231D02*
X30728D01*
X31228Y58928D02*
X31400Y59100D01*
X30728Y58928D02*
X31228D01*
X31359Y58672D02*
X31365Y58665D01*
X30728Y58672D02*
X31359D01*
X32157Y54943D02*
Y55609D01*
Y54943D02*
X32300Y54800D01*
X33693Y56093D02*
X33900Y56300D01*
X33693Y55609D02*
Y56093D01*
X33948Y54848D02*
Y55609D01*
X35228Y55172D02*
X35400Y55000D01*
X35228Y55172D02*
Y55609D01*
X34972Y55128D02*
Y55609D01*
X35100Y55000D02*
X35300D01*
X34972Y55128D02*
X35100Y55000D01*
X37787Y56287D02*
X37900Y56400D01*
X37787Y55609D02*
Y56287D01*
X38904Y57904D02*
X39472D01*
X39007Y57393D02*
X39472D01*
X38700Y57700D02*
X38904Y57904D01*
X38700Y57700D02*
X39007Y57393D01*
X38928Y58672D02*
X39472D01*
X39972Y58928D02*
X40100Y58800D01*
X39472Y58928D02*
X39972D01*
X38940Y59440D02*
X39472D01*
X38800Y59300D02*
X38940Y59440D01*
X38800Y59300D02*
X38916Y59184D01*
X39472D01*
X39052Y59952D02*
X39472D01*
X38804Y59696D02*
X39472D01*
X38800Y59700D02*
X39052Y59952D01*
X38800Y59700D02*
X38804Y59696D01*
X39963Y60463D02*
X40100Y60600D01*
X39472Y60463D02*
X39963D01*
X38043Y61543D02*
Y61991D01*
X38000Y61300D02*
X38043Y61543D01*
X36507Y61407D02*
Y61991D01*
X36400Y61300D02*
X36507Y61407D01*
X36252Y62452D02*
X36400Y62600D01*
X36252Y61991D02*
Y62452D01*
X34716Y61991D02*
Y62584D01*
X33693Y62493D02*
X33800Y62600D01*
X33693Y61991D02*
Y62493D01*
X33948Y61348D02*
Y61991D01*
X33900Y61300D02*
X33948Y61348D01*
X32413Y61991D02*
Y62487D01*
X32300Y62600D02*
X32413Y62487D01*
X32157Y61443D02*
Y61991D01*
Y61443D02*
X32300Y61300D01*
X55900Y31700D02*
Y32700D01*
X54000Y31800D02*
X54400D01*
X54000Y32535D02*
X54365D01*
X58160Y31540D02*
X59000D01*
X58240Y34060D02*
X59000D01*
X55631Y34169D02*
X56400D01*
X56300Y34100D02*
X57200D01*
X56400Y34400D02*
Y35020D01*
X37787Y61991D02*
Y62487D01*
X37900Y62600D01*
X26065Y49535D02*
Y50000D01*
X36507Y55609D02*
Y56093D01*
X36300Y56300D02*
X36507Y56093D01*
X37900Y54900D02*
X38043Y55043D01*
Y55609D01*
X36252Y54848D02*
Y55609D01*
Y54848D02*
X36300Y54800D01*
X32413Y55609D02*
Y56187D01*
X32300Y56300D02*
X32413Y56187D01*
D35*
X68500Y42600D02*
X68865D01*
X69935Y48800D02*
X70500D01*
X69935Y50600D02*
X70500D01*
X69935Y47200D02*
X70500D01*
X69935Y45800D02*
X70500D01*
X69635Y42700D02*
X70100D01*
X69535Y42600D02*
X69635Y42700D01*
X67250Y46800D02*
X70900D01*
X66235Y33100D02*
X68200D01*
X68100Y32500D02*
Y33100D01*
X70660Y33200D02*
X71500D01*
X66200Y31900D02*
Y32465D01*
Y33135D02*
Y33900D01*
Y33135D02*
X66235Y33100D01*
X65735Y33135D02*
X66200D01*
X64600Y32400D02*
X65000D01*
X63300D02*
X64500D01*
X63100Y32600D02*
Y33200D01*
X65000Y32400D02*
X65735Y33135D01*
X62600Y32800D02*
Y33200D01*
X62200Y32400D02*
X62600Y32800D01*
X62731Y35168D02*
X64569D01*
X63100Y32600D02*
X63300Y32400D01*
X59735Y43900D02*
X60300D01*
X60900Y46300D02*
X61500D01*
X59735Y45900D02*
X60500D01*
X59735Y48900D02*
X60300D01*
X60900Y48300D02*
X61500D01*
X59735Y49900D02*
X60100D01*
X60700Y49300D02*
X61500D01*
X58700Y50900D02*
X59065D01*
X58700Y48900D02*
X59065D01*
X58700Y44900D02*
X59065D01*
X58700Y43900D02*
X59065D01*
X58700Y46900D02*
X59065D01*
X58700Y45900D02*
X59065D01*
X58700Y47900D02*
X59065D01*
X58700Y49900D02*
X59065D01*
X60800Y45300D02*
X61500D01*
X59735Y44900D02*
X60400D01*
X60800Y45300D01*
X61200Y44800D02*
X61500D01*
X60300Y43900D02*
X61200Y44800D01*
X60500Y45900D02*
X60900Y46300D01*
X59835Y46800D02*
X61500D01*
X59735Y46900D02*
X59835Y46800D01*
X60000Y47800D02*
X61500D01*
X59800Y47900D02*
X59900D01*
X60000Y47800D01*
X60300Y48900D02*
X60900Y48300D01*
X60100Y49900D02*
X60700Y49300D01*
X61200Y49800D02*
X61500D01*
X59800Y50900D02*
X60100D01*
X61200Y49800D01*
X61600Y50300D02*
X62400D01*
X61500Y48800D02*
X62400D01*
X61500Y47300D02*
X62400D01*
X62100Y45800D02*
X62400Y45500D01*
X61500Y45800D02*
X62100D01*
X68965Y50300D02*
X69265Y50600D01*
X67250Y50300D02*
X68965D01*
X69100Y47300D02*
X69200Y47200D01*
X67250Y47300D02*
X69100D01*
X67250Y45800D02*
X69265D01*
X67250Y46300D02*
X70900D01*
X67250Y48300D02*
X70800D01*
X71550Y47550D01*
X73200D01*
X71350Y47050D02*
X72200D01*
X67250Y47800D02*
X70600D01*
X71350Y47050D01*
X67250Y48800D02*
X69265D01*
X67100Y49300D02*
X71000D01*
X71750Y48550D02*
X73200D01*
X71000Y49300D02*
X71750Y48550D01*
X71450Y49800D02*
X72200Y49050D01*
X67250Y49800D02*
X71450D01*
Y45300D02*
X72200Y46050D01*
X67250Y45300D02*
X71450D01*
X72450Y44800D02*
X73200Y45550D01*
X67250Y44800D02*
X72450D01*
X43900Y52440D02*
X44020Y52320D01*
X44660D01*
X44900Y52560D01*
X43900Y52440D02*
Y53000D01*
X44900Y52560D02*
Y52900D01*
D36*
X78000Y63000D02*
D03*
Y32000D02*
D03*
X23800Y62500D02*
D03*
X30000Y32500D02*
D03*
D37*
X49600Y63100D02*
D03*
Y62100D02*
D03*
X72200Y49050D02*
D03*
X73200Y48550D02*
D03*
X72200Y48050D02*
D03*
X73200Y47550D02*
D03*
X72200Y47050D02*
D03*
X73200Y46550D02*
D03*
X72200Y46050D02*
D03*
X73200Y45550D02*
D03*
X44800Y63100D02*
D03*
Y62100D02*
D03*
X47200Y63100D02*
D03*
Y62100D02*
D03*
X42400Y63100D02*
D03*
Y62100D02*
D03*
X23800Y60500D02*
D03*
Y59500D02*
D03*
X74900Y59100D02*
D03*
Y58100D02*
D03*
X70500Y59100D02*
D03*
Y58100D02*
D03*
X66700Y59100D02*
D03*
Y58100D02*
D03*
X62700Y59100D02*
D03*
Y58100D02*
D03*
X58900Y59100D02*
D03*
Y58100D02*
D03*
X55100Y59100D02*
D03*
Y58100D02*
D03*
X66400Y35100D02*
D03*
Y37000D02*
D03*
X60800Y35200D02*
D03*
Y37000D02*
D03*
D38*
X76900Y50390D02*
D03*
Y44210D02*
D03*
D39*
X75700Y45050D02*
D03*
Y49550D02*
D03*
D40*
X21550Y51160D02*
D03*
Y31740D02*
D03*
D41*
Y49700D02*
D03*
X22300Y49200D02*
D03*
X21550Y48700D02*
D03*
X22300Y48200D02*
D03*
X21550Y47700D02*
D03*
X22300Y47200D02*
D03*
X21550Y46700D02*
D03*
X22300Y46200D02*
D03*
Y45200D02*
D03*
Y44200D02*
D03*
X21550Y43700D02*
D03*
X22300Y43200D02*
D03*
X21550Y42700D02*
D03*
X22300Y42200D02*
D03*
X21550Y41700D02*
D03*
X22300Y41200D02*
D03*
X21550Y40700D02*
D03*
X22300Y40200D02*
D03*
X21550Y39700D02*
D03*
X22300Y39200D02*
D03*
X21550Y38700D02*
D03*
X22300Y38200D02*
D03*
X21550Y37700D02*
D03*
X22300Y37200D02*
D03*
X21550Y36700D02*
D03*
X22300Y36200D02*
D03*
X21550Y35700D02*
D03*
X22300Y35200D02*
D03*
X21550Y34700D02*
D03*
X22300Y34200D02*
D03*
X21550Y33700D02*
D03*
X22300Y33200D02*
D03*
X23050Y49700D02*
D03*
X23800Y49200D02*
D03*
X23050Y48700D02*
D03*
X23800Y48200D02*
D03*
X23050Y47700D02*
D03*
X23800Y47200D02*
D03*
X23050Y46700D02*
D03*
X23800Y46200D02*
D03*
X23050Y45700D02*
D03*
X23800Y45200D02*
D03*
X23050Y44700D02*
D03*
X23800Y44200D02*
D03*
X23050Y43700D02*
D03*
X23800Y43200D02*
D03*
X23050Y42700D02*
D03*
X23800Y42200D02*
D03*
X23050Y41700D02*
D03*
X23800Y41200D02*
D03*
X23050Y40700D02*
D03*
X23800Y40200D02*
D03*
X23050Y39700D02*
D03*
X23800Y39200D02*
D03*
X23050Y38700D02*
D03*
X23800Y38200D02*
D03*
X23050Y37700D02*
D03*
X23800Y37200D02*
D03*
X23050Y36700D02*
D03*
X23800Y36200D02*
D03*
X23050Y35700D02*
D03*
X23800Y35200D02*
D03*
X23050Y34700D02*
D03*
X23800Y34200D02*
D03*
X23050Y33700D02*
D03*
X23800Y33200D02*
D03*
X21550Y45700D02*
D03*
Y44700D02*
D03*
D42*
X43500Y33000D02*
D03*
X43200Y34700D02*
D03*
X44100Y35400D02*
D03*
X44700Y34800D02*
D03*
X40560Y34860D02*
D03*
X41200Y35600D02*
D03*
X41940Y34860D02*
D03*
X40560Y32340D02*
D03*
X41200Y31500D02*
D03*
X42040Y32340D02*
D03*
X43000Y31800D02*
D03*
X43500D02*
D03*
X44000Y33000D02*
D03*
X45000Y31800D02*
D03*
X43000Y33000D02*
D03*
X45300Y37500D02*
D03*
X46900Y40900D02*
D03*
X72165Y58935D02*
D03*
X46700Y39400D02*
D03*
X68135Y58935D02*
D03*
X68500Y42600D02*
D03*
X70100Y42700D02*
D03*
X70900Y46800D02*
D03*
X49000Y57900D02*
D03*
X71400Y40700D02*
D03*
X70749Y41249D02*
D03*
X71949D02*
D03*
X71400Y43000D02*
D03*
X70749Y42351D02*
D03*
X72051D02*
D03*
X70749Y52551D02*
D03*
X72249D02*
D03*
X72251Y51449D02*
D03*
X71400Y50800D02*
D03*
X70749Y51449D02*
D03*
X48665Y59965D02*
D03*
X53600Y50000D02*
D03*
X43300Y58500D02*
D03*
X44365Y59035D02*
D03*
X46365Y59065D02*
D03*
X68100Y32500D02*
D03*
X57540Y36740D02*
D03*
X43731Y54969D02*
D03*
X44400Y55800D02*
D03*
X45068Y54969D02*
D03*
X44400Y53500D02*
D03*
X45400Y53600D02*
D03*
X43400D02*
D03*
X33500Y48600D02*
D03*
X33800Y48900D02*
D03*
X33400Y46000D02*
D03*
X33200Y43200D02*
D03*
X32900Y42900D02*
D03*
Y42500D02*
D03*
X33100Y41600D02*
D03*
X32500Y41300D02*
D03*
X32900Y40900D02*
D03*
X58600Y40800D02*
D03*
X56800Y38200D02*
D03*
X56200Y40800D02*
D03*
X57665Y41265D02*
D03*
X54600Y41300D02*
D03*
X56595Y42805D02*
D03*
X55600Y43200D02*
D03*
X55300Y42700D02*
D03*
X55400Y42000D02*
D03*
X50600Y38200D02*
D03*
X55200D02*
D03*
X46400Y51200D02*
D03*
X44100Y50600D02*
D03*
Y50000D02*
D03*
X46100Y49800D02*
D03*
X45800Y41000D02*
D03*
X43900Y41300D02*
D03*
Y42000D02*
D03*
X45700Y42100D02*
D03*
X37400Y34200D02*
D03*
Y34700D02*
D03*
Y35200D02*
D03*
X37500Y35700D02*
D03*
X39700Y40400D02*
D03*
X37400Y36200D02*
D03*
Y36700D02*
D03*
Y37200D02*
D03*
Y37700D02*
D03*
X37389Y40311D02*
D03*
X33300Y46400D02*
D03*
X33800Y47200D02*
D03*
X33100Y45600D02*
D03*
X32800Y45300D02*
D03*
X33100Y44200D02*
D03*
X33000Y40500D02*
D03*
X32500Y38700D02*
D03*
X33200Y39100D02*
D03*
X36011Y39211D02*
D03*
X34900Y39100D02*
D03*
X50500Y43300D02*
D03*
X37400Y56900D02*
D03*
X36300Y56800D02*
D03*
X35400Y56700D02*
D03*
X34100Y57200D02*
D03*
X34300Y56600D02*
D03*
X33000Y56900D02*
D03*
X32600Y56700D02*
D03*
X38400Y58400D02*
D03*
X39400Y55500D02*
D03*
X38000Y58600D02*
D03*
X39700Y53000D02*
D03*
X39200D02*
D03*
X38200Y57300D02*
D03*
X38500Y56500D02*
D03*
X39200Y52400D02*
D03*
X38400Y54300D02*
D03*
X37000Y56500D02*
D03*
X37700Y52900D02*
D03*
X37500Y53500D02*
D03*
X36300Y53600D02*
D03*
X34900Y56700D02*
D03*
X35300Y54500D02*
D03*
X35500Y52400D02*
D03*
X35400Y53000D02*
D03*
X33300Y56600D02*
D03*
X34800Y53600D02*
D03*
X34700Y52800D02*
D03*
X32800Y53900D02*
D03*
X31700Y56700D02*
D03*
X32200Y53900D02*
D03*
X35200Y59600D02*
D03*
X33900D02*
D03*
X30131Y61231D02*
D03*
X31400Y59100D02*
D03*
X31365Y58665D02*
D03*
X32300Y54800D02*
D03*
Y56300D02*
D03*
X33900D02*
D03*
X33948Y54848D02*
D03*
X35400Y55000D02*
D03*
Y56200D02*
D03*
X36300Y56300D02*
D03*
Y54800D02*
D03*
X37900Y56400D02*
D03*
Y54900D02*
D03*
X38700Y57700D02*
D03*
X38928Y58672D02*
D03*
X40100Y58800D02*
D03*
X38800Y59300D02*
D03*
Y59700D02*
D03*
X40100Y60600D02*
D03*
X37900Y62600D02*
D03*
X38000Y61300D02*
D03*
X36400D02*
D03*
Y62600D02*
D03*
X34716Y62584D02*
D03*
X35200Y61300D02*
D03*
X33800Y62600D02*
D03*
X33900Y61300D02*
D03*
X32300Y59700D02*
D03*
Y62600D02*
D03*
Y61300D02*
D03*
X43200Y49600D02*
D03*
X42000Y46200D02*
D03*
Y45200D02*
D03*
Y43100D02*
D03*
X43200Y42000D02*
D03*
X36405Y39205D02*
D03*
X34239Y39239D02*
D03*
X31680Y40280D02*
D03*
X31361Y43239D02*
D03*
X30200Y42000D02*
D03*
Y43700D02*
D03*
X31311Y45011D02*
D03*
X31400Y48300D02*
D03*
X31500Y47900D02*
D03*
X30200Y49400D02*
D03*
X32800Y51000D02*
D03*
X33846Y51054D02*
D03*
X36011Y51011D02*
D03*
X36800Y51000D02*
D03*
X39161Y51061D02*
D03*
X41720Y51080D02*
D03*
X32900Y48400D02*
D03*
Y47400D02*
D03*
Y46400D02*
D03*
Y44800D02*
D03*
Y43800D02*
D03*
Y42000D02*
D03*
X37800Y41700D02*
D03*
X39200D02*
D03*
X40500Y42000D02*
D03*
Y43000D02*
D03*
Y44000D02*
D03*
Y45000D02*
D03*
Y46400D02*
D03*
Y47400D02*
D03*
Y48400D02*
D03*
Y49600D02*
D03*
X40000Y49700D02*
D03*
X38200Y49500D02*
D03*
X37200D02*
D03*
X35200D02*
D03*
X34200D02*
D03*
X32365Y50265D02*
D03*
X31320Y50720D02*
D03*
X32465Y50935D02*
D03*
X31373Y47373D02*
D03*
X31500Y46600D02*
D03*
X31417Y44617D02*
D03*
X31370Y43830D02*
D03*
X31342Y42058D02*
D03*
X37783Y40283D02*
D03*
X38964Y40364D02*
D03*
X41129Y40371D02*
D03*
X42635Y40435D02*
D03*
X41900Y41000D02*
D03*
X42042Y42058D02*
D03*
X41800Y43400D02*
D03*
X41927Y44027D02*
D03*
X41900Y44800D02*
D03*
X41983Y46783D02*
D03*
X41900Y47400D02*
D03*
Y48000D02*
D03*
X42061Y49539D02*
D03*
X40600Y50900D02*
D03*
X38500Y51000D02*
D03*
X37200D02*
D03*
X35617Y51017D02*
D03*
X34436Y51036D02*
D03*
X50200Y48400D02*
D03*
X52000Y48500D02*
D03*
X50500Y50000D02*
D03*
Y51200D02*
D03*
X51300D02*
D03*
X51376Y49976D02*
D03*
X52557Y49943D02*
D03*
X52100Y51200D02*
D03*
X52000Y49900D02*
D03*
X53000Y51200D02*
D03*
X53200Y49900D02*
D03*
X54131Y50031D02*
D03*
X54500Y49900D02*
D03*
X55200Y51200D02*
D03*
X54000Y48500D02*
D03*
X55000D02*
D03*
X55300Y50000D02*
D03*
X56100D02*
D03*
X56335Y49535D02*
D03*
X57600Y48700D02*
D03*
X56450Y48750D02*
D03*
X55565Y47935D02*
D03*
X56400Y47400D02*
D03*
X57600Y47600D02*
D03*
X57500Y46700D02*
D03*
X56300Y46600D02*
D03*
X57600Y45200D02*
D03*
X56300Y45800D02*
D03*
X56387Y44813D02*
D03*
X55706Y44594D02*
D03*
X54400Y43400D02*
D03*
X54300Y44600D02*
D03*
X53800Y46200D02*
D03*
X53738Y44538D02*
D03*
X53500Y43300D02*
D03*
X52300Y43400D02*
D03*
Y44600D02*
D03*
X51200Y45900D02*
D03*
X51300Y43400D02*
D03*
X51200Y44500D02*
D03*
X50000Y46000D02*
D03*
X50400Y44600D02*
D03*
X49604Y44496D02*
D03*
X49700Y43400D02*
D03*
X48400Y44600D02*
D03*
X47300Y44900D02*
D03*
X47403Y45797D02*
D03*
X48600Y45800D02*
D03*
X49400Y46400D02*
D03*
X47400Y46900D02*
D03*
X48600Y46800D02*
D03*
X47400Y47900D02*
D03*
Y49100D02*
D03*
X48600Y47800D02*
D03*
X49465Y48465D02*
D03*
X48543Y49143D02*
D03*
X49604Y51196D02*
D03*
X49600Y49800D02*
D03*
X49000Y49900D02*
D03*
X49013Y51187D02*
D03*
X58700Y43900D02*
D03*
Y44900D02*
D03*
Y45900D02*
D03*
Y46900D02*
D03*
Y47900D02*
D03*
Y48900D02*
D03*
Y49900D02*
D03*
Y50900D02*
D03*
X60100Y44400D02*
D03*
Y46400D02*
D03*
Y48400D02*
D03*
Y50400D02*
D03*
X70900Y46300D02*
D03*
X40600Y40500D02*
D03*
X51100Y40900D02*
D03*
X51700Y42100D02*
D03*
X49300Y40300D02*
D03*
X52700Y45400D02*
D03*
X51551Y32151D02*
D03*
X49000Y54900D02*
D03*
X52165Y58935D02*
D03*
X29800Y38400D02*
D03*
X56265Y58935D02*
D03*
X30400Y38100D02*
D03*
X60265Y58935D02*
D03*
X31300Y36900D02*
D03*
X32600Y39100D02*
D03*
X63965Y58935D02*
D03*
X30000Y40400D02*
D03*
X24900Y41100D02*
D03*
X25454Y54746D02*
D03*
X23000Y57000D02*
D03*
X21400Y62900D02*
D03*
X43600Y39300D02*
D03*
X39100Y38900D02*
D03*
X42600Y39600D02*
D03*
X46600Y41100D02*
D03*
Y50500D02*
D03*
X57800Y32200D02*
D03*
X55000D02*
D03*
X55400Y31600D02*
D03*
X56400Y32700D02*
D03*
X55900D02*
D03*
Y31700D02*
D03*
X54400Y31800D02*
D03*
X54365Y32535D02*
D03*
X58160Y31540D02*
D03*
X58240Y34060D02*
D03*
X57200Y34100D02*
D03*
X55631Y34169D02*
D03*
X56400Y35020D02*
D03*
X38831Y61231D02*
D03*
X30200Y51300D02*
D03*
X40500Y55700D02*
D03*
X40175Y56625D02*
D03*
X33200Y50100D02*
D03*
X31400Y49500D02*
D03*
X30500Y52400D02*
D03*
X38800Y60200D02*
D03*
Y60900D02*
D03*
X33300Y49400D02*
D03*
X29000Y46600D02*
D03*
X26065Y49535D02*
D03*
X26600Y49300D02*
D03*
X24700Y49200D02*
D03*
X24300Y47000D02*
D03*
X30200Y40800D02*
D03*
X26800Y55000D02*
D03*
X26065Y50565D02*
D03*
X24200Y50500D02*
D03*
X26065Y51535D02*
D03*
X24600Y51200D02*
D03*
X43200Y50900D02*
D03*
X43600Y50700D02*
D03*
X27000Y54300D02*
D03*
X44100Y48300D02*
D03*
X41600Y49000D02*
D03*
X36000Y50600D02*
D03*
X33500Y50500D02*
D03*
X31300Y51300D02*
D03*
X26800Y51600D02*
D03*
X23400Y51900D02*
D03*
X43400Y46600D02*
D03*
X25600Y53000D02*
D03*
X54800Y46000D02*
D03*
D43*
X71500Y33200D02*
D03*
X66200Y31900D02*
D03*
Y33900D02*
D03*
X63600Y33800D02*
D03*
X62731Y35168D02*
D03*
X64569D02*
D03*
X64500Y32400D02*
D03*
X62200D02*
D03*
D44*
X62165Y44865D02*
D03*
X62135Y46465D02*
D03*
Y48065D02*
D03*
X62165Y49665D02*
D03*
X62400Y50300D02*
D03*
Y48800D02*
D03*
Y47300D02*
D03*
Y45500D02*
D03*
X70500Y50600D02*
D03*
Y45800D02*
D03*
Y47200D02*
D03*
Y48800D02*
D03*
M02*
